<svg xmlns="http://www.w3.org/2000/svg" width="13" height="14" viewBox="0 0 13 14" fill="none">
  <path d="M6.28397 0H5.20703V1.07694H6.28397V0Z" fill="#F7AA06"/>
  <path d="M7.36112 0H6.28418V1.07694H7.36112V0Z" fill="#F7AA06"/>
  <path d="M8.43827 0H7.36133V1.07694H8.43827V0Z" fill="#D1740C"/>
  <path d="M4.13065 1.07715H3.05371V2.15409H4.13065V1.07715Z" fill="#F7AA06"/>
  <path d="M5.20682 1.07715H4.12988V2.15409H5.20682V1.07715Z" fill="#F7AA06"/>
  <path d="M6.28397 1.07715H5.20703V2.15409H6.28397V1.07715Z" fill="#FEFF71"/>
  <path d="M7.36112 1.07715H6.28418V2.15409H7.36112V1.07715Z" fill="#FEE238"/>
  <path d="M8.43827 1.07715H7.36133V2.15409H8.43827V1.07715Z" fill="#F7AA06"/>
  <path d="M9.51444 1.07715H8.4375V2.15409H9.51444V1.07715Z" fill="#FFED8D"/>
  <path d="M10.5916 1.07715H9.51465V2.15409H10.5916V1.07715Z" fill="#D1740C"/>
  <path d="M3.0535 2.1543H1.97656V3.23124H3.0535V2.1543Z" fill="#F7AA06"/>
  <path d="M4.13065 2.1543H3.05371V3.23124H4.13065V2.1543Z" fill="#FEFF71"/>
  <path d="M5.20682 2.1543H4.12988V3.23124H5.20682V2.1543Z" fill="#FECB38"/>
  <path d="M6.28397 2.1543H5.20703V3.23124H6.28397V2.1543Z" fill="#FEE238"/>
  <path d="M7.36112 2.1543H6.28418V3.23124H7.36112V2.1543Z" fill="#FEE238"/>
  <path d="M8.43827 2.1543H7.36133V3.23124H8.43827V2.1543Z" fill="#FFED8D"/>
  <path d="M9.51444 2.1543H8.4375V3.23124H9.51444V2.1543Z" fill="#FFED8D"/>
  <path d="M10.5916 2.1543H9.51465V3.23124H10.5916V2.1543Z" fill="#FFED8D"/>
  <path d="M11.6687 2.1543H10.5918V3.23124H11.6687V2.1543Z" fill="#D1740C"/>
  <path d="M3.0535 3.23145H1.97656V4.30839H3.0535V3.23145Z" fill="#F7AA06"/>
  <path d="M4.13065 3.23145H3.05371V4.30839H4.13065V3.23145Z" fill="#FECB38"/>
  <path d="M5.20682 3.23145H4.12988V4.30839H5.20682V3.23145Z" fill="#FEE238"/>
  <path d="M6.28397 3.23145H5.20703V4.30839H6.28397V3.23145Z" fill="#F7AA06"/>
  <path d="M7.36112 3.23145H6.28418V4.30839H7.36112V3.23145Z" fill="#D1740C"/>
  <path d="M8.43827 3.23145H7.36133V4.30839H8.43827V3.23145Z" fill="#FEE238"/>
  <path d="M9.51444 3.23145H8.4375V4.30839H9.51444V3.23145Z" fill="#FFED8D"/>
  <path d="M10.5916 3.23145H9.51465V4.30839H10.5916V3.23145Z" fill="#FFED8D"/>
  <path d="M11.6687 3.23145H10.5918V4.30839H11.6687V3.23145Z" fill="#D1740C"/>
  <path d="M1.97635 4.30762H0.899414V5.38456H1.97635V4.30762Z" fill="#F7AA06"/>
  <path d="M3.0535 4.30762H1.97656V5.38456H3.0535V4.30762Z" fill="#FEFF71"/>
  <path d="M4.13065 4.30762H3.05371V5.38456H4.13065V4.30762Z" fill="#FEE238"/>
  <path d="M5.20682 4.30762H4.12988V5.38456H5.20682V4.30762Z" fill="#D1740C"/>
  <path d="M6.28397 4.30762H5.20703V5.38456H6.28397V4.30762Z" fill="#FEFF71"/>
  <path d="M7.36112 4.30762H6.28418V5.38456H7.36112V4.30762Z" fill="#FEFF71"/>
  <path d="M8.43827 4.30762H7.36133V5.38456H8.43827V4.30762Z" fill="#D1740C"/>
  <path d="M9.51444 4.30762H8.4375V5.38456H9.51444V4.30762Z" fill="#FFED8D"/>
  <path d="M10.5916 4.30762H9.51465V5.38456H10.5916V4.30762Z" fill="#FEE238"/>
  <path d="M11.6687 4.30762H10.5918V5.38456H11.6687V4.30762Z" fill="#FEE238"/>
  <path d="M12.7459 4.30762H11.6689V5.38456H12.7459V4.30762Z" fill="#D1740C"/>
  <path d="M1.97635 5.38477H0.899414V6.46171H1.97635V5.38477Z" fill="#F7AA06"/>
  <path d="M3.0535 5.38477H1.97656V6.46171H3.0535V5.38477Z" fill="#FEE238"/>
  <path d="M4.13065 5.38477H3.05371V6.46171H4.13065V5.38477Z" fill="#FFED8D"/>
  <path d="M5.20682 5.38477H4.12988V6.46171H5.20682V5.38477Z" fill="#F7AA06"/>
  <path d="M6.28397 5.38477H5.20703V6.46171H6.28397V5.38477Z" fill="#FFED8D"/>
  <path d="M7.36112 5.38477H6.28418V6.46171H7.36112V5.38477Z" fill="#FFED8D"/>
  <path d="M8.43827 5.38477H7.36133V6.46171H8.43827V5.38477Z" fill="#D1740C"/>
  <path d="M9.51444 5.38477H8.4375V6.46171H9.51444V5.38477Z" fill="#FECB38"/>
  <path d="M10.5916 5.38477H9.51465V6.46171H10.5916V5.38477Z" fill="#FEE238"/>
  <path d="M11.6687 5.38477H10.5918V6.46171H11.6687V5.38477Z" fill="#FEE238"/>
  <path d="M12.7459 5.38477H11.6689V6.46171H12.7459V5.38477Z" fill="#D1740C"/>
  <path d="M1.97635 6.46191H0.899414V7.53885H1.97635V6.46191Z" fill="#F7AA06"/>
  <path d="M3.0535 6.46191H1.97656V7.53885H3.0535V6.46191Z" fill="#FFED8D"/>
  <path d="M4.13065 6.46191H3.05371V7.53885H4.13065V6.46191Z" fill="#FFED8D"/>
  <path d="M5.20682 6.46191H4.12988V7.53885H5.20682V6.46191Z" fill="#F7AA06"/>
  <path d="M6.28397 6.46191H5.20703V7.53885H6.28397V6.46191Z" fill="#FFED8D"/>
  <path d="M7.36112 6.46191H6.28418V7.53885H7.36112V6.46191Z" fill="#FFED8D"/>
  <path d="M8.43827 6.46191H7.36133V7.53885H8.43827V6.46191Z" fill="#D1740C"/>
  <path d="M9.51444 6.46191H8.4375V7.53885H9.51444V6.46191Z" fill="#FECB38"/>
  <path d="M10.5916 6.46191H9.51465V7.53885H10.5916V6.46191Z" fill="#FEE238"/>
  <path d="M11.6687 6.46191H10.5918V7.53885H11.6687V6.46191Z" fill="#FEE238"/>
  <path d="M12.7459 6.46191H11.6689V7.53885H12.7459V6.46191Z" fill="#D1740C"/>
  <path d="M1.97635 7.53906H0.899414V8.616H1.97635V7.53906Z" fill="#FFED8D"/>
  <path d="M3.0535 7.53906H1.97656V8.616H3.0535V7.53906Z" fill="#FFED8D"/>
  <path d="M4.13065 7.53906H3.05371V8.616H4.13065V7.53906Z" fill="#FFED8D"/>
  <path d="M5.20682 7.53906H4.12988V8.616H5.20682V7.53906Z" fill="#F7AA06"/>
  <path d="M6.28397 7.53906H5.20703V8.616H6.28397V7.53906Z" fill="#FFED8D"/>
  <path d="M7.36112 7.53906H6.28418V8.616H7.36112V7.53906Z" fill="#FFED8D"/>
  <path d="M8.43827 7.53906H7.36133V8.616H8.43827V7.53906Z" fill="#D1740C"/>
  <path d="M9.51444 7.53906H8.4375V8.616H9.51444V7.53906Z" fill="#FECB38"/>
  <path d="M10.5916 7.53906H9.51465V8.616H10.5916V7.53906Z" fill="#FEE238"/>
  <path d="M11.6687 7.53906H10.5918V8.616H11.6687V7.53906Z" fill="#FEE238"/>
  <path d="M12.7459 7.53906H11.6689V8.616H12.7459V7.53906Z" fill="#D1740C"/>
  <path d="M1.97635 8.61523H0.899414V9.69218H1.97635V8.61523Z" fill="#FFED8D"/>
  <path d="M3.0535 8.61523H1.97656V9.69218H3.0535V8.61523Z" fill="#FFED8D"/>
  <path d="M4.13065 8.61523H3.05371V9.69218H4.13065V8.61523Z" fill="#FFED8D"/>
  <path d="M5.20682 8.61523H4.12988V9.69218H5.20682V8.61523Z" fill="#D1740C"/>
  <path d="M6.28397 8.61523H5.20703V9.69218H6.28397V8.61523Z" fill="#FFED8D"/>
  <path d="M7.36112 8.61523H6.28418V9.69218H7.36112V8.61523Z" fill="#FEFF71"/>
  <path d="M8.43827 8.61523H7.36133V9.69218H8.43827V8.61523Z" fill="#D1740C"/>
  <path d="M9.51444 8.61523H8.4375V9.69218H9.51444V8.61523Z" fill="#FECB38"/>
  <path d="M10.5916 8.61523H9.51465V9.69218H10.5916V8.61523Z" fill="#FEE238"/>
  <path d="M11.6687 8.61523H10.5918V9.69218H11.6687V8.61523Z" fill="#FEE238"/>
  <path d="M12.7459 8.61523H11.6689V9.69218H12.7459V8.61523Z" fill="#D1740C"/>
  <path d="M3.0535 9.69238H1.97656V10.7693H3.0535V9.69238Z" fill="#F7AA06"/>
  <path d="M4.13065 9.69238H3.05371V10.7693H4.13065V9.69238Z" fill="#FEE238"/>
  <path d="M5.20682 9.69238H4.12988V10.7693H5.20682V9.69238Z" fill="#FECB38"/>
  <path d="M6.28397 9.69238H5.20703V10.7693H6.28397V9.69238Z" fill="#F7AA06"/>
  <path d="M7.36112 9.69238H6.28418V10.7693H7.36112V9.69238Z" fill="#D1740C"/>
  <path d="M8.43827 9.69238H7.36133V10.7693H8.43827V9.69238Z" fill="#FECB38"/>
  <path d="M9.51444 9.69238H8.4375V10.7693H9.51444V9.69238Z" fill="#FEE238"/>
  <path d="M10.5916 9.69238H9.51465V10.7693H10.5916V9.69238Z" fill="#FEE238"/>
  <path d="M11.6687 9.69238H10.5918V10.7693H11.6687V9.69238Z" fill="#D1740C"/>
  <path d="M3.0535 10.7686H1.97656V11.8455H3.0535V10.7686Z" fill="#F7AA06"/>
  <path d="M4.13065 10.7686H3.05371V11.8455H4.13065V10.7686Z" fill="#FEE238"/>
  <path d="M5.20682 10.7686H4.12988V11.8455H5.20682V10.7686Z" fill="#FEE238"/>
  <path d="M6.28397 10.7686H5.20703V11.8455H6.28397V10.7686Z" fill="#FECB38"/>
  <path d="M7.36112 10.7686H6.28418V11.8455H7.36112V10.7686Z" fill="#FECB38"/>
  <path d="M8.43827 10.7686H7.36133V11.8455H8.43827V10.7686Z" fill="#FEE238"/>
  <path d="M9.51444 10.7686H8.4375V11.8455H9.51444V10.7686Z" fill="#FEE238"/>
  <path d="M10.5916 10.7686H9.51465V11.8455H10.5916V10.7686Z" fill="#FEE238"/>
  <path d="M11.6687 10.7686H10.5918V11.8455H11.6687V10.7686Z" fill="#D1740C"/>
  <path d="M4.13065 11.8457H3.05371V12.9226H4.13065V11.8457Z" fill="#F7AA06"/>
  <path d="M5.20682 11.8457H4.12988V12.9226H5.20682V11.8457Z" fill="#F7AA06"/>
  <path d="M6.28397 11.8457H5.20703V12.9226H6.28397V11.8457Z" fill="#FEE238"/>
  <path d="M7.36112 11.8457H6.28418V12.9226H7.36112V11.8457Z" fill="#FEE238"/>
  <path d="M8.43827 11.8457H7.36133V12.9226H8.43827V11.8457Z" fill="#D1740C"/>
  <path d="M9.51444 11.8457H8.4375V12.9226H9.51444V11.8457Z" fill="#D1740C"/>
  <path d="M10.5916 11.8457H9.51465V12.9226H10.5916V11.8457Z" fill="#D1740C"/>
  <path d="M6.28397 12.9238H5.20703V14.0008H6.28397V12.9238Z" fill="#F7AA06"/>
  <path d="M7.36112 12.9238H6.28418V14.0008H7.36112V12.9238Z" fill="#F7AA06"/>
  <path d="M8.43827 12.9238H7.36133V14.0008H8.43827V12.9238Z" fill="#D1740C"/>
</svg>