<svg xmlns="http://www.w3.org/2000/svg" width="104" height="27" viewBox="0 0 104 27" fill="none">
  <rect x="-96" y="1" width="200" height="25" fill="#2648EF"/>
  <path d="M-96 1H104" stroke="black"/>
  <path d="M-96 2.4707H104" stroke="black"/>
  <path d="M-96 3.94141H104" stroke="black"/>
  <path d="M-96 5.41211H104" stroke="black"/>
  <path d="M-96 6.88281H104" stroke="black"/>
  <path d="M-96 8.35254H104" stroke="black"/>
  <path d="M-96 9.82324H104" stroke="black"/>
  <path d="M-96 11.2939H104" stroke="black"/>
  <path d="M-96 12.7646H104" stroke="black"/>
  <path d="M-96 14.2354H104" stroke="black"/>
  <path d="M-96 15.7061H104" stroke="black"/>
  <path d="M-96 17.1768H104" stroke="black"/>
  <path d="M-96 18.6475H104" stroke="black"/>
  <path d="M-96 20.1172H104" stroke="black"/>
  <path d="M-96 21.5879H104" stroke="black"/>
  <path d="M-96 23.0586H104" stroke="black"/>
  <path d="M-96 24.5293H104" stroke="black"/>
  <path d="M-96 26H104" stroke="black"/>
</svg>