<svg xmlns="http://www.w3.org/2000/svg" width="26" height="26" viewBox="0 0 26 26" fill="none">
  <path fill-rule="evenodd" clip-rule="evenodd" d="M19 9.06703L19 7L16.8572 7L16.8572 9.06703L19 9.06703ZM10.4286 9.06693L10.4286 7L8.28583 7L8.28583 9.06703L10.4273 9.06703L10.4273 11.134L12.5701 11.134L12.5701 9.06693L10.4286 9.06693ZM16.8566 9.06693L16.8566 11.134L14.7138 11.134L14.7138 9.06693L16.8566 9.06693ZM14.7148 11.1343L14.7148 13.2013L12.572 13.2013L12.572 11.1343L14.7148 11.1343ZM19 15.3655L19 13.2985L16.8572 13.2985L16.8572 15.3655L19 15.3655ZM10.4286 15.3648L10.4286 13.2978L8.28583 13.2978L8.28583 15.3648L10.4286 15.3648ZM16.8566 15.3651L16.8566 17.4322L14.7148 17.4322L14.7148 19.4991L12.572 19.4991L12.572 17.432L14.7138 17.432L14.7138 15.3651L16.8566 15.3651ZM12.5713 17.4322L12.5713 15.3651L10.4285 15.3651L10.4285 17.4322L12.5713 17.4322Z" fill="white" fill-opacity="0.7"/>
</svg>