<svg xmlns="http://www.w3.org/2000/svg" width="14" height="10" viewBox="0 0 14 10" fill="none">
  <path fill-rule="evenodd" clip-rule="evenodd" d="M12 0H14V2H12V0ZM12 7.99999H14V9.99998H12V7.99999ZM12 2.00001H9.99997V4H12V2.00001ZM9.99997 6.00001H12V8.00001H9.99997V6.00001ZM9.99985 3.99998H7.99986V5.99998H9.99985V3.99998ZM4.71842 0H6.71842V2H4.71842V0ZM4.71855 7.99999H6.71855V9.99998H4.71855V7.99999ZM4.71843 2.00001H2.71843V4H4.71843V2.00001ZM2.71843 6.00001H4.71843V8.00001H2.71843V6.00001ZM2.7184 3.99998H0.718405V5.99998H2.7184V3.99998Z" fill="currentColor" />
</svg>