<svg xmlns="http://www.w3.org/2000/svg" width="14" height="10" viewBox="0 0 14 10" fill="none">
  <path fill-rule="evenodd" clip-rule="evenodd" d="M2.00002 0H2.11421e-05V2H2.00002V0ZM2 7.99999H0V9.99998H2V7.99999ZM2.00003 2.00001H4.00003V4H2.00003V2.00001ZM4.00003 6.00001H2.00003V8.00001H4.00003V6.00001ZM4.00015 3.99998H6.00014V5.99998H4.00015V3.99998ZM9.28158 0H7.28158V2H9.28158V0ZM9.28145 7.99999H7.28145V9.99998H9.28145V7.99999ZM9.28157 2.00001H11.2816V4H9.28157V2.00001ZM11.2816 6.00001H9.28157V8.00001H11.2816V6.00001ZM11.2816 3.99998H13.2816V5.99998H11.2816V3.99998Z" fill="currentColor"/>
</svg>