<svg width="11" height="12" viewBox="0 0 11 12" fill="none" xmlns="http://www.w3.org/2000/svg">
<path id="Union" fill-rule="evenodd" clip-rule="evenodd" d="M9.54504 10.0062L9.54904 10.0131L6.95096 11.5131L6.94697 11.5062L6.94291 11.4991L6.9388 11.492L6.93462 11.4848L6.93039 11.4775L6.9261 11.47L6.92175 11.4625L6.91735 11.4549L6.91288 11.4471L6.90836 11.4393L6.90378 11.4314L6.89915 11.4233L6.89445 11.4152L6.8897 11.407L6.88489 11.3987L6.88003 11.3902L6.87511 11.3817L6.87013 11.3731L6.8651 11.3644L6.86001 11.3556L6.85487 11.3467L6.84967 11.3377L6.84442 11.3286L6.83911 11.3194L6.83375 11.3101L6.82833 11.3007L6.82285 11.2912L6.81733 11.2816L6.81175 11.272L6.80611 11.2622L6.80043 11.2524L6.79468 11.2424L6.78889 11.2324L6.78304 11.2222L6.77714 11.212L6.77119 11.2017L6.76518 11.1913L6.75912 11.1808L6.75301 11.1702L6.74685 11.1596L6.74064 11.1488L6.73437 11.138L6.72806 11.127L6.72169 11.116L6.71527 11.1049L6.7088 11.0937L6.70228 11.0824L6.69571 11.071L6.68909 11.0595L6.68242 11.048L6.6757 11.0363L6.66893 11.0246L6.66212 11.0128L6.65525 11.0009L6.64833 10.9889L6.64137 10.9769L6.63435 10.9647L6.62729 10.9525L6.62018 10.9402L6.61302 10.9278L6.60581 10.9153L6.59856 10.9027L6.59126 10.8901L6.58391 10.8773L6.57651 10.8645L6.56907 10.8516L6.56158 10.8387L6.55405 10.8256L6.54646 10.8125L6.53884 10.7993L6.53116 10.786L6.52344 10.7726L6.51568 10.7592L6.50787 10.7456L6.50001 10.732L6.49211 10.7183L6.48416 10.7046L6.47617 10.6907L6.46814 10.6768L6.46006 10.6628L6.45194 10.6488L6.44377 10.6346L6.43556 10.6204L6.42731 10.6061L6.41901 10.5917L6.41068 10.5773L6.40229 10.5628L6.39387 10.5482L6.3854 10.5335L6.37689 10.5188L6.36834 10.504L6.35975 10.4891L6.35111 10.4741L6.34244 10.4591L6.33372 10.444L6.32496 10.4288L6.31616 10.4136L6.30732 10.3983L6.29844 10.3829L6.28952 10.3674L6.28056 10.3519L6.27156 10.3363L6.26252 10.3207L6.25344 10.3049L6.24432 10.2891L6.23516 10.2733L6.22596 10.2574L6.21673 10.2414L6.20745 10.2253L6.19814 10.2092L6.18879 10.193L6.1794 10.1767L6.16997 10.1604L6.1605 10.144L6.151 10.1275L6.14146 10.111L6.13189 10.0944L6.12227 10.0778L6.11262 10.061L6.10294 10.0443L6.09321 10.0274L6.08346 10.0105L6.07366 9.99356L6.06383 9.97654L6.05397 9.95945L6.04407 9.9423L6.03413 9.92509L6.02416 9.90782L6.01415 9.89049L6.00411 9.8731L5.99404 9.85565L5.98393 9.83815L5.97379 9.82058L5.96361 9.80295L5.9534 9.78527L5.94316 9.76753L5.93288 9.74973L5.92257 9.73187L5.91223 9.71396L5.90186 9.69599L5.89145 9.67797L5.88101 9.65989L5.87054 9.64175L5.86004 9.62356L5.8495 9.60531L5.83894 9.58701L5.82834 9.56866L5.81771 9.55025L5.80705 9.53179L5.79636 9.51327L5.78564 9.4947L5.77489 9.47608L5.76411 9.45741L5.7533 9.43869L5.74246 9.41991L5.73159 9.40108L5.7207 9.38221L5.70977 9.36328L5.69881 9.3443L5.68783 9.32528L5.67681 9.3062L5.66577 9.28707L5.6547 9.2679L5.6436 9.24868L5.63247 9.2294L5.62132 9.21008L5.61014 9.19072L5.59893 9.17131L5.5877 9.15184L5.57643 9.13234L5.56514 9.11279L5.55383 9.09319L5.54249 9.07354L5.53112 9.05386L5.51973 9.03412L5.50831 9.01434L5.5 8.99995L5.49169 9.01434L5.48027 9.03412L5.46888 9.05386L5.45751 9.07354L5.44617 9.09319L5.43486 9.11279L5.42357 9.13234L5.4123 9.15184L5.40107 9.17131L5.38986 9.19072L5.37868 9.21008L5.36753 9.2294L5.3564 9.24868L5.3453 9.2679L5.33423 9.28707L5.32319 9.3062L5.31217 9.32528L5.30119 9.3443L5.29023 9.36328L5.2793 9.38221L5.26841 9.40108L5.25754 9.41991L5.2467 9.43869L5.23589 9.45741L5.22511 9.47608L5.21436 9.4947L5.20364 9.51327L5.19295 9.53179L5.18229 9.55025L5.17166 9.56866L5.16106 9.58701L5.1505 9.60531L5.13996 9.62356L5.12946 9.64175L5.11899 9.65989L5.10855 9.67797L5.09814 9.69599L5.08777 9.71396L5.07743 9.73187L5.06712 9.74973L5.05684 9.76753L5.0466 9.78527L5.03639 9.80295L5.02621 9.82058L5.01607 9.83815L5.00596 9.85565L4.99589 9.8731L4.98585 9.89049L4.97584 9.90782L4.96587 9.92509L4.95593 9.9423L4.94603 9.95945L4.93617 9.97654L4.92634 9.99356L4.91654 10.0105L4.90679 10.0274L4.89706 10.0443L4.88738 10.061L4.87773 10.0778L4.86811 10.0944L4.85854 10.111L4.849 10.1275L4.8395 10.144L4.83003 10.1604L4.8206 10.1767L4.81121 10.193L4.80186 10.2092L4.79255 10.2253L4.78327 10.2414L4.77404 10.2574L4.76484 10.2733L4.75568 10.2891L4.74656 10.3049L4.73748 10.3207L4.72844 10.3363L4.71944 10.3519L4.71048 10.3674L4.70156 10.3829L4.69268 10.3983L4.68384 10.4136L4.67504 10.4288L4.66628 10.444L4.65756 10.4591L4.64889 10.4741L4.64025 10.4891L4.63166 10.504L4.62311 10.5188L4.6146 10.5335L4.60613 10.5482L4.59771 10.5628L4.58932 10.5773L4.58099 10.5917L4.57269 10.6061L4.56444 10.6204L4.55623 10.6346L4.54806 10.6488L4.53994 10.6628L4.53186 10.6768L4.52383 10.6907L4.51584 10.7046L4.50789 10.7183L4.49999 10.732L4.49213 10.7456L4.48432 10.7592L4.47656 10.7726L4.46884 10.786L4.46116 10.7993L4.45354 10.8125L4.44595 10.8256L4.43842 10.8387L4.43093 10.8516L4.42349 10.8645L4.41609 10.8773L4.40874 10.8901L4.40144 10.9027L4.39419 10.9153L4.38698 10.9278L4.37982 10.9402L4.37271 10.9525L4.36565 10.9647L4.35863 10.9769L4.35167 10.9889L4.34475 11.0009L4.33788 11.0128L4.33107 11.0246L4.3243 11.0363L4.31758 11.048L4.31091 11.0595L4.30429 11.071L4.29772 11.0824L4.2912 11.0937L4.28473 11.1049L4.27831 11.116L4.27194 11.127L4.26563 11.138L4.25936 11.1488L4.25315 11.1596L4.24699 11.1702L4.24088 11.1808L4.23482 11.1913L4.22881 11.2017L4.22286 11.212L4.21696 11.2222L4.21111 11.2324L4.20532 11.2424L4.19957 11.2524L4.19389 11.2622L4.18825 11.272L4.18267 11.2816L4.17715 11.2912L4.17167 11.3007L4.16625 11.3101L4.16089 11.3194L4.15558 11.3286L4.15033 11.3377L4.14513 11.3467L4.13999 11.3556L4.1349 11.3644L4.12987 11.3731L4.12489 11.3817L4.11997 11.3902L4.11511 11.3987L4.1103 11.407L4.10555 11.4152L4.10085 11.4233L4.09622 11.4314L4.09164 11.4393L4.08712 11.4471L4.08265 11.4549L4.07825 11.4625L4.0739 11.47L4.06961 11.4775L4.06538 11.4848L4.0612 11.492L4.05709 11.4991L4.05303 11.5062L4.04904 11.5131L1.45096 10.0131L1.45496 10.0062L1.45901 9.99915L1.46313 9.99202L1.4673 9.98479L1.47153 9.97746L1.47582 9.97003L1.48017 9.9625L1.48458 9.95487L1.48904 9.94714L1.49356 9.93931L1.49814 9.93137L1.50278 9.92334L1.50747 9.91521L1.51222 9.90699L1.51703 9.89866L1.52189 9.89023L1.52681 9.88171L1.53179 9.87309L1.53682 9.86438L1.54191 9.85557L1.54705 9.84666L1.55225 9.83765L1.55751 9.82855L1.56281 9.81936L1.56818 9.81007L1.5736 9.80068L1.57907 9.7912L1.5846 9.78163L1.59018 9.77197L1.59581 9.76221L1.6015 9.75235L1.60724 9.74241L1.61303 9.73237L1.61888 9.72225L1.62478 9.71202L1.63074 9.70171L1.63674 9.69131L1.6428 9.68082L1.64891 9.67024L1.65507 9.65956L1.66129 9.6488L1.66755 9.63795L1.67387 9.62701L1.68023 9.61598L1.68665 9.60487L1.69312 9.59366L1.69964 9.58237L1.70621 9.57099L1.71283 9.55952L1.7195 9.54797L1.72622 9.53633L1.73299 9.52461L1.73981 9.5128L1.74668 9.5009L1.75359 9.48892L1.76056 9.47686L1.76757 9.46471L1.77463 9.45248L1.78174 9.44016L1.7889 9.42776L1.79611 9.41528L1.80336 9.40271L1.81067 9.39007L1.81801 9.37734L1.82541 9.36453L1.83285 9.35164L1.84034 9.33867L1.84788 9.32561L1.85546 9.31248L1.86309 9.29927L1.87076 9.28598L1.87848 9.27261L1.88625 9.25916L1.89406 9.24563L1.90191 9.23202L1.90981 9.21834L1.91776 9.20458L1.92575 9.19074L1.93378 9.17682L1.94186 9.16283L1.94998 9.14876L1.95815 9.13462L1.96636 9.1204L1.97461 9.1061L1.98291 9.09173L1.99125 9.07729L1.99963 9.06277L2.00805 9.04818L2.01652 9.03351L2.02503 9.01877L2.03358 9.00396L2.04218 8.98908L2.05081 8.97412L2.05949 8.9591L2.0682 8.944L2.07696 8.92883L2.08576 8.91359L2.0946 8.89827L2.10348 8.88289L2.1124 8.86744L2.12136 8.85192L2.13037 8.83633L2.13941 8.82067L2.14849 8.80494L2.15761 8.78915L2.16676 8.77328L2.17596 8.75735L2.1852 8.74136L2.19447 8.72529L2.20379 8.70916L2.21314 8.69296L2.22253 8.6767L2.23195 8.66037L2.24142 8.64398L2.25092 8.62752L2.26046 8.611L2.27004 8.59441L2.27965 8.57776L2.2893 8.56105L2.29899 8.54427L2.30871 8.52743L2.31847 8.51053L2.32826 8.49356L2.33809 8.47654L2.34796 8.45945L2.35786 8.4423L2.36779 8.42509L2.37776 8.40782L2.38777 8.39049L2.39781 8.3731L2.40788 8.35565L2.41799 8.33815L2.42814 8.32058L2.43831 8.30295L2.44852 8.28527L2.45876 8.26753L2.46904 8.24973L2.47935 8.23187L2.48969 8.21396L2.50007 8.19599L2.51047 8.17797L2.52091 8.15988L2.53138 8.14175L2.54189 8.12356L2.55242 8.10531L2.56299 8.08701L2.57358 8.06866L2.58421 8.05025L2.59487 8.03179L2.60556 8.01327L2.61628 7.9947L2.62703 7.97608L2.63781 7.95741L2.64862 7.93869L2.65946 7.91991L2.67033 7.90108L2.68123 7.88221L2.69216 7.86328L2.70311 7.8443L2.7141 7.82528L2.72511 7.8062L2.73615 7.78707L2.74723 7.7679L2.75832 7.74867L2.76945 7.7294L2.7806 7.71008L2.79178 7.69072L2.80299 7.67131L2.81423 7.65185L2.82549 7.63234L2.83678 7.61279L2.84809 7.59319L2.85944 7.57354L2.8708 7.55386L2.8822 7.53412L2.89361 7.51434L2.90195 7.49991H2.88531H2.86247H2.83968H2.81695H2.79426H2.77163H2.74906H2.72653H2.70406H2.68165H2.65928H2.63698H2.61472H2.59253H2.57039H2.5483H2.52627H2.5043H2.48239H2.46053H2.43874H2.417H2.39532H2.3737H2.35214H2.33064H2.30919H2.28782H2.2665H2.24524H2.22405H2.20292H2.18185H2.16084H2.1399H2.11902H2.09821H2.07746H2.05677H2.03616H2.0156H1.99512H1.9747H1.95435H1.93406H1.91385H1.8937H1.87362H1.85361H1.83366H1.81379H1.79399H1.77426H1.7546H1.73501H1.71549H1.69605H1.67668H1.65738H1.63815H1.619H1.59992H1.58091H1.56199H1.54313H1.52435H1.50565H1.48702H1.46847H1.45H1.43161H1.41329H1.39505H1.37689H1.35881H1.34081H1.32288H1.30504H1.28728H1.2696H1.252H1.23448H1.21705H1.1997H1.18243H1.16524H1.14814H1.13112H1.11419H1.09734H1.08057H1.06389H1.0473H1.0308H1.01438H0.998044H0.9818H0.965643H0.949575H0.933595H0.917704H0.901903H0.886192H0.870571H0.85504H0.839601H0.824252H0.808996H0.793832H0.77876H0.763782H0.748896H0.734105H0.719407H0.704804H0.690296H0.675883H0.661565H0.647344H0.633219H0.619191H0.60526H0.591427H0.577691H0.564054H0.550516H0.537076H0.523737H0.510497H0.497357H0.484318H0.47138H0.458544H0.445809H0.433176H0.420646H0.408219H0.395896H0.383676H0.37156H0.359549H0.347642H0.335841H0.324146H0.312556H0.301073H0.289697H0.278428H0.267267H0.256214H0.245269H0.234433H0.223705H0.213088H0.20258H0.192183H0.181896H0.171721H0.161656H0.151704H0.141864H0.132137H0.122522H0.113021H0.103634H0.0943604H0.0852018H0.0761581H0.0672297H0.058417H0.0497204H0.0411402H0.0326769H0.0243309H0.0161024H0.00799202H0V4.49991H0.00799202H0.0161024H0.0243309H0.0326769H0.0411402H0.0497204H0.058417H0.0672297H0.0761581H0.0852018H0.0943604H0.103634H0.113021H0.122522H0.132137H0.141864H0.151704H0.161656H0.171721H0.181896H0.192183H0.20258H0.213088H0.223705H0.234433H0.245269H0.256214H0.267267H0.278428H0.289697H0.301073H0.312556H0.324146H0.335841H0.347642H0.359549H0.37156H0.383676H0.395896H0.408219H0.420646H0.433176H0.445809H0.458544H0.47138H0.484318H0.497357H0.510497H0.523737H0.537076H0.550516H0.564054H0.577691H0.591427H0.60526H0.619191H0.633219H0.647344H0.661565H0.675883H0.690296H0.704804H0.719407H0.734105H0.748896H0.763782H0.77876H0.793832H0.808996H0.824252H0.839601H0.85504H0.870571H0.886192H0.901903H0.917704H0.933595H0.949575H0.965643H0.9818H0.998044H1.01438H1.0308H1.0473H1.06389H1.08057H1.09734H1.11419H1.13112H1.14814H1.16524H1.18243H1.1997H1.21705H1.23448H1.252H1.2696H1.28728H1.30504H1.32288H1.34081H1.35881H1.37689H1.39505H1.41329H1.43161H1.45H1.46847H1.48702H1.50565H1.52435H1.54313H1.56199H1.58091H1.59992H1.619H1.63815H1.65738H1.67668H1.69605H1.71549H1.73501H1.7546H1.77426H1.79399H1.81379H1.83366H1.85361H1.87362H1.8937H1.91385H1.93406H1.95435H1.9747H1.99512H2.0156H2.03616H2.05677H2.07746H2.09821H2.11902H2.1399H2.16084H2.18185H2.20292H2.22405H2.24524H2.2665H2.28782H2.30919H2.33064H2.35214H2.3737H2.39532H2.417H2.43874H2.46053H2.48239H2.5043H2.52627H2.5483H2.57039H2.59253H2.61472H2.63698H2.65928H2.68165H2.70406H2.72653H2.74906H2.77163H2.79426H2.81695H2.83968H2.86247H2.88531H2.9019L2.89472 4.48748L2.88215 4.4657L2.86959 4.44395L2.85705 4.42223L2.84452 4.40053L2.83201 4.37886L2.81951 4.35721L2.80703 4.33559L2.79456 4.314L2.78211 4.29244L2.76968 4.2709L2.75726 4.24939L2.74486 4.22791L2.73248 4.20646L2.72011 4.18504L2.70776 4.16364L2.69542 4.14228L2.68311 4.12095L2.67081 4.09965L2.65853 4.07837L2.64626 4.05713L2.63402 4.03593L2.62179 4.01475L2.60958 3.9936L2.59739 3.97249L2.58522 3.95141L2.57307 3.93036L2.56094 3.90935L2.54883 3.88837L2.53673 3.86742L2.52466 3.84651L2.51261 3.82564L2.50058 3.8048L2.48856 3.78399L2.47657 3.76322L2.4646 3.74249L2.45265 3.72179L2.44072 3.70113L2.42882 3.68051L2.41693 3.65992L2.40507 3.63937L2.39323 3.61886L2.38141 3.59839L2.36961 3.57796L2.35784 3.55757L2.34609 3.53721L2.33436 3.5169L2.32265 3.49662L2.31097 3.47639L2.29931 3.4562L2.28768 3.43605L2.27607 3.41594L2.26448 3.39587L2.25292 3.37584L2.24138 3.35586L2.22987 3.33592L2.21838 3.31602L2.20692 3.29617L2.19548 3.27636L2.18407 3.25659L2.17268 3.23687L2.16132 3.21719L2.14999 3.19756L2.13868 3.17797L2.1274 3.15843L2.11614 3.13894L2.10491 3.11949L2.09371 3.10009L2.08254 3.08073L2.07139 3.06143L2.06027 3.04217L2.04918 3.02296L2.03812 3.0038L2.02708 2.98468L2.01608 2.96562L2.0051 2.94661L1.99415 2.92764L1.98323 2.90873L1.97234 2.88986L1.96148 2.87105L1.95064 2.85229L1.93984 2.83358L1.92907 2.81492L1.91833 2.79631L1.90761 2.77776L1.89693 2.75926L1.88628 2.74081L1.87566 2.72242L1.86507 2.70407L1.85452 2.68579L1.84399 2.66756L1.8335 2.64938L1.82303 2.63126L1.8126 2.61319L1.8022 2.59518L1.79184 2.57723L1.7815 2.55933L1.7712 2.54149L1.76094 2.5237L1.7507 2.50598L1.7405 2.48831L1.73033 2.4707L1.7202 2.45315L1.7101 2.43565L1.70003 2.41822L1.69 2.40085L1.68001 2.38353L1.67005 2.36628L1.66012 2.34908L1.65023 2.33195L1.64037 2.31488L1.63055 2.29787L1.62077 2.28092L1.61102 2.26404L1.6013 2.24721L1.59163 2.23045L1.58199 2.21375L1.57238 2.19712L1.56282 2.18055L1.55329 2.16404L1.54379 2.1476L1.53434 2.13123L1.52492 2.11491L1.51554 2.09867L1.5062 2.08249L1.4969 2.06638L1.48763 2.05033L1.47841 2.03435L1.46922 2.01844L1.46007 2.00259L1.45096 1.98681L4.04904 0.486813L4.05815 0.50259L4.0673 0.518436L4.07648 0.534349L4.08571 0.550329L4.09497 0.566376L4.10428 0.58249L4.11362 0.598669L4.123 0.614915L4.13242 0.631227L4.14187 0.647603L4.15136 0.664044L4.16089 0.68055L4.17046 0.69712L4.18006 0.713754L4.1897 0.730451L4.19938 0.747212L4.20909 0.764036L4.21884 0.780921L4.22863 0.79787L4.23845 0.814879L4.2483 0.831952L4.2582 0.849084L4.26812 0.866278L4.27808 0.883532L4.28808 0.900846L4.29811 0.91822L4.30818 0.935654L4.31828 0.953147L4.32841 0.970699L4.33858 0.988309L4.34878 1.00598L4.35901 1.0237L4.36928 1.04149L4.37958 1.05933L4.38991 1.07723L4.40028 1.09518L4.41068 1.11319L4.42111 1.13126L4.43157 1.14938L4.44207 1.16756L4.45259 1.18579L4.46315 1.20407L4.47374 1.22242L4.48436 1.24081L4.49501 1.25926L4.50569 1.27776L4.5164 1.29631L4.52715 1.31492L4.53792 1.33358L4.54872 1.35229L4.55955 1.37105L4.57041 1.38986L4.58131 1.40873L4.59223 1.42764L4.60317 1.44661L4.61415 1.46562L4.62516 1.48468L4.63619 1.5038L4.64726 1.52296L4.65835 1.54217L4.66947 1.56143L4.68061 1.58073L4.69179 1.60009L4.70299 1.61949L4.71422 1.63894L4.72547 1.65843L4.73675 1.67797L4.74806 1.69756L4.7594 1.71719L4.77076 1.73687L4.78214 1.75659L4.79356 1.77636L4.80499 1.79617L4.81646 1.81602L4.82794 1.83592L4.83946 1.85586L4.85099 1.87584L4.86256 1.89587L4.87414 1.91594L4.88575 1.93605L4.89739 1.9562L4.90905 1.97639L4.92073 1.99662L4.93243 2.0169L4.94416 2.03721L4.95591 2.05757L4.96769 2.07796L4.97948 2.09839L4.9913 2.11886L5.00314 2.13937L5.01501 2.15992L5.02689 2.18051L5.0388 2.20113L5.05073 2.22179L5.06268 2.24249L5.07465 2.26322L5.08664 2.28399L5.09865 2.3048L5.11068 2.32564L5.12274 2.34651L5.13481 2.36743L5.1469 2.38837L5.15902 2.40935L5.17115 2.43036L5.1833 2.45141L5.19547 2.47249L5.20766 2.4936L5.21987 2.51475L5.23209 2.53593L5.24434 2.55713L5.2566 2.57837L5.26888 2.59965L5.28118 2.62095L5.2935 2.64228L5.30583 2.66364L5.31818 2.68504L5.33055 2.70646L5.34294 2.72791L5.35534 2.74939L5.36776 2.7709L5.38019 2.79244L5.39264 2.814L5.40511 2.83559L5.41759 2.85721L5.43009 2.87886L5.4426 2.90053L5.45513 2.92223L5.46767 2.94395L5.48022 2.9657L5.4928 2.98748L5.5 2.99995L5.5072 2.98748L5.51978 2.9657L5.53233 2.94395L5.54487 2.92223L5.5574 2.90053L5.56991 2.87886L5.58241 2.85721L5.59489 2.83559L5.60736 2.814L5.61981 2.79244L5.63224 2.7709L5.64466 2.74939L5.65706 2.72791L5.66945 2.70646L5.68182 2.68504L5.69417 2.66364L5.7065 2.64228L5.71882 2.62095L5.73112 2.59965L5.7434 2.57837L5.75566 2.55713L5.76791 2.53593L5.78013 2.51475L5.79234 2.4936L5.80453 2.47249L5.8167 2.45141L5.82885 2.43036L5.84098 2.40935L5.8531 2.38837L5.86519 2.36743L5.87726 2.34651L5.88932 2.32564L5.90135 2.3048L5.91336 2.28399L5.92535 2.26322L5.93732 2.24249L5.94927 2.22179L5.9612 2.20113L5.97311 2.18051L5.98499 2.15992L5.99686 2.13937L6.0087 2.11886L6.02052 2.09839L6.03231 2.07796L6.04409 2.05757L6.05584 2.03721L6.06757 2.0169L6.07927 1.99662L6.09095 1.97639L6.10261 1.9562L6.11425 1.93605L6.12586 1.91594L6.13744 1.89587L6.14901 1.87584L6.16054 1.85586L6.17206 1.83592L6.18354 1.81602L6.19501 1.79617L6.20644 1.77636L6.21786 1.75659L6.22924 1.73687L6.2406 1.71719L6.25194 1.69756L6.26325 1.67797L6.27453 1.65843L6.28578 1.63894L6.29701 1.61949L6.30821 1.60009L6.31939 1.58073L6.33053 1.56143L6.34165 1.54217L6.35274 1.52296L6.36381 1.5038L6.37484 1.48468L6.38585 1.46562L6.39683 1.44661L6.40777 1.42764L6.41869 1.40873L6.42959 1.38986L6.44045 1.37105L6.45128 1.35229L6.46208 1.33358L6.47285 1.31492L6.4836 1.29631L6.49431 1.27776L6.50499 1.25926L6.51564 1.24081L6.52626 1.22242L6.53685 1.20407L6.54741 1.18579L6.55793 1.16756L6.56843 1.14938L6.57889 1.13126L6.58932 1.11319L6.59972 1.09518L6.61009 1.07723L6.62042 1.05933L6.63072 1.04149L6.64099 1.0237L6.65122 1.00598L6.66142 0.988309L6.67159 0.970699L6.68172 0.953147L6.69182 0.935654L6.70189 0.91822L6.71192 0.900846L6.72192 0.883532L6.73188 0.866278L6.7418 0.849084L6.7517 0.831952L6.76155 0.814879L6.77137 0.79787L6.78116 0.780921L6.79091 0.764036L6.80062 0.747212L6.8103 0.730451L6.81994 0.713754L6.82954 0.69712L6.83911 0.68055L6.84864 0.664044L6.85813 0.647603L6.86758 0.631227L6.877 0.614915L6.88638 0.598669L6.89572 0.58249L6.90503 0.566376L6.91429 0.550329L6.92352 0.534349L6.9327 0.518436L6.94185 0.50259L6.95096 0.486813L9.54904 1.98681L9.53993 2.00259L9.53078 2.01844L9.52159 2.03435L9.51237 2.05033L9.5031 2.06638L9.4938 2.08249L9.48446 2.09867L9.47508 2.11491L9.46566 2.13123L9.45621 2.1476L9.44671 2.16404L9.43718 2.18055L9.42762 2.19712L9.41801 2.21375L9.40837 2.23045L9.3987 2.24721L9.38898 2.26404L9.37923 2.28092L9.36945 2.29787L9.35963 2.31488L9.34977 2.33195L9.33988 2.34908L9.32995 2.36628L9.31999 2.38353L9.31 2.40085L9.29996 2.41822L9.2899 2.43565L9.2798 2.45315L9.26967 2.4707L9.2595 2.48831L9.2493 2.50598L9.23906 2.5237L9.2288 2.54149L9.2185 2.55933L9.20816 2.57723L9.1978 2.59518L9.1874 2.61319L9.17697 2.63126L9.1665 2.64938L9.15601 2.66756L9.14548 2.68579L9.13493 2.70407L9.12434 2.72242L9.11372 2.74081L9.10307 2.75926L9.09239 2.77776L9.08167 2.79631L9.07093 2.81492L9.06016 2.83358L9.04936 2.85229L9.03852 2.87105L9.02766 2.88986L9.01677 2.90873L9.00585 2.92764L8.9949 2.94661L8.98392 2.96562L8.97292 2.98468L8.96188 3.0038L8.95082 3.02296L8.93973 3.04217L8.92861 3.06143L8.91746 3.08073L8.90629 3.10009L8.89509 3.11949L8.88386 3.13894L8.8726 3.15843L8.86132 3.17797L8.85001 3.19756L8.83868 3.21719L8.82732 3.23687L8.81593 3.25659L8.80452 3.27636L8.79308 3.29617L8.78162 3.31602L8.77013 3.33592L8.75862 3.35586L8.74708 3.37584L8.73552 3.39587L8.72393 3.41594L8.71232 3.43605L8.70069 3.4562L8.68903 3.47639L8.67735 3.49662L8.66564 3.5169L8.65391 3.53721L8.64216 3.55757L8.63039 3.57796L8.61859 3.59839L8.60677 3.61886L8.59493 3.63937L8.58307 3.65992L8.57118 3.68051L8.55928 3.70113L8.54735 3.72179L8.5354 3.74249L8.52343 3.76322L8.51144 3.78399L8.49942 3.8048L8.48739 3.82564L8.47534 3.84651L8.46327 3.86742L8.45117 3.88837L8.43906 3.90935L8.42693 3.93036L8.41478 3.95141L8.40261 3.97249L8.39042 3.9936L8.37821 4.01475L8.36598 4.03593L8.35374 4.05713L8.34147 4.07837L8.32919 4.09965L8.31689 4.12095L8.30458 4.14228L8.29224 4.16364L8.27989 4.18504L8.26752 4.20646L8.25514 4.22791L8.24274 4.24939L8.23032 4.2709L8.21789 4.29244L8.20544 4.314L8.19297 4.33559L8.18049 4.35721L8.16799 4.37886L8.15548 4.40053L8.14295 4.42223L8.13041 4.44395L8.11785 4.4657L8.10528 4.48748L8.0981 4.49991H8.11248H8.13763H8.16274H8.18783H8.21288H8.23791H8.2629H8.28786H8.31279H8.3377H8.36256H8.3874H8.4122H8.43697H8.46171H8.48641H8.51108H8.53571H8.56031H8.58487H8.6094H8.63389H8.65834H8.68276H8.70714H8.73148H8.75578H8.78004H8.80427H8.82846H8.8526H8.87671H8.90077H8.9248H8.94878H8.97272H8.99662H9.02048H9.04429H9.06806H9.09179H9.11547H9.13911H9.1627H9.18625H9.20975H9.23321H9.25662H9.27998H9.3033H9.32657H9.34979H9.37296H9.39609H9.41916H9.44219H9.46516H9.48809H9.51096H9.53379H9.55656H9.57928H9.60195H9.62457H9.64713H9.66964H9.6921H9.7145H9.73685H9.75914H9.78138H9.80356H9.82569H9.84776H9.86977H9.89173H9.91362H9.93546H9.95725H9.97897H10.0006H10.0222H10.0438H10.0653H10.0867H10.1081H10.1294H10.1506H10.1718H10.1929H10.2139H10.2349H10.2559H10.2767H10.2975H10.3182H10.3389H10.3595H10.3801H10.4005H10.4209H10.4413H10.4615H10.4817H10.5019H10.5219H10.5419H10.5618H10.5817H10.6015H10.6212H10.6408H10.6604H10.6799H10.6993H10.7187H10.738H10.7572H10.7763H10.7954H10.8143H10.8332H10.8521H10.8708H10.8895H10.9081H10.9267H10.9451H10.9635H10.9818H11V7.49991H10.9818H10.9635H10.9451H10.9267H10.9081H10.8895H10.8708H10.8521H10.8332H10.8143H10.7954H10.7763H10.7572H10.738H10.7187H10.6993H10.6799H10.6604H10.6408H10.6212H10.6015H10.5817H10.5618H10.5419H10.5219H10.5019H10.4817H10.4615H10.4413H10.4209H10.4005H10.3801H10.3595H10.3389H10.3182H10.2975H10.2767H10.2559H10.2349H10.2139H10.1929H10.1718H10.1506H10.1294H10.1081H10.0867H10.0653H10.0438H10.0222H10.0006H9.97897H9.95725H9.93546H9.91362H9.89173H9.86977H9.84776H9.82569H9.80356H9.78138H9.75914H9.73685H9.7145H9.6921H9.66964H9.64713H9.62457H9.60195H9.57928H9.55656H9.53379H9.51096H9.48809H9.46516H9.44219H9.41916H9.39609H9.37296H9.34979H9.32657H9.3033H9.27998H9.25662H9.23321H9.20975H9.18625H9.1627H9.13911H9.11547H9.09179H9.06806H9.04429H9.02048H8.99662H8.97272H8.94878H8.9248H8.90077H8.87671H8.8526H8.82846H8.80427H8.78004H8.75578H8.73148H8.70714H8.68276H8.65834H8.63389H8.6094H8.58487H8.56031H8.53571H8.51108H8.48641H8.46171H8.43697H8.4122H8.3874H8.36256H8.3377H8.31279H8.28786H8.2629H8.23791H8.21288H8.18783H8.16274H8.13763H8.11248H8.09805L8.10639 7.51434L8.1178 7.53412L8.1292 7.55386L8.14056 7.57354L8.15191 7.59319L8.16322 7.61279L8.17451 7.63234L8.18577 7.65185L8.19701 7.67131L8.20821 7.69072L8.2194 7.71008L8.23055 7.7294L8.24168 7.74867L8.25277 7.7679L8.26385 7.78707L8.27489 7.8062L8.2859 7.82528L8.29689 7.8443L8.30784 7.86328L8.31877 7.88221L8.32967 7.90108L8.34054 7.91991L8.35138 7.93869L8.36219 7.95741L8.37297 7.97608L8.38372 7.9947L8.39444 8.01327L8.40513 8.03179L8.41579 8.05025L8.42642 8.06866L8.43701 8.08701L8.44758 8.10531L8.45811 8.12356L8.46862 8.14175L8.47909 8.15988L8.48953 8.17797L8.49993 8.19599L8.51031 8.21396L8.52065 8.23187L8.53096 8.24973L8.54124 8.26753L8.55148 8.28527L8.56169 8.30295L8.57187 8.32058L8.58201 8.33815L8.59212 8.35565L8.60219 8.3731L8.61223 8.39049L8.62224 8.40782L8.63221 8.42509L8.64214 8.4423L8.65204 8.45945L8.66191 8.47654L8.67174 8.49356L8.68153 8.51053L8.69129 8.52743L8.70101 8.54427L8.7107 8.56105L8.72035 8.57776L8.72996 8.59441L8.73954 8.611L8.74908 8.62752L8.75858 8.64398L8.76805 8.66037L8.77747 8.6767L8.78686 8.69296L8.79621 8.70916L8.80553 8.72529L8.8148 8.74136L8.82404 8.75735L8.83324 8.77328L8.84239 8.78915L8.85151 8.80494L8.86059 8.82067L8.86963 8.83633L8.87864 8.85192L8.8876 8.86744L8.89652 8.88289L8.9054 8.89827L8.91424 8.91359L8.92304 8.92883L8.9318 8.944L8.94051 8.9591L8.94919 8.97412L8.95782 8.98908L8.96642 9.00396L8.97497 9.01877L8.98348 9.03351L8.99195 9.04818L9.00037 9.06277L9.00875 9.07729L9.01709 9.09173L9.02539 9.1061L9.03364 9.1204L9.04185 9.13462L9.05002 9.14876L9.05814 9.16283L9.06622 9.17682L9.07425 9.19074L9.08224 9.20458L9.09019 9.21834L9.09809 9.23202L9.10594 9.24563L9.11375 9.25916L9.12152 9.27261L9.12924 9.28598L9.13691 9.29927L9.14454 9.31248L9.15212 9.32561L9.15966 9.33867L9.16715 9.35164L9.17459 9.36453L9.18199 9.37734L9.18933 9.39007L9.19664 9.40271L9.20389 9.41528L9.2111 9.42776L9.21826 9.44016L9.22537 9.45248L9.23243 9.46471L9.23944 9.47686L9.24641 9.48892L9.25332 9.5009L9.26019 9.5128L9.26701 9.52461L9.27378 9.53633L9.2805 9.54797L9.28717 9.55952L9.29379 9.57099L9.30036 9.58237L9.30688 9.59366L9.31335 9.60487L9.31977 9.61598L9.32613 9.62701L9.33245 9.63795L9.33871 9.6488L9.34493 9.65956L9.35109 9.67024L9.3572 9.68082L9.36326 9.69131L9.36926 9.70171L9.37522 9.71202L9.38112 9.72225L9.38696 9.73237L9.39276 9.74241L9.3985 9.75235L9.40419 9.76221L9.40982 9.77197L9.4154 9.78163L9.42093 9.7912L9.4264 9.80068L9.43182 9.81007L9.43719 9.81936L9.44249 9.82855L9.44775 9.83765L9.45295 9.84666L9.45809 9.85557L9.46318 9.86438L9.46821 9.87309L9.47319 9.88171L9.47811 9.89023L9.48297 9.89866L9.48778 9.90699L9.49253 9.91521L9.49722 9.92334L9.50186 9.93137L9.50644 9.93931L9.51096 9.94714L9.51542 9.95487L9.51983 9.9625L9.52418 9.97003L9.52847 9.97746L9.5327 9.98479L9.53687 9.99202L9.54099 9.99915L9.54504 10.0062Z" fill="white"/>
</svg>
