<svg xmlns="http://www.w3.org/2000/svg" width="25" height="31" viewBox="0 0 25 31" fill="none">
  <path d="M12.4817 2.76953V1.61971H11.3319H9.25H8.10018V2.76953V4.85142V6.00124H9.25H11.3319H12.4817V4.85142V2.76953Z" fill="#FFD600" stroke="#0D0D0D" stroke-width="2.29964"/>
  <path d="M14.5647 2.76953V1.61971H13.4149H11.333H10.1832V2.76953V4.85142V6.00124H11.333H13.4149H14.5647V4.85142V2.76953Z" fill="#910000" stroke="#0D0D0D" stroke-width="2.29964"/>
  <path d="M16.6458 2.76953V1.61971H15.4959H13.4141H12.2642V2.76953V4.85142V6.00124H13.4141H15.4959H16.6458V4.85142V2.76953Z" fill="#B4662D" stroke="#0D0D0D" stroke-width="2.29964"/>
  <path d="M10.3997 4.85156V3.70174H9.24986H7.16797H6.01815V4.85156V6.93345V8.08327H7.16797H9.24986H10.3997V6.93345V4.85156Z" fill="#FCFF6A" stroke="#0D0D0D" stroke-width="2.29964"/>
  <path d="M12.4817 4.85156V3.70174H11.3319H9.25H8.10018V4.85156V6.93345V8.08327H9.25H11.3319H12.4817V6.93345V4.85156Z" fill="#FFD600" stroke="#0D0D0D" stroke-width="2.29964"/>
  <path d="M14.5647 4.85156V3.70174H13.4149H11.333H10.1832V4.85156V6.93345V8.08327H11.333H13.4149H14.5647V6.93345V4.85156Z" fill="#FFD600" stroke="#0D0D0D" stroke-width="2.29964"/>
  <path d="M16.6458 4.85156V3.70174H15.4959H13.4141H12.2642V4.85156V6.93345V8.08327H13.4141H15.4959H16.6458V6.93345V4.85156Z" fill="#FCFF6A" stroke="#0D0D0D" stroke-width="2.29964"/>
  <path d="M18.7278 4.85156V3.70174H17.578H15.4961H14.3463V4.85156V6.93345V8.08327H15.4961H17.578H18.7278V6.93345V4.85156Z" fill="#B4662D" stroke="#0D0D0D" stroke-width="2.29964"/>
  <path d="M8.31863 6.93555V5.78573H7.16881H5.08691H3.93709V6.93555V9.01744V10.1673H5.08691H7.16881H8.31863V9.01744V6.93555Z" fill="#FCFF6A" stroke="#0D0D0D" stroke-width="2.29964"/>
  <path d="M10.3997 6.93555V5.78573H9.24986H7.16797H6.01815V6.93555V9.01744V10.1673H7.16797H9.24986H10.3997V9.01744V6.93555Z" fill="#FCFF6A" stroke="#0D0D0D" stroke-width="2.29964"/>
  <path d="M12.4817 6.93555V5.78573H11.3319H9.25H8.10018V6.93555V9.01744V10.1673H9.25H11.3319H12.4817V9.01744V6.93555Z" fill="#910000" stroke="#0D0D0D" stroke-width="2.29964"/>
  <path d="M14.5647 6.93555V5.78573H13.4149H11.333H10.1832V6.93555V9.01744V10.1673H11.333H13.4149H14.5647V9.01744V6.93555Z" fill="#B4662D" stroke="#0D0D0D" stroke-width="2.29964"/>
  <path d="M16.6458 6.93555V5.78573H15.4959H13.4141H12.2642V6.93555V9.01744V10.1673H13.4141H15.4959H16.6458V9.01744V6.93555Z" fill="#B4662D" stroke="#0D0D0D" stroke-width="2.29964"/>
  <path d="M18.7278 6.93555V5.78573H17.578H15.4961H14.3463V6.93555V9.01744V10.1673H15.4961H17.578H18.7278V9.01744V6.93555Z" fill="#FCFF6A" stroke="#0D0D0D" stroke-width="2.29964"/>
  <path d="M20.8108 6.93555V5.78573H19.661H17.5791H16.4293V6.93555V9.01744V10.1673H17.5791H19.661H20.8108V9.01744V6.93555Z" fill="#B4662D" stroke="#0D0D0D" stroke-width="2.29964"/>
  <path d="M8.31863 9.01562V7.86581H7.16881H5.08691H3.93709V9.01562V11.0975V12.2473H5.08691H7.16881H8.31863V11.0975V9.01562Z" fill="#910000" stroke="#0D0D0D" stroke-width="2.29964"/>
  <path d="M10.3997 9.01562V7.86581H9.24986H7.16797H6.01815V9.01562V11.0975V12.2473H7.16797H9.24986H10.3997V11.0975V9.01562Z" fill="#FFD600" stroke="#0D0D0D" stroke-width="2.29964"/>
  <path d="M12.4817 9.01562V7.86581H11.3319H9.25H8.10018V9.01562V11.0975V12.2473H9.25H11.3319H12.4817V11.0975V9.01562Z" fill="#910000" stroke="#0D0D0D" stroke-width="2.29964"/>
  <path d="M14.5647 9.01562V7.86581H13.4149H11.333H10.1832V9.01562V11.0975V12.2473H11.333H13.4149H14.5647V11.0975V9.01562Z" fill="#910000" stroke="#0D0D0D" stroke-width="2.29964"/>
  <path d="M16.6458 9.01562V7.86581H15.4959H13.4141H12.2642V9.01562V11.0975V12.2473H13.4141H15.4959H16.6458V11.0975V9.01562Z" fill="#B4662D" stroke="#0D0D0D" stroke-width="2.29964"/>
  <path d="M18.7278 9.01562V7.86581H17.578H15.4961H14.3463V9.01562V11.0975V12.2473H15.4961H17.578H18.7278V11.0975V9.01562Z" fill="#FFD600" stroke="#0D0D0D" stroke-width="2.29964"/>
  <path d="M20.8108 9.01562V7.86581H19.661H17.5791H16.4293V9.01562V11.0975V12.2473H17.5791H19.661H20.8108V11.0975V9.01562Z" fill="#910000" stroke="#0D0D0D" stroke-width="2.29964"/>
  <path d="M6.23562 11.0977V9.94784H5.0858H3.00391H1.85409V11.0977V13.1795V14.3294H3.00391H5.0858H6.23562V13.1795V11.0977Z" fill="#FCFF6A" stroke="#0D0D0D" stroke-width="2.29964"/>
  <path d="M8.31863 11.0977V9.94784H7.16881H5.08691H3.93709V11.0977V13.1795V14.3294H5.08691H7.16881H8.31863V13.1795V11.0977Z" fill="#FFD600" stroke="#0D0D0D" stroke-width="2.29964"/>
  <path d="M10.3997 11.0977V9.94784H9.24986H7.16797H6.01815V11.0977V13.1795V14.3294H7.16797H9.24986H10.3997V13.1795V11.0977Z" fill="#FFD600" stroke="#0D0D0D" stroke-width="2.29964"/>
  <path d="M12.4817 11.0977V9.94784H11.3319H9.25H8.10018V11.0977V13.1795V14.3294H9.25H11.3319H12.4817V13.1795V11.0977Z" fill="#FFD600" stroke="#0D0D0D" stroke-width="2.29964"/>
  <path d="M14.5647 11.0977V9.94784H13.4149H11.333H10.1832V11.0977V13.1795V14.3294H11.333H13.4149H14.5647V13.1795V11.0977Z" fill="#910000" stroke="#0D0D0D" stroke-width="2.29964"/>
  <path d="M16.6458 11.0977V9.94784H15.4959H13.4141H12.2642V11.0977V13.1795V14.3294H13.4141H15.4959H16.6458V13.1795V11.0977Z" fill="#910000" stroke="#0D0D0D" stroke-width="2.29964"/>
  <path d="M18.7278 11.0977V9.94784H17.578H15.4961H14.3463V11.0977V13.1795V14.3294H15.4961H17.578H18.7278V13.1795V11.0977Z" fill="#B4662D" stroke="#0D0D0D" stroke-width="2.29964"/>
  <path d="M20.8108 11.0977V9.94784H19.661H17.5791H16.4293V11.0977V13.1795V14.3294H17.5791H19.661H20.8108V13.1795V11.0977Z" fill="#FFD600" stroke="#0D0D0D" stroke-width="2.29964"/>
  <path d="M22.8919 11.0977V9.94784H21.742H19.6602H18.5103V11.0977V13.1795V14.3294H19.6602H21.742H22.8919V13.1795V11.0977Z" fill="#B4662D" stroke="#0D0D0D" stroke-width="2.29964"/>
  <path d="M6.23562 13.1816V12.0318H5.0858H3.00391H1.85409V13.1816V15.2635V16.4134H3.00391H5.0858H6.23562V15.2635V13.1816Z" fill="#910000" stroke="#0D0D0D" stroke-width="2.29964"/>
  <path d="M8.31863 13.1816V12.0318H7.16881H5.08691H3.93709V13.1816V15.2635V16.4134H5.08691H7.16881H8.31863V15.2635V13.1816Z" fill="#FCFF6A" stroke="#0D0D0D" stroke-width="2.29964"/>
  <path d="M10.3997 13.1816V12.0318H9.24986H7.16797H6.01815V13.1816V15.2635V16.4134H7.16797H9.24986H10.3997V15.2635V13.1816Z" fill="#910000" stroke="#0D0D0D" stroke-width="2.29964"/>
  <path d="M12.4817 13.1816V12.0318H11.3319H9.25H8.10018V13.1816V15.2635V16.4134H9.25H11.3319H12.4817V15.2635V13.1816Z" fill="#FFD600" stroke="#0D0D0D" stroke-width="2.29964"/>
  <path d="M14.5647 13.1816V12.0318H13.4149H11.333H10.1832V13.1816V15.2635V16.4134H11.333H13.4149H14.5647V15.2635V13.1816Z" fill="#FFD600" stroke="#0D0D0D" stroke-width="2.29964"/>
  <path d="M16.6458 13.1816V12.0318H15.4959H13.4141H12.2642V13.1816V15.2635V16.4134H13.4141H15.4959H16.6458V15.2635V13.1816Z" fill="#910000" stroke="#0D0D0D" stroke-width="2.29964"/>
  <path d="M18.7278 13.1816V12.0318H17.578H15.4961H14.3463V13.1816V15.2635V16.4134H15.4961H17.578H18.7278V15.2635V13.1816Z" fill="#910000" stroke="#0D0D0D" stroke-width="2.29964"/>
  <path d="M20.8108 13.1816V12.0318H19.661H17.5791H16.4293V13.1816V15.2635V16.4134H17.5791H19.661H20.8108V15.2635V13.1816Z" fill="#FCFF6A" stroke="#0D0D0D" stroke-width="2.29964"/>
  <path d="M22.8919 13.1816V12.0318H21.742H19.6602H18.5103V13.1816V15.2635V16.4134H19.6602H21.742H22.8919V15.2635V13.1816Z" fill="#FFD600" stroke="#0D0D0D" stroke-width="2.29964"/>
  <path d="M6.23562 15.2617V14.1119H5.0858H3.00391H1.85409V15.2617V17.3436V18.4934H3.00391H5.0858H6.23562V17.3436V15.2617Z" fill="#910000" stroke="#0D0D0D" stroke-width="2.29964"/>
  <path d="M8.31863 15.2617V14.1119H7.16881H5.08691H3.93709V15.2617V17.3436V18.4934H5.08691H7.16881H8.31863V17.3436V15.2617Z" fill="#FFD600" stroke="#0D0D0D" stroke-width="2.29964"/>
  <path d="M10.3997 15.2617V14.1119H9.24986H7.16797H6.01815V15.2617V17.3436V18.4934H7.16797H9.24986H10.3997V17.3436V15.2617Z" fill="#910000" stroke="#0D0D0D" stroke-width="2.29964"/>
  <path d="M12.4817 15.2617V14.1119H11.3319H9.25H8.10018V15.2617V17.3436V18.4934H9.25H11.3319H12.4817V17.3436V15.2617Z" fill="#910000" stroke="#0D0D0D" stroke-width="2.29964"/>
  <path d="M14.5647 15.2617V14.1119H13.4149H11.333H10.1832V15.2617V17.3436V18.4934H11.333H13.4149H14.5647V17.3436V15.2617Z" fill="#FFD600" stroke="#0D0D0D" stroke-width="2.29964"/>
  <path d="M16.6458 15.2617V14.1119H15.4959H13.4141H12.2642V15.2617V17.3436V18.4934H13.4141H15.4959H16.6458V17.3436V15.2617Z" fill="#FFD600" stroke="#0D0D0D" stroke-width="2.29964"/>
  <path d="M18.7278 15.2617V14.1119H17.578H15.4961H14.3463V15.2617V17.3436V18.4934H15.4961H17.578H18.7278V17.3436V15.2617Z" fill="#910000" stroke="#0D0D0D" stroke-width="2.29964"/>
  <path d="M20.8108 15.2617V14.1119H19.661H17.5791H16.4293V15.2617V17.3436V18.4934H17.5791H19.661H20.8108V17.3436V15.2617Z" fill="#FCFF6A" stroke="#0D0D0D" stroke-width="2.29964"/>
  <path d="M22.8919 15.2617V14.1119H21.742H19.6602H18.5103V15.2617V17.3436V18.4934H19.6602H21.742H22.8919V17.3436V15.2617Z" fill="#FFD600" stroke="#0D0D0D" stroke-width="2.29964"/>
  <path d="M6.23562 17.3438V16.1939H5.0858H3.00391H1.85409V17.3438V19.4256V20.5755H3.00391H5.0858H6.23562V19.4256V17.3438Z" fill="#B4662D" stroke="#0D0D0D" stroke-width="2.29964"/>
  <path d="M8.31863 17.3438V16.1939H7.16881H5.08691H3.93709V17.3438V19.4256V20.5755H5.08691H7.16881H8.31863V19.4256V17.3438Z" fill="#FFD600" stroke="#0D0D0D" stroke-width="2.29964"/>
  <path d="M10.3997 17.3438V16.1939H9.24986H7.16797H6.01815V17.3438V19.4256V20.5755H7.16797H9.24986H10.3997V19.4256V17.3438Z" fill="#B4662D" stroke="#0D0D0D" stroke-width="2.29964"/>
  <path d="M12.4817 17.3438V16.1939H11.3319H9.25H8.10018V17.3438V19.4256V20.5755H9.25H11.3319H12.4817V19.4256V17.3438Z" fill="#910000" stroke="#0D0D0D" stroke-width="2.29964"/>
  <path d="M14.5647 17.3438V16.1939H13.4149H11.333H10.1832V17.3438V19.4256V20.5755H11.333H13.4149H14.5647V19.4256V17.3438Z" fill="#910000" stroke="#0D0D0D" stroke-width="2.29964"/>
  <path d="M16.6458 17.3438V16.1939H15.4959H13.4141H12.2642V17.3438V19.4256V20.5755H13.4141H15.4959H16.6458V19.4256V17.3438Z" fill="#FFD600" stroke="#0D0D0D" stroke-width="2.29964"/>
  <path d="M18.7278 17.3438V16.1939H17.578H15.4961H14.3463V17.3438V19.4256V20.5755H15.4961H17.578H18.7278V19.4256V17.3438Z" fill="#FFD600" stroke="#0D0D0D" stroke-width="2.29964"/>
  <path d="M20.8108 17.3438V16.1939H19.661H17.5791H16.4293V17.3438V19.4256V20.5755H17.5791H19.661H20.8108V19.4256V17.3438Z" fill="#FCFF6A" stroke="#0D0D0D" stroke-width="2.29964"/>
  <path d="M22.8919 17.3438V16.1939H21.742H19.6602H18.5103V17.3438V19.4256V20.5755H19.6602H21.742H22.8919V19.4256V17.3438Z" fill="#FFD600" stroke="#0D0D0D" stroke-width="2.29964"/>
  <path d="M8.31863 19.4277V18.2779H7.16881H5.08691H3.93709V19.4277V21.5096V22.6594H5.08691H7.16881H8.31863V21.5096V19.4277Z" fill="#910000" stroke="#0D0D0D" stroke-width="2.29964"/>
  <path d="M10.3997 19.4277V18.2779H9.24986H7.16797H6.01815V19.4277V21.5096V22.6594H7.16797H9.24986H10.3997V21.5096V19.4277Z" fill="#FFD600" stroke="#0D0D0D" stroke-width="2.29964"/>
  <path d="M12.4817 19.4277V18.2779H11.3319H9.25H8.10018V19.4277V21.5096V22.6594H9.25H11.3319H12.4817V21.5096V19.4277Z" fill="#B4662D" stroke="#0D0D0D" stroke-width="2.29964"/>
  <path d="M14.5647 19.4277V18.2779H13.4149H11.333H10.1832V19.4277V21.5096V22.6594H11.333H13.4149H14.5647V21.5096V19.4277Z" fill="#910000" stroke="#0D0D0D" stroke-width="2.29964"/>
  <path d="M16.6458 19.4277V18.2779H15.4959H13.4141H12.2642V19.4277V21.5096V22.6594H13.4141H15.4959H16.6458V21.5096V19.4277Z" fill="#910000" stroke="#0D0D0D" stroke-width="2.29964"/>
  <path d="M18.7278 19.4277V18.2779H17.578H15.4961H14.3463V19.4277V21.5096V22.6594H15.4961H17.578H18.7278V21.5096V19.4277Z" fill="#FCFF6A" stroke="#0D0D0D" stroke-width="2.29964"/>
  <path d="M20.8108 19.4277V18.2779H19.661H17.5791H16.4293V19.4277V21.5096V22.6594H17.5791H19.661H20.8108V21.5096V19.4277Z" fill="#FFD600" stroke="#0D0D0D" stroke-width="2.29964"/>
  <path d="M8.31863 21.5078V20.358H7.16881H5.08691H3.93709V21.5078V23.5897V24.7395H5.08691H7.16881H8.31863V23.5897V21.5078Z" fill="#B4662D" stroke="#0D0D0D" stroke-width="2.29964"/>
  <path d="M10.3997 21.5078V20.358H9.24986H7.16797H6.01815V21.5078V23.5897V24.7395H7.16797H9.24986H10.3997V23.5897V21.5078Z" fill="#FFD600" stroke="#0D0D0D" stroke-width="2.29964"/>
  <path d="M12.4817 21.5078V20.358H11.3319H9.25H8.10018V21.5078V23.5897V24.7395H9.25H11.3319H12.4817V23.5897V21.5078Z" fill="#B4662D" stroke="#0D0D0D" stroke-width="2.29964"/>
  <path d="M14.5647 21.5078V20.358H13.4149H11.333H10.1832V21.5078V23.5897V24.7395H11.333H13.4149H14.5647V23.5897V21.5078Z" fill="#B4662D" stroke="#0D0D0D" stroke-width="2.29964"/>
  <path d="M16.6458 21.5078V20.358H15.4959H13.4141H12.2642V21.5078V23.5897V24.7395H13.4141H15.4959H16.6458V23.5897V21.5078Z" fill="#910000" stroke="#0D0D0D" stroke-width="2.29964"/>
  <path d="M18.7278 21.5078V20.358H17.578H15.4961H14.3463V21.5078V23.5897V24.7395H15.4961H17.578H18.7278V23.5897V21.5078Z" fill="#FFD600" stroke="#0D0D0D" stroke-width="2.29964"/>
  <path d="M20.8108 21.5078V20.358H19.661H17.5791H16.4293V21.5078V23.5897V24.7395H17.5791H19.661H20.8108V23.5897V21.5078Z" fill="#FFD600" stroke="#0D0D0D" stroke-width="2.29964"/>
  <path d="M10.3997 23.5898V22.44H9.24986H7.16797H6.01815V23.5898V25.6717V26.8216H7.16797H9.24986H10.3997V25.6717V23.5898Z" fill="#B4662D" stroke="#0D0D0D" stroke-width="2.29964"/>
  <path d="M12.4817 23.5898V22.44H11.3319H9.25H8.10018V23.5898V25.6717V26.8216H9.25H11.3319H12.4817V25.6717V23.5898Z" fill="#FFD600" stroke="#0D0D0D" stroke-width="2.29964"/>
  <path d="M14.5647 23.5898V22.44H13.4149H11.333H10.1832V23.5898V25.6717V26.8216H11.333H13.4149H14.5647V25.6717V23.5898Z" fill="#FCFF6A" stroke="#0D0D0D" stroke-width="2.29964"/>
  <path d="M16.6458 23.5898V22.44H15.4959H13.4141H12.2642V23.5898V25.6717V26.8216H13.4141H15.4959H16.6458V25.6717V23.5898Z" fill="#FCFF6A" stroke="#0D0D0D" stroke-width="2.29964"/>
  <path d="M18.7278 23.5898V22.44H17.578H15.4961H14.3463V23.5898V25.6717V26.8216H15.4961H17.578H18.7278V25.6717V23.5898Z" fill="#FFD600" stroke="#0D0D0D" stroke-width="2.29964"/>
  <path d="M12.4817 25.6738V24.524H11.3319H9.25H8.10018V25.6738V27.7557V28.9055H9.25H11.3319H12.4817V27.7557V25.6738Z" fill="#B4662D" stroke="#0D0D0D" stroke-width="2.29964"/>
  <path d="M14.5647 25.6738V24.524H13.4149H11.333H10.1832V25.6738V27.7557V28.9055H11.333H13.4149H14.5647V27.7557V25.6738Z" fill="#910000" stroke="#0D0D0D" stroke-width="2.29964"/>
  <path d="M16.6458 25.6738V24.524H15.4959H13.4141H12.2642V25.6738V27.7557V28.9055H13.4141H15.4959H16.6458V27.7557V25.6738Z" fill="#FFD600" stroke="#0D0D0D" stroke-width="2.29964"/>
  <path d="M11.3319 2.76953H9.25V4.85142H11.3319V2.76953Z" fill="#FFD600"/>
  <path d="M13.4149 2.76953H11.333V4.85142H13.4149V2.76953Z" fill="#910000"/>
  <path d="M15.4959 2.76953H13.4141V4.85142H15.4959V2.76953Z" fill="#B4662D"/>
  <path d="M9.24986 4.85156H7.16797V6.93345H9.24986V4.85156Z" fill="#FCFF6A"/>
  <path d="M11.3319 4.85156H9.25V6.93345H11.3319V4.85156Z" fill="#FFD600"/>
  <path d="M13.4149 4.85156H11.333V6.93345H13.4149V4.85156Z" fill="#FFD600"/>
  <path d="M15.4959 4.85156H13.4141V6.93345H15.4959V4.85156Z" fill="#FCFF6A"/>
  <path d="M17.578 4.85156H15.4961V6.93345H17.578V4.85156Z" fill="#B4662D"/>
  <path d="M7.16881 6.93555H5.08691V9.01744H7.16881V6.93555Z" fill="#FCFF6A"/>
  <path d="M9.24986 6.93555H7.16797V9.01744H9.24986V6.93555Z" fill="#FCFF6A"/>
  <path d="M11.3319 6.93555H9.25V9.01744H11.3319V6.93555Z" fill="#910000"/>
  <path d="M13.4149 6.93555H11.333V9.01744H13.4149V6.93555Z" fill="#B4662D"/>
  <path d="M15.4959 6.93555H13.4141V9.01744H15.4959V6.93555Z" fill="#B4662D"/>
  <path d="M17.578 6.93555H15.4961V9.01744H17.578V6.93555Z" fill="#FCFF6A"/>
  <path d="M19.661 6.93555H17.5791V9.01744H19.661V6.93555Z" fill="#B4662D"/>
  <path d="M7.16881 9.01562H5.08691V11.0975H7.16881V9.01562Z" fill="#910000"/>
  <path d="M9.24986 9.01562H7.16797V11.0975H9.24986V9.01562Z" fill="#FFD600"/>
  <path d="M11.3319 9.01562H9.25V11.0975H11.3319V9.01562Z" fill="#910000"/>
  <path d="M13.4149 9.01562H11.333V11.0975H13.4149V9.01562Z" fill="#910000"/>
  <path d="M15.4959 9.01562H13.4141V11.0975H15.4959V9.01562Z" fill="#B4662D"/>
  <path d="M17.578 9.01562H15.4961V11.0975H17.578V9.01562Z" fill="#FFD600"/>
  <path d="M19.661 9.01562H17.5791V11.0975H19.661V9.01562Z" fill="#910000"/>
  <path d="M5.0858 11.0977H3.00391V13.1795H5.0858V11.0977Z" fill="#FCFF6A"/>
  <path d="M7.16881 11.0977H5.08691V13.1795H7.16881V11.0977Z" fill="#FFD600"/>
  <path d="M9.24986 11.0977H7.16797V13.1795H9.24986V11.0977Z" fill="#FFD600"/>
  <path d="M11.3319 11.0977H9.25V13.1795H11.3319V11.0977Z" fill="#FFD600"/>
  <path d="M13.4149 11.0977H11.333V13.1795H13.4149V11.0977Z" fill="#910000"/>
  <path d="M15.4959 11.0977H13.4141V13.1795H15.4959V11.0977Z" fill="#910000"/>
  <path d="M17.578 11.0977H15.4961V13.1795H17.578V11.0977Z" fill="#B4662D"/>
  <path d="M19.661 11.0977H17.5791V13.1795H19.661V11.0977Z" fill="#FFD600"/>
  <path d="M21.742 11.0977H19.6602V13.1795H21.742V11.0977Z" fill="#B4662D"/>
  <path d="M5.0858 13.1816H3.00391V15.2635H5.0858V13.1816Z" fill="#910000"/>
  <path d="M7.16881 13.1816H5.08691V15.2635H7.16881V13.1816Z" fill="#FCFF6A"/>
  <path d="M9.24986 13.1816H7.16797V15.2635H9.24986V13.1816Z" fill="#910000"/>
  <path d="M11.3319 13.1816H9.25V15.2635H11.3319V13.1816Z" fill="#FFD600"/>
  <path d="M13.4149 13.1816H11.333V15.2635H13.4149V13.1816Z" fill="#FFD600"/>
  <path d="M15.4959 13.1816H13.4141V15.2635H15.4959V13.1816Z" fill="#910000"/>
  <path d="M17.578 13.1816H15.4961V15.2635H17.578V13.1816Z" fill="#910000"/>
  <path d="M19.661 13.1816H17.5791V15.2635H19.661V13.1816Z" fill="#FCFF6A"/>
  <path d="M21.742 13.1816H19.6602V15.2635H21.742V13.1816Z" fill="#FFD600"/>
  <path d="M5.0858 15.2617H3.00391V17.3436H5.0858V15.2617Z" fill="#910000"/>
  <path d="M7.16881 15.2617H5.08691V17.3436H7.16881V15.2617Z" fill="#FFD600"/>
  <path d="M9.24986 15.2617H7.16797V17.3436H9.24986V15.2617Z" fill="#910000"/>
  <path d="M11.3319 15.2617H9.25V17.3436H11.3319V15.2617Z" fill="#910000"/>
  <path d="M13.4149 15.2617H11.333V17.3436H13.4149V15.2617Z" fill="#FFD600"/>
  <path d="M15.4959 15.2617H13.4141V17.3436H15.4959V15.2617Z" fill="#FFD600"/>
  <path d="M17.578 15.2617H15.4961V17.3436H17.578V15.2617Z" fill="#910000"/>
  <path d="M19.661 15.2617H17.5791V17.3436H19.661V15.2617Z" fill="#FCFF6A"/>
  <path d="M21.742 15.2617H19.6602V17.3436H21.742V15.2617Z" fill="#FFD600"/>
  <path d="M5.0858 17.3438H3.00391V19.4256H5.0858V17.3438Z" fill="#B4662D"/>
  <path d="M7.16881 17.3438H5.08691V19.4256H7.16881V17.3438Z" fill="#FFD600"/>
  <path d="M9.24986 17.3438H7.16797V19.4256H9.24986V17.3438Z" fill="#B4662D"/>
  <path d="M11.3319 17.3438H9.25V19.4256H11.3319V17.3438Z" fill="#910000"/>
  <path d="M13.4149 17.3438H11.333V19.4256H13.4149V17.3438Z" fill="#910000"/>
  <path d="M15.4959 17.3438H13.4141V19.4256H15.4959V17.3438Z" fill="#FFD600"/>
  <path d="M17.578 17.3438H15.4961V19.4256H17.578V17.3438Z" fill="#FFD600"/>
  <path d="M19.661 17.3438H17.5791V19.4256H19.661V17.3438Z" fill="#FCFF6A"/>
  <path d="M21.742 17.3438H19.6602V19.4256H21.742V17.3438Z" fill="#FFD600"/>
  <path d="M7.16881 19.4277H5.08691V21.5096H7.16881V19.4277Z" fill="#910000"/>
  <path d="M9.24986 19.4277H7.16797V21.5096H9.24986V19.4277Z" fill="#FFD600"/>
  <path d="M11.3319 19.4277H9.25V21.5096H11.3319V19.4277Z" fill="#B4662D"/>
  <path d="M13.4149 19.4277H11.333V21.5096H13.4149V19.4277Z" fill="#910000"/>
  <path d="M15.4959 19.4277H13.4141V21.5096H15.4959V19.4277Z" fill="#910000"/>
  <path d="M17.578 19.4277H15.4961V21.5096H17.578V19.4277Z" fill="#FCFF6A"/>
  <path d="M19.661 19.4277H17.5791V21.5096H19.661V19.4277Z" fill="#FFD600"/>
  <path d="M7.16881 21.5078H5.08691V23.5897H7.16881V21.5078Z" fill="#B4662D"/>
  <path d="M9.24986 21.5078H7.16797V23.5897H9.24986V21.5078Z" fill="#FFD600"/>
  <path d="M11.3319 21.5078H9.25V23.5897H11.3319V21.5078Z" fill="#B4662D"/>
  <path d="M13.4149 21.5078H11.333V23.5897H13.4149V21.5078Z" fill="#B4662D"/>
  <path d="M15.4959 21.5078H13.4141V23.5897H15.4959V21.5078Z" fill="#910000"/>
  <path d="M17.578 21.5078H15.4961V23.5897H17.578V21.5078Z" fill="#FFD600"/>
  <path d="M19.661 21.5078H17.5791V23.5897H19.661V21.5078Z" fill="#FFD600"/>
  <path d="M9.24986 23.5898H7.16797V25.6717H9.24986V23.5898Z" fill="#B4662D"/>
  <path d="M11.3319 23.5898H9.25V25.6717H11.3319V23.5898Z" fill="#FFD600"/>
  <path d="M13.4149 23.5898H11.333V25.6717H13.4149V23.5898Z" fill="#FCFF6A"/>
  <path d="M15.4959 23.5898H13.4141V25.6717H15.4959V23.5898Z" fill="#FCFF6A"/>
  <path d="M17.578 23.5898H15.4961V25.6717H17.578V23.5898Z" fill="#FFD600"/>
  <path d="M11.3319 25.6738H9.25V27.7557H11.3319V25.6738Z" fill="#B4662D"/>
  <path d="M13.4149 25.6738H11.333V27.7557H13.4149V25.6738Z" fill="#910000"/>
  <path d="M15.4959 25.6738H13.4141V27.7557H15.4959V25.6738Z" fill="#FFD600"/>
</svg>