<svg width="29" height="37" viewBox="0 0 29 37" fill="none" xmlns="http://www.w3.org/2000/svg">
<g id="Group 177889">
<g id="Group">
<path id="Vector" d="M15.3329 4.26562V2.26562H13.3329H10.9998H8.99976V4.26562V6.59877V8.59877H10.9998H13.3329H15.3329V6.59877V4.26562Z" fill="#41EAB7" stroke="#41EAB7" stroke-width="4"/>
<path id="Vector_2" d="M17.6669 4.26562V2.26562H15.6669H13.3337H11.3337V4.26562V6.59877V8.59877H13.3337H15.6669H17.6669V6.59877V4.26562Z" fill="#009177" stroke="#41EAB7" stroke-width="4"/>
<path id="Vector_3" d="M20.0001 4.26562V2.26562H18.0001H15.667H13.667V4.26562V6.59877V8.59877H15.667H18.0001H20.0001V6.59877V4.26562Z" fill="#2D43B4" stroke="#41EAB7" stroke-width="4"/>
<path id="Vector_4" d="M13.0004 6.59961V4.59961H11.0004H8.66724H6.66724V6.59961V8.93276V10.9328H8.66724H11.0004H13.0004V8.93276V6.59961Z" fill="#7DD0FF" stroke="#41EAB7" stroke-width="4"/>
<path id="Vector_5" d="M15.3329 6.59961V4.59961H13.3329H10.9998H8.99976V6.59961V8.93276V10.9328H10.9998H13.3329H15.3329V8.93276V6.59961Z" fill="#41EAB7" stroke="#41EAB7" stroke-width="4"/>
<path id="Vector_6" d="M17.6669 6.59961V4.59961H15.6669H13.3337H11.3337V6.59961V8.93276V10.9328H13.3337H15.6669H17.6669V8.93276V6.59961Z" fill="#41EAB7" stroke="#41EAB7" stroke-width="4"/>
<path id="Vector_7" d="M20.0001 6.59961V4.59961H18.0001H15.667H13.667V6.59961V8.93276V10.9328H15.667H18.0001H20.0001V8.93276V6.59961Z" fill="#7DD0FF" stroke="#41EAB7" stroke-width="4"/>
<path id="Vector_8" d="M22.3329 6.59961V4.59961H20.3329H17.9998H15.9998V6.59961V8.93276V10.9328H17.9998H20.3329H22.3329V8.93276V6.59961Z" fill="#2D43B4" stroke="#41EAB7" stroke-width="4"/>
<path id="Vector_9" d="M10.6666 8.93164V6.93164H8.66665H6.3335H4.3335V8.93164V11.2648V13.2648H6.3335H8.66665H10.6666V11.2648V8.93164Z" fill="#7DD0FF" stroke="#41EAB7" stroke-width="4"/>
<path id="Vector_10" d="M13.0004 8.93164V6.93164H11.0004H8.66724H6.66724V8.93164V11.2648V13.2648H8.66724H11.0004H13.0004V11.2648V8.93164Z" fill="#7DD0FF" stroke="#41EAB7" stroke-width="4"/>
<path id="Vector_11" d="M15.3329 8.93164V6.93164H13.3329H10.9998H8.99976V8.93164V11.2648V13.2648H10.9998H13.3329H15.3329V11.2648V8.93164Z" fill="#009177" stroke="#41EAB7" stroke-width="4"/>
<path id="Vector_12" d="M17.6669 8.93164V6.93164H15.6669H13.3337H11.3337V8.93164V11.2648V13.2648H13.3337H15.6669H17.6669V11.2648V8.93164Z" fill="#2D43B4" stroke="#41EAB7" stroke-width="4"/>
<path id="Vector_13" d="M20.0001 8.93164V6.93164H18.0001H15.667H13.667V8.93164V11.2648V13.2648H15.667H18.0001H20.0001V11.2648V8.93164Z" fill="#2D43B4" stroke="#41EAB7" stroke-width="4"/>
<path id="Vector_14" d="M22.3329 8.93164V6.93164H20.3329H17.9998H15.9998V8.93164V11.2648V13.2648H17.9998H20.3329H22.3329V11.2648V8.93164Z" fill="#7DD0FF" stroke="#41EAB7" stroke-width="4"/>
<path id="Vector_15" d="M24.6666 8.93164V6.93164H22.6666H20.3335H18.3335V8.93164V11.2648V13.2648H20.3335H22.6666H24.6666V11.2648V8.93164Z" fill="#2D43B4" stroke="#41EAB7" stroke-width="4"/>
<path id="Vector_16" d="M10.6666 11.2656V9.26562H8.66665H6.3335H4.3335V11.2656V13.5988V15.5988H6.3335H8.66665H10.6666V13.5988V11.2656Z" fill="#009177" stroke="#41EAB7" stroke-width="4"/>
<path id="Vector_17" d="M13.0004 11.2656V9.26562H11.0004H8.66724H6.66724V11.2656V13.5988V15.5988H8.66724H11.0004H13.0004V13.5988V11.2656Z" fill="white" stroke="#41EAB7" stroke-width="4"/>
<path id="Vector_18" d="M15.3329 11.2656V9.26562H13.3329H10.9998H8.99976V11.2656V13.5988V15.5988H10.9998H13.3329H15.3329V13.5988V11.2656Z" fill="#009177" stroke="#41EAB7" stroke-width="4"/>
<path id="Vector_19" d="M17.6669 11.2656V9.26562H15.6669H13.3337H11.3337V11.2656V13.5988V15.5988H13.3337H15.6669H17.6669V13.5988V11.2656Z" fill="#009177" stroke="#41EAB7" stroke-width="4"/>
<path id="Vector_20" d="M20.0001 11.2656V9.26562H18.0001H15.667H13.667V11.2656V13.5988V15.5988H15.667H18.0001H20.0001V13.5988V11.2656Z" fill="#2D43B4" stroke="#41EAB7" stroke-width="4"/>
<path id="Vector_21" d="M22.3329 11.2656V9.26562H20.3329H17.9998H15.9998V11.2656V13.5988V15.5988H17.9998H20.3329H22.3329V13.5988V11.2656Z" fill="#41EAB7" stroke="#41EAB7" stroke-width="4"/>
<path id="Vector_22" d="M24.6666 11.2656V9.26562H22.6666H20.3335H18.3335V11.2656V13.5988V15.5988H20.3335H22.6666H24.6666V13.5988V11.2656Z" fill="#009177" stroke="#41EAB7" stroke-width="4"/>
<path id="Vector_23" d="M8.33315 13.5996V11.5996H6.33315H4H2V13.5996V15.9328V17.9328H4H6.33315H8.33315V15.9328V13.5996Z" fill="#7DD0FF" stroke="#41EAB7" stroke-width="4"/>
<path id="Vector_24" d="M10.6666 13.5996V11.5996H8.66665H6.3335H4.3335V13.5996V15.9328V17.9328H6.3335H8.66665H10.6666V15.9328V13.5996Z" fill="white" stroke="#41EAB7" stroke-width="4"/>
<path id="Vector_25" d="M13.0004 13.5996V11.5996H11.0004H8.66724H6.66724V13.5996V15.9328V17.9328H8.66724H11.0004H13.0004V15.9328V13.5996Z" fill="#41EAB7" stroke="#41EAB7" stroke-width="4"/>
<path id="Vector_26" d="M15.3329 13.5996V11.5996H13.3329H10.9998H8.99976V13.5996V15.9328V17.9328H10.9998H13.3329H15.3329V15.9328V13.5996Z" fill="#41EAB7" stroke="#41EAB7" stroke-width="4"/>
<path id="Vector_27" d="M17.6669 13.5996V11.5996H15.6669H13.3337H11.3337V13.5996V15.9328V17.9328H13.3337H15.6669H17.6669V15.9328V13.5996Z" fill="#009177" stroke="#41EAB7" stroke-width="4"/>
<path id="Vector_28" d="M20.0001 13.5996V11.5996H18.0001H15.667H13.667V13.5996V15.9328V17.9328H15.667H18.0001H20.0001V15.9328V13.5996Z" fill="#009177" stroke="#41EAB7" stroke-width="4"/>
<path id="Vector_29" d="M22.3329 13.5996V11.5996H20.3329H17.9998H15.9998V13.5996V15.9328V17.9328H17.9998H20.3329H22.3329V15.9328V13.5996Z" fill="#2D43B4" stroke="#41EAB7" stroke-width="4"/>
<path id="Vector_30" d="M24.6666 13.5996V11.5996H22.6666H20.3335H18.3335V13.5996V15.9328V17.9328H20.3335H22.6666H24.6666V15.9328V13.5996Z" fill="#41EAB7" stroke="#41EAB7" stroke-width="4"/>
<path id="Vector_31" d="M27.0001 13.5996V11.5996H25.0001H22.667H20.667V13.5996V15.9328V17.9328H22.667H25.0001H27.0001V15.9328V13.5996Z" fill="#2D43B4" stroke="#41EAB7" stroke-width="4"/>
<path id="Vector_32" d="M8.33315 15.9336V13.9336H6.33315H4H2V15.9336V18.2667V20.2667H4H6.33315H8.33315V18.2667V15.9336Z" fill="#009177" stroke="#41EAB7" stroke-width="4"/>
<path id="Vector_33" d="M10.6666 15.9336V13.9336H8.66665H6.3335H4.3335V15.9336V18.2667V20.2667H6.3335H8.66665H10.6666V18.2667V15.9336Z" fill="#7DD0FF" stroke="#41EAB7" stroke-width="4"/>
<path id="Vector_34" d="M13.0004 15.9336V13.9336H11.0004H8.66724H6.66724V15.9336V18.2667V20.2667H8.66724H11.0004H13.0004V18.2667V15.9336Z" fill="#009177" stroke="#41EAB7" stroke-width="4"/>
<path id="Vector_35" d="M15.3329 15.9336V13.9336H13.3329H10.9998H8.99976V15.9336V18.2667V20.2667H10.9998H13.3329H15.3329V18.2667V15.9336Z" fill="#41EAB7" stroke="#41EAB7" stroke-width="4"/>
<path id="Vector_36" d="M17.6669 15.9336V13.9336H15.6669H13.3337H11.3337V15.9336V18.2667V20.2667H13.3337H15.6669H17.6669V18.2667V15.9336Z" fill="#41EAB7" stroke="#41EAB7" stroke-width="4"/>
<path id="Vector_37" d="M20.0001 15.9336V13.9336H18.0001H15.667H13.667V15.9336V18.2667V20.2667H15.667H18.0001H20.0001V18.2667V15.9336Z" fill="#009177" stroke="#41EAB7" stroke-width="4"/>
<path id="Vector_38" d="M22.3329 15.9336V13.9336H20.3329H17.9998H15.9998V15.9336V18.2667V20.2667H17.9998H20.3329H22.3329V18.2667V15.9336Z" fill="#009177" stroke="#41EAB7" stroke-width="4"/>
<path id="Vector_39" d="M24.6666 15.9336V13.9336H22.6666H20.3335H18.3335V15.9336V18.2667V20.2667H20.3335H22.6666H24.6666V18.2667V15.9336Z" fill="#7DD0FF" stroke="#41EAB7" stroke-width="4"/>
<path id="Vector_40" d="M27.0001 15.9336V13.9336H25.0001H22.667H20.667V15.9336V18.2667V20.2667H22.667H25.0001H27.0001V18.2667V15.9336Z" fill="#41EAB7" stroke="#41EAB7" stroke-width="4"/>
<path id="Vector_41" d="M8.33315 18.2656V16.2656H6.33315H4H2V18.2656V20.5988V22.5988H4H6.33315H8.33315V20.5988V18.2656Z" fill="#009177" stroke="#41EAB7" stroke-width="4"/>
<path id="Vector_42" d="M10.6666 18.2656V16.2656H8.66665H6.3335H4.3335V18.2656V20.5988V22.5988H6.3335H8.66665H10.6666V20.5988V18.2656Z" fill="#41EAB7" stroke="#41EAB7" stroke-width="4"/>
<path id="Vector_43" d="M13.0004 18.2656V16.2656H11.0004H8.66724H6.66724V18.2656V20.5988V22.5988H8.66724H11.0004H13.0004V20.5988V18.2656Z" fill="#009177" stroke="#41EAB7" stroke-width="4"/>
<path id="Vector_44" d="M15.3329 18.2656V16.2656H13.3329H10.9998H8.99976V18.2656V20.5988V22.5988H10.9998H13.3329H15.3329V20.5988V18.2656Z" fill="#009177" stroke="#41EAB7" stroke-width="4"/>
<path id="Vector_45" d="M17.6669 18.2656V16.2656H15.6669H13.3337H11.3337V18.2656V20.5988V22.5988H13.3337H15.6669H17.6669V20.5988V18.2656Z" fill="#41EAB7" stroke="#41EAB7" stroke-width="4"/>
<path id="Vector_46" d="M20.0001 18.2656V16.2656H18.0001H15.667H13.667V18.2656V20.5988V22.5988H15.667H18.0001H20.0001V20.5988V18.2656Z" fill="#41EAB7" stroke="#41EAB7" stroke-width="4"/>
<path id="Vector_47" d="M22.3329 18.2656V16.2656H20.3329H17.9998H15.9998V18.2656V20.5988V22.5988H17.9998H20.3329H22.3329V20.5988V18.2656Z" fill="#009177" stroke="#41EAB7" stroke-width="4"/>
<path id="Vector_48" d="M24.6666 18.2656V16.2656H22.6666H20.3335H18.3335V18.2656V20.5988V22.5988H20.3335H22.6666H24.6666V20.5988V18.2656Z" fill="#7DD0FF" stroke="#41EAB7" stroke-width="4"/>
<path id="Vector_49" d="M27.0001 18.2656V16.2656H25.0001H22.667H20.667V18.2656V20.5988V22.5988H22.667H25.0001H27.0001V20.5988V18.2656Z" fill="#41EAB7" stroke="#41EAB7" stroke-width="4"/>
<path id="Vector_50" d="M8.33315 20.5996V18.5996H6.33315H4H2V20.5996V22.9328V24.9328H4H6.33315H8.33315V22.9328V20.5996Z" fill="#2D43B4" stroke="#41EAB7" stroke-width="4"/>
<path id="Vector_51" d="M10.6666 20.5996V18.5996H8.66665H6.3335H4.3335V20.5996V22.9328V24.9328H6.3335H8.66665H10.6666V22.9328V20.5996Z" fill="#41EAB7" stroke="#41EAB7" stroke-width="4"/>
<path id="Vector_52" d="M13.0004 20.5996V18.5996H11.0004H8.66724H6.66724V20.5996V22.9328V24.9328H8.66724H11.0004H13.0004V22.9328V20.5996Z" fill="#2D43B4" stroke="#41EAB7" stroke-width="4"/>
<path id="Vector_53" d="M15.3329 20.5996V18.5996H13.3329H10.9998H8.99976V20.5996V22.9328V24.9328H10.9998H13.3329H15.3329V22.9328V20.5996Z" fill="#009177" stroke="#41EAB7" stroke-width="4"/>
<path id="Vector_54" d="M17.6669 20.5996V18.5996H15.6669H13.3337H11.3337V20.5996V22.9328V24.9328H13.3337H15.6669H17.6669V22.9328V20.5996Z" fill="#009177" stroke="#41EAB7" stroke-width="4"/>
<path id="Vector_55" d="M20.0001 20.5996V18.5996H18.0001H15.667H13.667V20.5996V22.9328V24.9328H15.667H18.0001H20.0001V22.9328V20.5996Z" fill="#41EAB7" stroke="#41EAB7" stroke-width="4"/>
<path id="Vector_56" d="M22.3329 20.5996V18.5996H20.3329H17.9998H15.9998V20.5996V22.9328V24.9328H17.9998H20.3329H22.3329V22.9328V20.5996Z" fill="#41EAB7" stroke="#41EAB7" stroke-width="4"/>
<path id="Vector_57" d="M24.6666 20.5996V18.5996H22.6666H20.3335H18.3335V20.5996V22.9328V24.9328H20.3335H22.6666H24.6666V22.9328V20.5996Z" fill="#7DD0FF" stroke="#41EAB7" stroke-width="4"/>
<path id="Vector_58" d="M27.0001 20.5996V18.5996H25.0001H22.667H20.667V20.5996V22.9328V24.9328H22.667H25.0001H27.0001V22.9328V20.5996Z" fill="#41EAB7" stroke="#41EAB7" stroke-width="4"/>
<path id="Vector_59" d="M10.6666 22.9336V20.9336H8.66665H6.3335H4.3335V22.9336V25.2667V27.2667H6.3335H8.66665H10.6666V25.2667V22.9336Z" fill="#009177" stroke="#41EAB7" stroke-width="4"/>
<path id="Vector_60" d="M13.0004 22.9336V20.9336H11.0004H8.66724H6.66724V22.9336V25.2667V27.2667H8.66724H11.0004H13.0004V25.2667V22.9336Z" fill="#41EAB7" stroke="#41EAB7" stroke-width="4"/>
<path id="Vector_61" d="M15.3329 22.9336V20.9336H13.3329H10.9998H8.99976V22.9336V25.2667V27.2667H10.9998H13.3329H15.3329V25.2667V22.9336Z" fill="#2D43B4" stroke="#41EAB7" stroke-width="4"/>
<path id="Vector_62" d="M17.6669 22.9336V20.9336H15.6669H13.3337H11.3337V22.9336V25.2667V27.2667H13.3337H15.6669H17.6669V25.2667V22.9336Z" fill="#009177" stroke="#41EAB7" stroke-width="4"/>
<path id="Vector_63" d="M20.0001 22.9336V20.9336H18.0001H15.667H13.667V22.9336V25.2667V27.2667H15.667H18.0001H20.0001V25.2667V22.9336Z" fill="#009177" stroke="#41EAB7" stroke-width="4"/>
<path id="Vector_64" d="M22.3329 22.9336V20.9336H20.3329H17.9998H15.9998V22.9336V25.2667V27.2667H17.9998H20.3329H22.3329V25.2667V22.9336Z" fill="#7DD0FF" stroke="#41EAB7" stroke-width="4"/>
<path id="Vector_65" d="M24.6666 22.9336V20.9336H22.6666H20.3335H18.3335V22.9336V25.2667V27.2667H20.3335H22.6666H24.6666V25.2667V22.9336Z" fill="#41EAB7" stroke="#41EAB7" stroke-width="4"/>
<path id="Vector_66" d="M10.6666 25.2637V23.2637H8.66665H6.3335H4.3335V25.2637V27.5968V29.5968H6.3335H8.66665H10.6666V27.5968V25.2637Z" fill="#2D43B4" stroke="#41EAB7" stroke-width="4"/>
<path id="Vector_67" d="M13.0004 25.2637V23.2637H11.0004H8.66724H6.66724V25.2637V27.5968V29.5968H8.66724H11.0004H13.0004V27.5968V25.2637Z" fill="#41EAB7" stroke="#41EAB7" stroke-width="4"/>
<path id="Vector_68" d="M15.3329 25.2637V23.2637H13.3329H10.9998H8.99976V25.2637V27.5968V29.5968H10.9998H13.3329H15.3329V27.5968V25.2637Z" fill="#2D43B4" stroke="#41EAB7" stroke-width="4"/>
<path id="Vector_69" d="M17.6669 25.2637V23.2637H15.6669H13.3337H11.3337V25.2637V27.5968V29.5968H13.3337H15.6669H17.6669V27.5968V25.2637Z" fill="#2D43B4" stroke="#41EAB7" stroke-width="4"/>
<path id="Vector_70" d="M20.0001 25.2637V23.2637H18.0001H15.667H13.667V25.2637V27.5968V29.5968H15.667H18.0001H20.0001V27.5968V25.2637Z" fill="#009177" stroke="#41EAB7" stroke-width="4"/>
<path id="Vector_71" d="M22.3329 25.2637V23.2637H20.3329H17.9998H15.9998V25.2637V27.5968V29.5968H17.9998H20.3329H22.3329V27.5968V25.2637Z" fill="white" stroke="#41EAB7" stroke-width="4"/>
<path id="Vector_72" d="M24.6666 25.2637V23.2637H22.6666H20.3335H18.3335V25.2637V27.5968V29.5968H20.3335H22.6666H24.6666V27.5968V25.2637Z" fill="#41EAB7" stroke="#41EAB7" stroke-width="4"/>
<path id="Vector_73" d="M13.0004 27.5977V25.5977H11.0004H8.66724H6.66724V27.5977V29.9308V31.9308H8.66724H11.0004H13.0004V29.9308V27.5977Z" fill="#2D43B4" stroke="#41EAB7" stroke-width="4"/>
<path id="Vector_74" d="M15.3329 27.5977V25.5977H13.3329H10.9998H8.99976V27.5977V29.9308V31.9308H10.9998H13.3329H15.3329V29.9308V27.5977Z" fill="#41EAB7" stroke="#41EAB7" stroke-width="4"/>
<path id="Vector_75" d="M17.6669 27.5977V25.5977H15.6669H13.3337H11.3337V27.5977V29.9308V31.9308H13.3337H15.6669H17.6669V29.9308V27.5977Z" fill="#7DD0FF" stroke="#41EAB7" stroke-width="4"/>
<path id="Vector_76" d="M20.0001 27.5977V25.5977H18.0001H15.667H13.667V27.5977V29.9308V31.9308H15.667H18.0001H20.0001V29.9308V27.5977Z" fill="#7DD0FF" stroke="#41EAB7" stroke-width="4"/>
<path id="Vector_77" d="M22.3329 27.5977V25.5977H20.3329H17.9998H15.9998V27.5977V29.9308V31.9308H17.9998H20.3329H22.3329V29.9308V27.5977Z" fill="#41EAB7" stroke="#41EAB7" stroke-width="4"/>
<path id="Vector_78" d="M15.3329 29.9316V27.9316H13.3329H10.9998H8.99976V29.9316V32.2648V34.2648H10.9998H13.3329H15.3329V32.2648V29.9316Z" fill="#2D43B4" stroke="#41EAB7" stroke-width="4"/>
<path id="Vector_79" d="M17.6669 29.9316V27.9316H15.6669H13.3337H11.3337V29.9316V32.2648V34.2648H13.3337H15.6669H17.6669V32.2648V29.9316Z" fill="#009177" stroke="#41EAB7" stroke-width="4"/>
<path id="Vector_80" d="M20.0001 29.9316V27.9316H18.0001H15.667H13.667V29.9316V32.2648V34.2648H15.667H18.0001H20.0001V32.2648V29.9316Z" fill="#41EAB7" stroke="#41EAB7" stroke-width="4"/>
</g>
<g id="Group_2">
<path id="Vector_81" d="M14.3329 4.26562V3.26562H13.3329H10.9998H9.99976V4.26562V6.59877V7.59877H10.9998H13.3329H14.3329V6.59877V4.26562Z" fill="#41EAB7" stroke="#0D594B" stroke-width="2"/>
<path id="Vector_82" d="M16.6669 4.26562V3.26562H15.6669H13.3337H12.3337V4.26562V6.59877V7.59877H13.3337H15.6669H16.6669V6.59877V4.26562Z" fill="#009177" stroke="#0D594B" stroke-width="2"/>
<path id="Vector_83" d="M19.0001 4.26562V3.26562H18.0001H15.667H14.667V4.26562V6.59877V7.59877H15.667H18.0001H19.0001V6.59877V4.26562Z" fill="#2D43B4" stroke="#0D594B" stroke-width="2"/>
<path id="Vector_84" d="M12.0004 6.59961V5.59961H11.0004H8.66724H7.66724V6.59961V8.93276V9.93276H8.66724H11.0004H12.0004V8.93276V6.59961Z" fill="#7DD0FF" stroke="#0D594B" stroke-width="2"/>
<path id="Vector_85" d="M14.3329 6.59961V5.59961H13.3329H10.9998H9.99976V6.59961V8.93276V9.93276H10.9998H13.3329H14.3329V8.93276V6.59961Z" fill="#41EAB7" stroke="#0D594B" stroke-width="2"/>
<path id="Vector_86" d="M16.6669 6.59961V5.59961H15.6669H13.3337H12.3337V6.59961V8.93276V9.93276H13.3337H15.6669H16.6669V8.93276V6.59961Z" fill="#41EAB7" stroke="#0D594B" stroke-width="2"/>
<path id="Vector_87" d="M19.0001 6.59961V5.59961H18.0001H15.667H14.667V6.59961V8.93276V9.93276H15.667H18.0001H19.0001V8.93276V6.59961Z" fill="#7DD0FF" stroke="#0D594B" stroke-width="2"/>
<path id="Vector_88" d="M21.3329 6.59961V5.59961H20.3329H17.9998H16.9998V6.59961V8.93276V9.93276H17.9998H20.3329H21.3329V8.93276V6.59961Z" fill="#2D43B4" stroke="#0D594B" stroke-width="2"/>
<path id="Vector_89" d="M9.66665 8.93164V7.93164H8.66665H6.3335H5.3335V8.93164V11.2648V12.2648H6.3335H8.66665H9.66665V11.2648V8.93164Z" fill="#7DD0FF" stroke="#0D594B" stroke-width="2"/>
<path id="Vector_90" d="M12.0004 8.93164V7.93164H11.0004H8.66724H7.66724V8.93164V11.2648V12.2648H8.66724H11.0004H12.0004V11.2648V8.93164Z" fill="#7DD0FF" stroke="#0D594B" stroke-width="2"/>
<path id="Vector_91" d="M14.3329 8.93164V7.93164H13.3329H10.9998H9.99976V8.93164V11.2648V12.2648H10.9998H13.3329H14.3329V11.2648V8.93164Z" fill="#009177" stroke="#0D594B" stroke-width="2"/>
<path id="Vector_92" d="M16.6669 8.93164V7.93164H15.6669H13.3337H12.3337V8.93164V11.2648V12.2648H13.3337H15.6669H16.6669V11.2648V8.93164Z" fill="#2D43B4" stroke="#0D594B" stroke-width="2"/>
<path id="Vector_93" d="M19.0001 8.93164V7.93164H18.0001H15.667H14.667V8.93164V11.2648V12.2648H15.667H18.0001H19.0001V11.2648V8.93164Z" fill="#2D43B4" stroke="#0D594B" stroke-width="2"/>
<path id="Vector_94" d="M21.3329 8.93164V7.93164H20.3329H17.9998H16.9998V8.93164V11.2648V12.2648H17.9998H20.3329H21.3329V11.2648V8.93164Z" fill="#7DD0FF" stroke="#0D594B" stroke-width="2"/>
<path id="Vector_95" d="M23.6666 8.93164V7.93164H22.6666H20.3335H19.3335V8.93164V11.2648V12.2648H20.3335H22.6666H23.6666V11.2648V8.93164Z" fill="#2D43B4" stroke="#0D594B" stroke-width="2"/>
<path id="Vector_96" d="M9.66665 11.2656V10.2656H8.66665H6.3335H5.3335V11.2656V13.5988V14.5988H6.3335H8.66665H9.66665V13.5988V11.2656Z" fill="#009177" stroke="#0D594B" stroke-width="2"/>
<path id="Vector_97" d="M12.0004 11.2656V10.2656H11.0004H8.66724H7.66724V11.2656V13.5988V14.5988H8.66724H11.0004H12.0004V13.5988V11.2656Z" fill="white" stroke="#0D594B" stroke-width="2"/>
<path id="Vector_98" d="M14.3329 11.2656V10.2656H13.3329H10.9998H9.99976V11.2656V13.5988V14.5988H10.9998H13.3329H14.3329V13.5988V11.2656Z" fill="#009177" stroke="#0D594B" stroke-width="2"/>
<path id="Vector_99" d="M16.6669 11.2656V10.2656H15.6669H13.3337H12.3337V11.2656V13.5988V14.5988H13.3337H15.6669H16.6669V13.5988V11.2656Z" fill="#009177" stroke="#0D594B" stroke-width="2"/>
<path id="Vector_100" d="M19.0001 11.2656V10.2656H18.0001H15.667H14.667V11.2656V13.5988V14.5988H15.667H18.0001H19.0001V13.5988V11.2656Z" fill="#2D43B4" stroke="#0D594B" stroke-width="2"/>
<path id="Vector_101" d="M21.3329 11.2656V10.2656H20.3329H17.9998H16.9998V11.2656V13.5988V14.5988H17.9998H20.3329H21.3329V13.5988V11.2656Z" fill="#41EAB7" stroke="#0D594B" stroke-width="2"/>
<path id="Vector_102" d="M23.6666 11.2656V10.2656H22.6666H20.3335H19.3335V11.2656V13.5988V14.5988H20.3335H22.6666H23.6666V13.5988V11.2656Z" fill="#009177" stroke="#0D594B" stroke-width="2"/>
<path id="Vector_103" d="M7.33315 13.5996V12.5996H6.33315H4H3V13.5996V15.9328V16.9328H4H6.33315H7.33315V15.9328V13.5996Z" fill="#7DD0FF" stroke="#0D594B" stroke-width="2"/>
<path id="Vector_104" d="M9.66665 13.5996V12.5996H8.66665H6.3335H5.3335V13.5996V15.9328V16.9328H6.3335H8.66665H9.66665V15.9328V13.5996Z" fill="white" stroke="#0D594B" stroke-width="2"/>
<path id="Vector_105" d="M12.0004 13.5996V12.5996H11.0004H8.66724H7.66724V13.5996V15.9328V16.9328H8.66724H11.0004H12.0004V15.9328V13.5996Z" fill="#41EAB7" stroke="#0D594B" stroke-width="2"/>
<path id="Vector_106" d="M14.3329 13.5996V12.5996H13.3329H10.9998H9.99976V13.5996V15.9328V16.9328H10.9998H13.3329H14.3329V15.9328V13.5996Z" fill="#41EAB7" stroke="#0D594B" stroke-width="2"/>
<path id="Vector_107" d="M16.6669 13.5996V12.5996H15.6669H13.3337H12.3337V13.5996V15.9328V16.9328H13.3337H15.6669H16.6669V15.9328V13.5996Z" fill="#009177" stroke="#0D594B" stroke-width="2"/>
<path id="Vector_108" d="M19.0001 13.5996V12.5996H18.0001H15.667H14.667V13.5996V15.9328V16.9328H15.667H18.0001H19.0001V15.9328V13.5996Z" fill="#009177" stroke="#0D594B" stroke-width="2"/>
<path id="Vector_109" d="M21.3329 13.5996V12.5996H20.3329H17.9998H16.9998V13.5996V15.9328V16.9328H17.9998H20.3329H21.3329V15.9328V13.5996Z" fill="#2D43B4" stroke="#0D594B" stroke-width="2"/>
<path id="Vector_110" d="M23.6666 13.5996V12.5996H22.6666H20.3335H19.3335V13.5996V15.9328V16.9328H20.3335H22.6666H23.6666V15.9328V13.5996Z" fill="#41EAB7" stroke="#0D594B" stroke-width="2"/>
<path id="Vector_111" d="M26.0001 13.5996V12.5996H25.0001H22.667H21.667V13.5996V15.9328V16.9328H22.667H25.0001H26.0001V15.9328V13.5996Z" fill="#2D43B4" stroke="#0D594B" stroke-width="2"/>
<path id="Vector_112" d="M7.33315 15.9336V14.9336H6.33315H4H3V15.9336V18.2667V19.2667H4H6.33315H7.33315V18.2667V15.9336Z" fill="#009177" stroke="#0D594B" stroke-width="2"/>
<path id="Vector_113" d="M9.66665 15.9336V14.9336H8.66665H6.3335H5.3335V15.9336V18.2667V19.2667H6.3335H8.66665H9.66665V18.2667V15.9336Z" fill="#7DD0FF" stroke="#0D594B" stroke-width="2"/>
<path id="Vector_114" d="M12.0004 15.9336V14.9336H11.0004H8.66724H7.66724V15.9336V18.2667V19.2667H8.66724H11.0004H12.0004V18.2667V15.9336Z" fill="#009177" stroke="#0D594B" stroke-width="2"/>
<path id="Vector_115" d="M14.3329 15.9336V14.9336H13.3329H10.9998H9.99976V15.9336V18.2667V19.2667H10.9998H13.3329H14.3329V18.2667V15.9336Z" fill="#41EAB7" stroke="#0D594B" stroke-width="2"/>
<path id="Vector_116" d="M16.6669 15.9336V14.9336H15.6669H13.3337H12.3337V15.9336V18.2667V19.2667H13.3337H15.6669H16.6669V18.2667V15.9336Z" fill="#41EAB7" stroke="#0D594B" stroke-width="2"/>
<path id="Vector_117" d="M19.0001 15.9336V14.9336H18.0001H15.667H14.667V15.9336V18.2667V19.2667H15.667H18.0001H19.0001V18.2667V15.9336Z" fill="#009177" stroke="#0D594B" stroke-width="2"/>
<path id="Vector_118" d="M21.3329 15.9336V14.9336H20.3329H17.9998H16.9998V15.9336V18.2667V19.2667H17.9998H20.3329H21.3329V18.2667V15.9336Z" fill="#009177" stroke="#0D594B" stroke-width="2"/>
<path id="Vector_119" d="M23.6666 15.9336V14.9336H22.6666H20.3335H19.3335V15.9336V18.2667V19.2667H20.3335H22.6666H23.6666V18.2667V15.9336Z" fill="#7DD0FF" stroke="#0D594B" stroke-width="2"/>
<path id="Vector_120" d="M26.0001 15.9336V14.9336H25.0001H22.667H21.667V15.9336V18.2667V19.2667H22.667H25.0001H26.0001V18.2667V15.9336Z" fill="#41EAB7" stroke="#0D594B" stroke-width="2"/>
<path id="Vector_121" d="M7.33315 18.2656V17.2656H6.33315H4H3V18.2656V20.5988V21.5988H4H6.33315H7.33315V20.5988V18.2656Z" fill="#009177" stroke="#0D594B" stroke-width="2"/>
<path id="Vector_122" d="M9.66665 18.2656V17.2656H8.66665H6.3335H5.3335V18.2656V20.5988V21.5988H6.3335H8.66665H9.66665V20.5988V18.2656Z" fill="#41EAB7" stroke="#0D594B" stroke-width="2"/>
<path id="Vector_123" d="M12.0004 18.2656V17.2656H11.0004H8.66724H7.66724V18.2656V20.5988V21.5988H8.66724H11.0004H12.0004V20.5988V18.2656Z" fill="#009177" stroke="#0D594B" stroke-width="2"/>
<path id="Vector_124" d="M14.3329 18.2656V17.2656H13.3329H10.9998H9.99976V18.2656V20.5988V21.5988H10.9998H13.3329H14.3329V20.5988V18.2656Z" fill="#009177" stroke="#0D594B" stroke-width="2"/>
<path id="Vector_125" d="M16.6669 18.2656V17.2656H15.6669H13.3337H12.3337V18.2656V20.5988V21.5988H13.3337H15.6669H16.6669V20.5988V18.2656Z" fill="#41EAB7" stroke="#0D594B" stroke-width="2"/>
<path id="Vector_126" d="M19.0001 18.2656V17.2656H18.0001H15.667H14.667V18.2656V20.5988V21.5988H15.667H18.0001H19.0001V20.5988V18.2656Z" fill="#41EAB7" stroke="#0D594B" stroke-width="2"/>
<path id="Vector_127" d="M21.3329 18.2656V17.2656H20.3329H17.9998H16.9998V18.2656V20.5988V21.5988H17.9998H20.3329H21.3329V20.5988V18.2656Z" fill="#009177" stroke="#0D594B" stroke-width="2"/>
<path id="Vector_128" d="M23.6666 18.2656V17.2656H22.6666H20.3335H19.3335V18.2656V20.5988V21.5988H20.3335H22.6666H23.6666V20.5988V18.2656Z" fill="#7DD0FF" stroke="#0D594B" stroke-width="2"/>
<path id="Vector_129" d="M26.0001 18.2656V17.2656H25.0001H22.667H21.667V18.2656V20.5988V21.5988H22.667H25.0001H26.0001V20.5988V18.2656Z" fill="#41EAB7" stroke="#0D594B" stroke-width="2"/>
<path id="Vector_130" d="M7.33315 20.5996V19.5996H6.33315H4H3V20.5996V22.9328V23.9328H4H6.33315H7.33315V22.9328V20.5996Z" fill="#2D43B4" stroke="#0D594B" stroke-width="2"/>
<path id="Vector_131" d="M9.66665 20.5996V19.5996H8.66665H6.3335H5.3335V20.5996V22.9328V23.9328H6.3335H8.66665H9.66665V22.9328V20.5996Z" fill="#41EAB7" stroke="#0D594B" stroke-width="2"/>
<path id="Vector_132" d="M12.0004 20.5996V19.5996H11.0004H8.66724H7.66724V20.5996V22.9328V23.9328H8.66724H11.0004H12.0004V22.9328V20.5996Z" fill="#2D43B4" stroke="#0D594B" stroke-width="2"/>
<path id="Vector_133" d="M14.3329 20.5996V19.5996H13.3329H10.9998H9.99976V20.5996V22.9328V23.9328H10.9998H13.3329H14.3329V22.9328V20.5996Z" fill="#009177" stroke="#0D594B" stroke-width="2"/>
<path id="Vector_134" d="M16.6669 20.5996V19.5996H15.6669H13.3337H12.3337V20.5996V22.9328V23.9328H13.3337H15.6669H16.6669V22.9328V20.5996Z" fill="#009177" stroke="#0D594B" stroke-width="2"/>
<path id="Vector_135" d="M19.0001 20.5996V19.5996H18.0001H15.667H14.667V20.5996V22.9328V23.9328H15.667H18.0001H19.0001V22.9328V20.5996Z" fill="#41EAB7" stroke="#0D594B" stroke-width="2"/>
<path id="Vector_136" d="M21.3329 20.5996V19.5996H20.3329H17.9998H16.9998V20.5996V22.9328V23.9328H17.9998H20.3329H21.3329V22.9328V20.5996Z" fill="#41EAB7" stroke="#0D594B" stroke-width="2"/>
<path id="Vector_137" d="M23.6666 20.5996V19.5996H22.6666H20.3335H19.3335V20.5996V22.9328V23.9328H20.3335H22.6666H23.6666V22.9328V20.5996Z" fill="#7DD0FF" stroke="#0D594B" stroke-width="2"/>
<path id="Vector_138" d="M26.0001 20.5996V19.5996H25.0001H22.667H21.667V20.5996V22.9328V23.9328H22.667H25.0001H26.0001V22.9328V20.5996Z" fill="#41EAB7" stroke="#0D594B" stroke-width="2"/>
<path id="Vector_139" d="M9.66665 22.9336V21.9336H8.66665H6.3335H5.3335V22.9336V25.2667V26.2667H6.3335H8.66665H9.66665V25.2667V22.9336Z" fill="#009177" stroke="#0D594B" stroke-width="2"/>
<path id="Vector_140" d="M12.0004 22.9336V21.9336H11.0004H8.66724H7.66724V22.9336V25.2667V26.2667H8.66724H11.0004H12.0004V25.2667V22.9336Z" fill="#41EAB7" stroke="#0D594B" stroke-width="2"/>
<path id="Vector_141" d="M14.3329 22.9336V21.9336H13.3329H10.9998H9.99976V22.9336V25.2667V26.2667H10.9998H13.3329H14.3329V25.2667V22.9336Z" fill="#2D43B4" stroke="#0D594B" stroke-width="2"/>
<path id="Vector_142" d="M16.6669 22.9336V21.9336H15.6669H13.3337H12.3337V22.9336V25.2667V26.2667H13.3337H15.6669H16.6669V25.2667V22.9336Z" fill="#009177" stroke="#0D594B" stroke-width="2"/>
<path id="Vector_143" d="M19.0001 22.9336V21.9336H18.0001H15.667H14.667V22.9336V25.2667V26.2667H15.667H18.0001H19.0001V25.2667V22.9336Z" fill="#009177" stroke="#0D594B" stroke-width="2"/>
<path id="Vector_144" d="M21.3329 22.9336V21.9336H20.3329H17.9998H16.9998V22.9336V25.2667V26.2667H17.9998H20.3329H21.3329V25.2667V22.9336Z" fill="#7DD0FF" stroke="#0D594B" stroke-width="2"/>
<path id="Vector_145" d="M23.6666 22.9336V21.9336H22.6666H20.3335H19.3335V22.9336V25.2667V26.2667H20.3335H22.6666H23.6666V25.2667V22.9336Z" fill="#41EAB7" stroke="#0D594B" stroke-width="2"/>
<path id="Vector_146" d="M9.66665 25.2637V24.2637H8.66665H6.3335H5.3335V25.2637V27.5968V28.5968H6.3335H8.66665H9.66665V27.5968V25.2637Z" fill="#2D43B4" stroke="#0D594B" stroke-width="2"/>
<path id="Vector_147" d="M12.0004 25.2637V24.2637H11.0004H8.66724H7.66724V25.2637V27.5968V28.5968H8.66724H11.0004H12.0004V27.5968V25.2637Z" fill="#41EAB7" stroke="#0D594B" stroke-width="2"/>
<path id="Vector_148" d="M14.3329 25.2637V24.2637H13.3329H10.9998H9.99976V25.2637V27.5968V28.5968H10.9998H13.3329H14.3329V27.5968V25.2637Z" fill="#2D43B4" stroke="#0D594B" stroke-width="2"/>
<path id="Vector_149" d="M16.6669 25.2637V24.2637H15.6669H13.3337H12.3337V25.2637V27.5968V28.5968H13.3337H15.6669H16.6669V27.5968V25.2637Z" fill="#2D43B4" stroke="#0D594B" stroke-width="2"/>
<path id="Vector_150" d="M19.0001 25.2637V24.2637H18.0001H15.667H14.667V25.2637V27.5968V28.5968H15.667H18.0001H19.0001V27.5968V25.2637Z" fill="#009177" stroke="#0D594B" stroke-width="2"/>
<path id="Vector_151" d="M21.3329 25.2637V24.2637H20.3329H17.9998H16.9998V25.2637V27.5968V28.5968H17.9998H20.3329H21.3329V27.5968V25.2637Z" fill="white" stroke="#0D594B" stroke-width="2"/>
<path id="Vector_152" d="M23.6666 25.2637V24.2637H22.6666H20.3335H19.3335V25.2637V27.5968V28.5968H20.3335H22.6666H23.6666V27.5968V25.2637Z" fill="#41EAB7" stroke="#0D594B" stroke-width="2"/>
<path id="Vector_153" d="M12.0004 27.5977V26.5977H11.0004H8.66724H7.66724V27.5977V29.9308V30.9308H8.66724H11.0004H12.0004V29.9308V27.5977Z" fill="#2D43B4" stroke="#0D594B" stroke-width="2"/>
<path id="Vector_154" d="M14.3329 27.5977V26.5977H13.3329H10.9998H9.99976V27.5977V29.9308V30.9308H10.9998H13.3329H14.3329V29.9308V27.5977Z" fill="#41EAB7" stroke="#0D594B" stroke-width="2"/>
<path id="Vector_155" d="M16.6669 27.5977V26.5977H15.6669H13.3337H12.3337V27.5977V29.9308V30.9308H13.3337H15.6669H16.6669V29.9308V27.5977Z" fill="#7DD0FF" stroke="#0D594B" stroke-width="2"/>
<path id="Vector_156" d="M19.0001 27.5977V26.5977H18.0001H15.667H14.667V27.5977V29.9308V30.9308H15.667H18.0001H19.0001V29.9308V27.5977Z" fill="#7DD0FF" stroke="#0D594B" stroke-width="2"/>
<path id="Vector_157" d="M21.3329 27.5977V26.5977H20.3329H17.9998H16.9998V27.5977V29.9308V30.9308H17.9998H20.3329H21.3329V29.9308V27.5977Z" fill="#41EAB7" stroke="#0D594B" stroke-width="2"/>
<path id="Vector_158" d="M14.3329 29.9316V28.9316H13.3329H10.9998H9.99976V29.9316V32.2648V33.2648H10.9998H13.3329H14.3329V32.2648V29.9316Z" fill="#2D43B4" stroke="#0D594B" stroke-width="2"/>
<path id="Vector_159" d="M16.6669 29.9316V28.9316H15.6669H13.3337H12.3337V29.9316V32.2648V33.2648H13.3337H15.6669H16.6669V32.2648V29.9316Z" fill="#009177" stroke="#0D594B" stroke-width="2"/>
<path id="Vector_160" d="M19.0001 29.9316V28.9316H18.0001H15.667H14.667V29.9316V32.2648V33.2648H15.667H18.0001H19.0001V32.2648V29.9316Z" fill="#41EAB7" stroke="#0D594B" stroke-width="2"/>
</g>
<g id="Group_3">
<path id="Vector_161" d="M13.3329 4.26562H10.9998V6.59877H13.3329V4.26562Z" fill="#41EAB7"/>
<path id="Vector_162" d="M15.6669 4.26562H13.3337V6.59877H15.6669V4.26562Z" fill="#009177"/>
<path id="Vector_163" d="M18.0001 4.26562H15.667V6.59877H18.0001V4.26562Z" fill="#2D43B4"/>
<path id="Vector_164" d="M11.0004 6.59961H8.66724V8.93276H11.0004V6.59961Z" fill="#7DD0FF"/>
<path id="Vector_165" d="M13.3329 6.59961H10.9998V8.93276H13.3329V6.59961Z" fill="#41EAB7"/>
<path id="Vector_166" d="M15.6669 6.59961H13.3337V8.93276H15.6669V6.59961Z" fill="#41EAB7"/>
<path id="Vector_167" d="M18.0001 6.59961H15.667V8.93276H18.0001V6.59961Z" fill="#7DD0FF"/>
<path id="Vector_168" d="M20.3329 6.59961H17.9998V8.93276H20.3329V6.59961Z" fill="#2D43B4"/>
<path id="Vector_169" d="M8.66665 8.93164H6.3335V11.2648H8.66665V8.93164Z" fill="#7DD0FF"/>
<path id="Vector_170" d="M11.0004 8.93164H8.66724V11.2648H11.0004V8.93164Z" fill="#7DD0FF"/>
<path id="Vector_171" d="M13.3329 8.93164H10.9998V11.2648H13.3329V8.93164Z" fill="#009177"/>
<path id="Vector_172" d="M15.6669 8.93164H13.3337V11.2648H15.6669V8.93164Z" fill="#2D43B4"/>
<path id="Vector_173" d="M18.0001 8.93164H15.667V11.2648H18.0001V8.93164Z" fill="#2D43B4"/>
<path id="Vector_174" d="M20.3329 8.93164H17.9998V11.2648H20.3329V8.93164Z" fill="#7DD0FF"/>
<path id="Vector_175" d="M22.6666 8.93164H20.3335V11.2648H22.6666V8.93164Z" fill="#2D43B4"/>
<path id="Vector_176" d="M8.66665 11.2656H6.3335V13.5988H8.66665V11.2656Z" fill="#009177"/>
<path id="Vector_177" d="M11.0004 11.2656H8.66724V13.5988H11.0004V11.2656Z" fill="white"/>
<path id="Vector_178" d="M13.3329 11.2656H10.9998V13.5988H13.3329V11.2656Z" fill="#009177"/>
<path id="Vector_179" d="M15.6669 11.2656H13.3337V13.5988H15.6669V11.2656Z" fill="#009177"/>
<path id="Vector_180" d="M18.0001 11.2656H15.667V13.5988H18.0001V11.2656Z" fill="#2D43B4"/>
<path id="Vector_181" d="M20.3329 11.2656H17.9998V13.5988H20.3329V11.2656Z" fill="#41EAB7"/>
<path id="Vector_182" d="M22.6666 11.2656H20.3335V13.5988H22.6666V11.2656Z" fill="#009177"/>
<path id="Vector_183" d="M6.33315 13.5996H4V15.9328H6.33315V13.5996Z" fill="#7DD0FF"/>
<path id="Vector_184" d="M8.66665 13.5996H6.3335V15.9328H8.66665V13.5996Z" fill="white"/>
<path id="Vector_185" d="M11.0004 13.5996H8.66724V15.9328H11.0004V13.5996Z" fill="#41EAB7"/>
<path id="Vector_186" d="M13.3329 13.5996H10.9998V15.9328H13.3329V13.5996Z" fill="#41EAB7"/>
<path id="Vector_187" d="M15.6669 13.5996H13.3337V15.9328H15.6669V13.5996Z" fill="#009177"/>
<path id="Vector_188" d="M18.0001 13.5996H15.667V15.9328H18.0001V13.5996Z" fill="#009177"/>
<path id="Vector_189" d="M20.3329 13.5996H17.9998V15.9328H20.3329V13.5996Z" fill="#2D43B4"/>
<path id="Vector_190" d="M22.6666 13.5996H20.3335V15.9328H22.6666V13.5996Z" fill="#41EAB7"/>
<path id="Vector_191" d="M25.0001 13.5996H22.667V15.9328H25.0001V13.5996Z" fill="#2D43B4"/>
<path id="Vector_192" d="M6.33315 15.9336H4V18.2667H6.33315V15.9336Z" fill="#009177"/>
<path id="Vector_193" d="M8.66665 15.9336H6.3335V18.2667H8.66665V15.9336Z" fill="#7DD0FF"/>
<path id="Vector_194" d="M11.0004 15.9336H8.66724V18.2667H11.0004V15.9336Z" fill="#009177"/>
<path id="Vector_195" d="M13.3329 15.9336H10.9998V18.2667H13.3329V15.9336Z" fill="#41EAB7"/>
<path id="Vector_196" d="M15.6669 15.9336H13.3337V18.2667H15.6669V15.9336Z" fill="#41EAB7"/>
<path id="Vector_197" d="M18.0001 15.9336H15.667V18.2667H18.0001V15.9336Z" fill="#009177"/>
<path id="Vector_198" d="M20.3329 15.9336H17.9998V18.2667H20.3329V15.9336Z" fill="#009177"/>
<path id="Vector_199" d="M22.6666 15.9336H20.3335V18.2667H22.6666V15.9336Z" fill="#7DD0FF"/>
<path id="Vector_200" d="M25.0001 15.9336H22.667V18.2667H25.0001V15.9336Z" fill="#41EAB7"/>
<path id="Vector_201" d="M6.33315 18.2656H4V20.5988H6.33315V18.2656Z" fill="#009177"/>
<path id="Vector_202" d="M8.66665 18.2656H6.3335V20.5988H8.66665V18.2656Z" fill="#41EAB7"/>
<path id="Vector_203" d="M11.0004 18.2656H8.66724V20.5988H11.0004V18.2656Z" fill="#009177"/>
<path id="Vector_204" d="M13.3329 18.2656H10.9998V20.5988H13.3329V18.2656Z" fill="#009177"/>
<path id="Vector_205" d="M15.6669 18.2656H13.3337V20.5988H15.6669V18.2656Z" fill="#41EAB7"/>
<path id="Vector_206" d="M18.0001 18.2656H15.667V20.5988H18.0001V18.2656Z" fill="#41EAB7"/>
<path id="Vector_207" d="M20.3329 18.2656H17.9998V20.5988H20.3329V18.2656Z" fill="#009177"/>
<path id="Vector_208" d="M22.6666 18.2656H20.3335V20.5988H22.6666V18.2656Z" fill="#7DD0FF"/>
<path id="Vector_209" d="M25.0001 18.2656H22.667V20.5988H25.0001V18.2656Z" fill="#41EAB7"/>
<path id="Vector_210" d="M6.33315 20.5996H4V22.9328H6.33315V20.5996Z" fill="#2D43B4"/>
<path id="Vector_211" d="M8.66665 20.5996H6.3335V22.9328H8.66665V20.5996Z" fill="#41EAB7"/>
<path id="Vector_212" d="M11.0004 20.5996H8.66724V22.9328H11.0004V20.5996Z" fill="#2D43B4"/>
<path id="Vector_213" d="M13.3329 20.5996H10.9998V22.9328H13.3329V20.5996Z" fill="#009177"/>
<path id="Vector_214" d="M15.6669 20.5996H13.3337V22.9328H15.6669V20.5996Z" fill="#009177"/>
<path id="Vector_215" d="M18.0001 20.5996H15.667V22.9328H18.0001V20.5996Z" fill="#41EAB7"/>
<path id="Vector_216" d="M20.3329 20.5996H17.9998V22.9328H20.3329V20.5996Z" fill="#41EAB7"/>
<path id="Vector_217" d="M22.6666 20.5996H20.3335V22.9328H22.6666V20.5996Z" fill="#7DD0FF"/>
<path id="Vector_218" d="M25.0001 20.5996H22.667V22.9328H25.0001V20.5996Z" fill="#41EAB7"/>
<path id="Vector_219" d="M8.66665 22.9336H6.3335V25.2667H8.66665V22.9336Z" fill="#009177"/>
<path id="Vector_220" d="M11.0004 22.9336H8.66724V25.2667H11.0004V22.9336Z" fill="#41EAB7"/>
<path id="Vector_221" d="M13.3329 22.9336H10.9998V25.2667H13.3329V22.9336Z" fill="#2D43B4"/>
<path id="Vector_222" d="M15.6669 22.9336H13.3337V25.2667H15.6669V22.9336Z" fill="#009177"/>
<path id="Vector_223" d="M18.0001 22.9336H15.667V25.2667H18.0001V22.9336Z" fill="#009177"/>
<path id="Vector_224" d="M20.3329 22.9336H17.9998V25.2667H20.3329V22.9336Z" fill="#7DD0FF"/>
<path id="Vector_225" d="M22.6666 22.9336H20.3335V25.2667H22.6666V22.9336Z" fill="#41EAB7"/>
<path id="Vector_226" d="M8.66665 25.2637H6.3335V27.5968H8.66665V25.2637Z" fill="#2D43B4"/>
<path id="Vector_227" d="M11.0004 25.2637H8.66724V27.5968H11.0004V25.2637Z" fill="#41EAB7"/>
<path id="Vector_228" d="M13.3329 25.2637H10.9998V27.5968H13.3329V25.2637Z" fill="#2D43B4"/>
<path id="Vector_229" d="M15.6669 25.2637H13.3337V27.5968H15.6669V25.2637Z" fill="#2D43B4"/>
<path id="Vector_230" d="M18.0001 25.2637H15.667V27.5968H18.0001V25.2637Z" fill="#009177"/>
<path id="Vector_231" d="M20.3329 25.2637H17.9998V27.5968H20.3329V25.2637Z" fill="white"/>
<path id="Vector_232" d="M22.6666 25.2637H20.3335V27.5968H22.6666V25.2637Z" fill="#41EAB7"/>
<path id="Vector_233" d="M11.0004 27.5977H8.66724V29.9308H11.0004V27.5977Z" fill="#2D43B4"/>
<path id="Vector_234" d="M13.3329 27.5977H10.9998V29.9308H13.3329V27.5977Z" fill="#41EAB7"/>
<path id="Vector_235" d="M15.6669 27.5977H13.3337V29.9308H15.6669V27.5977Z" fill="#7DD0FF"/>
<path id="Vector_236" d="M18.0001 27.5977H15.667V29.9308H18.0001V27.5977Z" fill="#7DD0FF"/>
<path id="Vector_237" d="M20.3329 27.5977H17.9998V29.9308H20.3329V27.5977Z" fill="#41EAB7"/>
<path id="Vector_238" d="M13.3329 29.9316H10.9998V32.2648H13.3329V29.9316Z" fill="#2D43B4"/>
<path id="Vector_239" d="M15.6669 29.9316H13.3337V32.2648H15.6669V29.9316Z" fill="#009177"/>
<path id="Vector_240" d="M18.0001 29.9316H15.667V32.2648H18.0001V29.9316Z" fill="#41EAB7"/>
</g>
</g>
</svg>
