<svg width="19" height="23" viewBox="0 0 19 23" fill="none" xmlns="http://www.w3.org/2000/svg">
<path d="M9.57068 2.4043V1.54131H8.70769H7.10913H6.24615V2.4043V3.96639V4.82938H7.10913H8.70769H9.57068V3.96639V2.4043Z" fill="#FFD600" stroke="#0D0D0D" stroke-width="1.72597"/>
<path d="M11.1698 2.4043V1.54131H10.3068H8.70825H7.84527V2.4043V3.96639V4.82938H8.70825H10.3068H11.1698V3.96639V2.4043Z" fill="#910000" stroke="#0D0D0D" stroke-width="1.72597"/>
<path d="M12.7682 2.4043V1.54131H11.9052H10.3066H9.44366V2.4043V3.96639V4.82938H10.3066H11.9052H12.7682V3.96639V2.4043Z" fill="#B4662D" stroke="#0D0D0D" stroke-width="1.72597"/>
<path d="M7.97205 3.9668V3.10381H7.10907H5.5105H4.64751V3.9668V5.52889V6.39188H5.5105H7.10907H7.97205V5.52889V3.9668Z" fill="#FCFF6A" stroke="#0D0D0D" stroke-width="1.72597"/>
<path d="M9.57068 3.9668V3.10381H8.70769H7.10913H6.24615V3.9668V5.52889V6.39188H7.10913H8.70769H9.57068V5.52889V3.9668Z" fill="#FFD600" stroke="#0D0D0D" stroke-width="1.72597"/>
<path d="M11.1698 3.9668V3.10381H10.3068H8.70825H7.84527V3.9668V5.52889V6.39188H8.70825H10.3068H11.1698V5.52889V3.9668Z" fill="#FFD600" stroke="#0D0D0D" stroke-width="1.72597"/>
<path d="M12.7682 3.9668V3.10381H11.9052H10.3066H9.44366V3.9668V5.52889V6.39188H10.3066H11.9052H12.7682V5.52889V3.9668Z" fill="#FCFF6A" stroke="#0D0D0D" stroke-width="1.72597"/>
<path d="M14.3668 3.9668V3.10381H13.5038H11.9053H11.0423V3.9668V5.52889V6.39188H11.9053H13.5038H14.3668V5.52889V3.9668Z" fill="#B4662D" stroke="#0D0D0D" stroke-width="1.72597"/>
<path d="M6.37366 5.5293V4.66631H5.51068H3.91211H3.04913V5.5293V7.09139V7.95438H3.91211H5.51068H6.37366V7.09139V5.5293Z" fill="#FCFF6A" stroke="#0D0D0D" stroke-width="1.72597"/>
<path d="M7.97205 5.5293V4.66631H7.10907H5.5105H4.64751V5.5293V7.09139V7.95438H5.5105H7.10907H7.97205V7.09139V5.5293Z" fill="#FCFF6A" stroke="#0D0D0D" stroke-width="1.72597"/>
<path d="M9.57068 5.5293V4.66631H8.70769H7.10913H6.24615V5.5293V7.09139V7.95438H7.10913H8.70769H9.57068V7.09139V5.5293Z" fill="#910000" stroke="#0D0D0D" stroke-width="1.72597"/>
<path d="M11.1698 5.5293V4.66631H10.3068H8.70825H7.84527V5.5293V7.09139V7.95438H8.70825H10.3068H11.1698V7.09139V5.5293Z" fill="#B4662D" stroke="#0D0D0D" stroke-width="1.72597"/>
<path d="M12.7682 5.5293V4.66631H11.9052H10.3066H9.44366V5.5293V7.09139V7.95438H10.3066H11.9052H12.7682V7.09139V5.5293Z" fill="#B4662D" stroke="#0D0D0D" stroke-width="1.72597"/>
<path d="M14.3668 5.5293V4.66631H13.5038H11.9053H11.0423V5.5293V7.09139V7.95438H11.9053H13.5038H14.3668V7.09139V5.5293Z" fill="#FCFF6A" stroke="#0D0D0D" stroke-width="1.72597"/>
<path d="M15.9659 5.5293V4.66631H15.103H13.5044H12.6414V5.5293V7.09139V7.95438H13.5044H15.103H15.9659V7.09139V5.5293Z" fill="#B4662D" stroke="#0D0D0D" stroke-width="1.72597"/>
<path d="M6.37366 7.0918V6.22881H5.51068H3.91211H3.04913V7.0918V8.6539V9.51688H3.91211H5.51068H6.37366V8.6539V7.0918Z" fill="#910000" stroke="#0D0D0D" stroke-width="1.72597"/>
<path d="M7.97205 7.0918V6.22881H7.10907H5.5105H4.64751V7.0918V8.6539V9.51688H5.5105H7.10907H7.97205V8.6539V7.0918Z" fill="#FFD600" stroke="#0D0D0D" stroke-width="1.72597"/>
<path d="M9.57068 7.0918V6.22881H8.70769H7.10913H6.24615V7.0918V8.6539V9.51688H7.10913H8.70769H9.57068V8.6539V7.0918Z" fill="#910000" stroke="#0D0D0D" stroke-width="1.72597"/>
<path d="M11.1698 7.0918V6.22881H10.3068H8.70825H7.84527V7.0918V8.6539V9.51688H8.70825H10.3068H11.1698V8.6539V7.0918Z" fill="#910000" stroke="#0D0D0D" stroke-width="1.72597"/>
<path d="M12.7682 7.0918V6.22881H11.9052H10.3066H9.44366V7.0918V8.6539V9.51688H10.3066H11.9052H12.7682V8.6539V7.0918Z" fill="#B4662D" stroke="#0D0D0D" stroke-width="1.72597"/>
<path d="M14.3668 7.0918V6.22881H13.5038H11.9053H11.0423V7.0918V8.6539V9.51688H11.9053H13.5038H14.3668V8.6539V7.0918Z" fill="#FFD600" stroke="#0D0D0D" stroke-width="1.72597"/>
<path d="M15.9659 7.0918V6.22881H15.103H13.5044H12.6414V7.0918V8.6539V9.51688H13.5044H15.103H15.9659V8.6539V7.0918Z" fill="#910000" stroke="#0D0D0D" stroke-width="1.72597"/>
<path d="M4.77478 8.6543V7.79131H3.9118H2.31323H1.45025V8.6543V10.2164V11.0794H2.31323H3.9118H4.77478V10.2164V8.6543Z" fill="#FCFF6A" stroke="#0D0D0D" stroke-width="1.72597"/>
<path d="M6.37366 8.6543V7.79131H5.51068H3.91211H3.04913V8.6543V10.2164V11.0794H3.91211H5.51068H6.37366V10.2164V8.6543Z" fill="#FFD600" stroke="#0D0D0D" stroke-width="1.72597"/>
<path d="M7.97205 8.6543V7.79131H7.10907H5.5105H4.64751V8.6543V10.2164V11.0794H5.5105H7.10907H7.97205V10.2164V8.6543Z" fill="#FFD600" stroke="#0D0D0D" stroke-width="1.72597"/>
<path d="M9.57068 8.6543V7.79131H8.70769H7.10913H6.24615V8.6543V10.2164V11.0794H7.10913H8.70769H9.57068V10.2164V8.6543Z" fill="#FFD600" stroke="#0D0D0D" stroke-width="1.72597"/>
<path d="M11.1698 8.6543V7.79131H10.3068H8.70825H7.84527V8.6543V10.2164V11.0794H8.70825H10.3068H11.1698V10.2164V8.6543Z" fill="#910000" stroke="#0D0D0D" stroke-width="1.72597"/>
<path d="M12.7682 8.6543V7.79131H11.9052H10.3066H9.44366V8.6543V10.2164V11.0794H10.3066H11.9052H12.7682V10.2164V8.6543Z" fill="#910000" stroke="#0D0D0D" stroke-width="1.72597"/>
<path d="M14.3668 8.6543V7.79131H13.5038H11.9053H11.0423V8.6543V10.2164V11.0794H11.9053H13.5038H14.3668V10.2164V8.6543Z" fill="#B4662D" stroke="#0D0D0D" stroke-width="1.72597"/>
<path d="M15.9659 8.6543V7.79131H15.103H13.5044H12.6414V8.6543V10.2164V11.0794H13.5044H15.103H15.9659V10.2164V8.6543Z" fill="#FFD600" stroke="#0D0D0D" stroke-width="1.72597"/>
<path d="M17.5643 8.6543V7.79131H16.7014H15.1028H14.2398V8.6543V10.2164V11.0794H15.1028H16.7014H17.5643V10.2164V8.6543Z" fill="#B4662D" stroke="#0D0D0D" stroke-width="1.72597"/>
<path d="M4.77478 10.2168V9.35381H3.9118H2.31323H1.45025V10.2168V11.7789V12.6419H2.31323H3.9118H4.77478V11.7789V10.2168Z" fill="#910000" stroke="#0D0D0D" stroke-width="1.72597"/>
<path d="M6.37366 10.2168V9.35381H5.51068H3.91211H3.04913V10.2168V11.7789V12.6419H3.91211H5.51068H6.37366V11.7789V10.2168Z" fill="#FCFF6A" stroke="#0D0D0D" stroke-width="1.72597"/>
<path d="M7.97205 10.2168V9.35381H7.10907H5.5105H4.64751V10.2168V11.7789V12.6419H5.5105H7.10907H7.97205V11.7789V10.2168Z" fill="#910000" stroke="#0D0D0D" stroke-width="1.72597"/>
<path d="M9.57068 10.2168V9.35381H8.70769H7.10913H6.24615V10.2168V11.7789V12.6419H7.10913H8.70769H9.57068V11.7789V10.2168Z" fill="#FFD600" stroke="#0D0D0D" stroke-width="1.72597"/>
<path d="M11.1698 10.2168V9.35381H10.3068H8.70825H7.84527V10.2168V11.7789V12.6419H8.70825H10.3068H11.1698V11.7789V10.2168Z" fill="#FFD600" stroke="#0D0D0D" stroke-width="1.72597"/>
<path d="M12.7682 10.2168V9.35381H11.9052H10.3066H9.44366V10.2168V11.7789V12.6419H10.3066H11.9052H12.7682V11.7789V10.2168Z" fill="#910000" stroke="#0D0D0D" stroke-width="1.72597"/>
<path d="M14.3668 10.2168V9.35381H13.5038H11.9053H11.0423V10.2168V11.7789V12.6419H11.9053H13.5038H14.3668V11.7789V10.2168Z" fill="#910000" stroke="#0D0D0D" stroke-width="1.72597"/>
<path d="M15.9659 10.2168V9.35381H15.103H13.5044H12.6414V10.2168V11.7789V12.6419H13.5044H15.103H15.9659V11.7789V10.2168Z" fill="#FCFF6A" stroke="#0D0D0D" stroke-width="1.72597"/>
<path d="M17.5643 10.2168V9.35381H16.7014H15.1028H14.2398V10.2168V11.7789V12.6419H15.1028H16.7014H17.5643V11.7789V10.2168Z" fill="#FFD600" stroke="#0D0D0D" stroke-width="1.72597"/>
<path d="M4.77478 11.7773V10.9144H3.9118H2.31323H1.45025V11.7773V13.3394V14.2024H2.31323H3.9118H4.77478V13.3394V11.7773Z" fill="#910000" stroke="#0D0D0D" stroke-width="1.72597"/>
<path d="M6.37366 11.7773V10.9144H5.51068H3.91211H3.04913V11.7773V13.3394V14.2024H3.91211H5.51068H6.37366V13.3394V11.7773Z" fill="#FFD600" stroke="#0D0D0D" stroke-width="1.72597"/>
<path d="M7.97205 11.7773V10.9144H7.10907H5.5105H4.64751V11.7773V13.3394V14.2024H5.5105H7.10907H7.97205V13.3394V11.7773Z" fill="#910000" stroke="#0D0D0D" stroke-width="1.72597"/>
<path d="M9.57068 11.7773V10.9144H8.70769H7.10913H6.24615V11.7773V13.3394V14.2024H7.10913H8.70769H9.57068V13.3394V11.7773Z" fill="#910000" stroke="#0D0D0D" stroke-width="1.72597"/>
<path d="M11.1698 11.7773V10.9144H10.3068H8.70825H7.84527V11.7773V13.3394V14.2024H8.70825H10.3068H11.1698V13.3394V11.7773Z" fill="#FFD600" stroke="#0D0D0D" stroke-width="1.72597"/>
<path d="M12.7682 11.7773V10.9144H11.9052H10.3066H9.44366V11.7773V13.3394V14.2024H10.3066H11.9052H12.7682V13.3394V11.7773Z" fill="#FFD600" stroke="#0D0D0D" stroke-width="1.72597"/>
<path d="M14.3668 11.7773V10.9144H13.5038H11.9053H11.0423V11.7773V13.3394V14.2024H11.9053H13.5038H14.3668V13.3394V11.7773Z" fill="#910000" stroke="#0D0D0D" stroke-width="1.72597"/>
<path d="M15.9659 11.7773V10.9144H15.103H13.5044H12.6414V11.7773V13.3394V14.2024H13.5044H15.103H15.9659V13.3394V11.7773Z" fill="#FCFF6A" stroke="#0D0D0D" stroke-width="1.72597"/>
<path d="M17.5643 11.7773V10.9144H16.7014H15.1028H14.2398V11.7773V13.3394V14.2024H15.1028H16.7014H17.5643V13.3394V11.7773Z" fill="#FFD600" stroke="#0D0D0D" stroke-width="1.72597"/>
<path d="M4.77478 13.3398V12.4769H3.9118H2.31323H1.45025V13.3398V14.9019V15.7649H2.31323H3.9118H4.77478V14.9019V13.3398Z" fill="#B4662D" stroke="#0D0D0D" stroke-width="1.72597"/>
<path d="M6.37366 13.3398V12.4769H5.51068H3.91211H3.04913V13.3398V14.9019V15.7649H3.91211H5.51068H6.37366V14.9019V13.3398Z" fill="#FFD600" stroke="#0D0D0D" stroke-width="1.72597"/>
<path d="M7.97205 13.3398V12.4769H7.10907H5.5105H4.64751V13.3398V14.9019V15.7649H5.5105H7.10907H7.97205V14.9019V13.3398Z" fill="#B4662D" stroke="#0D0D0D" stroke-width="1.72597"/>
<path d="M9.57068 13.3398V12.4769H8.70769H7.10913H6.24615V13.3398V14.9019V15.7649H7.10913H8.70769H9.57068V14.9019V13.3398Z" fill="#910000" stroke="#0D0D0D" stroke-width="1.72597"/>
<path d="M11.1698 13.3398V12.4769H10.3068H8.70825H7.84527V13.3398V14.9019V15.7649H8.70825H10.3068H11.1698V14.9019V13.3398Z" fill="#910000" stroke="#0D0D0D" stroke-width="1.72597"/>
<path d="M12.7682 13.3398V12.4769H11.9052H10.3066H9.44366V13.3398V14.9019V15.7649H10.3066H11.9052H12.7682V14.9019V13.3398Z" fill="#FFD600" stroke="#0D0D0D" stroke-width="1.72597"/>
<path d="M14.3668 13.3398V12.4769H13.5038H11.9053H11.0423V13.3398V14.9019V15.7649H11.9053H13.5038H14.3668V14.9019V13.3398Z" fill="#FFD600" stroke="#0D0D0D" stroke-width="1.72597"/>
<path d="M15.9659 13.3398V12.4769H15.103H13.5044H12.6414V13.3398V14.9019V15.7649H13.5044H15.103H15.9659V14.9019V13.3398Z" fill="#FCFF6A" stroke="#0D0D0D" stroke-width="1.72597"/>
<path d="M17.5643 13.3398V12.4769H16.7014H15.1028H14.2398V13.3398V14.9019V15.7649H15.1028H16.7014H17.5643V14.9019V13.3398Z" fill="#FFD600" stroke="#0D0D0D" stroke-width="1.72597"/>
<path d="M6.37366 14.9023V14.0394H5.51068H3.91211H3.04913V14.9023V16.4644V17.3274H3.91211H5.51068H6.37366V16.4644V14.9023Z" fill="#910000" stroke="#0D0D0D" stroke-width="1.72597"/>
<path d="M7.97205 14.9023V14.0394H7.10907H5.5105H4.64751V14.9023V16.4644V17.3274H5.5105H7.10907H7.97205V16.4644V14.9023Z" fill="#FFD600" stroke="#0D0D0D" stroke-width="1.72597"/>
<path d="M9.57068 14.9023V14.0394H8.70769H7.10913H6.24615V14.9023V16.4644V17.3274H7.10913H8.70769H9.57068V16.4644V14.9023Z" fill="#B4662D" stroke="#0D0D0D" stroke-width="1.72597"/>
<path d="M11.1698 14.9023V14.0394H10.3068H8.70825H7.84527V14.9023V16.4644V17.3274H8.70825H10.3068H11.1698V16.4644V14.9023Z" fill="#910000" stroke="#0D0D0D" stroke-width="1.72597"/>
<path d="M12.7682 14.9023V14.0394H11.9052H10.3066H9.44366V14.9023V16.4644V17.3274H10.3066H11.9052H12.7682V16.4644V14.9023Z" fill="#910000" stroke="#0D0D0D" stroke-width="1.72597"/>
<path d="M14.3668 14.9023V14.0394H13.5038H11.9053H11.0423V14.9023V16.4644V17.3274H11.9053H13.5038H14.3668V16.4644V14.9023Z" fill="#FCFF6A" stroke="#0D0D0D" stroke-width="1.72597"/>
<path d="M15.9659 14.9023V14.0394H15.103H13.5044H12.6414V14.9023V16.4644V17.3274H13.5044H15.103H15.9659V16.4644V14.9023Z" fill="#FFD600" stroke="#0D0D0D" stroke-width="1.72597"/>
<path d="M6.37366 16.4648V15.6019H5.51068H3.91211H3.04913V16.4648V18.0269V18.8899H3.91211H5.51068H6.37366V18.0269V16.4648Z" fill="#B4662D" stroke="#0D0D0D" stroke-width="1.72597"/>
<path d="M7.97205 16.4648V15.6019H7.10907H5.5105H4.64751V16.4648V18.0269V18.8899H5.5105H7.10907H7.97205V18.0269V16.4648Z" fill="#FFD600" stroke="#0D0D0D" stroke-width="1.72597"/>
<path d="M9.57068 16.4648V15.6019H8.70769H7.10913H6.24615V16.4648V18.0269V18.8899H7.10913H8.70769H9.57068V18.0269V16.4648Z" fill="#B4662D" stroke="#0D0D0D" stroke-width="1.72597"/>
<path d="M11.1698 16.4648V15.6019H10.3068H8.70825H7.84527V16.4648V18.0269V18.8899H8.70825H10.3068H11.1698V18.0269V16.4648Z" fill="#B4662D" stroke="#0D0D0D" stroke-width="1.72597"/>
<path d="M12.7682 16.4648V15.6019H11.9052H10.3066H9.44366V16.4648V18.0269V18.8899H10.3066H11.9052H12.7682V18.0269V16.4648Z" fill="#910000" stroke="#0D0D0D" stroke-width="1.72597"/>
<path d="M14.3668 16.4648V15.6019H13.5038H11.9053H11.0423V16.4648V18.0269V18.8899H11.9053H13.5038H14.3668V18.0269V16.4648Z" fill="#FFD600" stroke="#0D0D0D" stroke-width="1.72597"/>
<path d="M15.9659 16.4648V15.6019H15.103H13.5044H12.6414V16.4648V18.0269V18.8899H13.5044H15.103H15.9659V18.0269V16.4648Z" fill="#FFD600" stroke="#0D0D0D" stroke-width="1.72597"/>
<path d="M7.97205 18.0273V17.1644H7.10907H5.5105H4.64751V18.0273V19.5894V20.4524H5.5105H7.10907H7.97205V19.5894V18.0273Z" fill="#B4662D" stroke="#0D0D0D" stroke-width="1.72597"/>
<path d="M9.57068 18.0273V17.1644H8.70769H7.10913H6.24615V18.0273V19.5894V20.4524H7.10913H8.70769H9.57068V19.5894V18.0273Z" fill="#FFD600" stroke="#0D0D0D" stroke-width="1.72597"/>
<path d="M11.1698 18.0273V17.1644H10.3068H8.70825H7.84527V18.0273V19.5894V20.4524H8.70825H10.3068H11.1698V19.5894V18.0273Z" fill="#FCFF6A" stroke="#0D0D0D" stroke-width="1.72597"/>
<path d="M12.7682 18.0273V17.1644H11.9052H10.3066H9.44366V18.0273V19.5894V20.4524H10.3066H11.9052H12.7682V19.5894V18.0273Z" fill="#FCFF6A" stroke="#0D0D0D" stroke-width="1.72597"/>
<path d="M14.3668 18.0273V17.1644H13.5038H11.9053H11.0423V18.0273V19.5894V20.4524H11.9053H13.5038H14.3668V19.5894V18.0273Z" fill="#FFD600" stroke="#0D0D0D" stroke-width="1.72597"/>
<path d="M9.57068 19.5898V18.7269H8.70769H7.10913H6.24615V19.5898V21.1519V22.0149H7.10913H8.70769H9.57068V21.1519V19.5898Z" fill="#B4662D" stroke="#0D0D0D" stroke-width="1.72597"/>
<path d="M11.1698 19.5898V18.7269H10.3068H8.70825H7.84527V19.5898V21.1519V22.0149H8.70825H10.3068H11.1698V21.1519V19.5898Z" fill="#910000" stroke="#0D0D0D" stroke-width="1.72597"/>
<path d="M12.7682 19.5898V18.7269H11.9052H10.3066H9.44366V19.5898V21.1519V22.0149H10.3066H11.9052H12.7682V21.1519V19.5898Z" fill="#FFD600" stroke="#0D0D0D" stroke-width="1.72597"/>
<path d="M8.70769 2.4043H7.10913V3.96639H8.70769V2.4043Z" fill="#FFD600"/>
<path d="M10.3068 2.4043H8.70825V3.96639H10.3068V2.4043Z" fill="#910000"/>
<path d="M11.9052 2.4043H10.3066V3.96639H11.9052V2.4043Z" fill="#B4662D"/>
<path d="M7.10907 3.9668H5.5105V5.52889H7.10907V3.9668Z" fill="#FCFF6A"/>
<path d="M8.70769 3.9668H7.10913V5.52889H8.70769V3.9668Z" fill="#FFD600"/>
<path d="M10.3068 3.9668H8.70825V5.52889H10.3068V3.9668Z" fill="#FFD600"/>
<path d="M11.9052 3.9668H10.3066V5.52889H11.9052V3.9668Z" fill="#FCFF6A"/>
<path d="M13.5038 3.9668H11.9053V5.52889H13.5038V3.9668Z" fill="#B4662D"/>
<path d="M5.51068 5.5293H3.91211V7.09139H5.51068V5.5293Z" fill="#FCFF6A"/>
<path d="M7.10907 5.5293H5.5105V7.09139H7.10907V5.5293Z" fill="#FCFF6A"/>
<path d="M8.70769 5.5293H7.10913V7.09139H8.70769V5.5293Z" fill="#910000"/>
<path d="M10.3068 5.5293H8.70825V7.09139H10.3068V5.5293Z" fill="#B4662D"/>
<path d="M11.9052 5.5293H10.3066V7.09139H11.9052V5.5293Z" fill="#B4662D"/>
<path d="M13.5038 5.5293H11.9053V7.09139H13.5038V5.5293Z" fill="#FCFF6A"/>
<path d="M15.103 5.5293H13.5044V7.09139H15.103V5.5293Z" fill="#B4662D"/>
<path d="M5.51068 7.0918H3.91211V8.6539H5.51068V7.0918Z" fill="#910000"/>
<path d="M7.10907 7.0918H5.5105V8.6539H7.10907V7.0918Z" fill="#FFD600"/>
<path d="M8.70769 7.0918H7.10913V8.6539H8.70769V7.0918Z" fill="#910000"/>
<path d="M10.3068 7.0918H8.70825V8.6539H10.3068V7.0918Z" fill="#910000"/>
<path d="M11.9052 7.0918H10.3066V8.6539H11.9052V7.0918Z" fill="#B4662D"/>
<path d="M13.5038 7.0918H11.9053V8.6539H13.5038V7.0918Z" fill="#FFD600"/>
<path d="M15.103 7.0918H13.5044V8.6539H15.103V7.0918Z" fill="#910000"/>
<path d="M3.9118 8.6543H2.31323V10.2164H3.9118V8.6543Z" fill="#FCFF6A"/>
<path d="M5.51068 8.6543H3.91211V10.2164H5.51068V8.6543Z" fill="#FFD600"/>
<path d="M7.10907 8.6543H5.5105V10.2164H7.10907V8.6543Z" fill="#FFD600"/>
<path d="M8.70769 8.6543H7.10913V10.2164H8.70769V8.6543Z" fill="#FFD600"/>
<path d="M10.3068 8.6543H8.70825V10.2164H10.3068V8.6543Z" fill="#910000"/>
<path d="M11.9052 8.6543H10.3066V10.2164H11.9052V8.6543Z" fill="#910000"/>
<path d="M13.5038 8.6543H11.9053V10.2164H13.5038V8.6543Z" fill="#B4662D"/>
<path d="M15.103 8.6543H13.5044V10.2164H15.103V8.6543Z" fill="#FFD600"/>
<path d="M16.7014 8.6543H15.1028V10.2164H16.7014V8.6543Z" fill="#B4662D"/>
<path d="M3.9118 10.2168H2.31323V11.7789H3.9118V10.2168Z" fill="#910000"/>
<path d="M5.51068 10.2168H3.91211V11.7789H5.51068V10.2168Z" fill="#FCFF6A"/>
<path d="M7.10907 10.2168H5.5105V11.7789H7.10907V10.2168Z" fill="#910000"/>
<path d="M8.70769 10.2168H7.10913V11.7789H8.70769V10.2168Z" fill="#FFD600"/>
<path d="M10.3068 10.2168H8.70825V11.7789H10.3068V10.2168Z" fill="#FFD600"/>
<path d="M11.9052 10.2168H10.3066V11.7789H11.9052V10.2168Z" fill="#910000"/>
<path d="M13.5038 10.2168H11.9053V11.7789H13.5038V10.2168Z" fill="#910000"/>
<path d="M15.103 10.2168H13.5044V11.7789H15.103V10.2168Z" fill="#FCFF6A"/>
<path d="M16.7014 10.2168H15.1028V11.7789H16.7014V10.2168Z" fill="#FFD600"/>
<path d="M3.9118 11.7773H2.31323V13.3394H3.9118V11.7773Z" fill="#910000"/>
<path d="M5.51068 11.7773H3.91211V13.3394H5.51068V11.7773Z" fill="#FFD600"/>
<path d="M7.10907 11.7773H5.5105V13.3394H7.10907V11.7773Z" fill="#910000"/>
<path d="M8.70769 11.7773H7.10913V13.3394H8.70769V11.7773Z" fill="#910000"/>
<path d="M10.3068 11.7773H8.70825V13.3394H10.3068V11.7773Z" fill="#FFD600"/>
<path d="M11.9052 11.7773H10.3066V13.3394H11.9052V11.7773Z" fill="#FFD600"/>
<path d="M13.5038 11.7773H11.9053V13.3394H13.5038V11.7773Z" fill="#910000"/>
<path d="M15.103 11.7773H13.5044V13.3394H15.103V11.7773Z" fill="#FCFF6A"/>
<path d="M16.7014 11.7773H15.1028V13.3394H16.7014V11.7773Z" fill="#FFD600"/>
<path d="M3.9118 13.3398H2.31323V14.9019H3.9118V13.3398Z" fill="#B4662D"/>
<path d="M5.51068 13.3398H3.91211V14.9019H5.51068V13.3398Z" fill="#FFD600"/>
<path d="M7.10907 13.3398H5.5105V14.9019H7.10907V13.3398Z" fill="#B4662D"/>
<path d="M8.70769 13.3398H7.10913V14.9019H8.70769V13.3398Z" fill="#910000"/>
<path d="M10.3068 13.3398H8.70825V14.9019H10.3068V13.3398Z" fill="#910000"/>
<path d="M11.9052 13.3398H10.3066V14.9019H11.9052V13.3398Z" fill="#FFD600"/>
<path d="M13.5038 13.3398H11.9053V14.9019H13.5038V13.3398Z" fill="#FFD600"/>
<path d="M15.103 13.3398H13.5044V14.9019H15.103V13.3398Z" fill="#FCFF6A"/>
<path d="M16.7014 13.3398H15.1028V14.9019H16.7014V13.3398Z" fill="#FFD600"/>
<path d="M5.51068 14.9023H3.91211V16.4644H5.51068V14.9023Z" fill="#910000"/>
<path d="M7.10907 14.9023H5.5105V16.4644H7.10907V14.9023Z" fill="#FFD600"/>
<path d="M8.70769 14.9023H7.10913V16.4644H8.70769V14.9023Z" fill="#B4662D"/>
<path d="M10.3068 14.9023H8.70825V16.4644H10.3068V14.9023Z" fill="#910000"/>
<path d="M11.9052 14.9023H10.3066V16.4644H11.9052V14.9023Z" fill="#910000"/>
<path d="M13.5038 14.9023H11.9053V16.4644H13.5038V14.9023Z" fill="#FCFF6A"/>
<path d="M15.103 14.9023H13.5044V16.4644H15.103V14.9023Z" fill="#FFD600"/>
<path d="M5.51068 16.4648H3.91211V18.0269H5.51068V16.4648Z" fill="#B4662D"/>
<path d="M7.10907 16.4648H5.5105V18.0269H7.10907V16.4648Z" fill="#FFD600"/>
<path d="M8.70769 16.4648H7.10913V18.0269H8.70769V16.4648Z" fill="#B4662D"/>
<path d="M10.3068 16.4648H8.70825V18.0269H10.3068V16.4648Z" fill="#B4662D"/>
<path d="M11.9052 16.4648H10.3066V18.0269H11.9052V16.4648Z" fill="#910000"/>
<path d="M13.5038 16.4648H11.9053V18.0269H13.5038V16.4648Z" fill="#FFD600"/>
<path d="M15.103 16.4648H13.5044V18.0269H15.103V16.4648Z" fill="#FFD600"/>
<path d="M7.10907 18.0273H5.5105V19.5894H7.10907V18.0273Z" fill="#B4662D"/>
<path d="M8.70769 18.0273H7.10913V19.5894H8.70769V18.0273Z" fill="#FFD600"/>
<path d="M10.3068 18.0273H8.70825V19.5894H10.3068V18.0273Z" fill="#FCFF6A"/>
<path d="M11.9052 18.0273H10.3066V19.5894H11.9052V18.0273Z" fill="#FCFF6A"/>
<path d="M13.5038 18.0273H11.9053V19.5894H13.5038V18.0273Z" fill="#FFD600"/>
<path d="M8.70769 19.5898H7.10913V21.1519H8.70769V19.5898Z" fill="#B4662D"/>
<path d="M10.3068 19.5898H8.70825V21.1519H10.3068V19.5898Z" fill="#910000"/>
<path d="M11.9052 19.5898H10.3066V21.1519H11.9052V19.5898Z" fill="#FFD600"/>
</svg>
