<svg width="25" height="25" viewBox="0 0 25 25" fill="none" xmlns="http://www.w3.org/2000/svg">
<g clip-path="url(#clip0_1576_34285)">
<path d="M22.8271 9.86922V8.60814V7.3475H21.5665V6.08641V4.82533H20.3054V3.56469H19.0448H17.7837V2.3036H16.5226H15.2619V1.04297H14.0009H12.7402H11.4791H10.2181H8.95742V2.3036H7.69633H6.43569V3.56469H5.17461H3.91352V4.82533H2.65289V6.08641V7.3475H1.3918V8.60814V9.86922H0.131165V11.1299V12.3909V13.652V14.9127V16.1738H1.3918V17.4344V18.6955H2.65289V19.9566V21.2172H3.91352V22.4783H5.17461H6.43569V23.7389H7.69633H8.95742V25H10.2181H11.4791H12.7402H14.0009H15.2619V23.7389H16.5226H17.7837V22.4783H19.0448H20.3054V21.2172H21.5665V19.9566V18.6955H22.8271V17.4344V16.1738H24.0882V14.9127V13.652V12.3909V11.1299V9.86922H22.8271Z" fill="#FF8D00"/>
<path d="M9.68203 5.57422H8.58038V6.67587H9.68203V5.57422Z" fill="white"/>
<path d="M10.7842 5.57422H9.68253V6.67587H10.7842V5.57422Z" fill="white"/>
<path d="M9.68203 6.67578H8.58038V7.77743H9.68203V6.67578Z" fill="white"/>
<path d="M10.7842 6.67578H9.68253V7.77743H10.7842V6.67578Z" fill="white"/>
<path d="M9.68203 7.77734H8.58038V8.87899H9.68203V7.77734Z" fill="white"/>
<path d="M10.7842 7.77734H9.68253V8.87899H10.7842V7.77734Z" fill="white"/>
<path d="M9.68203 8.87891H8.58038V9.98055H9.68203V8.87891Z" fill="white"/>
<path d="M10.7842 8.87891H9.68253V9.98055H10.7842V8.87891Z" fill="white"/>
<path d="M9.68203 9.97656H8.58038V11.0782H9.68203V9.97656Z" fill="white"/>
<path d="M10.7842 9.97656H9.68253V11.0782H10.7842V9.97656Z" fill="white"/>
<path d="M11.8842 9.97656H10.7825V11.0782H11.8842V9.97656Z" fill="white"/>
<path d="M12.9864 9.97656H11.8847V11.0782H12.9864V9.97656Z" fill="white"/>
<path d="M14.0886 9.97656H12.9869V11.0782H14.0886V9.97656Z" fill="white"/>
<path d="M15.1899 9.97656H14.0883V11.0782H15.1899V9.97656Z" fill="white"/>
<path d="M16.2914 9.97656H15.1898V11.0782H16.2914V9.97656Z" fill="white"/>
<path d="M9.68203 11.082H8.58038V12.1837H9.68203V11.082Z" fill="white"/>
<path d="M10.7842 11.082H9.68253V12.1837H10.7842V11.082Z" fill="white"/>
<path d="M11.8842 11.082H10.7825V12.1837H11.8842V11.082Z" fill="white"/>
<path d="M12.9864 11.082H11.8847V12.1837H12.9864V11.082Z" fill="white"/>
<path d="M14.0886 11.082H12.9869V12.1837H14.0886V11.082Z" fill="white"/>
<path d="M15.1899 11.082H14.0883V12.1837H15.1899V11.082Z" fill="white"/>
<path d="M16.2914 11.082H15.1898V12.1837H16.2914V11.082Z" fill="white"/>
<path d="M9.68203 12.1836H8.58038V13.2852H9.68203V12.1836Z" fill="white"/>
<path d="M10.7842 12.1836H9.68253V13.2852H10.7842V12.1836Z" fill="white"/>
<path d="M11.8842 12.1836H10.7825V13.2852H11.8842V12.1836Z" fill="#3B3B3B" fill-opacity="0.27"/>
<path d="M12.9864 12.1836H11.8847V13.2852H12.9864V12.1836Z" fill="#3B3B3B" fill-opacity="0.27"/>
<path d="M14.0886 12.1836H12.9869V13.2852H14.0886V12.1836Z" fill="#3B3B3B" fill-opacity="0.27"/>
<path d="M15.1899 12.1836H14.0883V13.2852H15.1899V12.1836Z" fill="#3B3B3B" fill-opacity="0.27"/>
<path d="M16.2914 12.1836H15.1898V13.2852H16.2914V12.1836Z" fill="#3B3B3B" fill-opacity="0.27"/>
<path d="M17.3936 12.1836H16.2919V13.2852H17.3936V12.1836Z" fill="white"/>
<path d="M18.4943 12.1836H17.3926V13.2852H18.4943V12.1836Z" fill="white"/>
<path d="M7.47839 13.2891H6.37674V14.3907H7.47839V13.2891Z" fill="white"/>
<path d="M8.58053 13.2891H7.47888V14.3907H8.58053V13.2891Z" fill="white"/>
<path d="M9.68203 13.2891H8.58038V14.3907H9.68203V13.2891Z" fill="white"/>
<path d="M10.7842 13.2891H9.68253V14.3907H10.7842V13.2891Z" fill="white"/>
<path d="M11.8842 13.2891H10.7825V14.3907H11.8842V13.2891Z" fill="white"/>
<path d="M12.9864 13.2891H11.8847V14.3907H12.9864V13.2891Z" fill="white"/>
<path d="M14.0886 13.2891H12.9869V14.3907H14.0886V13.2891Z" fill="white"/>
<path d="M17.3936 13.2891H16.2919V14.3907H17.3936V13.2891Z" fill="white"/>
<path d="M18.4943 13.2891H17.3926V14.3907H18.4943V13.2891Z" fill="white"/>
<path d="M7.47839 14.3867H6.37674V15.4884H7.47839V14.3867Z" fill="white"/>
<path d="M8.58053 14.3867H7.47888V15.4884H8.58053V14.3867Z" fill="white"/>
<path d="M9.68203 14.3867H8.58038V15.4884H9.68203V14.3867Z" fill="white"/>
<path d="M10.7842 14.3867H9.68253V15.4884H10.7842V14.3867Z" fill="white"/>
<path d="M11.8842 14.3867H10.7825V15.4884H11.8842V14.3867Z" fill="white"/>
<path d="M12.9864 14.3867H11.8847V15.4884H12.9864V14.3867Z" fill="white"/>
<path d="M14.0886 14.3867H12.9869V15.4884H14.0886V14.3867Z" fill="white"/>
<path d="M17.3936 14.3867H16.2919V15.4884H17.3936V14.3867Z" fill="white"/>
<path d="M18.4943 14.3867H17.3926V15.4884H18.4943V14.3867Z" fill="white"/>
<path d="M9.68203 15.4883H8.58038V16.5899H9.68203V15.4883Z" fill="white"/>
<path d="M10.7842 15.4883H9.68253V16.5899H10.7842V15.4883Z" fill="white"/>
<path d="M11.8842 15.4883H10.7825V16.5899H11.8842V15.4883Z" fill="#3B3B3B" fill-opacity="0.27"/>
<path d="M12.9864 15.4883H11.8847V16.5899H12.9864V15.4883Z" fill="#3B3B3B" fill-opacity="0.27"/>
<path d="M14.0886 15.4883H12.9869V16.5899H14.0886V15.4883Z" fill="#3B3B3B" fill-opacity="0.27"/>
<path d="M17.3936 15.4883H16.2919V16.5899H17.3936V15.4883Z" fill="white"/>
<path d="M18.4943 15.4883H17.3926V16.5899H18.4943V15.4883Z" fill="white"/>
<path d="M9.68203 16.5938H8.58038V17.6954H9.68203V16.5938Z" fill="white"/>
<path d="M10.7842 16.5938H9.68253V17.6954H10.7842V16.5938Z" fill="white"/>
<path d="M11.8842 16.5938H10.7825V17.6954H11.8842V16.5938Z" fill="white"/>
<path d="M12.9864 16.5938H11.8847V17.6954H12.9864V16.5938Z" fill="white"/>
<path d="M14.0886 16.5938H12.9869V17.6954H14.0886V16.5938Z" fill="white"/>
<path d="M15.1899 16.5938H14.0883V17.6954H15.1899V16.5938Z" fill="white"/>
<path d="M16.2914 16.5938H15.1898V17.6954H16.2914V16.5938Z" fill="white"/>
<path d="M17.3936 16.5938H16.2919V17.6954H17.3936V16.5938Z" fill="#3B3B3B" fill-opacity="0.27"/>
<path d="M18.4943 16.5938H17.3926V17.6954H18.4943V16.5938Z" fill="#3B3B3B" fill-opacity="0.27"/>
<path d="M9.68203 17.6914H8.58038V18.7931H9.68203V17.6914Z" fill="white"/>
<path d="M10.7842 17.6914H9.68253V18.7931H10.7842V17.6914Z" fill="white"/>
<path d="M11.8842 17.6914H10.7825V18.7931H11.8842V17.6914Z" fill="white"/>
<path d="M12.9864 17.6914H11.8847V18.7931H12.9864V17.6914Z" fill="white"/>
<path d="M14.0886 17.6914H12.9869V18.7931H14.0886V17.6914Z" fill="white"/>
<path d="M15.1899 17.6914H14.0883V18.7931H15.1899V17.6914Z" fill="white"/>
<path d="M16.2914 17.6914H15.1898V18.7931H16.2914V17.6914Z" fill="white"/>
<path d="M9.68203 18.793H8.58038V19.8946H9.68203V18.793Z" fill="#3B3B3B" fill-opacity="0.27"/>
<path d="M10.7842 18.793H9.68253V19.8946H10.7842V18.793Z" fill="#3B3B3B" fill-opacity="0.27"/>
<path d="M11.8842 18.793H10.7825V19.8946H11.8842V18.793Z" fill="#3B3B3B" fill-opacity="0.27"/>
<path d="M12.9864 18.793H11.8847V19.8946H12.9864V18.793Z" fill="#3B3B3B" fill-opacity="0.27"/>
<path d="M14.0886 18.793H12.9869V19.8946H14.0886V18.793Z" fill="#3B3B3B" fill-opacity="0.27"/>
<path d="M15.1899 18.793H14.0883V19.8946H15.1899V18.793Z" fill="#3B3B3B" fill-opacity="0.27"/>
<path d="M16.2914 18.793H15.1898V19.8946H16.2914V18.793Z" fill="#3B3B3B" fill-opacity="0.27"/>
</g>
<defs>
<clipPath id="clip0_1576_34285">
<rect width="23.957" height="23.957" fill="white" transform="translate(0.131165 0.675781)"/>
</clipPath>
</defs>
</svg>
