<svg width="36" height="45" viewBox="0 0 36 45" fill="none" xmlns="http://www.w3.org/2000/svg">
<g id="Group 177846">
<g id="Group 177844">
<g id="Group">
<path id="Vector" d="M17.9143 3.48242V1.98242H16.4143H13.2451H11.7451V3.48242V6.65166V8.15166H13.2451H16.4143H17.9143V6.65166V3.48242Z" fill="#41EAB7" stroke="black" stroke-width="3"/>
<path id="Vector_2" d="M21.0853 3.48242V1.98242H19.5853H16.416H14.916V3.48242V6.65166V8.15166H16.416H19.5853H21.0853V6.65166V3.48242Z" fill="#009177" stroke="black" stroke-width="3"/>
<path id="Vector_3" d="M24.2542 3.48242V1.98242H22.7542H19.585H18.085V3.48242V6.65166V8.15166H19.585H22.7542H24.2542V6.65166V3.48242Z" fill="#2D43B4" stroke="black" stroke-width="3"/>
<path id="Vector_4" d="M14.7464 6.65234V5.15234H13.2464H10.0771H8.57715V6.65234V9.82158V11.3216H10.0771H13.2464H14.7464V9.82158V6.65234Z" fill="#0FA9FF" stroke="black" stroke-width="3"/>
<path id="Vector_5" d="M17.9143 6.65234V5.15234H16.4143H13.2451H11.7451V6.65234V9.82158V11.3216H13.2451H16.4143H17.9143V9.82158V6.65234Z" fill="#41EAB7" stroke="black" stroke-width="3"/>
<path id="Vector_6" d="M21.0853 6.65234V5.15234H19.5853H16.416H14.916V6.65234V9.82158V11.3216H16.416H19.5853H21.0853V9.82158V6.65234Z" fill="#41EAB7" stroke="black" stroke-width="3"/>
<path id="Vector_7" d="M24.2542 6.65234V5.15234H22.7542H19.585H18.085V6.65234V9.82158V11.3216H19.585H22.7542H24.2542V9.82158V6.65234Z" fill="#0FA9FF" stroke="black" stroke-width="3"/>
<path id="Vector_8" d="M27.4231 6.65234V5.15234H25.9231H22.7539H21.2539V6.65234V9.82158V11.3216H22.7539H25.9231H27.4231V9.82158V6.65234Z" fill="#2D43B4" stroke="black" stroke-width="3"/>
<path id="Vector_9" d="M11.5765 9.82422V8.32422H10.0765H6.90723H5.40723V9.82422V12.9935V14.4935H6.90723H10.0765H11.5765V12.9935V9.82422Z" fill="#0FA9FF" stroke="black" stroke-width="3"/>
<path id="Vector_10" d="M14.7464 9.82422V8.32422H13.2464H10.0771H8.57715V9.82422V12.9935V14.4935H10.0771H13.2464H14.7464V12.9935V9.82422Z" fill="#0FA9FF" stroke="black" stroke-width="3"/>
<path id="Vector_11" d="M17.9143 9.82422V8.32422H16.4143H13.2451H11.7451V9.82422V12.9935V14.4935H13.2451H16.4143H17.9143V12.9935V9.82422Z" fill="#009177" stroke="black" stroke-width="3"/>
<path id="Vector_12" d="M21.0853 9.82422V8.32422H19.5853H16.416H14.916V9.82422V12.9935V14.4935H16.416H19.5853H21.0853V12.9935V9.82422Z" fill="#2D43B4" stroke="black" stroke-width="3"/>
<path id="Vector_13" d="M24.2542 9.82422V8.32422H22.7542H19.585H18.085V9.82422V12.9935V14.4935H19.585H22.7542H24.2542V12.9935V9.82422Z" fill="#2D43B4" stroke="black" stroke-width="3"/>
<path id="Vector_14" d="M27.4231 9.82422V8.32422H25.9231H22.7539H21.2539V9.82422V12.9935V14.4935H22.7539H25.9231H27.4231V12.9935V9.82422Z" fill="#0FA9FF" stroke="black" stroke-width="3"/>
<path id="Vector_15" d="M30.594 9.82422V8.32422H29.094H25.9248H24.4248V9.82422V12.9935V14.4935H25.9248H29.094H30.594V12.9935V9.82422Z" fill="#2D43B4" stroke="black" stroke-width="3"/>
<path id="Vector_16" d="M11.5765 12.9902V11.4902H10.0765H6.90723H5.40723V12.9902V16.1595V17.6595H6.90723H10.0765H11.5765V16.1595V12.9902Z" fill="#009177" stroke="black" stroke-width="3"/>
<path id="Vector_17" d="M14.7464 12.9902V11.4902H13.2464H10.0771H8.57715V12.9902V16.1595V17.6595H10.0771H13.2464H14.7464V16.1595V12.9902Z" fill="#41EAB7" stroke="black" stroke-width="3"/>
<path id="Vector_18" d="M17.9143 12.9902V11.4902H16.4143H13.2451H11.7451V12.9902V16.1595V17.6595H13.2451H16.4143H17.9143V16.1595V12.9902Z" fill="#009177" stroke="black" stroke-width="3"/>
<path id="Vector_19" d="M21.0853 12.9902V11.4902H19.5853H16.416H14.916V12.9902V16.1595V17.6595H16.416H19.5853H21.0853V16.1595V12.9902Z" fill="#009177" stroke="black" stroke-width="3"/>
<path id="Vector_20" d="M24.2542 12.9902V11.4902H22.7542H19.585H18.085V12.9902V16.1595V17.6595H19.585H22.7542H24.2542V16.1595V12.9902Z" fill="#2D43B4" stroke="black" stroke-width="3"/>
<path id="Vector_21" d="M27.4231 12.9902V11.4902H25.9231H22.7539H21.2539V12.9902V16.1595V17.6595H22.7539H25.9231H27.4231V16.1595V12.9902Z" fill="#41EAB7" stroke="black" stroke-width="3"/>
<path id="Vector_22" d="M30.594 12.9902V11.4902H29.094H25.9248H24.4248V12.9902V16.1595V17.6595H25.9248H29.094H30.594V16.1595V12.9902Z" fill="#009177" stroke="black" stroke-width="3"/>
<path id="Vector_23" d="M8.40655 16.1621V14.6621H6.90655H3.7373H2.2373V16.1621V19.3313V20.8313H3.7373H6.90655H8.40655V19.3313V16.1621Z" fill="#0FA9FF" stroke="black" stroke-width="3"/>
<path id="Vector_24" d="M11.5765 16.1621V14.6621H10.0765H6.90723H5.40723V16.1621V19.3313V20.8313H6.90723H10.0765H11.5765V19.3313V16.1621Z" fill="#41EAB7" stroke="black" stroke-width="3"/>
<path id="Vector_25" d="M14.7464 16.1621V14.6621H13.2464H10.0771H8.57715V16.1621V19.3313V20.8313H10.0771H13.2464H14.7464V19.3313V16.1621Z" fill="#41EAB7" stroke="black" stroke-width="3"/>
<path id="Vector_26" d="M17.9143 16.1621V14.6621H16.4143H13.2451H11.7451V16.1621V19.3313V20.8313H13.2451H16.4143H17.9143V19.3313V16.1621Z" fill="#41EAB7" stroke="black" stroke-width="3"/>
<path id="Vector_27" d="M21.0853 16.1621V14.6621H19.5853H16.416H14.916V16.1621V19.3313V20.8313H16.416H19.5853H21.0853V19.3313V16.1621Z" fill="#009177" stroke="black" stroke-width="3"/>
<path id="Vector_28" d="M24.2542 16.1621V14.6621H22.7542H19.585H18.085V16.1621V19.3313V20.8313H19.585H22.7542H24.2542V19.3313V16.1621Z" fill="#009177" stroke="black" stroke-width="3"/>
<path id="Vector_29" d="M27.4231 16.1621V14.6621H25.9231H22.7539H21.2539V16.1621V19.3313V20.8313H22.7539H25.9231H27.4231V19.3313V16.1621Z" fill="#2D43B4" stroke="black" stroke-width="3"/>
<path id="Vector_30" d="M30.594 16.1621V14.6621H29.094H25.9248H24.4248V16.1621V19.3313V20.8313H25.9248H29.094H30.594V19.3313V16.1621Z" fill="#41EAB7" stroke="black" stroke-width="3"/>
<path id="Vector_31" d="M33.763 16.1621V14.6621H32.263H29.0938H27.5938V16.1621V19.3313V20.8313H29.0938H32.263H33.763V19.3313V16.1621Z" fill="#2D43B4" stroke="black" stroke-width="3"/>
<path id="Vector_32" d="M8.40655 19.332V17.832H6.90655H3.7373H2.2373V19.332V22.5013V24.0013H3.7373H6.90655H8.40655V22.5013V19.332Z" fill="#009177" stroke="black" stroke-width="3"/>
<path id="Vector_33" d="M11.5765 19.332V17.832H10.0765H6.90723H5.40723V19.332V22.5013V24.0013H6.90723H10.0765H11.5765V22.5013V19.332Z" fill="#0FA9FF" stroke="black" stroke-width="3"/>
<path id="Vector_34" d="M14.7464 19.332V17.832H13.2464H10.0771H8.57715V19.332V22.5013V24.0013H10.0771H13.2464H14.7464V22.5013V19.332Z" fill="#009177" stroke="black" stroke-width="3"/>
<path id="Vector_35" d="M17.9143 19.332V17.832H16.4143H13.2451H11.7451V19.332V22.5013V24.0013H13.2451H16.4143H17.9143V22.5013V19.332Z" fill="#41EAB7" stroke="black" stroke-width="3"/>
<path id="Vector_36" d="M21.0853 19.332V17.832H19.5853H16.416H14.916V19.332V22.5013V24.0013H16.416H19.5853H21.0853V22.5013V19.332Z" fill="#41EAB7" stroke="black" stroke-width="3"/>
<path id="Vector_37" d="M24.2542 19.332V17.832H22.7542H19.585H18.085V19.332V22.5013V24.0013H19.585H22.7542H24.2542V22.5013V19.332Z" fill="#009177" stroke="black" stroke-width="3"/>
<path id="Vector_38" d="M27.4231 19.332V17.832H25.9231H22.7539H21.2539V19.332V22.5013V24.0013H22.7539H25.9231H27.4231V22.5013V19.332Z" fill="#009177" stroke="black" stroke-width="3"/>
<path id="Vector_39" d="M30.594 19.332V17.832H29.094H25.9248H24.4248V19.332V22.5013V24.0013H25.9248H29.094H30.594V22.5013V19.332Z" fill="#0FA9FF" stroke="black" stroke-width="3"/>
<path id="Vector_40" d="M33.763 19.332V17.832H32.263H29.0938H27.5938V19.332V22.5013V24.0013H29.0938H32.263H33.763V22.5013V19.332Z" fill="#41EAB7" stroke="black" stroke-width="3"/>
<path id="Vector_41" d="M8.40655 22.498V20.998H6.90655H3.7373H2.2373V22.498V25.6673V27.1673H3.7373H6.90655H8.40655V25.6673V22.498Z" fill="#009177" stroke="black" stroke-width="3"/>
<path id="Vector_42" d="M11.5765 22.498V20.998H10.0765H6.90723H5.40723V22.498V25.6673V27.1673H6.90723H10.0765H11.5765V25.6673V22.498Z" fill="#41EAB7" stroke="black" stroke-width="3"/>
<path id="Vector_43" d="M14.7464 22.498V20.998H13.2464H10.0771H8.57715V22.498V25.6673V27.1673H10.0771H13.2464H14.7464V25.6673V22.498Z" fill="#009177" stroke="black" stroke-width="3"/>
<path id="Vector_44" d="M17.9143 22.498V20.998H16.4143H13.2451H11.7451V22.498V25.6673V27.1673H13.2451H16.4143H17.9143V25.6673V22.498Z" fill="#009177" stroke="black" stroke-width="3"/>
<path id="Vector_45" d="M21.0853 22.498V20.998H19.5853H16.416H14.916V22.498V25.6673V27.1673H16.416H19.5853H21.0853V25.6673V22.498Z" fill="#41EAB7" stroke="black" stroke-width="3"/>
<path id="Vector_46" d="M24.2542 22.498V20.998H22.7542H19.585H18.085V22.498V25.6673V27.1673H19.585H22.7542H24.2542V25.6673V22.498Z" fill="#41EAB7" stroke="black" stroke-width="3"/>
<path id="Vector_47" d="M27.4231 22.498V20.998H25.9231H22.7539H21.2539V22.498V25.6673V27.1673H22.7539H25.9231H27.4231V25.6673V22.498Z" fill="#009177" stroke="black" stroke-width="3"/>
<path id="Vector_48" d="M30.594 22.498V20.998H29.094H25.9248H24.4248V22.498V25.6673V27.1673H25.9248H29.094H30.594V25.6673V22.498Z" fill="#0FA9FF" stroke="black" stroke-width="3"/>
<path id="Vector_49" d="M33.763 22.498V20.998H32.263H29.0938H27.5938V22.498V25.6673V27.1673H29.0938H32.263H33.763V25.6673V22.498Z" fill="#41EAB7" stroke="black" stroke-width="3"/>
<path id="Vector_50" d="M8.40655 25.6699V24.1699H6.90655H3.7373H2.2373V25.6699V28.8392V30.3392H3.7373H6.90655H8.40655V28.8392V25.6699Z" fill="#2D43B4" stroke="black" stroke-width="3"/>
<path id="Vector_51" d="M11.5765 25.6699V24.1699H10.0765H6.90723H5.40723V25.6699V28.8392V30.3392H6.90723H10.0765H11.5765V28.8392V25.6699Z" fill="#41EAB7" stroke="black" stroke-width="3"/>
<path id="Vector_52" d="M14.7464 25.6699V24.1699H13.2464H10.0771H8.57715V25.6699V28.8392V30.3392H10.0771H13.2464H14.7464V28.8392V25.6699Z" fill="#2D43B4" stroke="black" stroke-width="3"/>
<path id="Vector_53" d="M17.9143 25.6699V24.1699H16.4143H13.2451H11.7451V25.6699V28.8392V30.3392H13.2451H16.4143H17.9143V28.8392V25.6699Z" fill="#009177" stroke="black" stroke-width="3"/>
<path id="Vector_54" d="M21.0853 25.6699V24.1699H19.5853H16.416H14.916V25.6699V28.8392V30.3392H16.416H19.5853H21.0853V28.8392V25.6699Z" fill="#009177" stroke="black" stroke-width="3"/>
<path id="Vector_55" d="M24.2542 25.6699V24.1699H22.7542H19.585H18.085V25.6699V28.8392V30.3392H19.585H22.7542H24.2542V28.8392V25.6699Z" fill="#41EAB7" stroke="black" stroke-width="3"/>
<path id="Vector_56" d="M27.4231 25.6699V24.1699H25.9231H22.7539H21.2539V25.6699V28.8392V30.3392H22.7539H25.9231H27.4231V28.8392V25.6699Z" fill="#41EAB7" stroke="black" stroke-width="3"/>
<path id="Vector_57" d="M30.594 25.6699V24.1699H29.094H25.9248H24.4248V25.6699V28.8392V30.3392H25.9248H29.094H30.594V28.8392V25.6699Z" fill="#0FA9FF" stroke="black" stroke-width="3"/>
<path id="Vector_58" d="M33.763 25.6699V24.1699H32.263H29.0938H27.5938V25.6699V28.8392V30.3392H29.0938H32.263H33.763V28.8392V25.6699Z" fill="#41EAB7" stroke="black" stroke-width="3"/>
<path id="Vector_59" d="M11.5765 28.8398V27.3398H10.0765H6.90723H5.40723V28.8398V32.0091V33.5091H6.90723H10.0765H11.5765V32.0091V28.8398Z" fill="#009177" stroke="black" stroke-width="3"/>
<path id="Vector_60" d="M14.7464 28.8398V27.3398H13.2464H10.0771H8.57715V28.8398V32.0091V33.5091H10.0771H13.2464H14.7464V32.0091V28.8398Z" fill="#41EAB7" stroke="black" stroke-width="3"/>
<path id="Vector_61" d="M17.9143 28.8398V27.3398H16.4143H13.2451H11.7451V28.8398V32.0091V33.5091H13.2451H16.4143H17.9143V32.0091V28.8398Z" fill="#2D43B4" stroke="black" stroke-width="3"/>
<path id="Vector_62" d="M21.0853 28.8398V27.3398H19.5853H16.416H14.916V28.8398V32.0091V33.5091H16.416H19.5853H21.0853V32.0091V28.8398Z" fill="#009177" stroke="black" stroke-width="3"/>
<path id="Vector_63" d="M24.2542 28.8398V27.3398H22.7542H19.585H18.085V28.8398V32.0091V33.5091H19.585H22.7542H24.2542V32.0091V28.8398Z" fill="#009177" stroke="black" stroke-width="3"/>
<path id="Vector_64" d="M27.4231 28.8398V27.3398H25.9231H22.7539H21.2539V28.8398V32.0091V33.5091H22.7539H25.9231H27.4231V32.0091V28.8398Z" fill="#0FA9FF" stroke="black" stroke-width="3"/>
<path id="Vector_65" d="M30.594 28.8398V27.3398H29.094H25.9248H24.4248V28.8398V32.0091V33.5091H25.9248H29.094H30.594V32.0091V28.8398Z" fill="#41EAB7" stroke="black" stroke-width="3"/>
<path id="Vector_66" d="M11.5765 32.0078V30.5078H10.0765H6.90723H5.40723V32.0078V35.1771V36.6771H6.90723H10.0765H11.5765V35.1771V32.0078Z" fill="#2D43B4" stroke="black" stroke-width="3"/>
<path id="Vector_67" d="M14.7464 32.0078V30.5078H13.2464H10.0771H8.57715V32.0078V35.1771V36.6771H10.0771H13.2464H14.7464V35.1771V32.0078Z" fill="#41EAB7" stroke="black" stroke-width="3"/>
<path id="Vector_68" d="M17.9143 32.0078V30.5078H16.4143H13.2451H11.7451V32.0078V35.1771V36.6771H13.2451H16.4143H17.9143V35.1771V32.0078Z" fill="#2D43B4" stroke="black" stroke-width="3"/>
<path id="Vector_69" d="M21.0853 32.0078V30.5078H19.5853H16.416H14.916V32.0078V35.1771V36.6771H16.416H19.5853H21.0853V35.1771V32.0078Z" fill="#2D43B4" stroke="black" stroke-width="3"/>
<path id="Vector_70" d="M24.2542 32.0078V30.5078H22.7542H19.585H18.085V32.0078V35.1771V36.6771H19.585H22.7542H24.2542V35.1771V32.0078Z" fill="#009177" stroke="black" stroke-width="3"/>
<path id="Vector_71" d="M27.4231 32.0078V30.5078H25.9231H22.7539H21.2539V32.0078V35.1771V36.6771H22.7539H25.9231H27.4231V35.1771V32.0078Z" fill="#41EAB7" stroke="black" stroke-width="3"/>
<path id="Vector_72" d="M30.594 32.0078V30.5078H29.094H25.9248H24.4248V32.0078V35.1771V36.6771H25.9248H29.094H30.594V35.1771V32.0078Z" fill="#41EAB7" stroke="black" stroke-width="3"/>
<path id="Vector_73" d="M14.7464 35.1777V33.6777H13.2464H10.0771H8.57715V35.1777V38.347V39.847H10.0771H13.2464H14.7464V38.347V35.1777Z" fill="#2D43B4" stroke="black" stroke-width="3"/>
<path id="Vector_74" d="M17.9143 35.1777V33.6777H16.4143H13.2451H11.7451V35.1777V38.347V39.847H13.2451H16.4143H17.9143V38.347V35.1777Z" fill="#41EAB7" stroke="black" stroke-width="3"/>
<path id="Vector_75" d="M21.0853 35.1777V33.6777H19.5853H16.416H14.916V35.1777V38.347V39.847H16.416H19.5853H21.0853V38.347V35.1777Z" fill="#0FA9FF" stroke="black" stroke-width="3"/>
<path id="Vector_76" d="M24.2542 35.1777V33.6777H22.7542H19.585H18.085V35.1777V38.347V39.847H19.585H22.7542H24.2542V38.347V35.1777Z" fill="#0FA9FF" stroke="black" stroke-width="3"/>
<path id="Vector_77" d="M27.4231 35.1777V33.6777H25.9231H22.7539H21.2539V35.1777V38.347V39.847H22.7539H25.9231H27.4231V38.347V35.1777Z" fill="#41EAB7" stroke="black" stroke-width="3"/>
<path id="Vector_78" d="M17.9143 38.3477V36.8477H16.4143H13.2451H11.7451V38.3477V41.5169V43.0169H13.2451H16.4143H17.9143V41.5169V38.3477Z" fill="#2D43B4" stroke="black" stroke-width="3"/>
<path id="Vector_79" d="M21.0853 38.3477V36.8477H19.5853H16.416H14.916V38.3477V41.5169V43.0169H16.416H19.5853H21.0853V41.5169V38.3477Z" fill="#009177" stroke="black" stroke-width="3"/>
<path id="Vector_80" d="M24.2542 38.3477V36.8477H22.7542H19.585H18.085V38.3477V41.5169V43.0169H19.585H22.7542H24.2542V41.5169V38.3477Z" fill="#41EAB7" stroke="black" stroke-width="3"/>
</g>
<g id="Group_2">
<path id="Vector_81" d="M16.4143 3.48242H13.2451V6.65166H16.4143V3.48242Z" fill="#41EAB7"/>
<path id="Vector_82" d="M19.5853 3.48242H16.416V6.65166H19.5853V3.48242Z" fill="#009177"/>
<path id="Vector_83" d="M22.7542 3.48242H19.585V6.65166H22.7542V3.48242Z" fill="#2D43B4"/>
<path id="Vector_84" d="M13.2464 6.65234H10.0771V9.82158H13.2464V6.65234Z" fill="white"/>
<path id="Vector_85" d="M16.4143 6.65234H13.2451V9.82158H16.4143V6.65234Z" fill="white"/>
<path id="Vector_86" d="M19.5853 6.65234H16.416V9.82158H19.5853V6.65234Z" fill="#41EAB7"/>
<path id="Vector_87" d="M22.7542 6.65234H19.585V9.82158H22.7542V6.65234Z" fill="#0FA9FF"/>
<path id="Vector_88" d="M25.9231 6.65234H22.7539V9.82158H25.9231V6.65234Z" fill="#2D43B4"/>
<path id="Vector_89" d="M10.0765 9.82422H6.90723V12.9935H10.0765V9.82422Z" fill="white"/>
<path id="Vector_90" d="M13.2464 9.82422H10.0771V12.9935H13.2464V9.82422Z" fill="#0FA9FF"/>
<path id="Vector_91" d="M16.4143 9.82422H13.2451V12.9935H16.4143V9.82422Z" fill="#009177"/>
<path id="Vector_92" d="M19.5853 9.82422H16.416V12.9935H19.5853V9.82422Z" fill="#2D43B4"/>
<path id="Vector_93" d="M22.7542 9.82422H19.585V12.9935H22.7542V9.82422Z" fill="#2D43B4"/>
<path id="Vector_94" d="M25.9231 9.82422H22.7539V12.9935H25.9231V9.82422Z" fill="#0FA9FF"/>
<path id="Vector_95" d="M29.094 9.82422H25.9248V12.9935H29.094V9.82422Z" fill="#2D43B4"/>
<path id="Vector_96" d="M10.0765 12.9902H6.90723V16.1595H10.0765V12.9902Z" fill="#009177"/>
<path id="Vector_97" d="M13.2464 12.9902H10.0771V16.1595H13.2464V12.9902Z" fill="white"/>
<path id="Vector_98" d="M16.4143 12.9902H13.2451V16.1595H16.4143V12.9902Z" fill="#009177"/>
<path id="Vector_99" d="M19.5853 12.9902H16.416V16.1595H19.5853V12.9902Z" fill="#009177"/>
<path id="Vector_100" d="M22.7542 12.9902H19.585V16.1595H22.7542V12.9902Z" fill="#2D43B4"/>
<path id="Vector_101" d="M25.9231 12.9902H22.7539V16.1595H25.9231V12.9902Z" fill="#41EAB7"/>
<path id="Vector_102" d="M29.094 12.9902H25.9248V16.1595H29.094V12.9902Z" fill="#009177"/>
<path id="Vector_103" d="M6.90655 16.1621H3.7373V19.3313H6.90655V16.1621Z" fill="#0FA9FF"/>
<path id="Vector_104" d="M10.0765 16.1621H6.90723V19.3313H10.0765V16.1621Z" fill="white"/>
<path id="Vector_105" d="M13.2464 16.1621H10.0771V19.3313H13.2464V16.1621Z" fill="#41EAB7"/>
<path id="Vector_106" d="M16.4143 16.1621H13.2451V19.3313H16.4143V16.1621Z" fill="#41EAB7"/>
<path id="Vector_107" d="M19.5853 16.1621H16.416V19.3313H19.5853V16.1621Z" fill="#009177"/>
<path id="Vector_108" d="M22.7542 16.1621H19.585V19.3313H22.7542V16.1621Z" fill="#009177"/>
<path id="Vector_109" d="M25.9231 16.1621H22.7539V19.3313H25.9231V16.1621Z" fill="#2D43B4"/>
<path id="Vector_110" d="M29.094 16.1621H25.9248V19.3313H29.094V16.1621Z" fill="#41EAB7"/>
<path id="Vector_111" d="M32.263 16.1621H29.0938V19.3313H32.263V16.1621Z" fill="#2D43B4"/>
<path id="Vector_112" d="M6.90655 19.332H3.7373V22.5013H6.90655V19.332Z" fill="#009177"/>
<path id="Vector_113" d="M10.0765 19.332H6.90723V22.5013H10.0765V19.332Z" fill="#0FA9FF"/>
<path id="Vector_114" d="M13.2464 19.332H10.0771V22.5013H13.2464V19.332Z" fill="#009177"/>
<path id="Vector_115" d="M16.4143 19.332H13.2451V22.5013H16.4143V19.332Z" fill="#41EAB7"/>
<path id="Vector_116" d="M19.5853 19.332H16.416V22.5013H19.5853V19.332Z" fill="#41EAB7"/>
<path id="Vector_117" d="M22.7542 19.332H19.585V22.5013H22.7542V19.332Z" fill="#009177"/>
<path id="Vector_118" d="M25.9231 19.332H22.7539V22.5013H25.9231V19.332Z" fill="#009177"/>
<path id="Vector_119" d="M29.094 19.332H25.9248V22.5013H29.094V19.332Z" fill="#0FA9FF"/>
<path id="Vector_120" d="M32.263 19.332H29.0938V22.5013H32.263V19.332Z" fill="#41EAB7"/>
<path id="Vector_121" d="M6.90655 22.498H3.7373V25.6673H6.90655V22.498Z" fill="#009177"/>
<path id="Vector_122" d="M10.0765 22.498H6.90723V25.6673H10.0765V22.498Z" fill="#41EAB7"/>
<path id="Vector_123" d="M13.2464 22.498H10.0771V25.6673H13.2464V22.498Z" fill="#009177"/>
<path id="Vector_124" d="M16.4143 22.498H13.2451V25.6673H16.4143V22.498Z" fill="#009177"/>
<path id="Vector_125" d="M19.5853 22.498H16.416V25.6673H19.5853V22.498Z" fill="#41EAB7"/>
<path id="Vector_126" d="M22.7542 22.498H19.585V25.6673H22.7542V22.498Z" fill="#41EAB7"/>
<path id="Vector_127" d="M25.9231 22.498H22.7539V25.6673H25.9231V22.498Z" fill="#009177"/>
<path id="Vector_128" d="M29.094 22.498H25.9248V25.6673H29.094V22.498Z" fill="#0FA9FF"/>
<path id="Vector_129" d="M32.263 22.498H29.0938V25.6673H32.263V22.498Z" fill="#41EAB7"/>
<path id="Vector_130" d="M6.90655 25.6699H3.7373V28.8392H6.90655V25.6699Z" fill="#2D43B4"/>
<path id="Vector_131" d="M10.0765 25.6699H6.90723V28.8392H10.0765V25.6699Z" fill="#41EAB7"/>
<path id="Vector_132" d="M13.2464 25.6699H10.0771V28.8392H13.2464V25.6699Z" fill="#2D43B4"/>
<path id="Vector_133" d="M16.4143 25.6699H13.2451V28.8392H16.4143V25.6699Z" fill="#009177"/>
<path id="Vector_134" d="M19.5853 25.6699H16.416V28.8392H19.5853V25.6699Z" fill="#009177"/>
<path id="Vector_135" d="M22.7542 25.6699H19.585V28.8392H22.7542V25.6699Z" fill="#41EAB7"/>
<path id="Vector_136" d="M25.9231 25.6699H22.7539V28.8392H25.9231V25.6699Z" fill="#41EAB7"/>
<path id="Vector_137" d="M29.094 25.6699H25.9248V28.8392H29.094V25.6699Z" fill="#0FA9FF"/>
<path id="Vector_138" d="M32.263 25.6699H29.0938V28.8392H32.263V25.6699Z" fill="#41EAB7"/>
<path id="Vector_139" d="M10.0765 28.8398H6.90723V32.0091H10.0765V28.8398Z" fill="#009177"/>
<path id="Vector_140" d="M13.2464 28.8398H10.0771V32.0091H13.2464V28.8398Z" fill="#41EAB7"/>
<path id="Vector_141" d="M16.4143 28.8398H13.2451V32.0091H16.4143V28.8398Z" fill="#2D43B4"/>
<path id="Vector_142" d="M19.5853 28.8398H16.416V32.0091H19.5853V28.8398Z" fill="#009177"/>
<path id="Vector_143" d="M22.7542 28.8398H19.585V32.0091H22.7542V28.8398Z" fill="#009177"/>
<path id="Vector_144" d="M25.9231 28.8398H22.7539V32.0091H25.9231V28.8398Z" fill="#0FA9FF"/>
<path id="Vector_145" d="M29.094 28.8398H25.9248V32.0091H29.094V28.8398Z" fill="#41EAB7"/>
<path id="Vector_146" d="M10.0765 32.0078H6.90723V35.1771H10.0765V32.0078Z" fill="#2D43B4"/>
<path id="Vector_147" d="M13.2464 32.0078H10.0771V35.1771H13.2464V32.0078Z" fill="#41EAB7"/>
<path id="Vector_148" d="M16.4143 32.0078H13.2451V35.1771H16.4143V32.0078Z" fill="#2D43B4"/>
<path id="Vector_149" d="M19.5853 32.0078H16.416V35.1771H19.5853V32.0078Z" fill="#2D43B4"/>
<path id="Vector_150" d="M22.7542 32.0078H19.585V35.1771H22.7542V32.0078Z" fill="#009177"/>
<path id="Vector_151" d="M25.9231 32.0078H22.7539V35.1771H25.9231V32.0078Z" fill="#41EAB7"/>
<path id="Vector_152" d="M29.094 32.0078H25.9248V35.1771H29.094V32.0078Z" fill="#41EAB7"/>
<path id="Vector_153" d="M13.2464 35.1777H10.0771V38.347H13.2464V35.1777Z" fill="#2D43B4"/>
<path id="Vector_154" d="M16.4143 35.1777H13.2451V38.347H16.4143V35.1777Z" fill="#41EAB7"/>
<path id="Vector_155" d="M19.5853 35.1777H16.416V38.347H19.5853V35.1777Z" fill="#0FA9FF"/>
<path id="Vector_156" d="M22.7542 35.1777H19.585V38.347H22.7542V35.1777Z" fill="#0FA9FF"/>
<path id="Vector_157" d="M25.9231 35.1777H22.7539V38.347H25.9231V35.1777Z" fill="#41EAB7"/>
<path id="Vector_158" d="M16.4143 38.3477H13.2451V41.5169H16.4143V38.3477Z" fill="#2D43B4"/>
<path id="Vector_159" d="M19.5853 38.3477H16.416V41.5169H19.5853V38.3477Z" fill="#009177"/>
<path id="Vector_160" d="M22.7542 38.3477H19.585V41.5169H22.7542V38.3477Z" fill="#41EAB7"/>
</g>
</g>
</g>
</svg>
