<svg width="27" height="30" viewBox="0 0 27 30" fill="none" xmlns="http://www.w3.org/2000/svg">
<path d="M26.9004 17.9351H24.6587V20.1768H26.9004V17.9351Z" fill="#2648EF"/>
<path d="M26.9004 15.6924H24.6587V17.9341H26.9004V15.6924Z" fill="#2648EF"/>
<path d="M26.9004 13.4507H24.6587V15.6924H26.9004V13.4507Z" fill="#2648EF"/>
<path d="M26.9004 11.209H24.6587V13.4507H26.9004V11.209Z" fill="#2648EF"/>
<path d="M24.6578 22.4175H22.416V24.6578H24.6578V22.4175Z" fill="#2648EF"/>
<path d="M24.6578 20.1758H22.416V22.4175H24.6578V20.1758Z" fill="#2648EF"/>
<path d="M24.6578 17.9351H22.416V20.1768H24.6578V17.9351Z" fill="#2648EF"/>
<path d="M24.6578 15.6924H22.416V17.9341H24.6578V15.6924Z" fill="#2648EF"/>
<path d="M24.6578 13.4507H22.416V15.6924H24.6578V13.4507Z" fill="#2648EF"/>
<path d="M24.6578 11.209H22.416V13.4507H24.6578V11.209Z" fill="#2648EF"/>
<path d="M24.6578 6.72559H22.416V8.96734H24.6578V6.72559Z" fill="#2648EF"/>
<path d="M24.6578 4.48389H22.416V6.72564H24.6578V4.48389Z" fill="#2648EF"/>
<path d="M22.4161 24.6582H20.1743V26.9H22.4161V24.6582Z" fill="#2648EF"/>
<path d="M22.4161 22.4175H20.1743V24.6578H22.4161V22.4175Z" fill="#2648EF"/>
<path d="M22.4161 20.1758H20.1743V22.4175H22.4161V20.1758Z" fill="#2648EF"/>
<path d="M22.4161 17.9351H20.1743V20.1768H22.4161V17.9351Z" fill="#2648EF"/>
<path d="M22.4161 15.6924H20.1743V17.9341H22.4161V15.6924Z" fill="#2648EF"/>
<path d="M22.4161 13.4507H20.1743V15.6924H22.4161V13.4507Z" fill="#2648EF"/>
<path d="M22.4161 11.209H20.1743V13.4507H22.4161V11.209Z" fill="#2648EF"/>
<path d="M22.4161 6.72559H20.1743V8.96734H22.4161V6.72559Z" fill="#2648EF"/>
<path d="M22.4161 4.48389H20.1743V6.72564H22.4161V4.48389Z" fill="#2648EF"/>
<path d="M22.4161 2.2417H20.1743V4.48345H22.4161V2.2417Z" fill="#2648EF"/>
<path d="M20.1749 26.8999H17.9346V29.1417H20.1749V26.8999Z" fill="#2648EF"/>
<path d="M20.1749 24.6582H17.9346V26.9H20.1749V24.6582Z" fill="#2648EF"/>
<path d="M20.1749 22.4175H17.9346V24.6578H20.1749V22.4175Z" fill="#2648EF"/>
<path d="M20.1749 20.1758H17.9346V22.4175H20.1749V20.1758Z" fill="#2648EF"/>
<path d="M20.1749 6.72559H17.9346V8.96734H20.1749V6.72559Z" fill="#2648EF"/>
<g clip-path="url(#clip0_1347_1648)">
<path d="M16.3242 14.0022V10.169H14.9242V7.75598H12.7676V6.62402H10.3525V7.75598H7.09766V10.168H8.01961V14.0012H7.09766V16.4133H8.01961V20.2465H7.09766V22.6586H10.3515V23.5383H12.7666V22.6586H14.9232V20.2465H16.3232V16.4133H14.9232V14.0012H16.3232L16.3242 14.0022ZM13.9091 20.2485H10.4357V16.4153H13.9091V20.2485ZM13.9091 14.0022H10.4357V10.169H13.9091V14.0022Z" fill="#2648EF"/>
</g>
<path d="M20.1749 4.48389H17.9346V6.72564H20.1749V4.48389Z" fill="#2648EF"/>
<path d="M20.1749 2.2417H17.9346V4.48345H20.1749V2.2417Z" fill="#2648EF"/>
<path d="M20.1749 0H17.9346V2.24175H20.1749V0Z" fill="#2648EF"/>
<path d="M17.9341 26.8999H15.6924V29.1417H17.9341V26.8999Z" fill="#2648EF"/>
<path d="M17.9341 24.6582H15.6924V26.9H17.9341V24.6582Z" fill="#2648EF"/>
<path d="M17.9341 2.2417H15.6924V4.48345H17.9341V2.2417Z" fill="#2648EF"/>
<path d="M17.9341 0H15.6924V2.24175H17.9341V0Z" fill="#2648EF"/>
<path d="M15.6924 26.8999H13.4507V29.1417H15.6924V26.8999Z" fill="#2648EF"/>
<path d="M15.6924 0H13.4507V2.24175H15.6924V0Z" fill="#2648EF"/>
<path d="M11.2086 26.8999H8.9668V29.1417H11.2086V26.8999Z" fill="#2648EF"/>
<path d="M11.2086 0H8.9668V2.24175H11.2086V0Z" fill="#2648EF"/>
<path d="M13.4507 26.8999H11.209V29.1417H13.4507V26.8999Z" fill="#2648EF"/>
<path d="M13.4507 0H11.209V2.24175H13.4507V0Z" fill="#2648EF"/>
<path d="M8.96685 26.8999H6.7251V29.1417H8.96685V26.8999Z" fill="#2648EF"/>
<path d="M8.96685 0H6.7251V2.24175H8.96685V0Z" fill="#2648EF"/>
<path d="M6.72515 24.6582H4.4834V26.9H6.72515V24.6582Z" fill="#2648EF"/>
<path d="M6.72515 2.2417H4.4834V4.48345H6.72515V2.2417Z" fill="#2648EF"/>
<path d="M4.48345 22.4175H2.2417V24.6578H4.48345V22.4175Z" fill="#2648EF"/>
<path d="M4.48345 20.1758H2.2417V22.4175H4.48345V20.1758Z" fill="#2648EF"/>
<path d="M4.48345 6.72559H2.2417V8.96734H4.48345V6.72559Z" fill="#2648EF"/>
<path d="M4.48345 4.48389H2.2417V6.72564H4.48345V4.48389Z" fill="#2648EF"/>
<path d="M2.24175 17.9351H0V20.1768H2.24175V17.9351Z" fill="#2648EF"/>
<path d="M2.24175 15.6924H0V17.9341H2.24175V15.6924Z" fill="#2648EF"/>
<path d="M2.24175 13.4507H0V15.6924H2.24175V13.4507Z" fill="#2648EF"/>
<path d="M2.24175 11.209H0V13.4507H2.24175V11.209Z" fill="#2648EF"/>
<path d="M26.9004 8.96729H24.6587V11.209H26.9004V8.96729Z" fill="#2648EF"/>
<path d="M24.6578 8.96729H22.416V11.209H24.6578V8.96729Z" fill="#2648EF"/>
<path d="M22.4161 8.96729H20.1743V11.209H22.4161V8.96729Z" fill="#2648EF"/>
<path d="M2.24175 8.96729H0V11.209H2.24175V8.96729Z" fill="#2648EF"/>
<defs>
<clipPath id="clip0_1347_1648">
<rect width="9.22651" height="16.9153" fill="white" transform="translate(7.09766 6.62402)"/>
</clipPath>
</defs>
</svg>
