<svg xmlns="http://www.w3.org/2000/svg" width="27" height="30" viewBox="0 0 27 30" fill="none">
  <path fill-rule="evenodd" clip-rule="evenodd" d="M6.72559 0.0402832H20.1749V2.28203L22.4166 2.28204V4.5238L24.6578 4.5238V9.00732L26.9 9.00732V20.2167H24.6582L24.6578 24.6982H22.4166V26.9401H20.1749V29.1818H6.72559V26.9401L4.4834 26.9401V24.6983L2.24219 24.6982V20.2161L0 20.2167V9.00732L2.24219 9.00732V4.5238L4.4834 4.5238V2.28204L6.72559 2.28203V0.0402832ZM15.6987 4.52375L17.9409 4.52376V9.00727H20.1812L20.1811 20.216H17.9409V24.6981L15.6987 24.6983V26.94H6.73188L6.73145 24.6983H4.48969L4.49023 20.216H2.24848V9.00727H4.49023L4.48969 4.52375H6.73145L6.73188 2.28198L15.6987 2.282V4.52375ZM16.2617 9.44416V13.2774L16.2607 13.2764H14.8607V15.6884H16.2607V19.5217H14.8607V21.9337H12.7041V22.8134H10.289V21.9337H7.03516V19.5217H7.95711V15.6884H7.03516V13.2764H7.95711V9.44316H7.03516V7.03113H10.29V5.89917H12.7051V7.03113H14.8617V9.44416H16.2617ZM10.3732 19.5237H13.8466V15.6904H10.3732V19.5237ZM10.3732 13.2774H13.8466V9.44416H10.3732V13.2774Z" fill="white"/>
</svg>