<svg width="236" height="19" viewBox="0 0 236 19" fill="none" xmlns="http://www.w3.org/2000/svg">
<path d="M12.8311 14.75V10.25H6.08105V14.75H12.8311ZM12.8311 8V3.5H6.08105V8H12.8311ZM1.58105 17V1.25H15.0811V3.5H17.3311V8H15.0811V10.25H17.3311V14.75H15.0811V17H1.58105ZM21.8311 17V14.75H26.3311V3.5H21.8311V1.25H35.3311V3.5H30.8311V14.75H35.3311V17H21.8311ZM44.3311 17V3.5H39.8311V1.25H53.3311V3.5H48.8311V17H44.3311ZM64.5811 14.75V12.5H66.8311V5.75H64.5811V3.5H60.0811V14.75H64.5811ZM55.5811 17V1.25H66.8311V3.5H69.0811V5.75H71.3311V12.5H69.0811V14.75H66.8311V17H55.5811ZM75.8311 17V14.75H80.3311V3.5H75.8311V1.25H89.3311V3.5H84.8311V14.75H89.3311V17H75.8311ZM93.8311 17V14.75H91.5811V12.5H96.0811V14.75H102.831V10.25H93.8311V8H91.5811V3.5H93.8311V1.25H102.831V3.5H105.081V5.75H100.581V3.5H96.0811V8H105.081V10.25H107.331V14.75H105.081V17H93.8311ZM114.081 17V14.75H111.831V12.5H109.581V5.75H111.831V3.5H114.081V1.25H123.081V3.5H125.331V5.75H120.831V3.5H116.331V5.75H114.081V12.5H116.331V14.75H120.831V12.5H125.331V14.75H123.081V17H114.081ZM156.831 14.75V10.25H150.081V14.75H156.831ZM156.831 8V3.5H150.081V8H156.831ZM145.581 17V1.25H159.081V3.5H161.331V8H159.081V10.25H161.331V14.75H159.081V17H145.581ZM165.831 17V1.25H170.331V14.75H179.331V17H165.831ZM192.831 10.25V5.75H190.581V3.5H188.331V5.75H186.081V10.25H192.831ZM181.581 17V5.75H183.831V3.5H186.081V1.25H192.831V3.5H195.081V5.75H197.331V17H192.831V12.5H186.081V17H181.581ZM204.081 17V14.75H201.831V12.5H199.581V5.75H201.831V3.5H204.081V1.25H213.081V3.5H215.331V5.75H210.831V3.5H206.331V5.75H204.081V12.5H206.331V14.75H210.831V12.5H215.331V14.75H213.081V17H204.081ZM217.581 17V1.25H222.081V8H224.331V5.75H226.581V3.5H228.831V1.25H233.331V3.5H231.081V5.75H228.831V8H226.581V10.25H228.831V12.5H231.081V14.75H233.331V17H226.581V14.75H224.331V12.5H222.081V17H217.581Z" fill="url(#paint0_linear_800_7903)"/>
<path d="M11.6689 13.75V9.25H4.91895V13.75H11.6689ZM11.6689 7V2.5H4.91895V7H11.6689ZM0.418945 16V0.25H13.9189V2.5H16.1689V7H13.9189V9.25H16.1689V13.75H13.9189V16H0.418945ZM20.6689 16V13.75H25.1689V2.5H20.6689V0.25H34.1689V2.5H29.6689V13.75H34.1689V16H20.6689ZM43.1689 16V2.5H38.6689V0.25H52.1689V2.5H47.6689V16H43.1689ZM63.4189 13.75V11.5H65.6689V4.75H63.4189V2.5H58.9189V13.75H63.4189ZM54.4189 16V0.25H65.6689V2.5H67.9189V4.75H70.1689V11.5H67.9189V13.75H65.6689V16H54.4189ZM74.6689 16V13.75H79.1689V2.5H74.6689V0.25H88.1689V2.5H83.6689V13.75H88.1689V16H74.6689ZM92.6689 16V13.75H90.4189V11.5H94.9189V13.75H101.669V9.25H92.6689V7H90.4189V2.5H92.6689V0.25H101.669V2.5H103.919V4.75H99.4189V2.5H94.9189V7H103.919V9.25H106.169V13.75H103.919V16H92.6689ZM112.919 16V13.75H110.669V11.5H108.419V4.75H110.669V2.5H112.919V0.25H121.919V2.5H124.169V4.75H119.669V2.5H115.169V4.75H112.919V11.5H115.169V13.75H119.669V11.5H124.169V13.75H121.919V16H112.919ZM155.669 13.75V9.25H148.919V13.75H155.669ZM155.669 7V2.5H148.919V7H155.669ZM144.419 16V0.25H157.919V2.5H160.169V7H157.919V9.25H160.169V13.75H157.919V16H144.419ZM164.669 16V0.25H169.169V13.75H178.169V16H164.669ZM191.669 9.25V4.75H189.419V2.5H187.169V4.75H184.919V9.25H191.669ZM180.419 16V4.75H182.669V2.5H184.919V0.25H191.669V2.5H193.919V4.75H196.169V16H191.669V11.5H184.919V16H180.419ZM202.919 16V13.75H200.669V11.5H198.419V4.75H200.669V2.5H202.919V0.25H211.919V2.5H214.169V4.75H209.669V2.5H205.169V4.75H202.919V11.5H205.169V13.75H209.669V11.5H214.169V13.75H211.919V16H202.919ZM216.419 16V0.25H220.919V7H223.169V4.75H225.419V2.5H227.669V0.25H232.169V2.5H229.919V4.75H227.669V7H225.419V9.25H227.669V11.5H229.919V13.75H232.169V16H225.419V13.75H223.169V11.5H220.919V16H216.419Z" fill="url(#paint1_linear_800_7903)"/>
<defs>
<linearGradient id="paint0_linear_800_7903" x1="12.5284" y1="-14.0001" x2="230.424" y2="-2.73058" gradientUnits="userSpaceOnUse">
<stop stop-color="#464646"/>
<stop offset="0.278929" stop-color="#E4E4E4"/>
<stop offset="0.366139" stop-color="#8B8B8B"/>
<stop offset="0.630501" stop-color="#8E8E8E"/>
<stop offset="0.697886" stop-color="#BCBCBC"/>
<stop offset="0.809742" stop-color="#838383"/>
<stop offset="0.923565" stop-color="#D4D4D4"/>
<stop offset="1" stop-color="#CCCCCC"/>
</linearGradient>
<linearGradient id="paint1_linear_800_7903" x1="11.3663" y1="-15.0001" x2="229.262" y2="-3.73058" gradientUnits="userSpaceOnUse">
<stop stop-color="white"/>
<stop offset="0.278929" stop-color="#868686"/>
<stop offset="0.366139" stop-color="white"/>
<stop offset="0.630501" stop-color="#434343"/>
<stop offset="0.697886" stop-color="#707070"/>
<stop offset="0.809742" stop-color="white"/>
<stop offset="0.923565" stop-color="#696969"/>
<stop offset="1" stop-color="#CCCCCC"/>
</linearGradient>
</defs>
</svg>
