<svg width="348" height="22" viewBox="0 0 348 22" fill="none" xmlns="http://www.w3.org/2000/svg">
<path d="M0.5 14L347.5 14" stroke="url(#paint0_linear_800_7906)" stroke-width="2"/>
<rect width="157" height="22" transform="translate(95.5)" fill="black"/>
<path d="M109.298 5.22V9.63L110.702 8.676H111.89C112.526 8.676 113.114 8.838 113.654 9.162C114.194 9.474 114.62 9.9 114.932 10.44C115.256 10.98 115.418 11.568 115.418 12.204V14.49C115.418 15.126 115.256 15.714 114.932 16.254C114.62 16.782 114.194 17.208 113.654 17.532C113.114 17.844 112.526 18 111.89 18H110.702L109.298 17.064V18H106.94V5.22H109.298ZM111.422 15.642H111.89C112.214 15.642 112.49 15.528 112.718 15.3C112.946 15.072 113.06 14.802 113.06 14.49V12.204C113.06 11.88 112.946 11.604 112.718 11.376C112.49 11.148 112.214 11.034 111.89 11.034H111.422L109.298 12.474V14.202L111.422 15.642ZM126.773 15.642V18H118.295V15.642H121.265V11.034H118.295V8.676H123.623V15.642H126.773ZM121.229 5.256H123.623V7.344H121.229V5.256ZM135.951 18C135.315 18 134.727 17.844 134.187 17.532C133.647 17.22 133.221 16.794 132.909 16.254C132.597 15.714 132.441 15.126 132.441 14.49V11.034H129.651V8.676H132.441V6.336H134.799V8.676H138.129V11.034H134.799V14.49C134.799 14.814 134.907 15.09 135.123 15.318C135.351 15.534 135.627 15.642 135.951 15.642H138.129V18H135.951ZM143.364 13.788V14.382C143.364 14.73 143.484 15.03 143.724 15.282C143.976 15.522 144.276 15.642 144.624 15.642H145.83C146.214 15.642 146.526 15.54 146.766 15.336C147.006 15.132 147.126 14.874 147.126 14.562C147.126 14.142 146.928 13.782 146.532 13.482C146.148 13.182 145.548 12.84 144.732 12.456C143.988 12.096 143.376 11.766 142.896 11.466C142.428 11.154 142.026 10.77 141.69 10.314C141.354 9.846 141.186 9.294 141.186 8.658C141.186 8.034 141.342 7.476 141.654 6.984C141.966 6.48 142.392 6.09 142.932 5.814C143.484 5.538 144.108 5.4 144.804 5.4H145.65C146.31 5.4 146.916 5.562 147.468 5.886C148.032 6.21 148.476 6.648 148.8 7.2C149.136 7.752 149.304 8.358 149.304 9.018V9.432H146.946V9.018C146.946 8.67 146.82 8.376 146.568 8.136C146.316 7.884 146.01 7.758 145.65 7.758H144.804C144.396 7.758 144.084 7.836 143.868 7.992C143.652 8.148 143.544 8.37 143.544 8.658C143.544 8.898 143.694 9.126 143.994 9.342C144.294 9.546 144.774 9.81 145.434 10.134C146.262 10.554 146.94 10.938 147.468 11.286C148.008 11.634 148.476 12.084 148.872 12.636C149.28 13.188 149.484 13.83 149.484 14.562C149.484 15.198 149.322 15.78 148.998 16.308C148.686 16.836 148.248 17.25 147.684 17.55C147.132 17.85 146.514 18 145.83 18H144.624C143.964 18 143.358 17.838 142.806 17.514C142.254 17.19 141.816 16.752 141.492 16.2C141.168 15.648 141.006 15.042 141.006 14.382V13.788H143.364ZM154.216 8.676V9.846L155.53 8.676H155.584C156.604 8.676 157.258 9.132 157.546 10.044L159.094 8.676H159.13C159.922 8.676 160.486 8.934 160.822 9.45C161.158 9.966 161.326 10.764 161.326 11.844V18H158.986V11.898L157.78 12.978V18H155.422V11.916L154.216 12.996V18H151.858V8.676H154.216ZM172.195 15.642V18H163.717V15.642H166.687V11.034H163.717V8.676H169.045V15.642H172.195ZM166.651 5.256H169.045V7.344H166.651V5.256ZM183.551 15.642V18H175.073V15.642H178.043V7.578H175.073V5.22H180.401V15.642H183.551ZM194.906 13.626H188.786V14.472C188.786 14.784 188.9 15.054 189.128 15.282C189.356 15.51 189.626 15.624 189.938 15.624H191.378C191.702 15.624 191.978 15.51 192.206 15.282C192.434 15.054 192.548 14.784 192.548 14.472V14.292H194.906V14.472C194.906 15.108 194.744 15.696 194.42 16.236C194.108 16.776 193.682 17.208 193.142 17.532C192.602 17.844 192.014 18 191.378 18H189.938C189.302 18 188.714 17.844 188.174 17.532C187.646 17.208 187.22 16.776 186.896 16.236C186.584 15.696 186.428 15.108 186.428 14.472V12.204C186.428 11.568 186.584 10.98 186.896 10.44C187.22 9.9 187.646 9.474 188.174 9.162C188.714 8.838 189.302 8.676 189.938 8.676H191.378C192.014 8.676 192.596 8.832 193.124 9.144C193.664 9.444 194.09 9.864 194.402 10.404C194.726 10.932 194.894 11.514 194.906 12.15V13.626ZM192.548 12.456V12.204C192.548 11.868 192.434 11.592 192.206 11.376C191.99 11.148 191.714 11.034 191.378 11.034H189.938C189.614 11.034 189.338 11.148 189.11 11.376C188.894 11.604 188.786 11.88 188.786 12.204V12.456H192.548ZM200.142 8.676V9.882L201.924 8.676H202.734C203.37 8.676 203.958 8.838 204.498 9.162C205.038 9.474 205.464 9.9 205.776 10.44C206.1 10.98 206.262 11.568 206.262 12.204V12.78H203.904V12.204C203.904 11.88 203.79 11.604 203.562 11.376C203.334 11.148 203.058 11.034 202.734 11.034H202.644L200.142 12.708V18H197.784V8.676H200.142ZM225.445 15.624C225.769 15.624 226.045 15.51 226.273 15.282C226.501 15.054 226.615 14.784 226.615 14.472V8.91C226.615 8.586 226.501 8.316 226.273 8.1C226.057 7.872 225.781 7.758 225.445 7.758H224.005C223.681 7.758 223.405 7.872 223.177 8.1C222.961 8.328 222.853 8.598 222.853 8.91V14.472C222.853 14.784 222.967 15.054 223.195 15.282C223.423 15.51 223.693 15.624 224.005 15.624H225.445ZM220.495 8.91C220.495 8.274 220.651 7.692 220.963 7.164C221.287 6.624 221.713 6.198 222.241 5.886C222.781 5.562 223.369 5.4 224.005 5.4H225.445C226.093 5.4 226.687 5.556 227.227 5.868C227.767 6.18 228.193 6.606 228.505 7.146C228.817 7.686 228.973 8.274 228.973 8.91V14.472C228.973 15.108 228.811 15.696 228.487 16.236C228.175 16.776 227.749 17.208 227.209 17.532C226.669 17.844 226.081 18 225.445 18H224.005C223.369 18 222.781 17.844 222.241 17.532C221.713 17.208 221.287 16.776 220.963 16.236C220.651 15.696 220.495 15.108 220.495 14.472V8.91ZM240.328 11.178V14.472C240.328 15.108 240.166 15.696 239.842 16.236C239.53 16.776 239.104 17.208 238.564 17.532C238.024 17.844 237.436 18 236.8 18H235.36C234.724 18 234.136 17.844 233.596 17.532C233.068 17.208 232.642 16.776 232.318 16.236C232.006 15.696 231.85 15.108 231.85 14.472V8.91C231.85 8.274 232.006 7.692 232.318 7.164C232.642 6.624 233.068 6.198 233.596 5.886C234.136 5.562 234.724 5.4 235.36 5.4H236.8C237.448 5.4 238.042 5.556 238.582 5.868C239.122 6.18 239.548 6.606 239.86 7.146C240.172 7.686 240.328 8.274 240.328 8.91V9.9H237.97V8.91C237.97 8.586 237.856 8.316 237.628 8.1C237.412 7.872 237.136 7.758 236.8 7.758H235.36C235.036 7.758 234.76 7.872 234.532 8.1C234.316 8.328 234.208 8.598 234.208 8.91V14.472C234.208 14.784 234.322 15.054 234.55 15.282C234.778 15.51 235.048 15.624 235.36 15.624H236.8C237.124 15.624 237.4 15.51 237.628 15.282C237.856 15.054 237.97 14.784 237.97 14.472V13.518H235.684V11.178H240.328Z" fill="url(#paint1_linear_800_7906)"/>
<defs>
<linearGradient id="paint0_linear_800_7906" x1="0.500007" y1="14.5" x2="121.017" y2="179.712" gradientUnits="userSpaceOnUse">
<stop/>
<stop offset="0.051614" stop-color="white"/>
<stop offset="0.278929" stop-color="#868686"/>
<stop offset="0.366139" stop-color="white"/>
<stop offset="0.630501" stop-color="#434343"/>
<stop offset="0.697886" stop-color="#707070"/>
<stop offset="0.809742" stop-color="white"/>
<stop offset="0.923565" stop-color="#696969"/>
<stop offset="1"/>
</linearGradient>
<linearGradient id="paint1_linear_800_7906" x1="111.909" y1="-18.3335" x2="239.743" y2="-15.1664" gradientUnits="userSpaceOnUse">
<stop stop-color="white"/>
<stop offset="0.278929" stop-color="#868686"/>
<stop offset="0.366139" stop-color="white"/>
<stop offset="0.630501" stop-color="#434343"/>
<stop offset="0.697886" stop-color="#707070"/>
<stop offset="0.809742" stop-color="white"/>
<stop offset="0.923565" stop-color="#696969"/>
<stop offset="1" stop-color="#CCCCCC"/>
</linearGradient>
</defs>
</svg>
