<svg width="15" height="18" viewBox="0 0 15 18" fill="none" xmlns="http://www.w3.org/2000/svg">
<path fill-rule="evenodd" clip-rule="evenodd" d="M11.2094 0.848099L13.3434 2.08016L12.7274 3.14716L13.7944 3.7632L13.1784 4.8302L14.2454 5.44623L13.0133 7.58023L14.0803 8.19626L12.2322 11.3973L11.1652 10.7812L9.93313 12.9152L11.0001 13.5313L9.15203 16.7323L8.08503 16.1162L7.469 17.1832L6.402 16.5672L7.63406 14.4332L6.56706 13.8172L5.335 15.9512L3.20099 14.7191L4.43306 12.5851L3.36606 11.9691L2.13399 14.1031L1.06699 13.487L1.68303 12.42L0.616027 11.804L2.46413 8.603L3.53113 9.21904L4.76319 7.08504L3.69619 6.469L5.54429 3.268L6.61129 3.88403L7.84336 1.75003L8.91036 2.36607L9.52639 1.29907L10.5934 1.9151L11.2094 0.848099ZM9.03119 9.54917L9.64723 8.48217L10.7142 9.0982L11.9463 6.9642L10.8793 6.34817L11.4953 5.28117L9.36132 4.0491L8.74529 5.1161L7.67829 4.50007L6.44623 6.63407L7.51323 7.2501L6.89719 8.3171L9.03119 9.54917Z" fill="currentColor"/>
</svg>
