<svg width="37" height="44" viewBox="0 0 37 44" fill="none" xmlns="http://www.w3.org/2000/svg">
<path fill-rule="evenodd" clip-rule="evenodd" d="M28.2124 0.254959L30.944 1.79642L29.2871 4.6015L29.3154 4.6175L27.6589 7.42192L27.6871 7.43781L25.9696 10.3454L23.238 8.80396L24.8945 5.99954L24.8664 5.98365L26.5233 3.17857L26.4949 3.16257L28.2124 0.254959ZM31.0329 1.88411L33.7645 3.42557L32.1081 6.22986L32.1358 6.2455L30.4791 9.05012L30.5076 9.06619L28.7901 11.9738L26.0585 10.4323L27.7152 7.62772L27.6867 7.61165L29.3431 4.80736L29.3154 4.79172L31.0329 1.88411ZM26.4946 2.98873L23.763 1.44727L22.0455 4.35488L22.0734 4.37061L20.4167 7.1752L20.4455 7.19145L18.7885 9.99666L21.5201 11.5381L23.2376 8.6305L23.2088 8.61424L24.8658 5.80904L24.8379 5.79331L26.4946 2.98873ZM32.2249 6.33242L34.9565 7.87388L33.2993 10.6793L33.3277 10.6953L31.6714 13.4994L31.6995 13.5153L29.982 16.4229L27.2504 14.8814L28.9067 12.0774L28.8786 12.0615L30.5358 9.25605L30.5074 9.24003L32.2249 6.33242ZM22.0455 4.18143L19.3139 2.63996L17.5964 5.54758L17.6244 5.56337L15.968 8.36751L15.9964 8.38351L14.3394 11.1886L14.3676 11.2045L12.7111 14.0089L12.7393 14.0248L11.0825 16.8296L11.1105 16.8454L9.45411 19.6495L9.48267 19.6656L7.82523 22.4716L7.85335 22.4875L6.19715 25.2913L6.22534 25.3072L4.56858 28.112L4.59705 28.1281L2.94038 30.9327L2.96809 30.9483L1.31162 33.7526L4.0432 35.2941L5.7607 32.3865L5.73299 32.3708L7.38946 29.5665L7.36099 29.5505L9.01765 26.7458L8.98947 26.7299L10.6462 23.9251L10.6181 23.9093L12.2743 21.1054L12.2457 21.0893L13.9032 18.2834L13.8752 18.2676L15.5316 15.4634L15.5034 15.4475L17.1601 12.6427L17.132 12.6269L18.7885 9.82243L18.7602 9.80643L20.4171 7.00136L20.3891 6.98556L22.0455 4.18143ZM33.4167 10.7817L36.1483 12.3232L34.4918 15.1275L34.5204 15.1437L32.8637 17.9483L32.8914 17.964L31.2344 20.7692L31.2632 20.7854L29.6064 23.5903L29.6345 23.6061L27.978 26.4105L28.0063 26.4264L26.3496 29.231L26.3775 29.2467L24.7208 32.0514L24.7493 32.0674L23.0928 34.8717L23.1206 34.8874L21.4634 37.6928L21.4926 37.7092L19.8361 40.5135L19.8638 40.5291L18.1463 43.4367L15.4147 41.8953L17.0712 39.091L17.0435 39.0754L18.7006 36.2699L18.6715 36.2535L20.3279 33.4492L20.3002 33.4336L21.9569 30.629L21.9284 30.6129L23.5851 27.8083L23.5572 27.7926L25.2137 24.9882L25.1854 24.9723L26.8422 22.1674L26.8142 22.1516L28.4712 19.3464L28.4423 19.3301L30.099 16.5255L30.0713 16.5098L31.7278 13.7055L31.6993 13.6894L33.4167 10.7817ZM15.9682 8.19405L13.2366 6.65259L11.5191 9.5602L11.5465 9.57566L9.89018 12.3797L9.91914 12.3961L8.26218 15.2012L10.9938 16.7427L12.7113 13.8351L12.6823 13.8187L14.3393 11.0136L14.3119 10.9981L15.9682 8.19405ZM32.9807 18.0513L35.7123 19.5927L34.0554 22.3977L34.0839 22.4138L32.4273 25.2184L32.4552 25.2341L30.7377 28.1417L28.0061 26.6003L29.6627 23.7957L29.6348 23.78L31.2917 20.975L31.2632 20.9589L32.9807 18.0513ZM18.3521 17.0922L15.6205 15.5507L13.903 18.4584L13.9314 18.4744L12.275 21.2787L12.3027 21.2943L10.646 24.099L10.6744 24.115L9.01766 26.9197L9.04567 26.9355L7.38908 29.74L10.1207 31.2814L11.8382 28.3738L11.8101 28.358L13.4667 25.5535L13.4384 25.5375L15.0951 22.7328L15.0674 22.7172L16.7241 19.9125L16.6956 19.8965L18.3521 17.0922ZM24.0824 20.4359L26.814 21.9774L25.1575 24.7816L25.186 24.7977L23.5289 27.6029L23.557 27.6187L21.9005 30.4232L21.9286 30.4391L20.2717 33.2441L20.3001 33.2601L18.5826 36.1677L15.851 34.6263L17.5079 31.8212L17.4795 31.8052L19.1361 29.0008L19.1079 28.9849L20.765 26.1797L20.7369 26.1638L22.3933 23.3596L22.3649 23.3435L24.0824 20.4359ZM19.5444 21.5413L16.8128 19.9998L15.0953 22.9074L15.1236 22.9234L13.4671 25.7277L13.4955 25.7437L11.8385 28.5488L11.8667 28.5647L10.2103 31.3688L10.2384 31.3846L8.58158 34.1894L8.60948 34.2052L6.95263 37.0101L9.68421 38.5516L11.4017 35.644L11.3738 35.6282L13.0307 32.8233L13.0026 32.8075L14.6594 30.0026L14.6313 29.9867L16.2876 27.1827L16.2593 27.1667L17.9162 24.3616L17.8879 24.3456L19.5444 21.5413ZM19.6335 21.6278L22.3651 23.1693L20.7083 25.9742L20.7363 25.99L19.08 28.794L19.1081 28.8099L17.4508 31.6156L17.4794 31.6317L15.8232 34.4355L15.8512 34.4513L14.1942 37.2564L14.2226 37.2724L12.5051 40.18L9.77351 38.6385L11.4304 35.8334L11.4021 35.8174L13.0582 33.0137L13.0303 32.9979L14.6876 30.1922L14.659 30.1761L16.3154 27.372L16.2872 27.3561L17.944 24.5513L17.916 24.5354L19.6335 21.6278ZM7.82573 22.2964L5.09415 20.7549L3.37665 23.6625L3.40518 23.6786L1.74807 26.484L1.7759 26.4997L0.119692 29.3035L2.85127 30.845L4.56877 27.9374L4.54095 27.9217L6.19715 25.1178L6.16863 25.1017L7.82573 22.2964ZM24.8384 32.1551L27.57 33.6966L25.9135 36.5009L25.9412 36.5165L24.2844 39.3214L24.3131 39.3376L22.5956 42.2452L19.864 40.7037L21.5208 37.8988L21.4922 37.8827L23.1486 35.0784L23.1209 35.0627L24.8384 32.1551Z" fill="black" fill-opacity="0.5"/>
</svg>
