<svg width="20" height="20" viewBox="0 0 20 20" fill="none" xmlns="http://www.w3.org/2000/svg">
<g id="material-symbols:copyright-outline-rounded">
<path id="Vector" d="M9.75468 17.8834C8.63021 17.8834 7.57348 17.6699 6.58449 17.2428C5.59549 16.8158 4.73521 16.2368 4.00362 15.5057C3.27204 14.7742 2.693 13.9139 2.26652 12.9249C1.84003 11.9359 1.62652 10.8792 1.62598 9.75468C1.62598 8.63021 1.83949 7.57348 2.26652 6.58449C2.69355 5.59549 3.27258 4.73521 4.00362 4.00362C4.73521 3.27204 5.59549 2.693 6.58449 2.26652C7.57348 1.84003 8.63021 1.62652 9.75468 1.62598C10.8792 1.62598 11.9359 1.83949 12.9249 2.26652C13.9139 2.69355 14.7742 3.27258 15.5057 4.00362C16.2373 4.73521 16.8166 5.59549 17.2437 6.58449C17.6707 7.57348 17.8839 8.63021 17.8834 9.75468C17.8834 10.8792 17.6699 11.9359 17.2428 12.9249C16.8158 13.9139 16.2368 14.7742 15.5057 15.5057C14.7742 16.2373 13.9139 16.8166 12.9249 17.2437C11.9359 17.6707 10.8792 17.8839 9.75468 17.8834ZM9.75468 16.2576C11.5701 16.2576 13.1078 15.6277 14.3677 14.3677C15.6277 13.1078 16.2576 11.5701 16.2576 9.75468C16.2576 7.93927 15.6277 6.40159 14.3677 5.14164C13.1078 3.88169 11.5701 3.25172 9.75468 3.25172C7.93927 3.25172 6.40159 3.88169 5.14164 5.14164C3.88169 6.40159 3.25172 7.93927 3.25172 9.75468C3.25172 11.5701 3.88169 13.1078 5.14164 14.3677C6.40159 15.6277 7.93927 16.2576 9.75468 16.2576ZM8.12894 13.0062H11.3804C11.6107 13.0062 11.8039 12.9281 11.96 12.7721C12.1161 12.616 12.1938 12.4231 12.1933 12.1933V11.3804C12.1933 11.1501 12.1153 10.9572 11.9592 10.8017C11.8031 10.6461 11.6102 10.5681 11.3804 10.5676C11.1501 10.5676 10.9572 10.6456 10.8017 10.8017C10.6461 10.9577 10.5681 11.1507 10.5676 11.3804H8.94181V8.12894H10.5676C10.5676 8.35925 10.6456 8.55245 10.8017 8.70852C10.9577 8.86459 11.1507 8.94235 11.3804 8.94181C11.6107 8.94181 11.8039 8.86377 11.96 8.7077C12.1161 8.55163 12.1938 8.35871 12.1933 8.12894V7.31607C12.1933 7.08576 12.1153 6.89284 11.9592 6.73731C11.8031 6.58178 11.6102 6.50374 11.3804 6.5032H8.12894C7.89863 6.5032 7.70571 6.58123 7.55018 6.73731C7.39465 6.89338 7.31661 7.0863 7.31607 7.31607V12.1933C7.31607 12.4236 7.39411 12.6168 7.55018 12.7729C7.70625 12.9289 7.89917 13.0067 8.12894 13.0062Z" fill="currentColor"/>
</g>
</svg>
