<svg width="20" height="20" viewBox="0 0 20 20" fill="none" xmlns="http://www.w3.org/2000/svg">
<g id="material-symbols:copyright-outline-rounded">
<path id="Vector" d="M10.2547 17.8831C9.13021 17.8831 8.07348 17.6696 7.08449 17.2426C6.09549 16.8156 5.23521 16.2365 4.50362 15.5055C3.77204 14.7739 3.193 13.9136 2.76652 12.9246C2.34003 11.9356 2.12652 10.8789 2.12598 9.75444C2.12598 8.62997 2.33949 7.57324 2.76652 6.58424C3.19355 5.59525 3.77258 4.73496 4.50362 4.00338C5.23521 3.2718 6.09549 2.69276 7.08449 2.26627C8.07348 1.83979 9.13021 1.62627 10.2547 1.62573C11.3792 1.62573 12.4359 1.83925 13.4249 2.26627C14.4139 2.6933 15.2742 3.27234 16.0057 4.00338C16.7373 4.73496 17.3166 5.59525 17.7437 6.58424C18.1707 7.57324 18.3839 8.62997 18.3834 9.75444C18.3834 10.8789 18.1699 11.9356 17.7428 12.9246C17.3158 13.9136 16.7368 14.7739 16.0057 15.5055C15.2742 16.2371 14.4139 16.8164 13.4249 17.2434C12.4359 17.6704 11.3792 17.8837 10.2547 17.8831ZM10.2547 16.2574C12.0701 16.2574 13.6078 15.6274 14.8677 14.3675C16.1277 13.1075 16.7576 11.5698 16.7576 9.75444C16.7576 7.93903 16.1277 6.40135 14.8677 5.1414C13.6078 3.88145 12.0701 3.25147 10.2547 3.25147C8.43927 3.25147 6.90159 3.88145 5.64164 5.1414C4.38169 6.40135 3.75172 7.93903 3.75172 9.75444C3.75172 11.5698 4.38169 13.1075 5.64164 14.3675C6.90159 15.6274 8.43927 16.2574 10.2547 16.2574ZM8.62894 13.0059H11.8804C12.1107 13.0059 12.3039 12.9279 12.46 12.7718C12.6161 12.6157 12.6938 12.4228 12.6933 12.193V11.3802C12.6933 11.1499 12.6153 10.9569 12.4592 10.8014C12.3031 10.6459 12.1102 10.5678 11.8804 10.5673C11.6501 10.5673 11.4572 10.6453 11.3017 10.8014C11.1461 10.9575 11.0681 11.1504 11.0676 11.3802H9.44181V8.1287H11.0676C11.0676 8.35901 11.1456 8.5522 11.3017 8.70827C11.4577 8.86434 11.6507 8.94211 11.8804 8.94157C12.1107 8.94157 12.3039 8.86353 12.46 8.70746C12.6161 8.55139 12.6938 8.35847 12.6933 8.1287V7.31583C12.6933 7.08551 12.6153 6.89259 12.4592 6.73706C12.3031 6.58153 12.1102 6.5035 11.8804 6.50295H8.62894C8.39863 6.50295 8.20571 6.58099 8.05018 6.73706C7.89465 6.89313 7.81661 7.08605 7.81607 7.31583V12.193C7.81607 12.4234 7.89411 12.6166 8.05018 12.7726C8.20625 12.9287 8.39917 13.0065 8.62894 13.0059Z" fill="currentColor"/>
</g>
</svg>
