<svg xmlns="http://www.w3.org/2000/svg" width="30" height="30" viewBox="0 0 30 30" fill="none">
  <rect y="0.0625" width="29.1113" height="29.1113" rx="3.23459" fill="white" fill-opacity="0.2"/>
  <path d="M22.3388 5.62549H11.0177C10.7362 5.62549 10.4662 5.73731 10.2672 5.93635C10.0682 6.13539 9.95634 6.40535 9.95634 6.68684V9.87089H6.77229C6.4908 9.87089 6.22084 9.98271 6.0218 10.1818C5.82276 10.3808 5.71094 10.6508 5.71094 10.9322V22.2533C5.71094 22.5348 5.82276 22.8048 6.0218 23.0038C6.22084 23.2028 6.4908 23.3147 6.77229 23.3147H18.0934C18.3748 23.3147 18.6448 23.2028 18.8438 23.0038C19.0429 22.8048 19.1547 22.5348 19.1547 22.2533V19.0693H22.3388C22.6202 19.0693 22.8902 18.9574 23.0892 18.7584C23.2883 18.5594 23.4001 18.2894 23.4001 18.0079V6.68684C23.4001 6.40535 23.2883 6.13539 23.0892 5.93635C22.8902 5.73731 22.6202 5.62549 22.3388 5.62549ZM17.032 21.192H7.83364V11.9936H17.032V21.192ZM21.2774 16.9466H19.1547V10.9322C19.1547 10.6508 19.0429 10.3808 18.8438 10.1818C18.6448 9.98271 18.3748 9.87089 18.0934 9.87089H12.079V7.74819H21.2774V16.9466Z" fill="white" fill-opacity="0.5"/>
</svg>