<svg xmlns="http://www.w3.org/2000/svg" width="17" height="14" viewBox="0 0 17 14" fill="none">
  <path d="M2.48539 0.647949H1.48584V1.64795H2.48539V0.647949Z" fill="#29F863" fill-opacity="0.4"/>
  <path d="M8.48246 0.647949H7.48291V1.64795H8.48246V0.647949Z" fill="#29F863" fill-opacity="0.4"/>
  <path d="M9.48197 0.647949H8.48242V1.64795H9.48197V0.647949Z" fill="#29F863" fill-opacity="0.4"/>
  <path d="M15.4795 0.647949H14.48V1.64795H15.4795V0.647949Z" fill="#29F863" fill-opacity="0.4"/>
  <path d="M1.48539 1.64746H0.48584V2.64746H1.48539V1.64746Z" fill="#29F863" fill-opacity="0.4"/>
  <path d="M2.48539 1.64746H1.48584V2.64746H2.48539V1.64746Z" fill="#00FF47" fill-opacity="0.1"/>
  <path d="M3.48441 1.64746H2.48486V2.64746H3.48441V1.64746Z" fill="#29F863" fill-opacity="0.4"/>
  <path d="M7.48295 1.64746H6.4834V2.64746H7.48295V1.64746Z" fill="#29F863" fill-opacity="0.4"/>
  <path d="M8.48246 1.64746H7.48291V2.64746H8.48246V1.64746Z" fill="#00FF47" fill-opacity="0.1"/>
  <path d="M9.48197 1.64746H8.48242V2.64746H9.48197V1.64746Z" fill="#00FF47" fill-opacity="0.1"/>
  <path d="M10.4815 1.64746H9.48193V2.64746H10.4815V1.64746Z" fill="#29F863" fill-opacity="0.4"/>
  <path d="M14.48 1.64746H13.4805V2.64746H14.48V1.64746Z" fill="#29F863" fill-opacity="0.4"/>
  <path d="M15.4795 1.64746H14.48V2.64746H15.4795V1.64746Z" fill="#00FF47" fill-opacity="0.1"/>
  <path d="M16.4786 1.64746H15.479V2.64746H16.4786V1.64746Z" fill="#29F863" fill-opacity="0.4"/>
  <path d="M1.48539 2.64844H0.48584V3.64844H1.48539V2.64844Z" fill="#29F863" fill-opacity="0.4"/>
  <path d="M2.48539 2.64844H1.48584V3.64844H2.48539V2.64844Z" fill="#00FF47" fill-opacity="0.1"/>
  <path d="M3.48441 2.64844H2.48486V3.64844H3.48441V2.64844Z" fill="#29F863" fill-opacity="0.4"/>
  <path d="M7.48295 2.64844H6.4834V3.64844H7.48295V2.64844Z" fill="#29F863" fill-opacity="0.4"/>
  <path d="M8.48246 2.64844H7.48291V3.64844H8.48246V2.64844Z" fill="#00FF47" fill-opacity="0.1"/>
  <path d="M9.48197 2.64844H8.48242V3.64844H9.48197V2.64844Z" fill="#00FF47" fill-opacity="0.1"/>
  <path d="M10.4815 2.64844H9.48193V3.64844H10.4815V2.64844Z" fill="#29F863" fill-opacity="0.4"/>
  <path d="M14.48 2.64844H13.4805V3.64844H14.48V2.64844Z" fill="#29F863" fill-opacity="0.4"/>
  <path d="M15.4795 2.64844H14.48V3.64844H15.4795V2.64844Z" fill="#00FF47" fill-opacity="0.1"/>
  <path d="M16.4786 2.64844H15.479V3.64844H16.4786V2.64844Z" fill="#29F863" fill-opacity="0.4"/>
  <path d="M1.48539 3.64795H0.48584V4.64795H1.48539V3.64795Z" fill="#29F863" fill-opacity="0.4"/>
  <path d="M2.48539 3.64795H1.48584V4.64795H2.48539V3.64795Z" fill="#00FF47" fill-opacity="0.1"/>
  <path d="M3.48441 3.64795H2.48486V4.64795H3.48441V3.64795Z" fill="#00FF47" fill-opacity="0.1"/>
  <path d="M4.48393 3.64795H3.48438V4.64795H4.48393V3.64795Z" fill="#29F863" fill-opacity="0.4"/>
  <path d="M6.48295 3.64795H5.4834V4.64795H6.48295V3.64795Z" fill="#29F863" fill-opacity="0.4"/>
  <path d="M7.48295 3.64795H6.4834V4.64795H7.48295V3.64795Z" fill="#00FF47" fill-opacity="0.1"/>
  <path d="M8.48246 3.64795H7.48291V4.64795H8.48246V3.64795Z" fill="#00FF47" fill-opacity="0.1"/>
  <path d="M9.48197 3.64795H8.48242V4.64795H9.48197V3.64795Z" fill="#00FF47" fill-opacity="0.1"/>
  <path d="M10.4815 3.64795H9.48193V4.64795H10.4815V3.64795Z" fill="#00FF47" fill-opacity="0.1"/>
  <path d="M11.4805 3.64795H10.481V4.64795H11.4805V3.64795Z" fill="#29F863" fill-opacity="0.4"/>
  <path d="M13.48 3.64795H12.4805V4.64795H13.48V3.64795Z" fill="#29F863" fill-opacity="0.4"/>
  <path d="M14.48 3.64795H13.4805V4.64795H14.48V3.64795Z" fill="#00FF47" fill-opacity="0.1"/>
  <path d="M15.4795 3.64795H14.48V4.64795H15.4795V3.64795Z" fill="#00FF47" fill-opacity="0.1"/>
  <path d="M16.4786 3.64795H15.479V4.64795H16.4786V3.64795Z" fill="#29F863" fill-opacity="0.4"/>
  <path d="M1.48539 4.64795H0.48584V5.64795H1.48539V4.64795Z" fill="#29F863" fill-opacity="0.4"/>
  <path d="M2.48539 4.64795H1.48584V5.64795H2.48539V4.64795Z" fill="#00FF47" fill-opacity="0.1"/>
  <path d="M3.48441 4.64795H2.48486V5.64795H3.48441V4.64795Z" fill="#00FF47" fill-opacity="0.1"/>
  <path d="M4.48393 4.64795H3.48438V5.64795H4.48393V4.64795Z" fill="#00FF47" fill-opacity="0.1"/>
  <path d="M5.48344 4.64795H4.48389V5.64795H5.48344V4.64795Z" fill="#29F863" fill-opacity="0.4"/>
  <path d="M6.48295 4.64795H5.4834V5.64795H6.48295V4.64795Z" fill="#00FF47" fill-opacity="0.1"/>
  <path d="M7.48295 4.64795H6.4834V5.64795H7.48295V4.64795Z" fill="#00FF47" fill-opacity="0.1"/>
  <path d="M8.48246 4.64795H7.48291V5.64795H8.48246V4.64795Z" fill="#00FF47" fill-opacity="0.1"/>
  <path d="M9.48197 4.64795H8.48242V5.64795H9.48197V4.64795Z" fill="#00FF47" fill-opacity="0.1"/>
  <path d="M10.4815 4.64795H9.48193V5.64795H10.4815V4.64795Z" fill="#00FF47" fill-opacity="0.1"/>
  <path d="M11.4805 4.64795H10.481V5.64795H11.4805V4.64795Z" fill="#00FF47" fill-opacity="0.1"/>
  <path d="M12.4805 4.64795H11.481V5.64795H12.4805V4.64795Z" fill="#29F863" fill-opacity="0.4"/>
  <path d="M13.48 4.64795H12.4805V5.64795H13.48V4.64795Z" fill="#00FF47" fill-opacity="0.1"/>
  <path d="M14.48 4.64795H13.4805V5.64795H14.48V4.64795Z" fill="#00FF47" fill-opacity="0.1"/>
  <path d="M15.4795 4.64795H14.48V5.64795H15.4795V4.64795Z" fill="#00FF47" fill-opacity="0.1"/>
  <path d="M16.4786 4.64795H15.479V5.64795H16.4786V4.64795Z" fill="#29F863" fill-opacity="0.4"/>
  <path d="M1.48539 5.64746H0.48584V6.64746H1.48539V5.64746Z" fill="#29F863" fill-opacity="0.4"/>
  <path d="M2.48539 5.64746H1.48584V6.64746H2.48539V5.64746Z" fill="#00FF47" fill-opacity="0.1"/>
  <path d="M3.48441 5.64746H2.48486V6.64746H3.48441V5.64746Z" fill="#00FF47" fill-opacity="0.1"/>
  <path d="M4.48393 5.64746H3.48438V6.64746H4.48393V5.64746Z" fill="#00FF47" fill-opacity="0.1"/>
  <path d="M5.48344 5.64746H4.48389V6.64746H5.48344V5.64746Z" fill="#00FF47" fill-opacity="0.1"/>
  <path d="M6.48295 5.64746H5.4834V6.64746H6.48295V5.64746Z" fill="#00FF47" fill-opacity="0.1"/>
  <path d="M7.48295 5.64746H6.4834V6.64746H7.48295V5.64746Z" fill="#00FF47" fill-opacity="0.1"/>
  <path d="M8.48246 5.64746H7.48291V6.64746H8.48246V5.64746Z" fill="#00FF47" fill-opacity="0.1"/>
  <path d="M9.48197 5.64746H8.48242V6.64746H9.48197V5.64746Z" fill="#00FF47" fill-opacity="0.1"/>
  <path d="M10.4815 5.64746H9.48193V6.64746H10.4815V5.64746Z" fill="#00FF47" fill-opacity="0.1"/>
  <path d="M11.4805 5.64746H10.481V6.64746H11.4805V5.64746Z" fill="#00FF47" fill-opacity="0.1"/>
  <path d="M12.4805 5.64746H11.481V6.64746H12.4805V5.64746Z" fill="#00FF47" fill-opacity="0.1"/>
  <path d="M13.48 5.64746H12.4805V6.64746H13.48V5.64746Z" fill="#00FF47" fill-opacity="0.1"/>
  <path d="M14.48 5.64746H13.4805V6.64746H14.48V5.64746Z" fill="#00FF47" fill-opacity="0.1"/>
  <path d="M15.4795 5.64746H14.48V6.64746H15.4795V5.64746Z" fill="#00FF47" fill-opacity="0.1"/>
  <path d="M16.4786 5.64746H15.479V6.64746H16.4786V5.64746Z" fill="#29F863" fill-opacity="0.4"/>
  <path d="M1.48539 6.64844H0.48584V7.64844H1.48539V6.64844Z" fill="#29F863" fill-opacity="0.4"/>
  <path d="M2.48539 6.64844H1.48584V7.64844H2.48539V6.64844Z" fill="#00FF47" fill-opacity="0.1"/>
  <path d="M3.48441 6.64844H2.48486V7.64844H3.48441V6.64844Z" fill="#00FF47" fill-opacity="0.1"/>
  <path d="M4.48393 6.64844H3.48438V7.64844H4.48393V6.64844Z" fill="#00FF47" fill-opacity="0.1"/>
  <path d="M5.48344 6.64844H4.48389V7.64844H5.48344V6.64844Z" fill="#00FF47" fill-opacity="0.1"/>
  <path d="M6.48295 6.64844H5.4834V7.64844H6.48295V6.64844Z" fill="#00FF47" fill-opacity="0.1"/>
  <path d="M7.48295 6.64844H6.4834V7.64844H7.48295V6.64844Z" fill="#00FF47" fill-opacity="0.1"/>
  <path d="M8.48246 6.64844H7.48291V7.64844H8.48246V6.64844Z" fill="#00FF47" fill-opacity="0.1"/>
  <path d="M9.48197 6.64844H8.48242V7.64844H9.48197V6.64844Z" fill="#00FF47" fill-opacity="0.1"/>
  <path d="M10.4815 6.64844H9.48193V7.64844H10.4815V6.64844Z" fill="#00FF47" fill-opacity="0.1"/>
  <path d="M11.4805 6.64844H10.481V7.64844H11.4805V6.64844Z" fill="#00FF47" fill-opacity="0.1"/>
  <path d="M12.4805 6.64844H11.481V7.64844H12.4805V6.64844Z" fill="#00FF47" fill-opacity="0.1"/>
  <path d="M13.48 6.64844H12.4805V7.64844H13.48V6.64844Z" fill="#00FF47" fill-opacity="0.1"/>
  <path d="M14.48 6.64844H13.4805V7.64844H14.48V6.64844Z" fill="#00FF47" fill-opacity="0.1"/>
  <path d="M15.4795 6.64844H14.48V7.64844H15.4795V6.64844Z" fill="#00FF47" fill-opacity="0.1"/>
  <path d="M16.4786 6.64844H15.479V7.64844H16.4786V6.64844Z" fill="#29F863" fill-opacity="0.4"/>
  <path d="M1.48539 7.64746H0.48584V8.64746H1.48539V7.64746Z" fill="#29F863" fill-opacity="0.4"/>
  <path d="M2.48539 7.64746H1.48584V8.64746H2.48539V7.64746Z" fill="#00FF47" fill-opacity="0.1"/>
  <path d="M3.48441 7.64746H2.48486V8.64746H3.48441V7.64746Z" fill="#00FF47" fill-opacity="0.1"/>
  <path d="M4.48393 7.64746H3.48438V8.64746H4.48393V7.64746Z" fill="#00FF47" fill-opacity="0.1"/>
  <path d="M5.48344 7.64746H4.48389V8.64746H5.48344V7.64746Z" fill="#00FF47" fill-opacity="0.1"/>
  <path d="M6.48295 7.64746H5.4834V8.64746H6.48295V7.64746Z" fill="#00FF47" fill-opacity="0.1"/>
  <path d="M7.48295 7.64746H6.4834V8.64746H7.48295V7.64746Z" fill="#00FF47" fill-opacity="0.1"/>
  <path d="M8.48246 7.64746H7.48291V8.64746H8.48246V7.64746Z" fill="#00FF47" fill-opacity="0.1"/>
  <path d="M9.48197 7.64746H8.48242V8.64746H9.48197V7.64746Z" fill="#00FF47" fill-opacity="0.1"/>
  <path d="M10.4815 7.64746H9.48193V8.64746H10.4815V7.64746Z" fill="#00FF47" fill-opacity="0.1"/>
  <path d="M11.4805 7.64746H10.481V8.64746H11.4805V7.64746Z" fill="#00FF47" fill-opacity="0.1"/>
  <path d="M12.4805 7.64746H11.481V8.64746H12.4805V7.64746Z" fill="#00FF47" fill-opacity="0.1"/>
  <path d="M13.48 7.64746H12.4805V8.64746H13.48V7.64746Z" fill="#00FF47" fill-opacity="0.1"/>
  <path d="M14.48 7.64746H13.4805V8.64746H14.48V7.64746Z" fill="#00FF47" fill-opacity="0.1"/>
  <path d="M15.4795 7.64746H14.48V8.64746H15.4795V7.64746Z" fill="#00FF47" fill-opacity="0.1"/>
  <path d="M16.4786 7.64746H15.479V8.64746H16.4786V7.64746Z" fill="#29F863" fill-opacity="0.4"/>
  <path d="M1.48539 8.64844H0.48584V9.64844H1.48539V8.64844Z" fill="#29F863" fill-opacity="0.4"/>
  <path d="M2.48539 8.64844H1.48584V9.64844H2.48539V8.64844Z" fill="#00FF47" fill-opacity="0.1"/>
  <path d="M3.48441 8.64844H2.48486V9.64844H3.48441V8.64844Z" fill="#00FF47" fill-opacity="0.1"/>
  <path d="M4.48393 8.64844H3.48438V9.64844H4.48393V8.64844Z" fill="#00FF47" fill-opacity="0.1"/>
  <path d="M5.48344 8.64844H4.48389V9.64844H5.48344V8.64844Z" fill="#00FF47" fill-opacity="0.1"/>
  <path d="M6.48295 8.64844H5.4834V9.64844H6.48295V8.64844Z" fill="#00FF47" fill-opacity="0.1"/>
  <path d="M7.48295 8.64844H6.4834V9.64844H7.48295V8.64844Z" fill="#00FF47" fill-opacity="0.1"/>
  <path d="M8.48246 8.64844H7.48291V9.64844H8.48246V8.64844Z" fill="#00FF47" fill-opacity="0.1"/>
  <path d="M9.48197 8.64844H8.48242V9.64844H9.48197V8.64844Z" fill="#00FF47" fill-opacity="0.1"/>
  <path d="M10.4815 8.64844H9.48193V9.64844H10.4815V8.64844Z" fill="#00FF47" fill-opacity="0.1"/>
  <path d="M11.4805 8.64844H10.481V9.64844H11.4805V8.64844Z" fill="#00FF47" fill-opacity="0.1"/>
  <path d="M12.4805 8.64844H11.481V9.64844H12.4805V8.64844Z" fill="#00FF47" fill-opacity="0.1"/>
  <path d="M13.48 8.64844H12.4805V9.64844H13.48V8.64844Z" fill="#00FF47" fill-opacity="0.1"/>
  <path d="M14.48 8.64844H13.4805V9.64844H14.48V8.64844Z" fill="#00FF47" fill-opacity="0.1"/>
  <path d="M15.4795 8.64844H14.48V9.64844H15.4795V8.64844Z" fill="#00FF47" fill-opacity="0.1"/>
  <path d="M16.4786 8.64844H15.479V9.64844H16.4786V8.64844Z" fill="#29F863" fill-opacity="0.4"/>
  <path d="M2.48539 9.64795H1.48584V10.6479H2.48539V9.64795Z" fill="#29F863" fill-opacity="0.4"/>
  <path d="M3.48441 9.64795H2.48486V10.6479H3.48441V9.64795Z" fill="#29F863" fill-opacity="0.4"/>
  <path d="M4.48393 9.64795H3.48438V10.6479H4.48393V9.64795Z" fill="#29F863" fill-opacity="0.4"/>
  <path d="M5.48344 9.64795H4.48389V10.6479H5.48344V9.64795Z" fill="#29F863" fill-opacity="0.4"/>
  <path d="M6.48295 9.64795H5.4834V10.6479H6.48295V9.64795Z" fill="#29F863" fill-opacity="0.4"/>
  <path d="M7.48295 9.64795H6.4834V10.6479H7.48295V9.64795Z" fill="#29F863" fill-opacity="0.4"/>
  <path d="M8.48246 9.64795H7.48291V10.6479H8.48246V9.64795Z" fill="#29F863" fill-opacity="0.4"/>
  <path d="M9.48197 9.64795H8.48242V10.6479H9.48197V9.64795Z" fill="#29F863" fill-opacity="0.4"/>
  <path d="M10.4815 9.64795H9.48193V10.6479H10.4815V9.64795Z" fill="#29F863" fill-opacity="0.4"/>
  <path d="M11.4805 9.64795H10.481V10.6479H11.4805V9.64795Z" fill="#29F863" fill-opacity="0.4"/>
  <path d="M12.4805 9.64795H11.481V10.6479H12.4805V9.64795Z" fill="#29F863" fill-opacity="0.4"/>
  <path d="M13.48 9.64795H12.4805V10.6479H13.48V9.64795Z" fill="#29F863" fill-opacity="0.4"/>
  <path d="M14.48 9.64795H13.4805V10.6479H14.48V9.64795Z" fill="#29F863" fill-opacity="0.4"/>
  <path d="M15.4795 9.64795H14.48V10.6479H15.4795V9.64795Z" fill="#29F863" fill-opacity="0.4"/>
  <path d="M1.48539 10.6479H0.48584V11.6479H1.48539V10.6479Z" fill="#29F863" fill-opacity="0.4"/>
  <path d="M2.48539 10.6479H1.48584V11.6479H2.48539V10.6479Z" fill="#00FF47" fill-opacity="0.1"/>
  <path d="M3.48441 10.6479H2.48486V11.6479H3.48441V10.6479Z" fill="#00FF47" fill-opacity="0.1"/>
  <path d="M4.48393 10.6479H3.48438V11.6479H4.48393V10.6479Z" fill="#00FF47" fill-opacity="0.1"/>
  <path d="M5.48344 10.6479H4.48389V11.6479H5.48344V10.6479Z" fill="#00FF47" fill-opacity="0.1"/>
  <path d="M6.48295 10.6479H5.4834V11.6479H6.48295V10.6479Z" fill="#00FF47" fill-opacity="0.1"/>
  <path d="M7.48295 10.6479H6.4834V11.6479H7.48295V10.6479Z" fill="#00FF47" fill-opacity="0.1"/>
  <path d="M8.48246 10.6479H7.48291V11.6479H8.48246V10.6479Z" fill="#00FF47" fill-opacity="0.1"/>
  <path d="M9.48197 10.6479H8.48242V11.6479H9.48197V10.6479Z" fill="#00FF47" fill-opacity="0.1"/>
  <path d="M10.4815 10.6479H9.48193V11.6479H10.4815V10.6479Z" fill="#00FF47" fill-opacity="0.1"/>
  <path d="M11.4805 10.6479H10.481V11.6479H11.4805V10.6479Z" fill="#00FF47" fill-opacity="0.1"/>
  <path d="M12.4805 10.6479H11.481V11.6479H12.4805V10.6479Z" fill="#00FF47" fill-opacity="0.1"/>
  <path d="M13.48 10.6479H12.4805V11.6479H13.48V10.6479Z" fill="#00FF47" fill-opacity="0.1"/>
  <path d="M14.48 10.6479H13.4805V11.6479H14.48V10.6479Z" fill="#00FF47" fill-opacity="0.1"/>
  <path d="M15.4795 10.6479H14.48V11.6479H15.4795V10.6479Z" fill="#00FF47" fill-opacity="0.1"/>
  <path d="M16.4786 10.6479H15.479V11.6479H16.4786V10.6479Z" fill="#29F863" fill-opacity="0.4"/>
  <path d="M1.48539 11.6475H0.48584V12.6475H1.48539V11.6475Z" fill="#29F863" fill-opacity="0.4"/>
  <path d="M2.48539 11.6475H1.48584V12.6475H2.48539V11.6475Z" fill="#00FF47" fill-opacity="0.1"/>
  <path d="M3.48441 11.6475H2.48486V12.6475H3.48441V11.6475Z" fill="#00FF47" fill-opacity="0.1"/>
  <path d="M4.48393 11.6475H3.48438V12.6475H4.48393V11.6475Z" fill="#00FF47" fill-opacity="0.1"/>
  <path d="M5.48344 11.6475H4.48389V12.6475H5.48344V11.6475Z" fill="#00FF47" fill-opacity="0.1"/>
  <path d="M6.48295 11.6475H5.4834V12.6475H6.48295V11.6475Z" fill="#00FF47" fill-opacity="0.1"/>
  <path d="M7.48295 11.6475H6.4834V12.6475H7.48295V11.6475Z" fill="#00FF47" fill-opacity="0.1"/>
  <path d="M8.48246 11.6475H7.48291V12.6475H8.48246V11.6475Z" fill="#00FF47" fill-opacity="0.1"/>
  <path d="M9.48197 11.6475H8.48242V12.6475H9.48197V11.6475Z" fill="#00FF47" fill-opacity="0.1"/>
  <path d="M10.4815 11.6475H9.48193V12.6475H10.4815V11.6475Z" fill="#00FF47" fill-opacity="0.1"/>
  <path d="M11.4805 11.6475H10.481V12.6475H11.4805V11.6475Z" fill="#00FF47" fill-opacity="0.1"/>
  <path d="M12.4805 11.6475H11.481V12.6475H12.4805V11.6475Z" fill="#00FF47" fill-opacity="0.1"/>
  <path d="M13.48 11.6475H12.4805V12.6475H13.48V11.6475Z" fill="#00FF47" fill-opacity="0.1"/>
  <path d="M14.48 11.6475H13.4805V12.6475H14.48V11.6475Z" fill="#00FF47" fill-opacity="0.1"/>
  <path d="M15.4795 11.6475H14.48V12.6475H15.4795V11.6475Z" fill="#00FF47" fill-opacity="0.1"/>
  <path d="M16.4786 11.6475H15.479V12.6475H16.4786V11.6475Z" fill="#29F863" fill-opacity="0.4"/>
  <path d="M2.48539 12.6484H1.48584V13.6484H2.48539V12.6484Z" fill="#29F863" fill-opacity="0.4"/>
  <path d="M3.48441 12.6484H2.48486V13.6484H3.48441V12.6484Z" fill="#29F863" fill-opacity="0.4"/>
  <path d="M4.48393 12.6484H3.48438V13.6484H4.48393V12.6484Z" fill="#29F863" fill-opacity="0.4"/>
  <path d="M5.48344 12.6484H4.48389V13.6484H5.48344V12.6484Z" fill="#29F863" fill-opacity="0.4"/>
  <path d="M6.48295 12.6484H5.4834V13.6484H6.48295V12.6484Z" fill="#29F863" fill-opacity="0.4"/>
  <path d="M7.48295 12.6484H6.4834V13.6484H7.48295V12.6484Z" fill="#29F863" fill-opacity="0.4"/>
  <path d="M8.48246 12.6484H7.48291V13.6484H8.48246V12.6484Z" fill="#29F863" fill-opacity="0.4"/>
  <path d="M9.48197 12.6484H8.48242V13.6484H9.48197V12.6484Z" fill="#29F863" fill-opacity="0.4"/>
  <path d="M10.4815 12.6484H9.48193V13.6484H10.4815V12.6484Z" fill="#29F863" fill-opacity="0.4"/>
  <path d="M11.4805 12.6484H10.481V13.6484H11.4805V12.6484Z" fill="#29F863" fill-opacity="0.4"/>
  <path d="M12.4805 12.6484H11.481V13.6484H12.4805V12.6484Z" fill="#29F863" fill-opacity="0.4"/>
  <path d="M13.48 12.6484H12.4805V13.6484H13.48V12.6484Z" fill="#29F863" fill-opacity="0.4"/>
  <path d="M14.48 12.6484H13.4805V13.6484H14.48V12.6484Z" fill="#29F863" fill-opacity="0.4"/>
  <path d="M15.4795 12.6484H14.48V13.6484H15.4795V12.6484Z" fill="#29F863" fill-opacity="0.4"/>
</svg>