<svg width="57" height="46" viewBox="0 0 57 46" fill="none" xmlns="http://www.w3.org/2000/svg">
<g id="Group 177853">
<path id="Vector" d="M7.27885 0H3.74197V3.53846H7.27885V0Z" fill="#FFF500"/>
<path id="Vector_2" d="M28.5 0H24.9632V3.53846H28.5V0Z" fill="#FFF500"/>
<path id="Vector_3" d="M32.0369 0H28.5001V3.53846H32.0369V0Z" fill="#FFF500"/>
<path id="Vector_4" d="M53.2582 0H49.7213V3.53846H53.2582V0Z" fill="#FFF500"/>
<path id="Vector_5" d="M3.74189 3.53906H0.205017V7.07753H3.74189V3.53906Z" fill="#FFF500"/>
<path id="Vector_6" d="M7.27885 3.53906H3.74197V7.07753H7.27885V3.53906Z" fill="#261E00"/>
<path id="Vector_7" d="M10.8157 3.53906H7.27887V7.07753H10.8157V3.53906Z" fill="#FFF500"/>
<path id="Vector_8" d="M24.9633 3.53906H21.4265V7.07753H24.9633V3.53906Z" fill="#FFF500"/>
<path id="Vector_9" d="M28.5 3.53906H24.9632V7.07753H28.5V3.53906Z" fill="#261E00"/>
<path id="Vector_10" d="M32.0369 3.53906H28.5001V7.07753H32.0369V3.53906Z" fill="#261E00"/>
<path id="Vector_11" d="M35.5739 3.53906H32.037V7.07753H35.5739V3.53906Z" fill="#FFF500"/>
<path id="Vector_12" d="M49.7214 3.53906H46.1845V7.07753H49.7214V3.53906Z" fill="#FFF500"/>
<path id="Vector_13" d="M53.2582 3.53906H49.7213V7.07753H53.2582V3.53906Z" fill="#261E00"/>
<path id="Vector_14" d="M56.7951 3.53906H53.2582V7.07753H56.7951V3.53906Z" fill="#FFF500"/>
<path id="Vector_15" d="M3.74189 7.07715H0.205017V10.6156H3.74189V7.07715Z" fill="#FFF500"/>
<path id="Vector_16" d="M7.27885 7.07715H3.74197V10.6156H7.27885V7.07715Z" fill="#261E00"/>
<path id="Vector_17" d="M10.8157 7.07715H7.27887V10.6156H10.8157V7.07715Z" fill="#FFF500"/>
<path id="Vector_18" d="M24.9633 7.07715H21.4265V10.6156H24.9633V7.07715Z" fill="#FFF500"/>
<path id="Vector_19" d="M28.5 7.07715H24.9632V10.6156H28.5V7.07715Z" fill="#261E00"/>
<path id="Vector_20" d="M32.0369 7.07715H28.5001V10.6156H32.0369V7.07715Z" fill="#261E00"/>
<path id="Vector_21" d="M35.5739 7.07715H32.037V10.6156H35.5739V7.07715Z" fill="#FFF500"/>
<path id="Vector_22" d="M49.7214 7.07715H46.1845V10.6156H49.7214V7.07715Z" fill="#FFF500"/>
<path id="Vector_23" d="M53.2582 7.07715H49.7213V10.6156H53.2582V7.07715Z" fill="#261E00"/>
<path id="Vector_24" d="M56.7951 7.07715H53.2582V10.6156H56.7951V7.07715Z" fill="#FFF500"/>
<path id="Vector_25" d="M3.74189 10.6162H0.205017V14.1547H3.74189V10.6162Z" fill="#FFF500"/>
<path id="Vector_26" d="M7.27885 10.6162H3.74197V14.1547H7.27885V10.6162Z" fill="#261E00"/>
<path id="Vector_27" d="M10.8157 10.6162H7.27887V14.1547H10.8157V10.6162Z" fill="#261E00"/>
<path id="Vector_28" d="M14.3525 10.6162H10.8156V14.1547H14.3525V10.6162Z" fill="#FFF500"/>
<path id="Vector_29" d="M21.4264 10.6162H17.8895V14.1547H21.4264V10.6162Z" fill="#FFF500"/>
<path id="Vector_30" d="M24.9633 10.6162H21.4265V14.1547H24.9633V10.6162Z" fill="#261E00"/>
<path id="Vector_31" d="M28.5 10.6162H24.9632V14.1547H28.5V10.6162Z" fill="#261E00"/>
<path id="Vector_32" d="M32.0369 10.6162H28.5001V14.1547H32.0369V10.6162Z" fill="#261E00"/>
<path id="Vector_33" d="M35.5739 10.6162H32.037V14.1547H35.5739V10.6162Z" fill="#261E00"/>
<path id="Vector_34" d="M39.1106 10.6162H35.5737V14.1547H39.1106V10.6162Z" fill="#FFF500"/>
<path id="Vector_35" d="M46.1845 10.6162H42.6476V14.1547H46.1845V10.6162Z" fill="#FFF500"/>
<path id="Vector_36" d="M49.7214 10.6162H46.1845V14.1547H49.7214V10.6162Z" fill="#261E00"/>
<path id="Vector_37" d="M53.2582 10.6162H49.7213V14.1547H53.2582V10.6162Z" fill="#261E00"/>
<path id="Vector_38" d="M56.7951 10.6162H53.2582V14.1547H56.7951V10.6162Z" fill="#FFF500"/>
<path id="Vector_39" d="M3.74189 14.1543H0.205017V17.6928H3.74189V14.1543Z" fill="#FFF500"/>
<path id="Vector_40" d="M7.27885 14.1543H3.74197V17.6928H7.27885V14.1543Z" fill="#261E00"/>
<path id="Vector_41" d="M10.8157 14.1543H7.27887V17.6928H10.8157V14.1543Z" fill="#261E00"/>
<path id="Vector_42" d="M14.3525 14.1543H10.8156V17.6928H14.3525V14.1543Z" fill="#261E00"/>
<path id="Vector_43" d="M17.8894 14.1543H14.3525V17.6928H17.8894V14.1543Z" fill="#FFF500"/>
<path id="Vector_44" d="M21.4264 14.1543H17.8895V17.6928H21.4264V14.1543Z" fill="#261E00"/>
<path id="Vector_45" d="M24.9633 14.1543H21.4265V17.6928H24.9633V14.1543Z" fill="#261E00"/>
<path id="Vector_46" d="M28.5 14.1543H24.9632V17.6928H28.5V14.1543Z" fill="#261E00"/>
<path id="Vector_47" d="M32.0369 14.1543H28.5001V17.6928H32.0369V14.1543Z" fill="#261E00"/>
<path id="Vector_48" d="M35.5739 14.1543H32.037V17.6928H35.5739V14.1543Z" fill="#261E00"/>
<path id="Vector_49" d="M39.1106 14.1543H35.5737V17.6928H39.1106V14.1543Z" fill="#261E00"/>
<path id="Vector_50" d="M42.6476 14.1543H39.1107V17.6928H42.6476V14.1543Z" fill="#FFF500"/>
<path id="Vector_51" d="M46.1845 14.1543H42.6476V17.6928H46.1845V14.1543Z" fill="#261E00"/>
<path id="Vector_52" d="M49.7214 14.1543H46.1845V17.6928H49.7214V14.1543Z" fill="#261E00"/>
<path id="Vector_53" d="M53.2582 14.1543H49.7213V17.6928H53.2582V14.1543Z" fill="#261E00"/>
<path id="Vector_54" d="M56.7951 14.1543H53.2582V17.6928H56.7951V14.1543Z" fill="#FFF500"/>
<path id="Vector_55" d="M3.74189 17.6914H0.205017V21.2299H3.74189V17.6914Z" fill="#FFF500"/>
<path id="Vector_56" d="M7.27885 17.6914H3.74197V21.2299H7.27885V17.6914Z" fill="#261E00"/>
<path id="Vector_57" d="M10.8157 17.6914H7.27887V21.2299H10.8157V17.6914Z" fill="#261E00"/>
<path id="Vector_58" d="M14.3525 17.6914H10.8156V21.2299H14.3525V17.6914Z" fill="#261E00"/>
<path id="Vector_59" d="M17.8894 17.6914H14.3525V21.2299H17.8894V17.6914Z" fill="#261E00"/>
<path id="Vector_60" d="M21.4264 17.6914H17.8895V21.2299H21.4264V17.6914Z" fill="#261E00"/>
<path id="Vector_61" d="M24.9633 17.6914H21.4265V21.2299H24.9633V17.6914Z" fill="#261E00"/>
<path id="Vector_62" d="M28.5 17.6914H24.9632V21.2299H28.5V17.6914Z" fill="#261E00"/>
<path id="Vector_63" d="M32.0369 17.6914H28.5001V21.2299H32.0369V17.6914Z" fill="#261E00"/>
<path id="Vector_64" d="M35.5739 17.6914H32.037V21.2299H35.5739V17.6914Z" fill="#261E00"/>
<path id="Vector_65" d="M39.1106 17.6914H35.5737V21.2299H39.1106V17.6914Z" fill="#261E00"/>
<path id="Vector_66" d="M42.6476 17.6914H39.1107V21.2299H42.6476V17.6914Z" fill="#261E00"/>
<path id="Vector_67" d="M46.1845 17.6914H42.6476V21.2299H46.1845V17.6914Z" fill="#261E00"/>
<path id="Vector_68" d="M49.7214 17.6914H46.1845V21.2299H49.7214V17.6914Z" fill="#261E00"/>
<path id="Vector_69" d="M53.2582 17.6914H49.7213V21.2299H53.2582V17.6914Z" fill="#261E00"/>
<path id="Vector_70" d="M56.7951 17.6914H53.2582V21.2299H56.7951V17.6914Z" fill="#FFF500"/>
<path id="Vector_71" d="M3.74189 21.2314H0.205017V24.7699H3.74189V21.2314Z" fill="#FFF500"/>
<path id="Vector_72" d="M7.27885 21.2314H3.74197V24.7699H7.27885V21.2314Z" fill="#261E00"/>
<path id="Vector_73" d="M10.8157 21.2314H7.27887V24.7699H10.8157V21.2314Z" fill="#261E00"/>
<path id="Vector_74" d="M14.3525 21.2314H10.8156V24.7699H14.3525V21.2314Z" fill="#261E00"/>
<path id="Vector_75" d="M17.8894 21.2314H14.3525V24.7699H17.8894V21.2314Z" fill="#261E00"/>
<path id="Vector_76" d="M21.4264 21.2314H17.8895V24.7699H21.4264V21.2314Z" fill="#261E00"/>
<path id="Vector_77" d="M24.9633 21.2314H21.4265V24.7699H24.9633V21.2314Z" fill="#261E00"/>
<path id="Vector_78" d="M28.5 21.2314H24.9632V24.7699H28.5V21.2314Z" fill="#261E00"/>
<path id="Vector_79" d="M32.0369 21.2314H28.5001V24.7699H32.0369V21.2314Z" fill="#261E00"/>
<path id="Vector_80" d="M35.5739 21.2314H32.037V24.7699H35.5739V21.2314Z" fill="#261E00"/>
<path id="Vector_81" d="M39.1106 21.2314H35.5737V24.7699H39.1106V21.2314Z" fill="#261E00"/>
<path id="Vector_82" d="M42.6476 21.2314H39.1107V24.7699H42.6476V21.2314Z" fill="#261E00"/>
<path id="Vector_83" d="M46.1845 21.2314H42.6476V24.7699H46.1845V21.2314Z" fill="#261E00"/>
<path id="Vector_84" d="M49.7214 21.2314H46.1845V24.7699H49.7214V21.2314Z" fill="#261E00"/>
<path id="Vector_85" d="M53.2582 21.2314H49.7213V24.7699H53.2582V21.2314Z" fill="#261E00"/>
<path id="Vector_86" d="M56.7951 21.2314H53.2582V24.7699H56.7951V21.2314Z" fill="#FFF500"/>
<path id="Vector_87" d="M3.74189 24.7686H0.205017V28.307H3.74189V24.7686Z" fill="#FFF500"/>
<path id="Vector_88" d="M7.27885 24.7686H3.74197V28.307H7.27885V24.7686Z" fill="#261E00"/>
<path id="Vector_89" d="M10.8157 24.7686H7.27887V28.307H10.8157V24.7686Z" fill="#261E00"/>
<path id="Vector_90" d="M14.3525 24.7686H10.8156V28.307H14.3525V24.7686Z" fill="#261E00"/>
<path id="Vector_91" d="M17.8894 24.7686H14.3525V28.307H17.8894V24.7686Z" fill="#261E00"/>
<path id="Vector_92" d="M21.4264 24.7686H17.8895V28.307H21.4264V24.7686Z" fill="#261E00"/>
<path id="Vector_93" d="M24.9633 24.7686H21.4265V28.307H24.9633V24.7686Z" fill="#261E00"/>
<path id="Vector_94" d="M28.5 24.7686H24.9632V28.307H28.5V24.7686Z" fill="#261E00"/>
<path id="Vector_95" d="M32.0369 24.7686H28.5001V28.307H32.0369V24.7686Z" fill="#261E00"/>
<path id="Vector_96" d="M35.5739 24.7686H32.037V28.307H35.5739V24.7686Z" fill="#261E00"/>
<path id="Vector_97" d="M39.1106 24.7686H35.5737V28.307H39.1106V24.7686Z" fill="#261E00"/>
<path id="Vector_98" d="M42.6476 24.7686H39.1107V28.307H42.6476V24.7686Z" fill="#261E00"/>
<path id="Vector_99" d="M46.1845 24.7686H42.6476V28.307H46.1845V24.7686Z" fill="#261E00"/>
<path id="Vector_100" d="M49.7214 24.7686H46.1845V28.307H49.7214V24.7686Z" fill="#261E00"/>
<path id="Vector_101" d="M53.2582 24.7686H49.7213V28.307H53.2582V24.7686Z" fill="#261E00"/>
<path id="Vector_102" d="M56.7951 24.7686H53.2582V28.307H56.7951V24.7686Z" fill="#FFF500"/>
<path id="Vector_103" d="M3.74189 28.3086H0.205017V31.8471H3.74189V28.3086Z" fill="#FFF500"/>
<path id="Vector_104" d="M7.27885 28.3086H3.74197V31.8471H7.27885V28.3086Z" fill="#261E00"/>
<path id="Vector_105" d="M10.8157 28.3086H7.27887V31.8471H10.8157V28.3086Z" fill="#261E00"/>
<path id="Vector_106" d="M14.3525 28.3086H10.8156V31.8471H14.3525V28.3086Z" fill="#261E00"/>
<path id="Vector_107" d="M17.8894 28.3086H14.3525V31.8471H17.8894V28.3086Z" fill="#261E00"/>
<path id="Vector_108" d="M21.4264 28.3086H17.8895V31.8471H21.4264V28.3086Z" fill="#261E00"/>
<path id="Vector_109" d="M24.9633 28.3086H21.4265V31.8471H24.9633V28.3086Z" fill="#261E00"/>
<path id="Vector_110" d="M28.5 28.3086H24.9632V31.8471H28.5V28.3086Z" fill="#261E00"/>
<path id="Vector_111" d="M32.0369 28.3086H28.5001V31.8471H32.0369V28.3086Z" fill="#261E00"/>
<path id="Vector_112" d="M35.5739 28.3086H32.037V31.8471H35.5739V28.3086Z" fill="#261E00"/>
<path id="Vector_113" d="M39.1106 28.3086H35.5737V31.8471H39.1106V28.3086Z" fill="#261E00"/>
<path id="Vector_114" d="M42.6476 28.3086H39.1107V31.8471H42.6476V28.3086Z" fill="#261E00"/>
<path id="Vector_115" d="M46.1845 28.3086H42.6476V31.8471H46.1845V28.3086Z" fill="#261E00"/>
<path id="Vector_116" d="M49.7214 28.3086H46.1845V31.8471H49.7214V28.3086Z" fill="#261E00"/>
<path id="Vector_117" d="M53.2582 28.3086H49.7213V31.8471H53.2582V28.3086Z" fill="#261E00"/>
<path id="Vector_118" d="M56.7951 28.3086H53.2582V31.8471H56.7951V28.3086Z" fill="#FFF500"/>
<path id="Vector_119" d="M7.27885 31.8457H3.74197V35.3842H7.27885V31.8457Z" fill="#FFF500"/>
<path id="Vector_120" d="M10.8157 31.8457H7.27887V35.3842H10.8157V31.8457Z" fill="#FFF500"/>
<path id="Vector_121" d="M14.3525 31.8457H10.8156V35.3842H14.3525V31.8457Z" fill="#FFF500"/>
<path id="Vector_122" d="M17.8894 31.8457H14.3525V35.3842H17.8894V31.8457Z" fill="#FFF500"/>
<path id="Vector_123" d="M21.4264 31.8457H17.8895V35.3842H21.4264V31.8457Z" fill="#FFF500"/>
<path id="Vector_124" d="M24.9633 31.8457H21.4265V35.3842H24.9633V31.8457Z" fill="#FFF500"/>
<path id="Vector_125" d="M28.5 31.8457H24.9632V35.3842H28.5V31.8457Z" fill="#FFF500"/>
<path id="Vector_126" d="M32.0369 31.8457H28.5001V35.3842H32.0369V31.8457Z" fill="#FFF500"/>
<path id="Vector_127" d="M35.5739 31.8457H32.037V35.3842H35.5739V31.8457Z" fill="#FFF500"/>
<path id="Vector_128" d="M39.1106 31.8457H35.5737V35.3842H39.1106V31.8457Z" fill="#FFF500"/>
<path id="Vector_129" d="M42.6476 31.8457H39.1107V35.3842H42.6476V31.8457Z" fill="#FFF500"/>
<path id="Vector_130" d="M46.1845 31.8457H42.6476V35.3842H46.1845V31.8457Z" fill="#FFF500"/>
<path id="Vector_131" d="M49.7214 31.8457H46.1845V35.3842H49.7214V31.8457Z" fill="#FFF500"/>
<path id="Vector_132" d="M53.2582 31.8457H49.7213V35.3842H53.2582V31.8457Z" fill="#FFF500"/>
<path id="Vector_133" d="M3.74189 35.3838H0.205017V38.9223H3.74189V35.3838Z" fill="#FFF500"/>
<path id="Vector_134" d="M7.27885 35.3838H3.74197V38.9223H7.27885V35.3838Z" fill="#261E00"/>
<path id="Vector_135" d="M10.8157 35.3838H7.27887V38.9223H10.8157V35.3838Z" fill="#261E00"/>
<path id="Vector_136" d="M14.3525 35.3838H10.8156V38.9223H14.3525V35.3838Z" fill="#261E00"/>
<path id="Vector_137" d="M17.8894 35.3838H14.3525V38.9223H17.8894V35.3838Z" fill="#261E00"/>
<path id="Vector_138" d="M21.4264 35.3838H17.8895V38.9223H21.4264V35.3838Z" fill="#261E00"/>
<path id="Vector_139" d="M24.9633 35.3838H21.4265V38.9223H24.9633V35.3838Z" fill="#261E00"/>
<path id="Vector_140" d="M28.5 35.3838H24.9632V38.9223H28.5V35.3838Z" fill="#261E00"/>
<path id="Vector_141" d="M32.0369 35.3838H28.5001V38.9223H32.0369V35.3838Z" fill="#261E00"/>
<path id="Vector_142" d="M35.5739 35.3838H32.037V38.9223H35.5739V35.3838Z" fill="#261E00"/>
<path id="Vector_143" d="M39.1106 35.3838H35.5737V38.9223H39.1106V35.3838Z" fill="#261E00"/>
<path id="Vector_144" d="M42.6476 35.3838H39.1107V38.9223H42.6476V35.3838Z" fill="#261E00"/>
<path id="Vector_145" d="M46.1845 35.3838H42.6476V38.9223H46.1845V35.3838Z" fill="#261E00"/>
<path id="Vector_146" d="M49.7214 35.3838H46.1845V38.9223H49.7214V35.3838Z" fill="#261E00"/>
<path id="Vector_147" d="M53.2582 35.3838H49.7213V38.9223H53.2582V35.3838Z" fill="#261E00"/>
<path id="Vector_148" d="M56.7951 35.3838H53.2582V38.9223H56.7951V35.3838Z" fill="#FFF500"/>
<path id="Vector_149" d="M3.74189 38.9229H0.205017V42.4613H3.74189V38.9229Z" fill="#FFF500"/>
<path id="Vector_150" d="M7.27885 38.9229H3.74197V42.4613H7.27885V38.9229Z" fill="#261E00"/>
<path id="Vector_151" d="M10.8157 38.9229H7.27887V42.4613H10.8157V38.9229Z" fill="#261E00"/>
<path id="Vector_152" d="M14.3525 38.9229H10.8156V42.4613H14.3525V38.9229Z" fill="#261E00"/>
<path id="Vector_153" d="M17.8894 38.9229H14.3525V42.4613H17.8894V38.9229Z" fill="#261E00"/>
<path id="Vector_154" d="M21.4264 38.9229H17.8895V42.4613H21.4264V38.9229Z" fill="#261E00"/>
<path id="Vector_155" d="M24.9633 38.9229H21.4265V42.4613H24.9633V38.9229Z" fill="#261E00"/>
<path id="Vector_156" d="M28.5 38.9229H24.9632V42.4613H28.5V38.9229Z" fill="#261E00"/>
<path id="Vector_157" d="M32.0369 38.9229H28.5001V42.4613H32.0369V38.9229Z" fill="#261E00"/>
<path id="Vector_158" d="M35.5739 38.9229H32.037V42.4613H35.5739V38.9229Z" fill="#261E00"/>
<path id="Vector_159" d="M39.1106 38.9229H35.5737V42.4613H39.1106V38.9229Z" fill="#261E00"/>
<path id="Vector_160" d="M42.6476 38.9229H39.1107V42.4613H42.6476V38.9229Z" fill="#261E00"/>
<path id="Vector_161" d="M46.1845 38.9229H42.6476V42.4613H46.1845V38.9229Z" fill="#261E00"/>
<path id="Vector_162" d="M49.7214 38.9229H46.1845V42.4613H49.7214V38.9229Z" fill="#261E00"/>
<path id="Vector_163" d="M53.2582 38.9229H49.7213V42.4613H53.2582V38.9229Z" fill="#261E00"/>
<path id="Vector_164" d="M56.7951 38.9229H53.2582V42.4613H56.7951V38.9229Z" fill="#FFF500"/>
<path id="Vector_165" d="M7.27885 42.4609H3.74197V45.9994H7.27885V42.4609Z" fill="#FFF500"/>
<path id="Vector_166" d="M10.8157 42.4609H7.27887V45.9994H10.8157V42.4609Z" fill="#FFF500"/>
<path id="Vector_167" d="M14.3525 42.4609H10.8156V45.9994H14.3525V42.4609Z" fill="#FFF500"/>
<path id="Vector_168" d="M17.8894 42.4609H14.3525V45.9994H17.8894V42.4609Z" fill="#FFF500"/>
<path id="Vector_169" d="M21.4264 42.4609H17.8895V45.9994H21.4264V42.4609Z" fill="#FFF500"/>
<path id="Vector_170" d="M24.9633 42.4609H21.4265V45.9994H24.9633V42.4609Z" fill="#FFF500"/>
<path id="Vector_171" d="M28.5 42.4609H24.9632V45.9994H28.5V42.4609Z" fill="#FFF500"/>
<path id="Vector_172" d="M32.0369 42.4609H28.5001V45.9994H32.0369V42.4609Z" fill="#FFF500"/>
<path id="Vector_173" d="M35.5739 42.4609H32.037V45.9994H35.5739V42.4609Z" fill="#FFF500"/>
<path id="Vector_174" d="M39.1106 42.4609H35.5737V45.9994H39.1106V42.4609Z" fill="#FFF500"/>
<path id="Vector_175" d="M42.6476 42.4609H39.1107V45.9994H42.6476V42.4609Z" fill="#FFF500"/>
<path id="Vector_176" d="M46.1845 42.4609H42.6476V45.9994H46.1845V42.4609Z" fill="#FFF500"/>
<path id="Vector_177" d="M49.7214 42.4609H46.1845V45.9994H49.7214V42.4609Z" fill="#FFF500"/>
<path id="Vector_178" d="M53.2582 42.4609H49.7213V45.9994H53.2582V42.4609Z" fill="#FFF500"/>
</g>
</svg>
