<svg width="93" height="75" viewBox="0 0 93 75" fill="none" xmlns="http://www.w3.org/2000/svg">
<g id="Group 177853">
<path id="Vector" d="M12.1942 0H6.47656V5.7202H12.1942V0Z" fill="#29F863"/>
<path id="Vector_2" d="M46.4999 0H40.7822V5.7202H46.4999V0Z" fill="#29F863"/>
<path id="Vector_3" d="M52.2176 0H46.5V5.7202H52.2176V0Z" fill="#29F863"/>
<path id="Vector_4" d="M86.5233 0H80.8057V5.7202H86.5233V0Z" fill="#29F863"/>
<path id="Vector_5" d="M6.47642 5.72021H0.758789V11.4404H6.47642V5.72021Z" fill="#29F863"/>
<path id="Vector_6" d="M12.1942 5.72021H6.47656V11.4404H12.1942V5.72021Z" fill="#002009"/>
<path id="Vector_7" d="M17.912 5.72021H12.1943V11.4404H17.912V5.72021Z" fill="#29F863"/>
<path id="Vector_8" d="M40.7826 5.72021H35.0649V11.4404H40.7826V5.72021Z" fill="#29F863"/>
<path id="Vector_9" d="M46.4999 5.72021H40.7822V11.4404H46.4999V5.72021Z" fill="#002009"/>
<path id="Vector_10" d="M52.2176 5.72021H46.5V11.4404H52.2176V5.72021Z" fill="#002009"/>
<path id="Vector_11" d="M57.9354 5.72021H52.2178V11.4404H57.9354V5.72021Z" fill="#29F863"/>
<path id="Vector_12" d="M80.806 5.72021H75.0884V11.4404H80.806V5.72021Z" fill="#29F863"/>
<path id="Vector_13" d="M86.5233 5.72021H80.8057V11.4404H86.5233V5.72021Z" fill="#002009"/>
<path id="Vector_14" d="M92.2411 5.72021H86.5234V11.4404H92.2411V5.72021Z" fill="#29F863"/>
<path id="Vector_15" d="M6.47642 11.4404H0.758789V17.1606H6.47642V11.4404Z" fill="#29F863"/>
<path id="Vector_16" d="M12.1942 11.4404H6.47656V17.1606H12.1942V11.4404Z" fill="#002009"/>
<path id="Vector_17" d="M17.912 11.4404H12.1943V17.1606H17.912V11.4404Z" fill="#29F863"/>
<path id="Vector_18" d="M40.7826 11.4404H35.0649V17.1606H40.7826V11.4404Z" fill="#29F863"/>
<path id="Vector_19" d="M46.4999 11.4404H40.7822V17.1606H46.4999V11.4404Z" fill="#002009"/>
<path id="Vector_20" d="M52.2176 11.4404H46.5V17.1606H52.2176V11.4404Z" fill="#002009"/>
<path id="Vector_21" d="M57.9354 11.4404H52.2178V17.1606H57.9354V11.4404Z" fill="#29F863"/>
<path id="Vector_22" d="M80.806 11.4404H75.0884V17.1606H80.806V11.4404Z" fill="#29F863"/>
<path id="Vector_23" d="M86.5233 11.4404H80.8057V17.1606H86.5233V11.4404Z" fill="#002009"/>
<path id="Vector_24" d="M92.2411 11.4404H86.5234V17.1606H92.2411V11.4404Z" fill="#29F863"/>
<path id="Vector_25" d="M6.47642 17.1606H0.758789V22.8808H6.47642V17.1606Z" fill="#29F863"/>
<path id="Vector_26" d="M12.1942 17.1606H6.47656V22.8808H12.1942V17.1606Z" fill="#002009"/>
<path id="Vector_27" d="M17.912 17.1606H12.1943V22.8808H17.912V17.1606Z" fill="#002009"/>
<path id="Vector_28" d="M23.6293 17.1606H17.9116V22.8808H23.6293V17.1606Z" fill="#29F863"/>
<path id="Vector_29" d="M35.0648 17.1606H29.3472V22.8808H35.0648V17.1606Z" fill="#29F863"/>
<path id="Vector_30" d="M40.7826 17.1606H35.0649V22.8808H40.7826V17.1606Z" fill="#002009"/>
<path id="Vector_31" d="M46.4999 17.1606H40.7822V22.8808H46.4999V17.1606Z" fill="#002009"/>
<path id="Vector_32" d="M52.2176 17.1606H46.5V22.8808H52.2176V17.1606Z" fill="#002009"/>
<path id="Vector_33" d="M57.9354 17.1606H52.2178V22.8808H57.9354V17.1606Z" fill="#002009"/>
<path id="Vector_34" d="M63.6527 17.1606H57.9351V22.8808H63.6527V17.1606Z" fill="#29F863"/>
<path id="Vector_35" d="M75.0882 17.1606H69.3706V22.8808H75.0882V17.1606Z" fill="#29F863"/>
<path id="Vector_36" d="M80.806 17.1606H75.0884V22.8808H80.806V17.1606Z" fill="#002009"/>
<path id="Vector_37" d="M86.5233 17.1606H80.8057V22.8808H86.5233V17.1606Z" fill="#002009"/>
<path id="Vector_38" d="M92.2411 17.1606H86.5234V22.8808H92.2411V17.1606Z" fill="#29F863"/>
<path id="Vector_39" d="M6.47642 22.8809H0.758789V28.6011H6.47642V22.8809Z" fill="#29F863"/>
<path id="Vector_40" d="M12.1942 22.8809H6.47656V28.6011H12.1942V22.8809Z" fill="#002009"/>
<path id="Vector_41" d="M17.912 22.8809H12.1943V28.6011H17.912V22.8809Z" fill="#002009"/>
<path id="Vector_42" d="M23.6293 22.8809H17.9116V28.6011H23.6293V22.8809Z" fill="#002009"/>
<path id="Vector_43" d="M29.347 22.8809H23.6294V28.6011H29.347V22.8809Z" fill="#29F863"/>
<path id="Vector_44" d="M35.0648 22.8809H29.3472V28.6011H35.0648V22.8809Z" fill="#002009"/>
<path id="Vector_45" d="M40.7826 22.8809H35.0649V28.6011H40.7826V22.8809Z" fill="#002009"/>
<path id="Vector_46" d="M46.4999 22.8809H40.7822V28.6011H46.4999V22.8809Z" fill="#002009"/>
<path id="Vector_47" d="M52.2176 22.8809H46.5V28.6011H52.2176V22.8809Z" fill="#002009"/>
<path id="Vector_48" d="M57.9354 22.8809H52.2178V28.6011H57.9354V22.8809Z" fill="#002009"/>
<path id="Vector_49" d="M63.6527 22.8809H57.9351V28.6011H63.6527V22.8809Z" fill="#002009"/>
<path id="Vector_50" d="M69.3705 22.8809H63.6528V28.6011H69.3705V22.8809Z" fill="#29F863"/>
<path id="Vector_51" d="M75.0882 22.8809H69.3706V28.6011H75.0882V22.8809Z" fill="#002009"/>
<path id="Vector_52" d="M80.806 22.8809H75.0884V28.6011H80.806V22.8809Z" fill="#002009"/>
<path id="Vector_53" d="M86.5233 22.8809H80.8057V28.6011H86.5233V22.8809Z" fill="#002009"/>
<path id="Vector_54" d="M92.2411 22.8809H86.5234V28.6011H92.2411V22.8809Z" fill="#29F863"/>
<path id="Vector_55" d="M6.47642 28.6011H0.758789V34.3213H6.47642V28.6011Z" fill="#29F863"/>
<path id="Vector_56" d="M12.1942 28.6011H6.47656V34.3213H12.1942V28.6011Z" fill="#002009"/>
<path id="Vector_57" d="M17.912 28.6011H12.1943V34.3213H17.912V28.6011Z" fill="#002009"/>
<path id="Vector_58" d="M23.6293 28.6011H17.9116V34.3213H23.6293V28.6011Z" fill="#002009"/>
<path id="Vector_59" d="M29.347 28.6011H23.6294V34.3213H29.347V28.6011Z" fill="#002009"/>
<path id="Vector_60" d="M35.0648 28.6011H29.3472V34.3213H35.0648V28.6011Z" fill="#002009"/>
<path id="Vector_61" d="M40.7826 28.6011H35.0649V34.3213H40.7826V28.6011Z" fill="#002009"/>
<path id="Vector_62" d="M46.4999 28.6011H40.7822V34.3213H46.4999V28.6011Z" fill="#002009"/>
<path id="Vector_63" d="M52.2176 28.6011H46.5V34.3213H52.2176V28.6011Z" fill="#002009"/>
<path id="Vector_64" d="M57.9354 28.6011H52.2178V34.3213H57.9354V28.6011Z" fill="#002009"/>
<path id="Vector_65" d="M63.6527 28.6011H57.9351V34.3213H63.6527V28.6011Z" fill="#002009"/>
<path id="Vector_66" d="M69.3705 28.6011H63.6528V34.3213H69.3705V28.6011Z" fill="#002009"/>
<path id="Vector_67" d="M75.0882 28.6011H69.3706V34.3213H75.0882V28.6011Z" fill="#002009"/>
<path id="Vector_68" d="M80.806 28.6011H75.0884V34.3213H80.806V28.6011Z" fill="#002009"/>
<path id="Vector_69" d="M86.5233 28.6011H80.8057V34.3213H86.5233V28.6011Z" fill="#002009"/>
<path id="Vector_70" d="M92.2411 28.6011H86.5234V34.3213H92.2411V28.6011Z" fill="#29F863"/>
<path id="Vector_71" d="M6.47642 34.3213H0.758789V40.0415H6.47642V34.3213Z" fill="#29F863"/>
<path id="Vector_72" d="M12.1942 34.3213H6.47656V40.0415H12.1942V34.3213Z" fill="#002009"/>
<path id="Vector_73" d="M17.912 34.3213H12.1943V40.0415H17.912V34.3213Z" fill="#002009"/>
<path id="Vector_74" d="M23.6293 34.3213H17.9116V40.0415H23.6293V34.3213Z" fill="#002009"/>
<path id="Vector_75" d="M29.347 34.3213H23.6294V40.0415H29.347V34.3213Z" fill="#002009"/>
<path id="Vector_76" d="M35.0648 34.3213H29.3472V40.0415H35.0648V34.3213Z" fill="#002009"/>
<path id="Vector_77" d="M40.7826 34.3213H35.0649V40.0415H40.7826V34.3213Z" fill="#002009"/>
<path id="Vector_78" d="M46.4999 34.3213H40.7822V40.0415H46.4999V34.3213Z" fill="#002009"/>
<path id="Vector_79" d="M52.2176 34.3213H46.5V40.0415H52.2176V34.3213Z" fill="#002009"/>
<path id="Vector_80" d="M57.9354 34.3213H52.2178V40.0415H57.9354V34.3213Z" fill="#002009"/>
<path id="Vector_81" d="M63.6527 34.3213H57.9351V40.0415H63.6527V34.3213Z" fill="#002009"/>
<path id="Vector_82" d="M69.3705 34.3213H63.6528V40.0415H69.3705V34.3213Z" fill="#002009"/>
<path id="Vector_83" d="M75.0882 34.3213H69.3706V40.0415H75.0882V34.3213Z" fill="#002009"/>
<path id="Vector_84" d="M80.806 34.3213H75.0884V40.0415H80.806V34.3213Z" fill="#002009"/>
<path id="Vector_85" d="M86.5233 34.3213H80.8057V40.0415H86.5233V34.3213Z" fill="#002009"/>
<path id="Vector_86" d="M92.2411 34.3213H86.5234V40.0415H92.2411V34.3213Z" fill="#29F863"/>
<path id="Vector_87" d="M6.47642 40.0415H0.758789V45.7617H6.47642V40.0415Z" fill="#29F863"/>
<path id="Vector_88" d="M12.1942 40.0415H6.47656V45.7617H12.1942V40.0415Z" fill="#002009"/>
<path id="Vector_89" d="M17.912 40.0415H12.1943V45.7617H17.912V40.0415Z" fill="#002009"/>
<path id="Vector_90" d="M23.6293 40.0415H17.9116V45.7617H23.6293V40.0415Z" fill="#002009"/>
<path id="Vector_91" d="M29.347 40.0415H23.6294V45.7617H29.347V40.0415Z" fill="#002009"/>
<path id="Vector_92" d="M35.0648 40.0415H29.3472V45.7617H35.0648V40.0415Z" fill="#002009"/>
<path id="Vector_93" d="M40.7826 40.0415H35.0649V45.7617H40.7826V40.0415Z" fill="#002009"/>
<path id="Vector_94" d="M46.4999 40.0415H40.7822V45.7617H46.4999V40.0415Z" fill="#002009"/>
<path id="Vector_95" d="M52.2176 40.0415H46.5V45.7617H52.2176V40.0415Z" fill="#002009"/>
<path id="Vector_96" d="M57.9354 40.0415H52.2178V45.7617H57.9354V40.0415Z" fill="#002009"/>
<path id="Vector_97" d="M63.6527 40.0415H57.9351V45.7617H63.6527V40.0415Z" fill="#002009"/>
<path id="Vector_98" d="M69.3705 40.0415H63.6528V45.7617H69.3705V40.0415Z" fill="#002009"/>
<path id="Vector_99" d="M75.0882 40.0415H69.3706V45.7617H75.0882V40.0415Z" fill="#002009"/>
<path id="Vector_100" d="M80.806 40.0415H75.0884V45.7617H80.806V40.0415Z" fill="#002009"/>
<path id="Vector_101" d="M86.5233 40.0415H80.8057V45.7617H86.5233V40.0415Z" fill="#002009"/>
<path id="Vector_102" d="M92.2411 40.0415H86.5234V45.7617H92.2411V40.0415Z" fill="#29F863"/>
<path id="Vector_103" d="M6.47642 45.7617H0.758789V51.4819H6.47642V45.7617Z" fill="#29F863"/>
<path id="Vector_104" d="M12.1942 45.7617H6.47656V51.4819H12.1942V45.7617Z" fill="#002009"/>
<path id="Vector_105" d="M17.912 45.7617H12.1943V51.4819H17.912V45.7617Z" fill="#002009"/>
<path id="Vector_106" d="M23.6293 45.7617H17.9116V51.4819H23.6293V45.7617Z" fill="#002009"/>
<path id="Vector_107" d="M29.347 45.7617H23.6294V51.4819H29.347V45.7617Z" fill="#002009"/>
<path id="Vector_108" d="M35.0648 45.7617H29.3472V51.4819H35.0648V45.7617Z" fill="#002009"/>
<path id="Vector_109" d="M40.7826 45.7617H35.0649V51.4819H40.7826V45.7617Z" fill="#002009"/>
<path id="Vector_110" d="M46.4999 45.7617H40.7822V51.4819H46.4999V45.7617Z" fill="#002009"/>
<path id="Vector_111" d="M52.2176 45.7617H46.5V51.4819H52.2176V45.7617Z" fill="#002009"/>
<path id="Vector_112" d="M57.9354 45.7617H52.2178V51.4819H57.9354V45.7617Z" fill="#002009"/>
<path id="Vector_113" d="M63.6527 45.7617H57.9351V51.4819H63.6527V45.7617Z" fill="#002009"/>
<path id="Vector_114" d="M69.3705 45.7617H63.6528V51.4819H69.3705V45.7617Z" fill="#002009"/>
<path id="Vector_115" d="M75.0882 45.7617H69.3706V51.4819H75.0882V45.7617Z" fill="#002009"/>
<path id="Vector_116" d="M80.806 45.7617H75.0884V51.4819H80.806V45.7617Z" fill="#002009"/>
<path id="Vector_117" d="M86.5233 45.7617H80.8057V51.4819H86.5233V45.7617Z" fill="#002009"/>
<path id="Vector_118" d="M92.2411 45.7617H86.5234V51.4819H92.2411V45.7617Z" fill="#29F863"/>
<path id="Vector_119" d="M12.1942 51.4817H6.47656V57.2019H12.1942V51.4817Z" fill="#29F863"/>
<path id="Vector_120" d="M17.912 51.4817H12.1943V57.2019H17.912V51.4817Z" fill="#08C33D"/>
<path id="Vector_121" d="M23.6293 51.4817H17.9116V57.2019H23.6293V51.4817Z" fill="#08C33D"/>
<path id="Vector_122" d="M29.347 51.4817H23.6294V57.2019H29.347V51.4817Z" fill="#08C33D"/>
<path id="Vector_123" d="M35.0648 51.4817H29.3472V57.2019H35.0648V51.4817Z" fill="#08C33D"/>
<path id="Vector_124" d="M40.7826 51.4817H35.0649V57.2019H40.7826V51.4817Z" fill="#08C33D"/>
<path id="Vector_125" d="M46.4999 51.4817H40.7822V57.2019H46.4999V51.4817Z" fill="#08C33D"/>
<path id="Vector_126" d="M52.2176 51.4817H46.5V57.2019H52.2176V51.4817Z" fill="#08C33D"/>
<path id="Vector_127" d="M57.9354 51.4817H52.2178V57.2019H57.9354V51.4817Z" fill="#08C33D"/>
<path id="Vector_128" d="M63.6527 51.4817H57.9351V57.2019H63.6527V51.4817Z" fill="#08C33D"/>
<path id="Vector_129" d="M69.3705 51.4817H63.6528V57.2019H69.3705V51.4817Z" fill="#08C33D"/>
<path id="Vector_130" d="M75.0882 51.4817H69.3706V57.2019H75.0882V51.4817Z" fill="#08C33D"/>
<path id="Vector_131" d="M80.806 51.4817H75.0884V57.2019H80.806V51.4817Z" fill="#08C33D"/>
<path id="Vector_132" d="M86.5233 51.4817H80.8057V57.2019H86.5233V51.4817Z" fill="#29F863"/>
<path id="Vector_133" d="M6.47642 57.2021H0.758789V62.9224H6.47642V57.2021Z" fill="#29F863"/>
<path id="Vector_134" d="M12.1942 57.2021H6.47656V62.9224H12.1942V57.2021Z" fill="#002009"/>
<path id="Vector_135" d="M17.912 57.2021H12.1943V62.9224H17.912V57.2021Z" fill="#002009"/>
<path id="Vector_136" d="M23.6293 57.2021H17.9116V62.9224H23.6293V57.2021Z" fill="#002009"/>
<path id="Vector_137" d="M29.347 57.2021H23.6294V62.9224H29.347V57.2021Z" fill="#002009"/>
<path id="Vector_138" d="M35.0648 57.2021H29.3472V62.9224H35.0648V57.2021Z" fill="#002009"/>
<path id="Vector_139" d="M40.7826 57.2021H35.0649V62.9224H40.7826V57.2021Z" fill="#002009"/>
<path id="Vector_140" d="M46.4999 57.2021H40.7822V62.9224H46.4999V57.2021Z" fill="#002009"/>
<path id="Vector_141" d="M52.2176 57.2021H46.5V62.9224H52.2176V57.2021Z" fill="#002009"/>
<path id="Vector_142" d="M57.9354 57.2021H52.2178V62.9224H57.9354V57.2021Z" fill="#002009"/>
<path id="Vector_143" d="M63.6527 57.2021H57.9351V62.9224H63.6527V57.2021Z" fill="#002009"/>
<path id="Vector_144" d="M69.3705 57.2021H63.6528V62.9224H69.3705V57.2021Z" fill="#002009"/>
<path id="Vector_145" d="M75.0882 57.2021H69.3706V62.9224H75.0882V57.2021Z" fill="#002009"/>
<path id="Vector_146" d="M80.806 57.2021H75.0884V62.9224H80.806V57.2021Z" fill="#002009"/>
<path id="Vector_147" d="M86.5233 57.2021H80.8057V62.9224H86.5233V57.2021Z" fill="#002009"/>
<path id="Vector_148" d="M92.2411 57.2021H86.5234V62.9224H92.2411V57.2021Z" fill="#29F863"/>
<path id="Vector_149" d="M6.47642 62.9224H0.758789V68.6426H6.47642V62.9224Z" fill="#29F863"/>
<path id="Vector_150" d="M12.1942 62.9224H6.47656V68.6426H12.1942V62.9224Z" fill="#002009"/>
<path id="Vector_151" d="M17.912 62.9224H12.1943V68.6426H17.912V62.9224Z" fill="#002009"/>
<path id="Vector_152" d="M23.6293 62.9224H17.9116V68.6426H23.6293V62.9224Z" fill="#002009"/>
<path id="Vector_153" d="M29.347 62.9224H23.6294V68.6426H29.347V62.9224Z" fill="#002009"/>
<path id="Vector_154" d="M35.0648 62.9224H29.3472V68.6426H35.0648V62.9224Z" fill="#002009"/>
<path id="Vector_155" d="M40.7826 62.9224H35.0649V68.6426H40.7826V62.9224Z" fill="#002009"/>
<path id="Vector_156" d="M46.4999 62.9224H40.7822V68.6426H46.4999V62.9224Z" fill="#002009"/>
<path id="Vector_157" d="M52.2176 62.9224H46.5V68.6426H52.2176V62.9224Z" fill="#002009"/>
<path id="Vector_158" d="M57.9354 62.9224H52.2178V68.6426H57.9354V62.9224Z" fill="#002009"/>
<path id="Vector_159" d="M63.6527 62.9224H57.9351V68.6426H63.6527V62.9224Z" fill="#002009"/>
<path id="Vector_160" d="M69.3705 62.9224H63.6528V68.6426H69.3705V62.9224Z" fill="#002009"/>
<path id="Vector_161" d="M75.0882 62.9224H69.3706V68.6426H75.0882V62.9224Z" fill="#002009"/>
<path id="Vector_162" d="M80.806 62.9224H75.0884V68.6426H80.806V62.9224Z" fill="#002009"/>
<path id="Vector_163" d="M86.5233 62.9224H80.8057V68.6426H86.5233V62.9224Z" fill="#002009"/>
<path id="Vector_164" d="M92.2411 62.9224H86.5234V68.6426H92.2411V62.9224Z" fill="#29F863"/>
<path id="Vector_165" d="M12.1942 68.6423H6.47656V74.3625H12.1942V68.6423Z" fill="#29F863"/>
<path id="Vector_166" d="M17.912 68.6423H12.1943V74.3625H17.912V68.6423Z" fill="#29F863"/>
<path id="Vector_167" d="M23.6293 68.6423H17.9116V74.3625H23.6293V68.6423Z" fill="#29F863"/>
<path id="Vector_168" d="M29.347 68.6423H23.6294V74.3625H29.347V68.6423Z" fill="#29F863"/>
<path id="Vector_169" d="M35.0648 68.6423H29.3472V74.3625H35.0648V68.6423Z" fill="#29F863"/>
<path id="Vector_170" d="M40.7826 68.6423H35.0649V74.3625H40.7826V68.6423Z" fill="#29F863"/>
<path id="Vector_171" d="M46.4999 68.6423H40.7822V74.3625H46.4999V68.6423Z" fill="#29F863"/>
<path id="Vector_172" d="M52.2176 68.6423H46.5V74.3625H52.2176V68.6423Z" fill="#29F863"/>
<path id="Vector_173" d="M57.9354 68.6423H52.2178V74.3625H57.9354V68.6423Z" fill="#29F863"/>
<path id="Vector_174" d="M63.6527 68.6423H57.9351V74.3625H63.6527V68.6423Z" fill="#29F863"/>
<path id="Vector_175" d="M69.3705 68.6423H63.6528V74.3625H69.3705V68.6423Z" fill="#29F863"/>
<path id="Vector_176" d="M75.0882 68.6423H69.3706V74.3625H75.0882V68.6423Z" fill="#29F863"/>
<path id="Vector_177" d="M80.806 68.6423H75.0884V74.3625H80.806V68.6423Z" fill="#29F863"/>
<path id="Vector_178" d="M86.5233 68.6423H80.8057V74.3625H86.5233V68.6423Z" fill="#29F863"/>
</g>
</svg>
