<svg xmlns="http://www.w3.org/2000/svg" width="27" height="30" viewBox="0 0 27 30" fill="none">
  <path fill-rule="evenodd" clip-rule="evenodd" d="M6.72559 0.134766H20.1749V2.37651L22.4166 2.37653V4.61828L24.6578 4.61829V9.1018L26.9 9.10181V20.3112H24.6582L24.6578 24.7927H22.4166V27.0345H20.1749V29.2763H6.72559V27.0345L4.4834 27.0345V24.7928L2.24219 24.7927V20.3105L0 20.3112V9.10181L2.24219 9.1018V4.61829L4.4834 4.61828V2.37653L6.72559 2.37651V0.134766ZM15.6987 4.61823L17.9409 4.61824V9.10176H20.1812L20.1811 20.3105H17.9409V24.7926L15.6987 24.7927V27.0345H6.73188L6.73145 24.7927H4.48969L4.49023 20.3105H2.24848V9.10176H4.49023L4.48969 4.61823H6.73145L6.73188 2.37646L15.6987 2.37648V4.61823ZM12.6033 7.70388H12.9449H12.9455H15.2487V10.0091H12.9449V10.0076H7.89921V13.9888H5.59553V10.0071H6.71705V7.70388H10.2996V5.55009H12.6033V7.70388ZM6.71705 16.293H14.3388V20.5295H16.6424V16.2919H15.2492V13.9893H6.71705V16.293ZM12.9449 22.8339H12.6033V24.6156H10.2996V22.8339H6.71705V20.5303H12.9449H12.9455H15.2487V22.8354H12.9449V22.8339Z" fill="white"/>
</svg>