<svg width="19" height="17" viewBox="0 0 19 17" fill="none" xmlns="http://www.w3.org/2000/svg">
<path d="M8.56962 1.43009C8.61817 1.34014 8.69014 1.265 8.77792 1.21263C8.8657 1.16026 8.96601 1.13261 9.06822 1.13261C9.17043 1.13261 9.27074 1.16026 9.35852 1.21263C9.4463 1.265 9.51828 1.34014 9.56682 1.43009L16.9326 15.0284C16.9796 15.1147 17.0033 15.2119 17.0014 15.3102C16.9995 15.4085 16.972 15.5046 16.9217 15.5891C16.8714 15.6736 16.8 15.7435 16.7145 15.792C16.629 15.8405 16.5323 15.866 16.434 15.8658H1.70021C1.60205 15.8659 1.50555 15.8404 1.42018 15.792C1.33481 15.7435 1.2635 15.6737 1.21323 15.5894C1.16296 15.5051 1.13546 15.4091 1.13342 15.311C1.13138 15.2128 1.15488 15.1158 1.20161 15.0295L8.56962 1.43009ZM10.5618 0.890688C9.91925 -0.296896 8.21606 -0.296896 7.57354 0.890688L0.205531 14.489C0.0651709 14.7478 -0.00553592 15.0387 0.000338337 15.3331C0.0062126 15.6275 0.0884664 15.9154 0.239041 16.1684C0.389616 16.4215 0.603346 16.6311 0.85929 16.7767C1.11524 16.9223 1.40462 16.9989 1.69908 16.999H16.434C16.7285 16.9991 17.018 16.9226 17.2741 16.7771C17.5302 16.6316 17.7441 16.422 17.8948 16.1689C18.0456 15.9158 18.1279 15.6279 18.1338 15.3334C18.1398 15.0389 18.069 14.7479 17.9286 14.489L10.5618 0.890688ZM9.63255 6.23255C9.63255 6.08228 9.57285 5.93817 9.4666 5.83191C9.36034 5.72565 9.21622 5.66596 9.06595 5.66596C8.91568 5.66596 8.77157 5.72565 8.66531 5.83191C8.55905 5.93817 8.49936 6.08228 8.49936 6.23255V10.7653C8.49936 10.9156 8.55905 11.0597 8.66531 11.166C8.77157 11.2722 8.91568 11.3319 9.06595 11.3319C9.21622 11.3319 9.36034 11.2722 9.4666 11.166C9.57285 11.0597 9.63255 10.9156 9.63255 10.7653V6.23255ZM9.91585 13.315C9.91585 13.5404 9.8263 13.7566 9.66692 13.916C9.50753 14.0753 9.29136 14.1649 9.06595 14.1649C8.84055 14.1649 8.62437 14.0753 8.46499 13.916C8.3056 13.7566 8.21606 13.5404 8.21606 13.315C8.21606 13.0896 8.3056 12.8734 8.46499 12.714C8.62437 12.5546 8.84055 12.4651 9.06595 12.4651C9.29136 12.4651 9.50753 12.5546 9.66692 12.714C9.8263 12.8734 9.91585 13.0896 9.91585 13.315Z" fill="#FF0000"/>
</svg>
