<svg width="14" height="13" viewBox="0 0 14 13" fill="none" xmlns="http://www.w3.org/2000/svg">
<g id="Group">
<path id="Vector" d="M5.60962 0H4.68274V0.926886H5.60962V0Z" fill="#B4642D"/>
<path id="Vector_2" d="M6.53663 0H5.60974V0.926886H6.53663V0Z" fill="#B4642D"/>
<path id="Vector_3" d="M7.46363 0H6.53674V0.926886H7.46363V0Z" fill="#D79734"/>
<path id="Vector_4" d="M8.39038 0H7.4635V0.926886H8.39038V0Z" fill="#B4642D"/>
<path id="Vector_5" d="M9.31727 0H8.39038V0.926886H9.31727V0Z" fill="#D79734"/>
<path id="Vector_6" d="M4.68262 0.92688H3.75574V1.85376H4.68262V0.92688Z" fill="#764138"/>
<path id="Vector_7" d="M5.60962 0.92688H4.68274V1.85376H5.60962V0.92688Z" fill="#EAC641"/>
<path id="Vector_8" d="M6.53663 0.92688H5.60974V1.85376H6.53663V0.92688Z" fill="#F1E39F"/>
<path id="Vector_9" d="M7.46363 0.92688H6.53674V1.85376H7.46363V0.92688Z" fill="#EAC641"/>
<path id="Vector_10" d="M8.39038 0.92688H7.4635V1.85376H8.39038V0.92688Z" fill="#F1E39F"/>
<path id="Vector_11" d="M9.31727 0.92688H8.39038V1.85376H9.31727V0.92688Z" fill="#F1E39F"/>
<path id="Vector_12" d="M10.2444 0.92688H9.3175V1.85376H10.2444V0.92688Z" fill="#D79734"/>
<path id="Vector_13" d="M3.75574 1.85376H2.82886V2.78064H3.75574V1.85376Z" fill="#764138"/>
<path id="Vector_14" d="M4.68262 1.85376H3.75574V2.78064H4.68262V1.85376Z" fill="#EAC641"/>
<path id="Vector_15" d="M5.60962 1.85376H4.68274V2.78064H5.60962V1.85376Z" fill="#EAC641"/>
<path id="Vector_16" d="M6.53663 1.85376H5.60974V2.78064H6.53663V1.85376Z" fill="#EAC641"/>
<path id="Vector_17" d="M7.46363 1.85376H6.53674V2.78064H7.46363V1.85376Z" fill="#EAC641"/>
<path id="Vector_18" d="M8.39038 1.85376H7.4635V2.78064H8.39038V1.85376Z" fill="#EAC641"/>
<path id="Vector_19" d="M9.31727 1.85376H8.39038V2.78064H9.31727V1.85376Z" fill="#EAC641"/>
<path id="Vector_20" d="M10.2444 1.85376H9.3175V2.78064H10.2444V1.85376Z" fill="#FDFAD4"/>
<path id="Vector_21" d="M11.1713 1.85376H10.2444V2.78064H11.1713V1.85376Z" fill="#D79734"/>
<path id="Vector_22" d="M2.82898 2.78088H1.9021V3.70777H2.82898V2.78088Z" fill="#764138"/>
<path id="Vector_23" d="M3.75574 2.78088H2.82886V3.70777H3.75574V2.78088Z" fill="#EAC641"/>
<path id="Vector_24" d="M4.68262 2.78088H3.75574V3.70777H4.68262V2.78088Z" fill="#EAC641"/>
<path id="Vector_25" d="M5.60962 2.78088H4.68274V3.70777H5.60962V2.78088Z" fill="#EAC641"/>
<path id="Vector_26" d="M6.53663 2.78088H5.60974V3.70777H6.53663V2.78088Z" fill="#B4642D"/>
<path id="Vector_27" d="M7.46363 2.78088H6.53674V3.70777H7.46363V2.78088Z" fill="#EAC641"/>
<path id="Vector_28" d="M8.39038 2.78088H7.4635V3.70777H8.39038V2.78088Z" fill="#B4642D"/>
<path id="Vector_29" d="M9.31727 2.78088H8.39038V3.70777H9.31727V2.78088Z" fill="#EAC641"/>
<path id="Vector_30" d="M10.2444 2.78088H9.3175V3.70777H10.2444V2.78088Z" fill="#EAC641"/>
<path id="Vector_31" d="M11.1713 2.78088H10.2444V3.70777H11.1713V2.78088Z" fill="#FDFAD4"/>
<path id="Vector_32" d="M12.0982 2.78088H11.1713V3.70777H12.0982V2.78088Z" fill="#D79734"/>
<path id="Vector_33" d="M1.90186 3.70776H0.974976V4.63465H1.90186V3.70776Z" fill="#764138"/>
<path id="Vector_34" d="M2.82898 3.70776H1.9021V4.63465H2.82898V3.70776Z" fill="#EAC641"/>
<path id="Vector_35" d="M3.75574 3.70776H2.82886V4.63465H3.75574V3.70776Z" fill="#EAC641"/>
<path id="Vector_36" d="M4.68262 3.70776H3.75574V4.63465H4.68262V3.70776Z" fill="#EAC641"/>
<path id="Vector_37" d="M5.60962 3.70776H4.68274V4.63465H5.60962V3.70776Z" fill="#B4642D"/>
<path id="Vector_38" d="M6.53663 3.70776H5.60974V4.63465H6.53663V3.70776Z" fill="#B4642D"/>
<path id="Vector_39" d="M7.46363 3.70776H6.53674V4.63465H7.46363V3.70776Z" fill="#B4642D"/>
<path id="Vector_40" d="M8.39038 3.70776H7.4635V4.63465H8.39038V3.70776Z" fill="#B4642D"/>
<path id="Vector_41" d="M9.31727 3.70776H8.39038V4.63465H9.31727V3.70776Z" fill="#EAC641"/>
<path id="Vector_42" d="M10.2444 3.70776H9.3175V4.63465H10.2444V3.70776Z" fill="#EAC641"/>
<path id="Vector_43" d="M11.1713 3.70776H10.2444V4.63465H11.1713V3.70776Z" fill="#EAC641"/>
<path id="Vector_44" d="M12.0982 3.70776H11.1713V4.63465H12.0982V3.70776Z" fill="#F1E39F"/>
<path id="Vector_45" d="M13.025 3.70776H12.0981V4.63465H13.025V3.70776Z" fill="#D79734"/>
<path id="Vector_46" d="M1.90186 4.63464H0.974976V5.56153H1.90186V4.63464Z" fill="#B4642D"/>
<path id="Vector_47" d="M2.82898 4.63464H1.9021V5.56153H2.82898V4.63464Z" fill="#EAC641"/>
<path id="Vector_48" d="M3.75574 4.63464H2.82886V5.56153H3.75574V4.63464Z" fill="#EAC641"/>
<path id="Vector_49" d="M4.68262 4.63464H3.75574V5.56153H4.68262V4.63464Z" fill="#EAC641"/>
<path id="Vector_50" d="M5.60962 4.63464H4.68274V5.56153H5.60962V4.63464Z" fill="#B4642D"/>
<path id="Vector_51" d="M6.53663 4.63464H5.60974V5.56153H6.53663V4.63464Z" fill="#EAC641"/>
<path id="Vector_52" d="M7.46363 4.63464H6.53674V5.56153H7.46363V4.63464Z" fill="#EAC641"/>
<path id="Vector_53" d="M8.39038 4.63464H7.4635V5.56153H8.39038V4.63464Z" fill="#EAC641"/>
<path id="Vector_54" d="M9.31727 4.63464H8.39038V5.56153H9.31727V4.63464Z" fill="#B4642D"/>
<path id="Vector_55" d="M10.2444 4.63464H9.3175V5.56153H10.2444V4.63464Z" fill="#EAC641"/>
<path id="Vector_56" d="M11.1713 4.63464H10.2444V5.56153H11.1713V4.63464Z" fill="#EAC641"/>
<path id="Vector_57" d="M12.0982 4.63464H11.1713V5.56153H12.0982V4.63464Z" fill="#FDFAD4"/>
<path id="Vector_58" d="M13.025 4.63464H12.0981V5.56153H13.025V4.63464Z" fill="#B4642D"/>
<path id="Vector_59" d="M1.90186 5.56152H0.974976V6.48841H1.90186V5.56152Z" fill="#B4642D"/>
<path id="Vector_60" d="M2.82898 5.56152H1.9021V6.48841H2.82898V5.56152Z" fill="#EAC641"/>
<path id="Vector_61" d="M3.75574 5.56152H2.82886V6.48841H3.75574V5.56152Z" fill="#EAC641"/>
<path id="Vector_62" d="M4.68262 5.56152H3.75574V6.48841H4.68262V5.56152Z" fill="#EAC641"/>
<path id="Vector_63" d="M5.60962 5.56152H4.68274V6.48841H5.60962V5.56152Z" fill="#B4642D"/>
<path id="Vector_64" d="M6.53663 5.56152H5.60974V6.48841H6.53663V5.56152Z" fill="#B4642D"/>
<path id="Vector_65" d="M7.46363 5.56152H6.53674V6.48841H7.46363V5.56152Z" fill="#B4642D"/>
<path id="Vector_66" d="M8.39038 5.56152H7.4635V6.48841H8.39038V5.56152Z" fill="#B4642D"/>
<path id="Vector_67" d="M9.31727 5.56152H8.39038V6.48841H9.31727V5.56152Z" fill="#EAC641"/>
<path id="Vector_68" d="M10.2444 5.56152H9.3175V6.48841H10.2444V5.56152Z" fill="#EAC641"/>
<path id="Vector_69" d="M11.1713 5.56152H10.2444V6.48841H11.1713V5.56152Z" fill="#EAC641"/>
<path id="Vector_70" d="M12.0982 5.56152H11.1713V6.48841H12.0982V5.56152Z" fill="#EAC641"/>
<path id="Vector_71" d="M13.025 5.56152H12.0981V6.48841H13.025V5.56152Z" fill="#D79734"/>
<path id="Vector_72" d="M1.90186 6.48853H0.974976V7.41541H1.90186V6.48853Z" fill="#D79734"/>
<path id="Vector_73" d="M2.82898 6.48853H1.9021V7.41541H2.82898V6.48853Z" fill="#EAC641"/>
<path id="Vector_74" d="M3.75574 6.48853H2.82886V7.41541H3.75574V6.48853Z" fill="#EAC641"/>
<path id="Vector_75" d="M4.68262 6.48853H3.75574V7.41541H4.68262V6.48853Z" fill="#EAC641"/>
<path id="Vector_76" d="M5.60962 6.48853H4.68274V7.41541H5.60962V6.48853Z" fill="#B4642D"/>
<path id="Vector_77" d="M6.53663 6.48853H5.60974V7.41541H6.53663V6.48853Z" fill="#EAC641"/>
<path id="Vector_78" d="M7.46363 6.48853H6.53674V7.41541H7.46363V6.48853Z" fill="#EAC641"/>
<path id="Vector_79" d="M8.39038 6.48853H7.4635V7.41541H8.39038V6.48853Z" fill="#EAC641"/>
<path id="Vector_80" d="M9.31727 6.48853H8.39038V7.41541H9.31727V6.48853Z" fill="#B4642D"/>
<path id="Vector_81" d="M10.2444 6.48853H9.3175V7.41541H10.2444V6.48853Z" fill="#EAC641"/>
<path id="Vector_82" d="M11.1713 6.48853H10.2444V7.41541H11.1713V6.48853Z" fill="#EAC641"/>
<path id="Vector_83" d="M12.0982 6.48853H11.1713V7.41541H12.0982V6.48853Z" fill="#EAC641"/>
<path id="Vector_84" d="M13.025 6.48853H12.0981V7.41541H13.025V6.48853Z" fill="#B4642D"/>
<path id="Vector_85" d="M1.90186 7.41541H0.974976V8.34229H1.90186V7.41541Z" fill="#B4642D"/>
<path id="Vector_86" d="M2.82898 7.41541H1.9021V8.34229H2.82898V7.41541Z" fill="#EAC641"/>
<path id="Vector_87" d="M3.75574 7.41541H2.82886V8.34229H3.75574V7.41541Z" fill="#EAC641"/>
<path id="Vector_88" d="M4.68262 7.41541H3.75574V8.34229H4.68262V7.41541Z" fill="#EAC641"/>
<path id="Vector_89" d="M5.60962 7.41541H4.68274V8.34229H5.60962V7.41541Z" fill="#B4642D"/>
<path id="Vector_90" d="M6.53663 7.41541H5.60974V8.34229H6.53663V7.41541Z" fill="#B4642D"/>
<path id="Vector_91" d="M7.46363 7.41541H6.53674V8.34229H7.46363V7.41541Z" fill="#B4642D"/>
<path id="Vector_92" d="M8.39038 7.41541H7.4635V8.34229H8.39038V7.41541Z" fill="#B4642D"/>
<path id="Vector_93" d="M9.31727 7.41541H8.39038V8.34229H9.31727V7.41541Z" fill="#EAC641"/>
<path id="Vector_94" d="M10.2444 7.41541H9.3175V8.34229H10.2444V7.41541Z" fill="#EAC641"/>
<path id="Vector_95" d="M11.1713 7.41541H10.2444V8.34229H11.1713V7.41541Z" fill="#EAC641"/>
<path id="Vector_96" d="M12.0982 7.41541H11.1713V8.34229H12.0982V7.41541Z" fill="#F1E39F"/>
<path id="Vector_97" d="M13.025 7.41541H12.0981V8.34229H13.025V7.41541Z" fill="#764138"/>
<path id="Vector_98" d="M2.82898 8.34229H1.9021V9.26917H2.82898V8.34229Z" fill="#D79734"/>
<path id="Vector_99" d="M3.75574 8.34229H2.82886V9.26917H3.75574V8.34229Z" fill="#F1E39F"/>
<path id="Vector_100" d="M4.68262 8.34229H3.75574V9.26917H4.68262V8.34229Z" fill="#EAC641"/>
<path id="Vector_101" d="M5.60962 8.34229H4.68274V9.26917H5.60962V8.34229Z" fill="#EAC641"/>
<path id="Vector_102" d="M6.53663 8.34229H5.60974V9.26917H6.53663V8.34229Z" fill="#B4642D"/>
<path id="Vector_103" d="M7.46363 8.34229H6.53674V9.26917H7.46363V8.34229Z" fill="#EAC641"/>
<path id="Vector_104" d="M8.39038 8.34229H7.4635V9.26917H8.39038V8.34229Z" fill="#B4642D"/>
<path id="Vector_105" d="M9.31727 8.34229H8.39038V9.26917H9.31727V8.34229Z" fill="#EAC641"/>
<path id="Vector_106" d="M10.2444 8.34229H9.3175V9.26917H10.2444V8.34229Z" fill="#EAC641"/>
<path id="Vector_107" d="M11.1713 8.34229H10.2444V9.26917H11.1713V8.34229Z" fill="#EAC641"/>
<path id="Vector_108" d="M12.0982 8.34229H11.1713V9.26917H12.0982V8.34229Z" fill="#B4642D"/>
<path id="Vector_109" d="M3.75574 9.26917H2.82886V10.1961H3.75574V9.26917Z" fill="#D79734"/>
<path id="Vector_110" d="M4.68262 9.26917H3.75574V10.1961H4.68262V9.26917Z" fill="#FDFAD4"/>
<path id="Vector_111" d="M5.60962 9.26917H4.68274V10.1961H5.60962V9.26917Z" fill="#EAC641"/>
<path id="Vector_112" d="M6.53663 9.26917H5.60974V10.1961H6.53663V9.26917Z" fill="#EAC641"/>
<path id="Vector_113" d="M7.46363 9.26917H6.53674V10.1961H7.46363V9.26917Z" fill="#EAC641"/>
<path id="Vector_114" d="M8.39038 9.26917H7.4635V10.1961H8.39038V9.26917Z" fill="#EAC641"/>
<path id="Vector_115" d="M9.31727 9.26917H8.39038V10.1961H9.31727V9.26917Z" fill="#EAC641"/>
<path id="Vector_116" d="M10.2444 9.26917H9.3175V10.1961H10.2444V9.26917Z" fill="#EAC641"/>
<path id="Vector_117" d="M11.1713 9.26917H10.2444V10.1961H11.1713V9.26917Z" fill="#B4642D"/>
<path id="Vector_118" d="M4.68262 10.1963H3.75574V11.1232H4.68262V10.1963Z" fill="#D79734"/>
<path id="Vector_119" d="M5.60962 10.1963H4.68274V11.1232H5.60962V10.1963Z" fill="#EAC641"/>
<path id="Vector_120" d="M6.53663 10.1963H5.60974V11.1232H6.53663V10.1963Z" fill="#EAC641"/>
<path id="Vector_121" d="M7.46363 10.1963H6.53674V11.1232H7.46363V10.1963Z" fill="#EAC641"/>
<path id="Vector_122" d="M8.39038 10.1963H7.4635V11.1232H8.39038V10.1963Z" fill="#EAC641"/>
<path id="Vector_123" d="M9.31727 10.1963H8.39038V11.1232H9.31727V10.1963Z" fill="#EAC641"/>
<path id="Vector_124" d="M10.2444 10.1963H9.3175V11.1232H10.2444V10.1963Z" fill="#764138"/>
<path id="Vector_125" d="M5.60962 11.1232H4.68274V12.0501H5.60962V11.1232Z" fill="#D79734"/>
<path id="Vector_126" d="M6.53663 11.1232H5.60974V12.0501H6.53663V11.1232Z" fill="#D79734"/>
<path id="Vector_127" d="M7.46363 11.1232H6.53674V12.0501H7.46363V11.1232Z" fill="#B4642D"/>
<path id="Vector_128" d="M8.39038 11.1232H7.4635V12.0501H8.39038V11.1232Z" fill="#B4642D"/>
<path id="Vector_129" d="M9.31727 11.1232H8.39038V12.0501H9.31727V11.1232Z" fill="#764138"/>
</g>
</svg>
