<svg xmlns="http://www.w3.org/2000/svg" width="135" height="48" viewBox="0 0 135 48" fill="none">
  <path d="M28.3814 14.5751H32.1028V21.3606H28.3814V14.5751Z" fill="white"/>
  <path d="M18.1224 14.5752H21.8437V21.3607H18.1224V14.5752Z" fill="white"/>
  <path d="M22.9378 28.8235H20.6732V25.5417H17.3954V28.8235H19.6559V32.1054H22.8625V33.3669H26.1423V32.1054H29.4221V28.8235H31.4812V25.5417H28.2013V28.8235H26.1423V30.085H22.9378V28.8235Z" fill="white"/>
  <path fill-rule="evenodd" clip-rule="evenodd" d="M3.78186 7.11206H7.06373V3.8302H10.3456V0.54834H30.0347V3.81393H33.3166V7.11206H36.5985V13.6758H39.8803V30.0851H36.5985V36.6651H33.3166V39.9653H30.0347V43.2126H10.3456V39.9307H7.06373V36.6488H3.78186V30.0871H0.5V13.6778H3.78186V7.11206ZM10.3456 30.0851H13.6254V36.6468H16.9073V39.9287H30.0347V36.6468H33.3166V30.0749H36.5985V13.6921H33.3166V7.13445H30.0347V3.83224H16.9073V7.1141H13.6254V13.6778H10.3456V30.0851Z" fill="white"/>
  <path d="M80.0995 6.35806V9.34142H77.1211V15.1511H80.0995V18.1345H77.1211L74.1427 15.3082V9.34142H71.1651V6.35806H74.1427V0.54834H77.1211V6.35806H80.0995Z" fill="white"/>
  <path d="M92.0128 15.1514V18.1348H83.0776V15.1514H92.0128Z" fill="white"/>
  <path fill-rule="evenodd" clip-rule="evenodd" d="M57.966 6.20184H52.0092V0.548353H49.0308V6.20184L52.0092 9.18521H49.0308V15.3082L52.0092 18.1345H58.0452V15.1512H60.9444V9.18521L57.966 6.20184ZM52.0092 9.18521H57.966V15.1512H52.0092V9.18521Z" fill="white"/>
  <path d="M71.1655 18.1345V15.1511H68.2805V6.35806H62.4203V9.35174H65.3045V15.1511H62.4203V18.1345H71.1655Z" fill="white"/>
  <path d="M65.3298 3.45875H68.2813V0.54834H65.3298V3.45875Z" fill="white"/>
  <path d="M94.9243 37.1821V40.1385H86.1791V37.1821H89.0633V31.3565H86.1791V28.4001H92.0393V37.1829H94.9235L94.9243 37.1821Z" fill="white"/>
  <path d="M92.0401 25.4627H89.0886V22.5523H92.0401V25.4627Z" fill="white"/>
  <path fill-rule="evenodd" clip-rule="evenodd" d="M107.734 37.1824L107.717 34.2919H116.332V31.3569H119.216V28.4203H116.332V25.4639H107.587V28.4203H104.703V37.1824H107.677V40.1388H116.24L118.293 37.1824H107.734ZM107.655 31.3521V28.4219H116.241L116.261 31.3521H107.655Z" fill="white"/>
  <path d="M123.667 25.4814H120.692V28.4164H123.667V25.4814Z" fill="white"/>
  <path d="M131.952 40.1178H123.577L120.693 37.1828V31.3406H123.669V37.1828H131.952V31.3406H134.928V37.1828L131.952 40.1178Z" fill="white"/>
  <path d="M131.954 25.4814H134.928V28.4164H131.954V25.4814Z" fill="white"/>
  <path d="M134.929 40.1182V44.5433L132.041 47.4791H122.715V44.4981H131.95V40.1182H134.929Z" fill="white"/>
  <path d="M83.2273 40.1396V28.3759L80.0565 25.4639H76.8121V28.3759L73.642 25.4639H67.6045V40.1396H70.5805V28.4219H73.9279V40.1396H76.9039V28.4219H80.2512V40.1396H83.2273Z" fill="white"/>
  <path d="M64.6535 28.4728V25.4934H61.7685V22.5585H51.9149V25.4934H49.0307V29.6021L51.9157 32.5601H61.6767V37.1866H52.0067V34.2302H49.0307V37.2096H51.9149V40.1446H61.7685V37.2096H64.6535V32.5371H64.6305L61.7685 29.6021H52.0067V25.5164H61.6775V28.4728H64.6535Z" fill="white"/>
  <path d="M103.227 40.1385V37.1821H99.3513V22.5524H96.3998V37.2035L99.284 40.1385H103.227Z" fill="white"/>
</svg>