<svg xmlns="http://www.w3.org/2000/svg" width="253" height="88" viewBox="0 0 253 88" fill="none">
  <path fill-rule="evenodd" clip-rule="evenodd" d="M177.056 68.6922V74.2357H160.658V68.6922H166.066V57.7686H160.658V52.225H171.647V68.6936H177.055L177.056 68.6922ZM171.648 46.7171H166.114V41.2598H171.648V46.7171ZM201.077 68.6928L201.044 63.2726H217.199V57.7692H222.607V52.2628H217.199V46.7192H200.801V52.2628H195.393V68.6928H200.97V74.2364H217.027L220.876 68.6928H201.077ZM200.928 57.7603V52.2658H200.93H217.028L217.065 57.7603H200.928ZM230.952 46.7522H225.375V52.2556H230.952V46.7522ZM246.488 74.197H230.784L225.376 68.6936V57.7388H230.957V68.6936H246.488V57.7388H252.068V68.6936L246.488 74.197ZM246.49 46.7522H252.068V52.2556H246.49V46.7522ZM252.069 74.1978V82.4953L246.653 88.0002H229.167V82.4105H246.483V74.1978H252.069ZM155.123 74.2379V52.1795H155.121L149.177 46.7192H143.093V52.1795L137.149 46.7192H125.828V52.2658V74.2379H131.409V52.2658H137.685V74.2379H143.266V52.2658H149.542V74.2379H155.123ZM120.295 52.3613V46.7746H114.886V41.2711H96.4092V46.7746H91.001V54.4788L96.4106 60.0253H114.714V68.7006H96.5814V63.157H91.001V68.7437H96.4092V74.2471H114.886V68.7437H120.295V59.9822H120.252L114.886 54.4788H96.5814V46.8177H114.715V52.3613H120.295ZM192.624 74.2359V68.6923H185.357V41.2599H179.823V68.7324L185.231 74.2359H192.624Z" fill="currentColor"/>
  <path fill-rule="evenodd" clip-rule="evenodd" d="M107.756 10.6009H102.171H96.5858V0H91.001V10.6009L96.5858 16.195H91.001V27.6763L96.5858 32.976H102.171H107.904V27.3818H113.34V21.7877V16.195L107.756 10.6009ZM96.5858 16.195H102.171H107.756V21.7877V27.3818H102.171H96.5858V16.195ZM149.258 10.8938V16.488H143.673V27.3818H149.258V32.976H143.673L138.088 27.6763V16.488H132.505V10.8938H138.088V0H143.673V10.8938H149.258ZM171.598 27.3823V32.9765H154.843V27.3823H171.598ZM132.506 32.976V27.3818H132.504H127.096V10.8938H116.107V16.5073H121.516V27.3818H116.107V32.976H132.506ZM121.563 5.45733H127.098V0H121.563V5.45733Z" fill="currentColor"/>
  <path fill-rule="evenodd" clip-rule="evenodd" d="M6.15526 12.3077V24.6154V24.6192H0.00141144V55.3884H6.15526V67.6923H12.3091V73.8462H18.4629V80H55.3822V73.911H61.5361V67.7228H67.6899V55.3846H73.8438V24.6154H67.6899V12.3077H61.5361V6.12332H55.3822V0H18.4629V6.15385H12.3091V12.3077H6.15526ZM18.4629 30.773V30.7692V24.6192H24.613V12.3115H30.7668V6.15766H55.3822V12.3497H61.5361V24.6459H67.6899V55.3655H61.5361V67.6885H55.3822V73.8423H30.7668V67.6885H24.613V55.3846H18.4629V30.773ZM59.2586 26.3019H52.2807V39.0254H59.2586V26.3019ZM40.0222 26.3019H33.0443V39.0254H40.0222V26.3019ZM37.8275 53.0191H42.0737V55.3845H48.0826V53.0191H51.9435V46.8652H58.0936V53.0191H54.2326V59.1729H48.0826V61.5383H41.9326V59.1729H35.9199V53.0191H31.6812V46.8652H37.8275V53.0191Z" fill="currentColor"/>
</svg>