<svg xmlns="http://www.w3.org/2000/svg" width="107" height="38" viewBox="0 0 107 38" fill="none">
  <path fill-rule="evenodd" clip-rule="evenodd" d="M75.1176 28.9498V31.2861H68.2067V28.9498H70.4859V24.3462H68.2067V22.0099H72.8377V28.9504H75.1169L75.1176 28.9498ZM72.8383 19.6886H70.5059V17.3887H72.8383V19.6886ZM85.2408 28.9499L85.227 26.6656H92.0353V24.3462H94.3145V22.0256H92.0353V19.6893H85.1244V22.0256H82.8452V28.9499H85.1958V31.2862H91.9627L93.585 28.9499H85.2408ZM85.1782 24.3425V22.0269H85.1789H91.9634L91.979 24.3425H85.1782ZM97.8316 19.7033H95.4811V22.0227H97.8316V19.7033ZM104.379 31.2696H97.7611L95.4819 28.9502V24.3334H97.8337V28.9502H104.379V24.3334H106.731V28.9502L104.379 31.2696ZM104.38 19.7033H106.73V22.0227H104.38V19.7033ZM106.731 31.2699V34.7668L104.449 37.0868H97.0796V34.7311H104.377V31.2699H106.731ZM65.8745 31.2868V21.9905H65.8739L63.3688 19.6893H60.8049V21.9905L58.2998 19.6893H53.5286V22.0269V31.2868H55.8804V22.0269H58.5257V31.2868H60.8775V22.0269H63.5227V31.2868H65.8745ZM51.1965 22.0674V19.713H48.9166V17.3936H41.1298V19.713H38.8506V22.9598L41.1304 25.2974H48.844V28.9535H41.2024V26.6172H38.8506V28.9717H41.1298V31.291H48.9166V28.9717H51.1965V25.2792H51.1783L48.9166 22.9598H41.2024V19.7312H48.8447V22.0674H51.1965ZM81.679 31.2861V28.9498H78.6164V17.3887H76.284V28.9667L78.5633 31.2861H81.679Z" fill="white"/>
  <path fill-rule="evenodd" clip-rule="evenodd" d="M45.9116 4.46765H43.5579H41.2043V0H38.8506V4.46765L41.2043 6.82525H38.8506V11.6639L41.2043 13.8974H43.5579H45.9742V11.5398H48.2653V9.18222V6.82525L45.9116 4.46765ZM41.2043 6.82525H43.5579H45.9116V9.18222V11.5398H43.5579H41.2043V6.82525ZM63.4025 4.59111V6.94871H61.0488V11.5398H63.4025V13.8974H61.0488L58.6951 11.6639V6.94871H56.3421V4.59111H58.6951V0H61.0488V4.59111H63.4025ZM72.817 11.5403V13.8979H65.756V11.5403H72.817ZM56.3428 13.8974V11.5398H56.3422H54.0629V4.59111H49.4319V6.95685H51.7111V11.5398H49.4319V13.8974H56.3428ZM51.7312 2.29994H54.0636V0H51.7312V2.29994Z" fill="white"/>
  <path fill-rule="evenodd" clip-rule="evenodd" d="M3.09343 5.18696V10.3739V10.3755H0.499949V23.3429H3.09343V28.5283H5.68691V31.1218H8.28039V33.7153H23.8397V31.1491H26.4332V28.5412H29.0266V23.3413H31.6201V10.3739H29.0266V5.18696H26.4332V2.58062H23.8397V0H8.28039V2.59348H5.68691V5.18696H3.09343ZM8.28039 12.969V12.9674V10.3755H10.8723V5.18857H13.4657V2.59509H23.8397V5.20465H26.4332V10.3868H29.0266V23.3333H26.4332V28.5267H23.8397V31.1202H13.4657V28.5267H10.8723V23.3413H8.28039V12.969ZM25.4739 11.0843H22.5331V16.4465H25.4739V11.0843ZM17.3669 11.0843H14.4261V16.4465H17.3669V11.0843ZM16.4415 22.3445H18.2311V23.3413H20.7634V22.3445H22.3906V19.751H24.9825V22.3445H23.3553V24.938H20.7634V25.9348H18.1716V24.938H15.6376V22.3445H13.8512V19.751H16.4415V22.3445Z" fill="white"/>
</svg>