<svg xmlns="http://www.w3.org/2000/svg" width="155" height="55" viewBox="0 0 155 55" fill="none">
  <path fill-rule="evenodd" clip-rule="evenodd" d="M108.874 42.2397V45.6485H98.7903V42.2397H102.116V35.5226H98.7903V32.1138H105.547V42.2406H108.873L108.874 42.2397ZM105.548 28.7269H102.145V25.3711H105.548V28.7269ZM123.644 42.2401L123.624 38.9071H133.558V35.523H136.884V32.137H133.558V28.7282H123.475V32.137H120.149V42.2401H123.579V45.6489H133.452L135.819 42.2401H123.644ZM123.553 35.5175V32.1389H123.554H133.453L133.476 35.5175H123.553ZM142.015 28.7485H138.586V32.1326H142.015V28.7485ZM151.568 45.6247H141.912L138.586 42.2405V35.5043H142.018V42.2405H151.568V35.5043H154.999V42.2405L151.568 45.6247ZM151.57 28.7485H154.999V32.1326H151.57V28.7485ZM155 45.6251V50.7274L151.67 54.1125H140.917V50.6753H151.565V45.6251H155ZM95.3863 45.6498V32.0858H95.3854L91.7303 28.7282H87.9894V32.0858L84.3343 28.7282H77.3727V32.1389V45.6498H80.8042V32.1389H84.6638V45.6498H88.0953V32.1389H91.9549V45.6498H95.3863ZM73.9706 32.1976V28.7622H70.6441V25.3781H59.2826V28.7622H55.957V33.4996L59.2835 36.9103H70.5382V42.2448H59.3885V38.836H55.957V42.2713H59.2826V45.6555H70.6441V42.2713H73.9706V36.8838H73.9441L70.6441 33.4996H59.3885V28.7887H70.5392V32.1976H73.9706ZM118.447 45.6486V42.2397H113.978V25.3712H110.575V42.2644L113.901 45.6486H118.447Z" fill="white"/>
  <path fill-rule="evenodd" clip-rule="evenodd" d="M91.78 6.69878V10.1387H88.3458V16.8375H91.78V20.2774H88.3458L84.9116 17.0185V10.1387H81.4783V6.69878H84.9116V0H88.3458V6.69878H91.78ZM105.517 16.8378V20.2777H95.2144V16.8378H105.517ZM66.2596 6.51867H62.8254H59.3912V2.19318e-05H55.957V6.51867L59.3912 9.95859H55.957V17.0185L59.3912 20.2774H62.8254H66.3509V16.8375H69.6938V13.3976V9.95859L66.2596 6.51867ZM59.3912 9.95859H62.8254H66.2596V13.3976V16.8375H62.8254H59.3912V9.95859ZM81.4787 20.2774V16.8375H81.4778H78.1523V6.69878H71.3952V10.1506H74.7208V16.8375H71.3952V20.2774H81.4787ZM74.75 3.35579H78.1532V0H74.75V3.35579Z" fill="white"/>
  <path fill-rule="evenodd" clip-rule="evenodd" d="M3.78411 7.56818V15.1364V15.1387H1.90735e-05V34.0591H3.78411V41.625H7.5682V45.4091H11.3523V49.1932H34.0545V45.4489H37.8386V41.6437H41.6226V34.0568H45.4067V15.1364H41.6226V7.56818H37.8386V3.76532H34.0545V0H11.3523V3.78409H7.5682V7.56818H3.78411ZM11.3523 18.9228V18.9204V15.1387H15.134V7.57052H18.9181V3.78643H34.0545V7.59398H37.8386V15.1551H41.6226V34.0451H37.8386V41.6226H34.0545V45.4067H18.9181V41.6226H15.134V34.0568H11.3523V18.9228ZM36.4384 16.1734H32.1476V23.9973H36.4384V16.1734ZM24.6097 16.1734H20.3189V23.9973H24.6097V16.1734ZM23.2601 32.6022H25.8712V34.0567H29.5661V32.6022H31.9403V28.8181H35.722V32.6022H33.3479V36.3863H29.5661V37.8408H25.7844V36.3863H22.0871V32.6022H19.4807V28.8181H23.2601V32.6022Z" fill="white"/>
</svg>