<svg width="253" height="88" viewBox="0 0 253 88" fill="none" xmlns="http://www.w3.org/2000/svg">
<path fill-rule="evenodd" clip-rule="evenodd" d="M177.055 68.6922V74.2357H160.657V68.6922H166.065V57.7686H160.657V52.225H171.645V68.6936H177.054L177.055 68.6922ZM171.647 46.7171H166.112V41.2598H171.647V46.7171ZM201.075 68.6928L201.043 63.2726H217.198V57.7692H222.606V52.2628H217.198V46.7192H200.799V52.2628H195.391V68.6928H200.969V74.2364H217.025L220.875 68.6928H201.075ZM200.927 57.7603V52.2658H200.929H217.027L217.064 57.7603H200.927ZM230.951 46.7522H225.374V52.2556H230.951V46.7522ZM246.486 74.197H230.783L225.375 68.6936V57.7388H230.955V68.6936H246.486V57.7388H252.067V68.6936L246.486 74.197ZM246.489 46.7522H252.066V52.2556H246.489V46.7522ZM252.068 74.1978V82.4953L246.652 88.0002H229.166V82.4105H246.481V74.1978H252.068ZM155.121 74.2379V52.1795H155.12L149.176 46.7192H143.092V52.1795L137.148 46.7192H125.827V52.2658V74.2379H131.407V52.2658H137.684V74.2379H143.264V52.2658H149.541V74.2379H155.121ZM120.294 52.3613V46.7746H114.884V41.2711H96.4078V46.7746H90.9996V54.4788L96.4092 60.0253H114.712V68.7006H96.58V63.157H90.9996V68.7437H96.4078V74.2471H114.884V68.7437H120.294V59.9822H120.251L114.884 54.4788H96.58V46.8177H114.714V52.3613H120.294ZM192.623 74.2359V68.6923H185.356V41.2599H179.822V68.7324L185.23 74.2359H192.623Z" fill="white"/>
<path fill-rule="evenodd" clip-rule="evenodd" d="M107.754 10.6009H102.169H96.5844V0H90.9996V10.6009L96.5844 16.195H90.9996V27.6763L96.5844 32.976H102.169H107.903V27.3818H113.339V21.7877V16.195L107.754 10.6009ZM96.5844 16.195H102.169H107.754V21.7877V27.3818H102.169H96.5844V16.195ZM149.257 10.8938V16.488H143.672V27.3818H149.257V32.976H143.672L138.087 27.6763V16.488H132.503V10.8938H138.087V0H143.672V10.8938H149.257ZM171.596 27.3823V32.9765H154.842V27.3823H171.596ZM132.504 32.976V27.3818H132.503H127.095V10.8938H116.106V16.5073H121.514V27.3818H116.106V32.976H132.504ZM121.562 5.45733H127.096V0H121.562V5.45733Z" fill="white"/>
<path fill-rule="evenodd" clip-rule="evenodd" d="M6.15385 12.3077V24.6154V24.6192H7.62939e-06V55.3884H6.15385V67.6923H12.3077V73.8462H18.4615V80H55.3808V73.911H61.5347V67.7228H67.6885V55.3846H73.8423V24.6154H67.6885V12.3077H61.5347V6.12332H55.3808V0H18.4615V6.15385H12.3077V12.3077H6.15385ZM18.4615 30.773V30.7692V24.6192H24.6116V12.3115H30.7654V6.15766H55.3808V12.3497H61.5347V24.6459H67.6885V55.3655H61.5347V67.6885H55.3808V73.8423H30.7654V67.6885H24.6116V55.3846H18.4615V30.773ZM59.2572 26.3019H52.2792V39.0254H59.2572V26.3019ZM40.0208 26.3019H33.0429V39.0254H40.0208V26.3019ZM37.8261 53.0191H42.0723V55.3845H48.0812V53.0191H51.9421V46.8652H58.0922V53.0191H54.2312V59.1729H48.0812V61.5383H41.9312V59.1729H35.9185V53.0191H31.6798V46.8652H37.8261V53.0191Z" fill="white"/>
</svg>
