<svg width="123" height="20" viewBox="0 0 123 20" fill="none" xmlns="http://www.w3.org/2000/svg">
<path fill-rule="evenodd" clip-rule="evenodd" d="M0 0H5H9V2H5V18H9V20H5H0V0Z" fill="currentColor"/>
<path d="M102.25 16.125V10.875H100.5V9.125H98.75V3.875H102.25V9.125H105.75V3.875H109.25V9.125H107.5V10.875H105.75V16.125H102.25Z" fill="currentColor"/>
<path d="M90 10.875V9.125H91.75V5.625H86.5V10.875H90ZM83 16.125V3.875H93.5V5.625H95.25V10.875H91.75V12.625H93.5V14.375H95.25V16.125H90V14.375H88.25V12.625H86.5V16.125H83Z" fill="currentColor"/>
<path d="M77.75 14.375V5.625H72.5V14.375H77.75ZM70.75 16.125V14.375H69V5.625H70.75V3.875H79.5V5.625H81.25V14.375H79.5V16.125H70.75Z" fill="currentColor"/>
<path d="M60.25 16.125V5.625H56.75V3.875H67.25V5.625H63.75V16.125H60.25Z" fill="currentColor"/>
<path d="M42.75 16.125V14.375H41V12.625H44.5V14.375H49.75V10.875H42.75V9.125H41V5.625H42.75V3.875H49.75V5.625H51.5V7.375H48V5.625H44.5V9.125H51.5V10.875H53.25V14.375H51.5V16.125H42.75Z" fill="currentColor"/>
<path d="M28.75 16.125V14.375H32.25V5.625H28.75V3.875H39.25V5.625H35.75V14.375H39.25V16.125H28.75Z" fill="currentColor"/>
<path d="M13 16.125V3.875H16.5V9.125H21.75V3.875H25.25V16.125H21.75V10.875H16.5V16.125H13Z" fill="currentColor"/>
<path fill-rule="evenodd" clip-rule="evenodd" d="M122.25 0H117.25H113.25V2H117.25V18H113.25V20H117.25H122.25V0Z" fill="currentColor"/>
</svg>
