<svg xmlns="http://www.w3.org/2000/svg" width="18" height="26" viewBox="0 0 18 26" fill="none">
  <path d="M9.96728 0.347656H7.52051V2.80143H9.96728V0.347656Z" fill="#FFF500"/>
  <path d="M9.96728 20.5059H7.52051V22.9596H9.96728V20.5059Z" fill="#FFF500"/>
  <path d="M9.96728 2.80176H7.52051V5.61407H9.96728V2.80176Z" fill="#FFF500"/>
  <path d="M9.96728 5.61377H7.52051V8.42607H9.96728V5.61377Z" fill="#FFF500"/>
  <path d="M9.96728 8.42773H7.52051V11.5636H9.96728V8.42773Z" fill="#FFF500"/>
  <path d="M12.4141 8.13965H9.96729V11.4609H12.4141V8.13965Z" fill="#FFF500"/>
  <path d="M12.4141 4.81982H9.96729V8.14107H12.4141V4.81982Z" fill="#FFF500"/>
  <path d="M12.4141 11.4604H9.96729V14.7817H12.4141V11.4604Z" fill="#FFF500"/>
  <path d="M12.4141 14.7798H9.96729V18.101H12.4141V14.7798Z" fill="#FFF500"/>
  <path d="M14.8589 14.5176H12.4121V17.3124H14.8589V14.5176Z" fill="#FFF500"/>
  <path d="M14.8589 11.7227H12.4121V14.5175H14.8589V11.7227Z" fill="#FFF500"/>
  <path d="M17.3057 11.5635H14.8589V14.6766H17.3057V11.5635Z" fill="#FFF500"/>
  <path d="M14.8589 8.92822H12.4121V11.723H14.8589V8.92822Z" fill="#FFF500"/>
  <path d="M7.52271 4.81982H5.07593V8.45064H7.52271V4.81982Z" fill="#FFF500"/>
  <path d="M5.07568 8.92822H2.62891V11.5639H5.07568V8.92822Z" fill="#FFF500"/>
  <path d="M2.63062 11.5635H0.183838V14.6766H2.63062V11.5635Z" fill="#FFF500"/>
  <path d="M5.07568 14.6768H2.62891V17.3124H5.07568V14.6768Z" fill="#FFF500"/>
  <path d="M9.96728 14.6768H7.52051V17.3334H9.96728V14.6768Z" fill="#FFF500"/>
  <path d="M9.96728 17.3335H7.52051V20.5061H9.96728V17.3335Z" fill="#FFF500"/>
  <path d="M9.96728 22.9595H7.52051V25.7718H9.96728V22.9595Z" fill="#FFF500"/>
  <path d="M12.4141 18.1011H9.96729V21.4223H12.4141V18.1011Z" fill="#FFF500"/>
  <path d="M7.52271 17.79H5.07593V21.4209H7.52271V17.79Z" fill="#FFF500"/>
</svg>