<svg xmlns="http://www.w3.org/2000/svg" width="14" height="7" viewBox="0 0 14 7" fill="none">
  <path d="M3.25234 6.7632C2.82034 6.7632 2.42834 6.6872 2.07634 6.5352C1.73234 6.3832 1.43634 6.1672 1.18834 5.8872C0.948336 5.5992 0.764336 5.2592 0.636336 4.8672C0.508336 4.4672 0.444336 4.0192 0.444336 3.5232C0.444336 3.0352 0.508336 2.5912 0.636336 2.1912C0.764336 1.7912 0.948336 1.4512 1.18834 1.1712C1.43634 0.883203 1.73234 0.663203 2.07634 0.511203C2.42834 0.359203 2.82034 0.283203 3.25234 0.283203C3.68434 0.283203 4.07234 0.359203 4.41634 0.511203C4.76834 0.663203 5.06434 0.883203 5.30434 1.1712C5.55234 1.4512 5.74034 1.7912 5.86834 2.1912C5.99634 2.5912 6.06034 3.0352 6.06034 3.5232C6.06034 4.0192 5.99634 4.4672 5.86834 4.8672C5.74034 5.2592 5.55234 5.5992 5.30434 5.8872C5.06434 6.1672 4.76834 6.3832 4.41634 6.5352C4.07234 6.6872 3.68434 6.7632 3.25234 6.7632ZM3.25234 5.9352C3.78834 5.9352 4.22034 5.7752 4.54834 5.4552C4.87634 5.1352 5.04034 4.6392 5.04034 3.9672V3.0792C5.04034 2.4072 4.87634 1.9112 4.54834 1.5912C4.22034 1.2712 3.78834 1.1112 3.25234 1.1112C2.71634 1.1112 2.28434 1.2712 1.95634 1.5912C1.62834 1.9112 1.46434 2.4072 1.46434 3.0792V3.9672C1.46434 4.6392 1.62834 5.1352 1.95634 5.4552C2.28434 5.7752 2.71634 5.9352 3.25234 5.9352Z" fill="white" fill-opacity="0.2"/>
  <path d="M7.77165 5.8032H9.58365V1.2432H7.77165V0.427203H10.5436V1.9872H10.6036C10.7316 1.4992 10.9716 1.1192 11.3236 0.847203C11.6836 0.567203 12.1396 0.427203 12.6916 0.427203H13.5556V1.3872H12.3916C11.8396 1.3872 11.3916 1.5472 11.0476 1.8672C10.7116 2.1872 10.5436 2.6072 10.5436 3.1272V5.8032H12.9436V6.6192H7.77165V5.8032Z" fill="white" fill-opacity="0.2"/>
</svg>