<svg width="20" height="25" viewBox="0 0 20 25" fill="none" xmlns="http://www.w3.org/2000/svg">
<g id="Group 177850">
<g id="bitGem Grey">
<path id="Vector" d="M8.83317 0H6.75V2.08317H8.83317V0Z" fill="#41EAB7"/>
<path id="Vector_2" d="M10.9172 0H8.83398V2.08317H10.9172V0Z" fill="#009177"/>
<path id="Vector_3" d="M13.0002 0H10.917V2.08317H13.0002V0Z" fill="#2D43B4"/>
<path id="Vector_4" d="M6.75016 2.08398H4.66699V4.16715H6.75016V2.08398Z" fill="#7DD0FF"/>
<path id="Vector_5" d="M8.83317 2.08398H6.75V4.16715H8.83317V2.08398Z" fill="#41EAB7"/>
<path id="Vector_6" d="M10.9172 2.08398H8.83398V4.16715H10.9172V2.08398Z" fill="#41EAB7"/>
<path id="Vector_7" d="M13.0002 2.08398H10.917V4.16715H13.0002V2.08398Z" fill="#7DD0FF"/>
<path id="Vector_8" d="M15.0832 2.08398H13V4.16715H15.0832V2.08398Z" fill="#2D43B4"/>
<path id="Vector_9" d="M4.66618 4.16699H2.58301V6.25016H4.66618V4.16699Z" fill="#7DD0FF"/>
<path id="Vector_10" d="M6.75016 4.16699H4.66699V6.25016H6.75016V4.16699Z" fill="#7DD0FF"/>
<path id="Vector_11" d="M8.83317 4.16699H6.75V6.25016H8.83317V4.16699Z" fill="#009177"/>
<path id="Vector_12" d="M10.9172 4.16699H8.83398V6.25016H10.9172V4.16699Z" fill="#2D43B4"/>
<path id="Vector_13" d="M13.0002 4.16699H10.917V6.25016H13.0002V4.16699Z" fill="#2D43B4"/>
<path id="Vector_14" d="M15.0832 4.16699H13V6.25016H15.0832V4.16699Z" fill="#7DD0FF"/>
<path id="Vector_15" d="M17.1672 4.16699H15.084V6.25016H17.1672V4.16699Z" fill="#2D43B4"/>
<path id="Vector_16" d="M4.66618 6.25H2.58301V8.33317H4.66618V6.25Z" fill="#009177"/>
<path id="Vector_17" d="M6.75016 6.25H4.66699V8.33317H6.75016V6.25Z" fill="white"/>
<path id="Vector_18" d="M8.83317 6.25H6.75V8.33317H8.83317V6.25Z" fill="#009177"/>
<path id="Vector_19" d="M10.9172 6.25H8.83398V8.33317H10.9172V6.25Z" fill="#009177"/>
<path id="Vector_20" d="M13.0002 6.25H10.917V8.33317H13.0002V6.25Z" fill="#2D43B4"/>
<path id="Vector_21" d="M15.0832 6.25H13V8.33317H15.0832V6.25Z" fill="#41EAB7"/>
<path id="Vector_22" d="M17.1672 6.25H15.084V8.33317H17.1672V6.25Z" fill="#009177"/>
<path id="Vector_23" d="M2.58317 8.33398H0.5V10.4172H2.58317V8.33398Z" fill="#7DD0FF"/>
<path id="Vector_24" d="M4.66618 8.33398H2.58301V10.4172H4.66618V8.33398Z" fill="white"/>
<path id="Vector_25" d="M6.75016 8.33398H4.66699V10.4172H6.75016V8.33398Z" fill="#41EAB7"/>
<path id="Vector_26" d="M8.83317 8.33398H6.75V10.4172H8.83317V8.33398Z" fill="#41EAB7"/>
<path id="Vector_27" d="M10.9172 8.33398H8.83398V10.4172H10.9172V8.33398Z" fill="#009177"/>
<path id="Vector_28" d="M13.0002 8.33398H10.917V10.4172H13.0002V8.33398Z" fill="#009177"/>
<path id="Vector_29" d="M15.0832 8.33398H13V10.4172H15.0832V8.33398Z" fill="#2D43B4"/>
<path id="Vector_30" d="M17.1672 8.33398H15.084V10.4172H17.1672V8.33398Z" fill="#41EAB7"/>
<path id="Vector_31" d="M19.2502 8.33398H17.167V10.4172H19.2502V8.33398Z" fill="#2D43B4"/>
<path id="Vector_32" d="M2.58317 10.417H0.5V12.5002H2.58317V10.417Z" fill="#009177"/>
<path id="Vector_33" d="M4.66618 10.417H2.58301V12.5002H4.66618V10.417Z" fill="#7DD0FF"/>
<path id="Vector_34" d="M6.75016 10.417H4.66699V12.5002H6.75016V10.417Z" fill="#009177"/>
<path id="Vector_35" d="M8.83317 10.417H6.75V12.5002H8.83317V10.417Z" fill="#41EAB7"/>
<path id="Vector_36" d="M10.9172 10.417H8.83398V12.5002H10.9172V10.417Z" fill="#41EAB7"/>
<path id="Vector_37" d="M13.0002 10.417H10.917V12.5002H13.0002V10.417Z" fill="#009177"/>
<path id="Vector_38" d="M15.0832 10.417H13V12.5002H15.0832V10.417Z" fill="#009177"/>
<path id="Vector_39" d="M17.1672 10.417H15.084V12.5002H17.1672V10.417Z" fill="#7DD0FF"/>
<path id="Vector_40" d="M19.2502 10.417H17.167V12.5002H19.2502V10.417Z" fill="#41EAB7"/>
<path id="Vector_41" d="M2.58317 12.5H0.5V14.5832H2.58317V12.5Z" fill="#009177"/>
<path id="Vector_42" d="M4.66618 12.5H2.58301V14.5832H4.66618V12.5Z" fill="#41EAB7"/>
<path id="Vector_43" d="M6.75016 12.5H4.66699V14.5832H6.75016V12.5Z" fill="#009177"/>
<path id="Vector_44" d="M8.83317 12.5H6.75V14.5832H8.83317V12.5Z" fill="#009177"/>
<path id="Vector_45" d="M10.9172 12.5H8.83398V14.5832H10.9172V12.5Z" fill="#41EAB7"/>
<path id="Vector_46" d="M13.0002 12.5H10.917V14.5832H13.0002V12.5Z" fill="#41EAB7"/>
<path id="Vector_47" d="M15.0832 12.5H13V14.5832H15.0832V12.5Z" fill="#009177"/>
<path id="Vector_48" d="M17.1672 12.5H15.084V14.5832H17.1672V12.5Z" fill="#7DD0FF"/>
<path id="Vector_49" d="M19.2502 12.5H17.167V14.5832H19.2502V12.5Z" fill="#41EAB7"/>
<path id="Vector_50" d="M2.58317 14.584H0.5V16.6672H2.58317V14.584Z" fill="#2D43B4"/>
<path id="Vector_51" d="M4.66618 14.584H2.58301V16.6672H4.66618V14.584Z" fill="#41EAB7"/>
<path id="Vector_52" d="M6.75016 14.584H4.66699V16.6672H6.75016V14.584Z" fill="#2D43B4"/>
<path id="Vector_53" d="M8.83317 14.584H6.75V16.6672H8.83317V14.584Z" fill="#009177"/>
<path id="Vector_54" d="M10.9172 14.584H8.83398V16.6672H10.9172V14.584Z" fill="#009177"/>
<path id="Vector_55" d="M13.0002 14.584H10.917V16.6672H13.0002V14.584Z" fill="#41EAB7"/>
<path id="Vector_56" d="M15.0832 14.584H13V16.6672H15.0832V14.584Z" fill="#41EAB7"/>
<path id="Vector_57" d="M17.1672 14.584H15.084V16.6672H17.1672V14.584Z" fill="#7DD0FF"/>
<path id="Vector_58" d="M19.2502 14.584H17.167V16.6672H19.2502V14.584Z" fill="#41EAB7"/>
<path id="Vector_59" d="M4.66618 16.667H2.58301V18.7502H4.66618V16.667Z" fill="#009177"/>
<path id="Vector_60" d="M6.75016 16.667H4.66699V18.7502H6.75016V16.667Z" fill="#41EAB7"/>
<path id="Vector_61" d="M8.83317 16.667H6.75V18.7502H8.83317V16.667Z" fill="#2D43B4"/>
<path id="Vector_62" d="M10.9172 16.667H8.83398V18.7502H10.9172V16.667Z" fill="#009177"/>
<path id="Vector_63" d="M13.0002 16.667H10.917V18.7502H13.0002V16.667Z" fill="#009177"/>
<path id="Vector_64" d="M15.0832 16.667H13V18.7502H15.0832V16.667Z" fill="#7DD0FF"/>
<path id="Vector_65" d="M17.1672 16.667H15.084V18.7502H17.1672V16.667Z" fill="#41EAB7"/>
<path id="Vector_66" d="M4.66618 18.75H2.58301V20.8332H4.66618V18.75Z" fill="#2D43B4"/>
<path id="Vector_67" d="M6.75016 18.75H4.66699V20.8332H6.75016V18.75Z" fill="#41EAB7"/>
<path id="Vector_68" d="M8.83317 18.75H6.75V20.8332H8.83317V18.75Z" fill="#2D43B4"/>
<path id="Vector_69" d="M10.9172 18.75H8.83398V20.8332H10.9172V18.75Z" fill="#2D43B4"/>
<path id="Vector_70" d="M13.0002 18.75H10.917V20.8332H13.0002V18.75Z" fill="#009177"/>
<path id="Vector_71" d="M15.0832 18.75H13V20.8332H15.0832V18.75Z" fill="white"/>
<path id="Vector_72" d="M17.1672 18.75H15.084V20.8332H17.1672V18.75Z" fill="#41EAB7"/>
<path id="Vector_73" d="M6.75016 20.8335H4.66699V22.9167H6.75016V20.8335Z" fill="#2D43B4"/>
<path id="Vector_74" d="M8.83317 20.8335H6.75V22.9167H8.83317V20.8335Z" fill="#41EAB7"/>
<path id="Vector_75" d="M10.9172 20.8335H8.83398V22.9167H10.9172V20.8335Z" fill="#7DD0FF"/>
<path id="Vector_76" d="M13.0002 20.8335H10.917V22.9167H13.0002V20.8335Z" fill="#7DD0FF"/>
<path id="Vector_77" d="M15.0832 20.8335H13V22.9167H15.0832V20.8335Z" fill="#41EAB7"/>
<path id="Vector_78" d="M8.83317 22.917H6.75V25.0002H8.83317V22.917Z" fill="#2D43B4"/>
<path id="Vector_79" d="M10.9172 22.917H8.83398V25.0002H10.9172V22.917Z" fill="#009177"/>
<path id="Vector_80" d="M13.0002 22.917H10.917V25.0002H13.0002V22.917Z" fill="#41EAB7"/>
</g>
<g id="bitGem Color">
<path id="Vector_81" d="M8.83317 0H6.75V2.08317H8.83317V0Z" fill="#41EAB7"/>
<path id="Vector_82" d="M10.9172 0H8.83398V2.08317H10.9172V0Z" fill="#009177"/>
<path id="Vector_83" d="M13.0002 0H10.917V2.08317H13.0002V0Z" fill="#2D43B4"/>
<path id="Vector_84" d="M6.75016 2.08398H4.66699V4.16715H6.75016V2.08398Z" fill="#7DD0FF"/>
<path id="Vector_85" d="M8.83317 2.08398H6.75V4.16715H8.83317V2.08398Z" fill="#41EAB7"/>
<path id="Vector_86" d="M10.9172 2.08398H8.83398V4.16715H10.9172V2.08398Z" fill="#41EAB7"/>
<path id="Vector_87" d="M13.0002 2.08398H10.917V4.16715H13.0002V2.08398Z" fill="#7DD0FF"/>
<path id="Vector_88" d="M15.0832 2.08398H13V4.16715H15.0832V2.08398Z" fill="#2D43B4"/>
<path id="Vector_89" d="M4.66618 4.16699H2.58301V6.25016H4.66618V4.16699Z" fill="#7DD0FF"/>
<path id="Vector_90" d="M6.75016 4.16699H4.66699V6.25016H6.75016V4.16699Z" fill="#7DD0FF"/>
<path id="Vector_91" d="M8.83317 4.16699H6.75V6.25016H8.83317V4.16699Z" fill="#009177"/>
<path id="Vector_92" d="M10.9172 4.16699H8.83398V6.25016H10.9172V4.16699Z" fill="#2D43B4"/>
<path id="Vector_93" d="M13.0002 4.16699H10.917V6.25016H13.0002V4.16699Z" fill="#2D43B4"/>
<path id="Vector_94" d="M15.0832 4.16699H13V6.25016H15.0832V4.16699Z" fill="#7DD0FF"/>
<path id="Vector_95" d="M17.1672 4.16699H15.084V6.25016H17.1672V4.16699Z" fill="#2D43B4"/>
<path id="Vector_96" d="M4.66618 6.25H2.58301V8.33317H4.66618V6.25Z" fill="#009177"/>
<path id="Vector_97" d="M6.75016 6.25H4.66699V8.33317H6.75016V6.25Z" fill="white"/>
<path id="Vector_98" d="M8.83317 6.25H6.75V8.33317H8.83317V6.25Z" fill="#009177"/>
<path id="Vector_99" d="M10.9172 6.25H8.83398V8.33317H10.9172V6.25Z" fill="#009177"/>
<path id="Vector_100" d="M13.0002 6.25H10.917V8.33317H13.0002V6.25Z" fill="#2D43B4"/>
<path id="Vector_101" d="M15.0832 6.25H13V8.33317H15.0832V6.25Z" fill="#41EAB7"/>
<path id="Vector_102" d="M17.1672 6.25H15.084V8.33317H17.1672V6.25Z" fill="#009177"/>
<path id="Vector_103" d="M2.58317 8.33398H0.5V10.4172H2.58317V8.33398Z" fill="#7DD0FF"/>
<path id="Vector_104" d="M4.66618 8.33398H2.58301V10.4172H4.66618V8.33398Z" fill="white"/>
<path id="Vector_105" d="M6.75016 8.33398H4.66699V10.4172H6.75016V8.33398Z" fill="#41EAB7"/>
<path id="Vector_106" d="M8.83317 8.33398H6.75V10.4172H8.83317V8.33398Z" fill="#41EAB7"/>
<path id="Vector_107" d="M10.9172 8.33398H8.83398V10.4172H10.9172V8.33398Z" fill="#009177"/>
<path id="Vector_108" d="M13.0002 8.33398H10.917V10.4172H13.0002V8.33398Z" fill="#009177"/>
<path id="Vector_109" d="M15.0832 8.33398H13V10.4172H15.0832V8.33398Z" fill="#2D43B4"/>
<path id="Vector_110" d="M17.1672 8.33398H15.084V10.4172H17.1672V8.33398Z" fill="#41EAB7"/>
<path id="Vector_111" d="M19.2502 8.33398H17.167V10.4172H19.2502V8.33398Z" fill="#2D43B4"/>
<path id="Vector_112" d="M2.58317 10.417H0.5V12.5002H2.58317V10.417Z" fill="#009177"/>
<path id="Vector_113" d="M4.66618 10.417H2.58301V12.5002H4.66618V10.417Z" fill="#7DD0FF"/>
<path id="Vector_114" d="M6.75016 10.417H4.66699V12.5002H6.75016V10.417Z" fill="#009177"/>
<path id="Vector_115" d="M8.83317 10.417H6.75V12.5002H8.83317V10.417Z" fill="#41EAB7"/>
<path id="Vector_116" d="M10.9172 10.417H8.83398V12.5002H10.9172V10.417Z" fill="#41EAB7"/>
<path id="Vector_117" d="M13.0002 10.417H10.917V12.5002H13.0002V10.417Z" fill="#009177"/>
<path id="Vector_118" d="M15.0832 10.417H13V12.5002H15.0832V10.417Z" fill="#009177"/>
<path id="Vector_119" d="M17.1672 10.417H15.084V12.5002H17.1672V10.417Z" fill="#7DD0FF"/>
<path id="Vector_120" d="M19.2502 10.417H17.167V12.5002H19.2502V10.417Z" fill="#41EAB7"/>
<path id="Vector_121" d="M2.58317 12.5H0.5V14.5832H2.58317V12.5Z" fill="#009177"/>
<path id="Vector_122" d="M4.66618 12.5H2.58301V14.5832H4.66618V12.5Z" fill="#41EAB7"/>
<path id="Vector_123" d="M6.75016 12.5H4.66699V14.5832H6.75016V12.5Z" fill="#009177"/>
<path id="Vector_124" d="M8.83317 12.5H6.75V14.5832H8.83317V12.5Z" fill="#009177"/>
<path id="Vector_125" d="M10.9172 12.5H8.83398V14.5832H10.9172V12.5Z" fill="#41EAB7"/>
<path id="Vector_126" d="M13.0002 12.5H10.917V14.5832H13.0002V12.5Z" fill="#41EAB7"/>
<path id="Vector_127" d="M15.0832 12.5H13V14.5832H15.0832V12.5Z" fill="#009177"/>
<path id="Vector_128" d="M17.1672 12.5H15.084V14.5832H17.1672V12.5Z" fill="#7DD0FF"/>
<path id="Vector_129" d="M19.2502 12.5H17.167V14.5832H19.2502V12.5Z" fill="#41EAB7"/>
<path id="Vector_130" d="M2.58317 14.584H0.5V16.6672H2.58317V14.584Z" fill="#2D43B4"/>
<path id="Vector_131" d="M4.66618 14.584H2.58301V16.6672H4.66618V14.584Z" fill="#41EAB7"/>
<path id="Vector_132" d="M6.75016 14.584H4.66699V16.6672H6.75016V14.584Z" fill="#2D43B4"/>
<path id="Vector_133" d="M8.83317 14.584H6.75V16.6672H8.83317V14.584Z" fill="#009177"/>
<path id="Vector_134" d="M10.9172 14.584H8.83398V16.6672H10.9172V14.584Z" fill="#009177"/>
<path id="Vector_135" d="M13.0002 14.584H10.917V16.6672H13.0002V14.584Z" fill="#41EAB7"/>
<path id="Vector_136" d="M15.0832 14.584H13V16.6672H15.0832V14.584Z" fill="#41EAB7"/>
<path id="Vector_137" d="M17.1672 14.584H15.084V16.6672H17.1672V14.584Z" fill="#7DD0FF"/>
<path id="Vector_138" d="M19.2502 14.584H17.167V16.6672H19.2502V14.584Z" fill="#41EAB7"/>
<path id="Vector_139" d="M4.66618 16.667H2.58301V18.7502H4.66618V16.667Z" fill="#009177"/>
<path id="Vector_140" d="M6.75016 16.667H4.66699V18.7502H6.75016V16.667Z" fill="#41EAB7"/>
<path id="Vector_141" d="M8.83317 16.667H6.75V18.7502H8.83317V16.667Z" fill="#2D43B4"/>
<path id="Vector_142" d="M10.9172 16.667H8.83398V18.7502H10.9172V16.667Z" fill="#009177"/>
<path id="Vector_143" d="M13.0002 16.667H10.917V18.7502H13.0002V16.667Z" fill="#009177"/>
<path id="Vector_144" d="M15.0832 16.667H13V18.7502H15.0832V16.667Z" fill="#7DD0FF"/>
<path id="Vector_145" d="M17.1672 16.667H15.084V18.7502H17.1672V16.667Z" fill="#41EAB7"/>
<path id="Vector_146" d="M4.66618 18.75H2.58301V20.8332H4.66618V18.75Z" fill="#2D43B4"/>
<path id="Vector_147" d="M6.75016 18.75H4.66699V20.8332H6.75016V18.75Z" fill="#41EAB7"/>
<path id="Vector_148" d="M8.83317 18.75H6.75V20.8332H8.83317V18.75Z" fill="#2D43B4"/>
<path id="Vector_149" d="M10.9172 18.75H8.83398V20.8332H10.9172V18.75Z" fill="#2D43B4"/>
<path id="Vector_150" d="M13.0002 18.75H10.917V20.8332H13.0002V18.75Z" fill="#009177"/>
<path id="Vector_151" d="M15.0832 18.75H13V20.8332H15.0832V18.75Z" fill="white"/>
<path id="Vector_152" d="M17.1672 18.75H15.084V20.8332H17.1672V18.75Z" fill="#41EAB7"/>
<path id="Vector_153" d="M6.75016 20.8335H4.66699V22.9167H6.75016V20.8335Z" fill="#2D43B4"/>
<path id="Vector_154" d="M8.83317 20.8335H6.75V22.9167H8.83317V20.8335Z" fill="#41EAB7"/>
<path id="Vector_155" d="M10.9172 20.8335H8.83398V22.9167H10.9172V20.8335Z" fill="#7DD0FF"/>
<path id="Vector_156" d="M13.0002 20.8335H10.917V22.9167H13.0002V20.8335Z" fill="#7DD0FF"/>
<path id="Vector_157" d="M15.0832 20.8335H13V22.9167H15.0832V20.8335Z" fill="#41EAB7"/>
<path id="Vector_158" d="M8.83317 22.917H6.75V25.0002H8.83317V22.917Z" fill="#2D43B4"/>
<path id="Vector_159" d="M10.9172 22.917H8.83398V25.0002H10.9172V22.917Z" fill="#009177"/>
<path id="Vector_160" d="M13.0002 22.917H10.917V25.0002H13.0002V22.917Z" fill="#41EAB7"/>
</g>
</g>
</svg>
