<svg width="27" height="33" viewBox="0 0 27 33" fill="none" xmlns="http://www.w3.org/2000/svg">
<g id="Group 177845">
<g id="Group 177844">
<g id="Group">
<path id="Vector" d="M14.5832 4V2H12.5832H10.5H8.5V4V6.08317V8.08317H10.5H12.5832H14.5832V6.08317V4Z" fill="#FFD600" stroke="#0D0D0D" stroke-width="4"/>
<path id="Vector_2" d="M16.6667 4V2H14.6667H12.5835H10.5835V4V6.08317V8.08317H12.5835H14.6667H16.6667V6.08317V4Z" fill="#910000" stroke="#0D0D0D" stroke-width="4"/>
<path id="Vector_3" d="M18.7502 4V2H16.7502H14.667H12.667V4V6.08317V8.08317H14.667H16.7502H18.7502V6.08317V4Z" fill="#B4662D" stroke="#0D0D0D" stroke-width="4"/>
<path id="Vector_4" d="M12.5002 6.08374V4.08374H10.5002H8.41699H6.41699V6.08374V8.16691V10.1669H8.41699H10.5002H12.5002V8.16691V6.08374Z" fill="#FCFF6A" stroke="#0D0D0D" stroke-width="4"/>
<path id="Vector_5" d="M14.5832 6.08374V4.08374H12.5832H10.5H8.5V6.08374V8.16691V10.1669H10.5H12.5832H14.5832V8.16691V6.08374Z" fill="#FFD600" stroke="#0D0D0D" stroke-width="4"/>
<path id="Vector_6" d="M16.6667 6.08374V4.08374H14.6667H12.5835H10.5835V6.08374V8.16691V10.1669H12.5835H14.6667H16.6667V8.16691V6.08374Z" fill="#FFD600" stroke="#0D0D0D" stroke-width="4"/>
<path id="Vector_7" d="M18.7502 6.08374V4.08374H16.7502H14.667H12.667V6.08374V8.16691V10.1669H14.667H16.7502H18.7502V8.16691V6.08374Z" fill="#FCFF6A" stroke="#0D0D0D" stroke-width="4"/>
<path id="Vector_8" d="M20.8332 6.08374V4.08374H18.8332H16.75H14.75V6.08374V8.16691V10.1669H16.75H18.8332H20.8332V8.16691V6.08374Z" fill="#B4662D" stroke="#0D0D0D" stroke-width="4"/>
<path id="Vector_9" d="M10.4167 8.16675V6.16675H8.41667H6.3335H4.3335V8.16675V10.2499V12.2499H6.3335H8.41667H10.4167V10.2499V8.16675Z" fill="#FCFF6A" stroke="#0D0D0D" stroke-width="4"/>
<path id="Vector_10" d="M12.5002 8.16675V6.16675H10.5002H8.41699H6.41699V8.16675V10.2499V12.2499H8.41699H10.5002H12.5002V10.2499V8.16675Z" fill="#FCFF6A" stroke="#0D0D0D" stroke-width="4"/>
<path id="Vector_11" d="M14.5832 8.16675V6.16675H12.5832H10.5H8.5V8.16675V10.2499V12.2499H10.5H12.5832H14.5832V10.2499V8.16675Z" fill="#910000" stroke="#0D0D0D" stroke-width="4"/>
<path id="Vector_12" d="M16.6667 8.16675V6.16675H14.6667H12.5835H10.5835V8.16675V10.2499V12.2499H12.5835H14.6667H16.6667V10.2499V8.16675Z" fill="#B4662D" stroke="#0D0D0D" stroke-width="4"/>
<path id="Vector_13" d="M18.7502 8.16675V6.16675H16.7502H14.667H12.667V8.16675V10.2499V12.2499H14.667H16.7502H18.7502V10.2499V8.16675Z" fill="#B4662D" stroke="#0D0D0D" stroke-width="4"/>
<path id="Vector_14" d="M20.8332 8.16675V6.16675H18.8332H16.75H14.75V8.16675V10.2499V12.2499H16.75H18.8332H20.8332V10.2499V8.16675Z" fill="#FCFF6A" stroke="#0D0D0D" stroke-width="4"/>
<path id="Vector_15" d="M22.9167 8.16675V6.16675H20.9167H18.8335H16.8335V8.16675V10.2499V12.2499H18.8335H20.9167H22.9167V10.2499V8.16675Z" fill="#B4662D" stroke="#0D0D0D" stroke-width="4"/>
<path id="Vector_16" d="M10.4167 10.25V8.25H8.41667H6.3335H4.3335V10.25V12.3332V14.3332H6.3335H8.41667H10.4167V12.3332V10.25Z" fill="#910000" stroke="#0D0D0D" stroke-width="4"/>
<path id="Vector_17" d="M12.5002 10.25V8.25H10.5002H8.41699H6.41699V10.25V12.3332V14.3332H8.41699H10.5002H12.5002V12.3332V10.25Z" fill="#FFD600" stroke="#0D0D0D" stroke-width="4"/>
<path id="Vector_18" d="M14.5832 10.25V8.25H12.5832H10.5H8.5V10.25V12.3332V14.3332H10.5H12.5832H14.5832V12.3332V10.25Z" fill="#910000" stroke="#0D0D0D" stroke-width="4"/>
<path id="Vector_19" d="M16.6667 10.25V8.25H14.6667H12.5835H10.5835V10.25V12.3332V14.3332H12.5835H14.6667H16.6667V12.3332V10.25Z" fill="#910000" stroke="#0D0D0D" stroke-width="4"/>
<path id="Vector_20" d="M18.7502 10.25V8.25H16.7502H14.667H12.667V10.25V12.3332V14.3332H14.667H16.7502H18.7502V12.3332V10.25Z" fill="#B4662D" stroke="#0D0D0D" stroke-width="4"/>
<path id="Vector_21" d="M20.8332 10.25V8.25H18.8332H16.75H14.75V10.25V12.3332V14.3332H16.75H18.8332H20.8332V12.3332V10.25Z" fill="#FFD600" stroke="#0D0D0D" stroke-width="4"/>
<path id="Vector_22" d="M22.9167 10.25V8.25H20.9167H18.8335H16.8335V10.25V12.3332V14.3332H18.8335H20.9167H22.9167V12.3332V10.25Z" fill="#910000" stroke="#0D0D0D" stroke-width="4"/>
<path id="Vector_23" d="M8.33317 12.3337V10.3337H6.33317H4.25H2.25V12.3337V14.4169V16.4169H4.25H6.33317H8.33317V14.4169V12.3337Z" fill="#FCFF6A" stroke="#0D0D0D" stroke-width="4"/>
<path id="Vector_24" d="M10.4167 12.3337V10.3337H8.41667H6.3335H4.3335V12.3337V14.4169V16.4169H6.3335H8.41667H10.4167V14.4169V12.3337Z" fill="#FFD600" stroke="#0D0D0D" stroke-width="4"/>
<path id="Vector_25" d="M12.5002 12.3337V10.3337H10.5002H8.41699H6.41699V12.3337V14.4169V16.4169H8.41699H10.5002H12.5002V14.4169V12.3337Z" fill="#FFD600" stroke="#0D0D0D" stroke-width="4"/>
<path id="Vector_26" d="M14.5832 12.3337V10.3337H12.5832H10.5H8.5V12.3337V14.4169V16.4169H10.5H12.5832H14.5832V14.4169V12.3337Z" fill="#FFD600" stroke="#0D0D0D" stroke-width="4"/>
<path id="Vector_27" d="M16.6667 12.3337V10.3337H14.6667H12.5835H10.5835V12.3337V14.4169V16.4169H12.5835H14.6667H16.6667V14.4169V12.3337Z" fill="#910000" stroke="#0D0D0D" stroke-width="4"/>
<path id="Vector_28" d="M18.7502 12.3337V10.3337H16.7502H14.667H12.667V12.3337V14.4169V16.4169H14.667H16.7502H18.7502V14.4169V12.3337Z" fill="#910000" stroke="#0D0D0D" stroke-width="4"/>
<path id="Vector_29" d="M20.8332 12.3337V10.3337H18.8332H16.75H14.75V12.3337V14.4169V16.4169H16.75H18.8332H20.8332V14.4169V12.3337Z" fill="#B4662D" stroke="#0D0D0D" stroke-width="4"/>
<path id="Vector_30" d="M22.9167 12.3337V10.3337H20.9167H18.8335H16.8335V12.3337V14.4169V16.4169H18.8335H20.9167H22.9167V14.4169V12.3337Z" fill="#FFD600" stroke="#0D0D0D" stroke-width="4"/>
<path id="Vector_31" d="M25.0002 12.3337V10.3337H23.0002H20.917H18.917V12.3337V14.4169V16.4169H20.917H23.0002H25.0002V14.4169V12.3337Z" fill="#B4662D" stroke="#0D0D0D" stroke-width="4"/>
<path id="Vector_32" d="M8.33317 14.4167V12.4167H6.33317H4.25H2.25V14.4167V16.4999V18.4999H4.25H6.33317H8.33317V16.4999V14.4167Z" fill="#910000" stroke="#0D0D0D" stroke-width="4"/>
<path id="Vector_33" d="M10.4167 14.4167V12.4167H8.41667H6.3335H4.3335V14.4167V16.4999V18.4999H6.3335H8.41667H10.4167V16.4999V14.4167Z" fill="#FCFF6A" stroke="#0D0D0D" stroke-width="4"/>
<path id="Vector_34" d="M12.5002 14.4167V12.4167H10.5002H8.41699H6.41699V14.4167V16.4999V18.4999H8.41699H10.5002H12.5002V16.4999V14.4167Z" fill="#910000" stroke="#0D0D0D" stroke-width="4"/>
<path id="Vector_35" d="M14.5832 14.4167V12.4167H12.5832H10.5H8.5V14.4167V16.4999V18.4999H10.5H12.5832H14.5832V16.4999V14.4167Z" fill="#FFD600" stroke="#0D0D0D" stroke-width="4"/>
<path id="Vector_36" d="M16.6667 14.4167V12.4167H14.6667H12.5835H10.5835V14.4167V16.4999V18.4999H12.5835H14.6667H16.6667V16.4999V14.4167Z" fill="#FFD600" stroke="#0D0D0D" stroke-width="4"/>
<path id="Vector_37" d="M18.7502 14.4167V12.4167H16.7502H14.667H12.667V14.4167V16.4999V18.4999H14.667H16.7502H18.7502V16.4999V14.4167Z" fill="#910000" stroke="#0D0D0D" stroke-width="4"/>
<path id="Vector_38" d="M20.8332 14.4167V12.4167H18.8332H16.75H14.75V14.4167V16.4999V18.4999H16.75H18.8332H20.8332V16.4999V14.4167Z" fill="#910000" stroke="#0D0D0D" stroke-width="4"/>
<path id="Vector_39" d="M22.9167 14.4167V12.4167H20.9167H18.8335H16.8335V14.4167V16.4999V18.4999H18.8335H20.9167H22.9167V16.4999V14.4167Z" fill="#FCFF6A" stroke="#0D0D0D" stroke-width="4"/>
<path id="Vector_40" d="M25.0002 14.4167V12.4167H23.0002H20.917H18.917V14.4167V16.4999V18.4999H20.917H23.0002H25.0002V16.4999V14.4167Z" fill="#FFD600" stroke="#0D0D0D" stroke-width="4"/>
<path id="Vector_41" d="M8.33317 16.5V14.5H6.33317H4.25H2.25V16.5V18.5832V20.5832H4.25H6.33317H8.33317V18.5832V16.5Z" fill="#910000" stroke="#0D0D0D" stroke-width="4"/>
<path id="Vector_42" d="M10.4167 16.5V14.5H8.41667H6.3335H4.3335V16.5V18.5832V20.5832H6.3335H8.41667H10.4167V18.5832V16.5Z" fill="#FFD600" stroke="#0D0D0D" stroke-width="4"/>
<path id="Vector_43" d="M12.5002 16.5V14.5H10.5002H8.41699H6.41699V16.5V18.5832V20.5832H8.41699H10.5002H12.5002V18.5832V16.5Z" fill="#910000" stroke="#0D0D0D" stroke-width="4"/>
<path id="Vector_44" d="M14.5832 16.5V14.5H12.5832H10.5H8.5V16.5V18.5832V20.5832H10.5H12.5832H14.5832V18.5832V16.5Z" fill="#910000" stroke="#0D0D0D" stroke-width="4"/>
<path id="Vector_45" d="M16.6667 16.5V14.5H14.6667H12.5835H10.5835V16.5V18.5832V20.5832H12.5835H14.6667H16.6667V18.5832V16.5Z" fill="#FFD600" stroke="#0D0D0D" stroke-width="4"/>
<path id="Vector_46" d="M18.7502 16.5V14.5H16.7502H14.667H12.667V16.5V18.5832V20.5832H14.667H16.7502H18.7502V18.5832V16.5Z" fill="#FFD600" stroke="#0D0D0D" stroke-width="4"/>
<path id="Vector_47" d="M20.8332 16.5V14.5H18.8332H16.75H14.75V16.5V18.5832V20.5832H16.75H18.8332H20.8332V18.5832V16.5Z" fill="#910000" stroke="#0D0D0D" stroke-width="4"/>
<path id="Vector_48" d="M22.9167 16.5V14.5H20.9167H18.8335H16.8335V16.5V18.5832V20.5832H18.8335H20.9167H22.9167V18.5832V16.5Z" fill="#FCFF6A" stroke="#0D0D0D" stroke-width="4"/>
<path id="Vector_49" d="M25.0002 16.5V14.5H23.0002H20.917H18.917V16.5V18.5832V20.5832H20.917H23.0002H25.0002V18.5832V16.5Z" fill="#FFD600" stroke="#0D0D0D" stroke-width="4"/>
<path id="Vector_50" d="M8.33317 18.5837V16.5837H6.33317H4.25H2.25V18.5837V20.6669V22.6669H4.25H6.33317H8.33317V20.6669V18.5837Z" fill="#B4662D" stroke="#0D0D0D" stroke-width="4"/>
<path id="Vector_51" d="M10.4167 18.5837V16.5837H8.41667H6.3335H4.3335V18.5837V20.6669V22.6669H6.3335H8.41667H10.4167V20.6669V18.5837Z" fill="#FFD600" stroke="#0D0D0D" stroke-width="4"/>
<path id="Vector_52" d="M12.5002 18.5837V16.5837H10.5002H8.41699H6.41699V18.5837V20.6669V22.6669H8.41699H10.5002H12.5002V20.6669V18.5837Z" fill="#B4662D" stroke="#0D0D0D" stroke-width="4"/>
<path id="Vector_53" d="M14.5832 18.5837V16.5837H12.5832H10.5H8.5V18.5837V20.6669V22.6669H10.5H12.5832H14.5832V20.6669V18.5837Z" fill="#910000" stroke="#0D0D0D" stroke-width="4"/>
<path id="Vector_54" d="M16.6667 18.5837V16.5837H14.6667H12.5835H10.5835V18.5837V20.6669V22.6669H12.5835H14.6667H16.6667V20.6669V18.5837Z" fill="#910000" stroke="#0D0D0D" stroke-width="4"/>
<path id="Vector_55" d="M18.7502 18.5837V16.5837H16.7502H14.667H12.667V18.5837V20.6669V22.6669H14.667H16.7502H18.7502V20.6669V18.5837Z" fill="#FFD600" stroke="#0D0D0D" stroke-width="4"/>
<path id="Vector_56" d="M20.8332 18.5837V16.5837H18.8332H16.75H14.75V18.5837V20.6669V22.6669H16.75H18.8332H20.8332V20.6669V18.5837Z" fill="#FFD600" stroke="#0D0D0D" stroke-width="4"/>
<path id="Vector_57" d="M22.9167 18.5837V16.5837H20.9167H18.8335H16.8335V18.5837V20.6669V22.6669H18.8335H20.9167H22.9167V20.6669V18.5837Z" fill="#FCFF6A" stroke="#0D0D0D" stroke-width="4"/>
<path id="Vector_58" d="M25.0002 18.5837V16.5837H23.0002H20.917H18.917V18.5837V20.6669V22.6669H20.917H23.0002H25.0002V20.6669V18.5837Z" fill="#FFD600" stroke="#0D0D0D" stroke-width="4"/>
<path id="Vector_59" d="M10.4167 20.6667V18.6667H8.41667H6.3335H4.3335V20.6667V22.7499V24.7499H6.3335H8.41667H10.4167V22.7499V20.6667Z" fill="#910000" stroke="#0D0D0D" stroke-width="4"/>
<path id="Vector_60" d="M12.5002 20.6667V18.6667H10.5002H8.41699H6.41699V20.6667V22.7499V24.7499H8.41699H10.5002H12.5002V22.7499V20.6667Z" fill="#FFD600" stroke="#0D0D0D" stroke-width="4"/>
<path id="Vector_61" d="M14.5832 20.6667V18.6667H12.5832H10.5H8.5V20.6667V22.7499V24.7499H10.5H12.5832H14.5832V22.7499V20.6667Z" fill="#B4662D" stroke="#0D0D0D" stroke-width="4"/>
<path id="Vector_62" d="M16.6667 20.6667V18.6667H14.6667H12.5835H10.5835V20.6667V22.7499V24.7499H12.5835H14.6667H16.6667V22.7499V20.6667Z" fill="#910000" stroke="#0D0D0D" stroke-width="4"/>
<path id="Vector_63" d="M18.7502 20.6667V18.6667H16.7502H14.667H12.667V20.6667V22.7499V24.7499H14.667H16.7502H18.7502V22.7499V20.6667Z" fill="#910000" stroke="#0D0D0D" stroke-width="4"/>
<path id="Vector_64" d="M20.8332 20.6667V18.6667H18.8332H16.75H14.75V20.6667V22.7499V24.7499H16.75H18.8332H20.8332V22.7499V20.6667Z" fill="#FCFF6A" stroke="#0D0D0D" stroke-width="4"/>
<path id="Vector_65" d="M22.9167 20.6667V18.6667H20.9167H18.8335H16.8335V20.6667V22.7499V24.7499H18.8335H20.9167H22.9167V22.7499V20.6667Z" fill="#FFD600" stroke="#0D0D0D" stroke-width="4"/>
<path id="Vector_66" d="M10.4167 22.75V20.75H8.41667H6.3335H4.3335V22.75V24.8332V26.8332H6.3335H8.41667H10.4167V24.8332V22.75Z" fill="#B4662D" stroke="#0D0D0D" stroke-width="4"/>
<path id="Vector_67" d="M12.5002 22.75V20.75H10.5002H8.41699H6.41699V22.75V24.8332V26.8332H8.41699H10.5002H12.5002V24.8332V22.75Z" fill="#FFD600" stroke="#0D0D0D" stroke-width="4"/>
<path id="Vector_68" d="M14.5832 22.75V20.75H12.5832H10.5H8.5V22.75V24.8332V26.8332H10.5H12.5832H14.5832V24.8332V22.75Z" fill="#B4662D" stroke="#0D0D0D" stroke-width="4"/>
<path id="Vector_69" d="M16.6667 22.75V20.75H14.6667H12.5835H10.5835V22.75V24.8332V26.8332H12.5835H14.6667H16.6667V24.8332V22.75Z" fill="#B4662D" stroke="#0D0D0D" stroke-width="4"/>
<path id="Vector_70" d="M18.7502 22.75V20.75H16.7502H14.667H12.667V22.75V24.8332V26.8332H14.667H16.7502H18.7502V24.8332V22.75Z" fill="#910000" stroke="#0D0D0D" stroke-width="4"/>
<path id="Vector_71" d="M20.8332 22.75V20.75H18.8332H16.75H14.75V22.75V24.8332V26.8332H16.75H18.8332H20.8332V24.8332V22.75Z" fill="#FFD600" stroke="#0D0D0D" stroke-width="4"/>
<path id="Vector_72" d="M22.9167 22.75V20.75H20.9167H18.8335H16.8335V22.75V24.8332V26.8332H18.8335H20.9167H22.9167V24.8332V22.75Z" fill="#FFD600" stroke="#0D0D0D" stroke-width="4"/>
<path id="Vector_73" d="M12.5002 24.8337V22.8337H10.5002H8.41699H6.41699V24.8337V26.9169V28.9169H8.41699H10.5002H12.5002V26.9169V24.8337Z" fill="#B4662D" stroke="#0D0D0D" stroke-width="4"/>
<path id="Vector_74" d="M14.5832 24.8337V22.8337H12.5832H10.5H8.5V24.8337V26.9169V28.9169H10.5H12.5832H14.5832V26.9169V24.8337Z" fill="#FFD600" stroke="#0D0D0D" stroke-width="4"/>
<path id="Vector_75" d="M16.6667 24.8337V22.8337H14.6667H12.5835H10.5835V24.8337V26.9169V28.9169H12.5835H14.6667H16.6667V26.9169V24.8337Z" fill="#FCFF6A" stroke="#0D0D0D" stroke-width="4"/>
<path id="Vector_76" d="M18.7502 24.8337V22.8337H16.7502H14.667H12.667V24.8337V26.9169V28.9169H14.667H16.7502H18.7502V26.9169V24.8337Z" fill="#FCFF6A" stroke="#0D0D0D" stroke-width="4"/>
<path id="Vector_77" d="M20.8332 24.8337V22.8337H18.8332H16.75H14.75V24.8337V26.9169V28.9169H16.75H18.8332H20.8332V26.9169V24.8337Z" fill="#FFD600" stroke="#0D0D0D" stroke-width="4"/>
<path id="Vector_78" d="M14.5832 26.9167V24.9167H12.5832H10.5H8.5V26.9167V28.9999V30.9999H10.5H12.5832H14.5832V28.9999V26.9167Z" fill="#B4662D" stroke="#0D0D0D" stroke-width="4"/>
<path id="Vector_79" d="M16.6667 26.9167V24.9167H14.6667H12.5835H10.5835V26.9167V28.9999V30.9999H12.5835H14.6667H16.6667V28.9999V26.9167Z" fill="#910000" stroke="#0D0D0D" stroke-width="4"/>
<path id="Vector_80" d="M18.7502 26.9167V24.9167H16.7502H14.667H12.667V26.9167V28.9999V30.9999H14.667H16.7502H18.7502V28.9999V26.9167Z" fill="#FFD600" stroke="#0D0D0D" stroke-width="4"/>
</g>
<g id="Group_2">
<path id="Vector_81" d="M12.5832 4H10.5V6.08317H12.5832V4Z" fill="#FFD600"/>
<path id="Vector_82" d="M14.6667 4H12.5835V6.08317H14.6667V4Z" fill="#910000"/>
<path id="Vector_83" d="M16.7502 4H14.667V6.08317H16.7502V4Z" fill="#B4662D"/>
<path id="Vector_84" d="M10.5002 6.08374H8.41699V8.16691H10.5002V6.08374Z" fill="#FCFF6A"/>
<path id="Vector_85" d="M12.5832 6.08374H10.5V8.16691H12.5832V6.08374Z" fill="#FFD600"/>
<path id="Vector_86" d="M14.6667 6.08374H12.5835V8.16691H14.6667V6.08374Z" fill="#FFD600"/>
<path id="Vector_87" d="M16.7502 6.08374H14.667V8.16691H16.7502V6.08374Z" fill="#FCFF6A"/>
<path id="Vector_88" d="M18.8332 6.08374H16.75V8.16691H18.8332V6.08374Z" fill="#B4662D"/>
<path id="Vector_89" d="M8.41667 8.16675H6.3335V10.2499H8.41667V8.16675Z" fill="#FCFF6A"/>
<path id="Vector_90" d="M10.5002 8.16675H8.41699V10.2499H10.5002V8.16675Z" fill="#FCFF6A"/>
<path id="Vector_91" d="M12.5832 8.16675H10.5V10.2499H12.5832V8.16675Z" fill="#910000"/>
<path id="Vector_92" d="M14.6667 8.16675H12.5835V10.2499H14.6667V8.16675Z" fill="#B4662D"/>
<path id="Vector_93" d="M16.7502 8.16675H14.667V10.2499H16.7502V8.16675Z" fill="#B4662D"/>
<path id="Vector_94" d="M18.8332 8.16675H16.75V10.2499H18.8332V8.16675Z" fill="#FCFF6A"/>
<path id="Vector_95" d="M20.9167 8.16675H18.8335V10.2499H20.9167V8.16675Z" fill="#B4662D"/>
<path id="Vector_96" d="M8.41667 10.25H6.3335V12.3332H8.41667V10.25Z" fill="#910000"/>
<path id="Vector_97" d="M10.5002 10.25H8.41699V12.3332H10.5002V10.25Z" fill="#FFD600"/>
<path id="Vector_98" d="M12.5832 10.25H10.5V12.3332H12.5832V10.25Z" fill="#910000"/>
<path id="Vector_99" d="M14.6667 10.25H12.5835V12.3332H14.6667V10.25Z" fill="#910000"/>
<path id="Vector_100" d="M16.7502 10.25H14.667V12.3332H16.7502V10.25Z" fill="#B4662D"/>
<path id="Vector_101" d="M18.8332 10.25H16.75V12.3332H18.8332V10.25Z" fill="#FFD600"/>
<path id="Vector_102" d="M20.9167 10.25H18.8335V12.3332H20.9167V10.25Z" fill="#910000"/>
<path id="Vector_103" d="M6.33317 12.3337H4.25V14.4169H6.33317V12.3337Z" fill="#FCFF6A"/>
<path id="Vector_104" d="M8.41667 12.3337H6.3335V14.4169H8.41667V12.3337Z" fill="#FFD600"/>
<path id="Vector_105" d="M10.5002 12.3337H8.41699V14.4169H10.5002V12.3337Z" fill="#FFD600"/>
<path id="Vector_106" d="M12.5832 12.3337H10.5V14.4169H12.5832V12.3337Z" fill="#FFD600"/>
<path id="Vector_107" d="M14.6667 12.3337H12.5835V14.4169H14.6667V12.3337Z" fill="#910000"/>
<path id="Vector_108" d="M16.7502 12.3337H14.667V14.4169H16.7502V12.3337Z" fill="#910000"/>
<path id="Vector_109" d="M18.8332 12.3337H16.75V14.4169H18.8332V12.3337Z" fill="#B4662D"/>
<path id="Vector_110" d="M20.9167 12.3337H18.8335V14.4169H20.9167V12.3337Z" fill="#FFD600"/>
<path id="Vector_111" d="M23.0002 12.3337H20.917V14.4169H23.0002V12.3337Z" fill="#B4662D"/>
<path id="Vector_112" d="M6.33317 14.4167H4.25V16.4999H6.33317V14.4167Z" fill="#910000"/>
<path id="Vector_113" d="M8.41667 14.4167H6.3335V16.4999H8.41667V14.4167Z" fill="#FCFF6A"/>
<path id="Vector_114" d="M10.5002 14.4167H8.41699V16.4999H10.5002V14.4167Z" fill="#910000"/>
<path id="Vector_115" d="M12.5832 14.4167H10.5V16.4999H12.5832V14.4167Z" fill="#FFD600"/>
<path id="Vector_116" d="M14.6667 14.4167H12.5835V16.4999H14.6667V14.4167Z" fill="#FFD600"/>
<path id="Vector_117" d="M16.7502 14.4167H14.667V16.4999H16.7502V14.4167Z" fill="#910000"/>
<path id="Vector_118" d="M18.8332 14.4167H16.75V16.4999H18.8332V14.4167Z" fill="#910000"/>
<path id="Vector_119" d="M20.9167 14.4167H18.8335V16.4999H20.9167V14.4167Z" fill="#FCFF6A"/>
<path id="Vector_120" d="M23.0002 14.4167H20.917V16.4999H23.0002V14.4167Z" fill="#FFD600"/>
<path id="Vector_121" d="M6.33317 16.5H4.25V18.5832H6.33317V16.5Z" fill="#910000"/>
<path id="Vector_122" d="M8.41667 16.5H6.3335V18.5832H8.41667V16.5Z" fill="#FFD600"/>
<path id="Vector_123" d="M10.5002 16.5H8.41699V18.5832H10.5002V16.5Z" fill="#910000"/>
<path id="Vector_124" d="M12.5832 16.5H10.5V18.5832H12.5832V16.5Z" fill="#910000"/>
<path id="Vector_125" d="M14.6667 16.5H12.5835V18.5832H14.6667V16.5Z" fill="#FFD600"/>
<path id="Vector_126" d="M16.7502 16.5H14.667V18.5832H16.7502V16.5Z" fill="#FFD600"/>
<path id="Vector_127" d="M18.8332 16.5H16.75V18.5832H18.8332V16.5Z" fill="#910000"/>
<path id="Vector_128" d="M20.9167 16.5H18.8335V18.5832H20.9167V16.5Z" fill="#FCFF6A"/>
<path id="Vector_129" d="M23.0002 16.5H20.917V18.5832H23.0002V16.5Z" fill="#FFD600"/>
<path id="Vector_130" d="M6.33317 18.5837H4.25V20.6669H6.33317V18.5837Z" fill="#B4662D"/>
<path id="Vector_131" d="M8.41667 18.5837H6.3335V20.6669H8.41667V18.5837Z" fill="#FFD600"/>
<path id="Vector_132" d="M10.5002 18.5837H8.41699V20.6669H10.5002V18.5837Z" fill="#B4662D"/>
<path id="Vector_133" d="M12.5832 18.5837H10.5V20.6669H12.5832V18.5837Z" fill="#910000"/>
<path id="Vector_134" d="M14.6667 18.5837H12.5835V20.6669H14.6667V18.5837Z" fill="#910000"/>
<path id="Vector_135" d="M16.7502 18.5837H14.667V20.6669H16.7502V18.5837Z" fill="#FFD600"/>
<path id="Vector_136" d="M18.8332 18.5837H16.75V20.6669H18.8332V18.5837Z" fill="#FFD600"/>
<path id="Vector_137" d="M20.9167 18.5837H18.8335V20.6669H20.9167V18.5837Z" fill="#FCFF6A"/>
<path id="Vector_138" d="M23.0002 18.5837H20.917V20.6669H23.0002V18.5837Z" fill="#FFD600"/>
<path id="Vector_139" d="M8.41667 20.6667H6.3335V22.7499H8.41667V20.6667Z" fill="#910000"/>
<path id="Vector_140" d="M10.5002 20.6667H8.41699V22.7499H10.5002V20.6667Z" fill="#FFD600"/>
<path id="Vector_141" d="M12.5832 20.6667H10.5V22.7499H12.5832V20.6667Z" fill="#B4662D"/>
<path id="Vector_142" d="M14.6667 20.6667H12.5835V22.7499H14.6667V20.6667Z" fill="#910000"/>
<path id="Vector_143" d="M16.7502 20.6667H14.667V22.7499H16.7502V20.6667Z" fill="#910000"/>
<path id="Vector_144" d="M18.8332 20.6667H16.75V22.7499H18.8332V20.6667Z" fill="#FCFF6A"/>
<path id="Vector_145" d="M20.9167 20.6667H18.8335V22.7499H20.9167V20.6667Z" fill="#FFD600"/>
<path id="Vector_146" d="M8.41667 22.75H6.3335V24.8332H8.41667V22.75Z" fill="#B4662D"/>
<path id="Vector_147" d="M10.5002 22.75H8.41699V24.8332H10.5002V22.75Z" fill="#FFD600"/>
<path id="Vector_148" d="M12.5832 22.75H10.5V24.8332H12.5832V22.75Z" fill="#B4662D"/>
<path id="Vector_149" d="M14.6667 22.75H12.5835V24.8332H14.6667V22.75Z" fill="#B4662D"/>
<path id="Vector_150" d="M16.7502 22.75H14.667V24.8332H16.7502V22.75Z" fill="#910000"/>
<path id="Vector_151" d="M18.8332 22.75H16.75V24.8332H18.8332V22.75Z" fill="#FFD600"/>
<path id="Vector_152" d="M20.9167 22.75H18.8335V24.8332H20.9167V22.75Z" fill="#FFD600"/>
<path id="Vector_153" d="M10.5002 24.8337H8.41699V26.9169H10.5002V24.8337Z" fill="#B4662D"/>
<path id="Vector_154" d="M12.5832 24.8337H10.5V26.9169H12.5832V24.8337Z" fill="#FFD600"/>
<path id="Vector_155" d="M14.6667 24.8337H12.5835V26.9169H14.6667V24.8337Z" fill="#FCFF6A"/>
<path id="Vector_156" d="M16.7502 24.8337H14.667V26.9169H16.7502V24.8337Z" fill="#FCFF6A"/>
<path id="Vector_157" d="M18.8332 24.8337H16.75V26.9169H18.8332V24.8337Z" fill="#FFD600"/>
<path id="Vector_158" d="M12.5832 26.9167H10.5V28.9999H12.5832V26.9167Z" fill="#B4662D"/>
<path id="Vector_159" d="M14.6667 26.9167H12.5835V28.9999H14.6667V26.9167Z" fill="#910000"/>
<path id="Vector_160" d="M16.7502 26.9167H14.667V28.9999H16.7502V26.9167Z" fill="#FFD600"/>
</g>
</g>
</g>
</svg>
