<svg width="19" height="25" viewBox="0 0 19 25" fill="none" xmlns="http://www.w3.org/2000/svg">
<g id="Group">
<path id="Vector" d="M8.33317 0H6.25V2.08317H8.33317V0Z" fill="#353535"/>
<path id="Vector_2" d="M10.4172 0H8.33398V2.08317H10.4172V0Z" fill="#353535"/>
<path id="Vector_3" d="M12.5002 0H10.417V2.08317H12.5002V0Z" fill="#353535"/>
<path id="Vector_4" d="M6.25016 2.08398H4.16699V4.16715H6.25016V2.08398Z" fill="#353535"/>
<path id="Vector_5" d="M8.33317 2.08398H6.25V4.16715H8.33317V2.08398Z" fill="#353535"/>
<path id="Vector_6" d="M10.4172 2.08398H8.33398V4.16715H10.4172V2.08398Z" fill="#353535"/>
<path id="Vector_7" d="M12.5002 2.08398H10.417V4.16715H12.5002V2.08398Z" fill="#353535"/>
<path id="Vector_8" d="M14.5832 2.08398H12.5V4.16715H14.5832V2.08398Z" fill="#353535"/>
<path id="Vector_9" d="M4.16618 4.16699H2.08301V6.25016H4.16618V4.16699Z" fill="#353535"/>
<path id="Vector_10" d="M6.25016 4.16699H4.16699V6.25016H6.25016V4.16699Z" fill="#353535"/>
<path id="Vector_11" d="M8.33317 4.16699H6.25V6.25016H8.33317V4.16699Z" fill="#353535"/>
<path id="Vector_12" d="M10.4172 4.16699H8.33398V6.25016H10.4172V4.16699Z" fill="#353535"/>
<path id="Vector_13" d="M12.5002 4.16699H10.417V6.25016H12.5002V4.16699Z" fill="#353535"/>
<path id="Vector_14" d="M14.5832 4.16699H12.5V6.25016H14.5832V4.16699Z" fill="#353535"/>
<path id="Vector_15" d="M16.6672 4.16699H14.584V6.25016H16.6672V4.16699Z" fill="#353535"/>
<path id="Vector_16" d="M4.16618 6.25H2.08301V8.33317H4.16618V6.25Z" fill="#353535"/>
<path id="Vector_17" d="M6.25016 6.25H4.16699V8.33317H6.25016V6.25Z" fill="#353535"/>
<path id="Vector_18" d="M8.33317 6.25H6.25V8.33317H8.33317V6.25Z" fill="#353535"/>
<path id="Vector_19" d="M10.4172 6.25H8.33398V8.33317H10.4172V6.25Z" fill="#353535"/>
<path id="Vector_20" d="M12.5002 6.25H10.417V8.33317H12.5002V6.25Z" fill="#353535"/>
<path id="Vector_21" d="M14.5832 6.25H12.5V8.33317H14.5832V6.25Z" fill="#353535"/>
<path id="Vector_22" d="M16.6672 6.25H14.584V8.33317H16.6672V6.25Z" fill="#353535"/>
<path id="Vector_23" d="M2.08317 8.33398H0V10.4172H2.08317V8.33398Z" fill="#353535"/>
<path id="Vector_24" d="M4.16618 8.33398H2.08301V10.4172H4.16618V8.33398Z" fill="#353535"/>
<path id="Vector_25" d="M6.25016 8.33398H4.16699V10.4172H6.25016V8.33398Z" fill="#353535"/>
<path id="Vector_26" d="M8.33317 8.33398H6.25V10.4172H8.33317V8.33398Z" fill="#353535"/>
<path id="Vector_27" d="M10.4172 8.33398H8.33398V10.4172H10.4172V8.33398Z" fill="#353535"/>
<path id="Vector_28" d="M12.5002 8.33398H10.417V10.4172H12.5002V8.33398Z" fill="#353535"/>
<path id="Vector_29" d="M14.5832 8.33398H12.5V10.4172H14.5832V8.33398Z" fill="#353535"/>
<path id="Vector_30" d="M16.6672 8.33398H14.584V10.4172H16.6672V8.33398Z" fill="#353535"/>
<path id="Vector_31" d="M18.7502 8.33398H16.667V10.4172H18.7502V8.33398Z" fill="#353535"/>
<path id="Vector_32" d="M2.08317 10.417H0V12.5002H2.08317V10.417Z" fill="#353535"/>
<path id="Vector_33" d="M4.16618 10.417H2.08301V12.5002H4.16618V10.417Z" fill="#353535"/>
<path id="Vector_34" d="M6.25016 10.417H4.16699V12.5002H6.25016V10.417Z" fill="#353535"/>
<path id="Vector_35" d="M8.33317 10.417H6.25V12.5002H8.33317V10.417Z" fill="#353535"/>
<path id="Vector_36" d="M10.4172 10.417H8.33398V12.5002H10.4172V10.417Z" fill="#353535"/>
<path id="Vector_37" d="M12.5002 10.417H10.417V12.5002H12.5002V10.417Z" fill="#353535"/>
<path id="Vector_38" d="M14.5832 10.417H12.5V12.5002H14.5832V10.417Z" fill="#353535"/>
<path id="Vector_39" d="M16.6672 10.417H14.584V12.5002H16.6672V10.417Z" fill="#353535"/>
<path id="Vector_40" d="M18.7502 10.417H16.667V12.5002H18.7502V10.417Z" fill="#353535"/>
<path id="Vector_41" d="M2.08317 12.5H0V14.5832H2.08317V12.5Z" fill="#353535"/>
<path id="Vector_42" d="M4.16618 12.5H2.08301V14.5832H4.16618V12.5Z" fill="#353535"/>
<path id="Vector_43" d="M6.25016 12.5H4.16699V14.5832H6.25016V12.5Z" fill="#353535"/>
<path id="Vector_44" d="M8.33317 12.5H6.25V14.5832H8.33317V12.5Z" fill="#353535"/>
<path id="Vector_45" d="M10.4172 12.5H8.33398V14.5832H10.4172V12.5Z" fill="#353535"/>
<path id="Vector_46" d="M12.5002 12.5H10.417V14.5832H12.5002V12.5Z" fill="#353535"/>
<path id="Vector_47" d="M14.5832 12.5H12.5V14.5832H14.5832V12.5Z" fill="#353535"/>
<path id="Vector_48" d="M16.6672 12.5H14.584V14.5832H16.6672V12.5Z" fill="#353535"/>
<path id="Vector_49" d="M18.7502 12.5H16.667V14.5832H18.7502V12.5Z" fill="#353535"/>
<path id="Vector_50" d="M2.08317 14.584H0V16.6672H2.08317V14.584Z" fill="#353535"/>
<path id="Vector_51" d="M4.16618 14.584H2.08301V16.6672H4.16618V14.584Z" fill="#353535"/>
<path id="Vector_52" d="M6.25016 14.584H4.16699V16.6672H6.25016V14.584Z" fill="#353535"/>
<path id="Vector_53" d="M8.33317 14.584H6.25V16.6672H8.33317V14.584Z" fill="#353535"/>
<path id="Vector_54" d="M10.4172 14.584H8.33398V16.6672H10.4172V14.584Z" fill="#353535"/>
<path id="Vector_55" d="M12.5002 14.584H10.417V16.6672H12.5002V14.584Z" fill="#353535"/>
<path id="Vector_56" d="M14.5832 14.584H12.5V16.6672H14.5832V14.584Z" fill="#353535"/>
<path id="Vector_57" d="M16.6672 14.584H14.584V16.6672H16.6672V14.584Z" fill="#353535"/>
<path id="Vector_58" d="M18.7502 14.584H16.667V16.6672H18.7502V14.584Z" fill="#353535"/>
<path id="Vector_59" d="M4.16618 16.667H2.08301V18.7502H4.16618V16.667Z" fill="#353535"/>
<path id="Vector_60" d="M6.25016 16.667H4.16699V18.7502H6.25016V16.667Z" fill="#353535"/>
<path id="Vector_61" d="M8.33317 16.667H6.25V18.7502H8.33317V16.667Z" fill="#353535"/>
<path id="Vector_62" d="M10.4172 16.667H8.33398V18.7502H10.4172V16.667Z" fill="#353535"/>
<path id="Vector_63" d="M12.5002 16.667H10.417V18.7502H12.5002V16.667Z" fill="#353535"/>
<path id="Vector_64" d="M14.5832 16.667H12.5V18.7502H14.5832V16.667Z" fill="#353535"/>
<path id="Vector_65" d="M16.6672 16.667H14.584V18.7502H16.6672V16.667Z" fill="#353535"/>
<path id="Vector_66" d="M4.16618 18.75H2.08301V20.8332H4.16618V18.75Z" fill="#353535"/>
<path id="Vector_67" d="M6.25016 18.75H4.16699V20.8332H6.25016V18.75Z" fill="#353535"/>
<path id="Vector_68" d="M8.33317 18.75H6.25V20.8332H8.33317V18.75Z" fill="#353535"/>
<path id="Vector_69" d="M10.4172 18.75H8.33398V20.8332H10.4172V18.75Z" fill="#353535"/>
<path id="Vector_70" d="M12.5002 18.75H10.417V20.8332H12.5002V18.75Z" fill="#353535"/>
<path id="Vector_71" d="M14.5832 18.75H12.5V20.8332H14.5832V18.75Z" fill="#353535"/>
<path id="Vector_72" d="M16.6672 18.75H14.584V20.8332H16.6672V18.75Z" fill="#353535"/>
<path id="Vector_73" d="M6.25016 20.8335H4.16699V22.9167H6.25016V20.8335Z" fill="#353535"/>
<path id="Vector_74" d="M8.33317 20.8335H6.25V22.9167H8.33317V20.8335Z" fill="#353535"/>
<path id="Vector_75" d="M10.4172 20.8335H8.33398V22.9167H10.4172V20.8335Z" fill="#353535"/>
<path id="Vector_76" d="M12.5002 20.8335H10.417V22.9167H12.5002V20.8335Z" fill="#353535"/>
<path id="Vector_77" d="M14.5832 20.8335H12.5V22.9167H14.5832V20.8335Z" fill="#353535"/>
<path id="Vector_78" d="M8.33317 22.917H6.25V25.0002H8.33317V22.917Z" fill="#353535"/>
<path id="Vector_79" d="M10.4172 22.917H8.33398V25.0002H10.4172V22.917Z" fill="#353535"/>
<path id="Vector_80" d="M12.5002 22.917H10.417V25.0002H12.5002V22.917Z" fill="#353535"/>
</g>
</svg>
