<svg xmlns="http://www.w3.org/2000/svg" width="19" height="19" viewBox="0 0 19 19" fill="none">
  <g clip-path="url(#clip0_855_8988)">
    <path d="M5.01294 6.11719C5.01294 5.82171 5.07114 5.52913 5.18421 5.25615C5.29728 4.98317 5.46302 4.73513 5.67195 4.5262C5.88088 4.31727 6.12892 4.15153 6.4019 4.03846C6.67488 3.92539 6.96747 3.86719 7.26294 3.86719C7.55841 3.86719 7.85099 3.92539 8.12398 4.03846C8.39696 4.15153 8.645 4.31727 8.85393 4.5262C9.06286 4.73513 9.2286 4.98317 9.34167 5.25615C9.45474 5.52913 9.51294 5.82171 9.51294 6.11719C9.51294 6.71392 9.27589 7.28622 8.85393 7.70818C8.43197 8.13014 7.85968 8.36719 7.26294 8.36719C6.6662 8.36719 6.09391 8.13014 5.67195 7.70818C5.24999 7.28622 5.01294 6.71392 5.01294 6.11719ZM7.26294 2.36719C6.26838 2.36719 5.31455 2.76228 4.61129 3.46554C3.90803 4.1688 3.51294 5.12263 3.51294 6.11719C3.51294 7.11175 3.90803 8.06558 4.61129 8.76884C5.31455 9.4721 6.26838 9.86719 7.26294 9.86719C8.2575 9.86719 9.21133 9.4721 9.91459 8.76884C10.6179 8.06558 11.0129 7.11175 11.0129 6.11719C11.0129 5.12263 10.6179 4.1688 9.91459 3.46554C9.21133 2.76228 8.2575 2.36719 7.26294 2.36719ZM12.5129 2.36719H11.7629V3.86719H12.5129C12.8084 3.86719 13.101 3.92539 13.374 4.03846C13.647 4.15153 13.895 4.31727 14.1039 4.5262C14.3129 4.73513 14.4786 4.98317 14.5917 5.25615C14.7047 5.52913 14.7629 5.82171 14.7629 6.11719C14.7629 6.41266 14.7047 6.70524 14.5917 6.97823C14.4786 7.25121 14.3129 7.49925 14.1039 7.70818C13.895 7.91711 13.647 8.08284 13.374 8.19592C13.101 8.30899 12.8084 8.36719 12.5129 8.36719H11.7629V9.86719H12.5129C13.5075 9.86719 14.4613 9.4721 15.1646 8.76884C15.8679 8.06558 16.2629 7.11175 16.2629 6.11719C16.2629 5.12263 15.8679 4.1688 15.1646 3.46554C14.4613 2.76228 13.5075 2.36719 12.5129 2.36719ZM0.887939 15.1172C0.887939 14.1226 1.28303 13.1688 1.98629 12.4655C2.68955 11.7623 3.64338 11.3672 4.63794 11.3672H9.88794C10.8825 11.3672 11.8363 11.7623 12.5396 12.4655C13.2429 13.1688 13.6379 14.1226 13.6379 15.1172V16.6172H12.1379V15.1172C12.1379 14.5205 11.9009 13.9482 11.4789 13.5262C11.057 13.1042 10.4847 12.8672 9.88794 12.8672H4.63794C4.0412 12.8672 3.46891 13.1042 3.04695 13.5262C2.62499 13.9482 2.38794 14.5205 2.38794 15.1172V16.6172H0.887939V15.8672V15.1172ZM18.8879 15.1172C18.8879 14.6247 18.7909 14.1371 18.6025 13.6821C18.414 13.2272 18.1378 12.8138 17.7896 12.4655C17.4414 12.1173 17.028 11.8411 16.573 11.6526C16.118 11.4642 15.6304 11.3672 15.1379 11.3672H14.3879V12.8672H15.1379C15.7347 12.8672 16.307 13.1042 16.7289 13.5262C17.1509 13.9482 17.3879 14.5205 17.3879 15.1172V16.6172H18.8879V15.8672V15.1172Z" fill="white" fill-opacity="0.7"/>
  </g>
  <defs>
    <clipPath id="clip0_855_8988">
      <rect width="18" height="18" fill="white" transform="translate(0.887939 0.867188)"/>
    </clipPath>
  </defs>
</svg>