<svg xmlns="http://www.w3.org/2000/svg" width="13" height="13" viewBox="0 0 13 13" fill="none">
  <mask id="path-1-outside-1_1924_1334" maskUnits="userSpaceOnUse" x="-0.206055" y="0.0229492" width="13" height="13" fill="currentColor">
    <rect fill="white" x="-0.206055" y="0.0229492" width="13" height="13"/>
    <path fill-rule="evenodd" clip-rule="evenodd" d="M6.02922 2.06764V1.02295H3.93431V2.06764H6.02922ZM9.16772 1.02295H8.12303V2.06764H9.16772V1.02295ZM2.88916 2.06787H3.93385V3.11256H2.88916V2.06787ZM7.07301 2.06787H6.02832V3.11256H7.07301V2.06787ZM9.16846 2.06787H10.2131V3.11084H11.2571V5.20575H10.2124V3.11256H9.16846V2.06787ZM2.88909 4.16226V3.11757H1.8444V5.21248H2.88909V4.16779V4.16226ZM8.11793 5.20575H7.07324V3.11084H8.11793V5.20575ZM2.88916 5.20654H3.93385V6.25123H2.88916V5.20654ZM7.07301 5.20654H6.02832V6.25123H7.07301V5.20654ZM9.16846 5.20654H10.2131V6.25123H9.16846V5.20654ZM3.93326 6.25741V7.3021H6.02817V6.25741H3.93326ZM8.12356 6.25741H9.16825V7.3021H8.12356V6.25741ZM6.02869 8.35308H2.88909V9.39777H7.07324V10.4417H8.11793V9.39697H7.07338V8.35308H6.02869ZM9.16825 8.35308H10.2129V9.39697H11.2571V10.4417H10.2124V9.39777H9.16825V8.35308ZM2.88258 9.39697H1.83789V10.4417H2.88258V9.39697ZM0.793945 12.5368V11.4921V11.4866V10.4419H1.83864V12.5368H0.793945ZM8.12354 11.4921V12.5368H9.16823V10.4419H8.12354V11.4866V11.4921ZM11.2632 12.5368V10.4419H12.3079V12.5368H11.2632Z"/>
  </mask>
  <path fill-rule="evenodd" clip-rule="evenodd" d="M6.02922 2.06764V1.02295H3.93431V2.06764H6.02922ZM9.16772 1.02295H8.12303V2.06764H9.16772V1.02295ZM2.88916 2.06787H3.93385V3.11256H2.88916V2.06787ZM7.07301 2.06787H6.02832V3.11256H7.07301V2.06787ZM9.16846 2.06787H10.2131V3.11084H11.2571V5.20575H10.2124V3.11256H9.16846V2.06787ZM2.88909 4.16226V3.11757H1.8444V5.21248H2.88909V4.16779V4.16226ZM8.11793 5.20575H7.07324V3.11084H8.11793V5.20575ZM2.88916 5.20654H3.93385V6.25123H2.88916V5.20654ZM7.07301 5.20654H6.02832V6.25123H7.07301V5.20654ZM9.16846 5.20654H10.2131V6.25123H9.16846V5.20654ZM3.93326 6.25741V7.3021H6.02817V6.25741H3.93326ZM8.12356 6.25741H9.16825V7.3021H8.12356V6.25741ZM6.02869 8.35308H2.88909V9.39777H7.07324V10.4417H8.11793V9.39697H7.07338V8.35308H6.02869ZM9.16825 8.35308H10.2129V9.39697H11.2571V10.4417H10.2124V9.39777H9.16825V8.35308ZM2.88258 9.39697H1.83789V10.4417H2.88258V9.39697ZM0.793945 12.5368V11.4921V11.4866V10.4419H1.83864V12.5368H0.793945ZM8.12354 11.4921V12.5368H9.16823V10.4419H8.12354V11.4866V11.4921ZM11.2632 12.5368V10.4419H12.3079V12.5368H11.2632Z" fill="currentColor"/>
  <path d="M6.02922 1.02295H6.22922V0.822949H6.02922V1.02295ZM6.02922 2.06764V2.26764H6.22922V2.06764H6.02922ZM3.93431 1.02295V0.822949H3.73431V1.02295H3.93431ZM3.93431 2.06764H3.73431V2.26764H3.93431V2.06764ZM8.12303 1.02295V0.822949H7.92303V1.02295H8.12303ZM9.16772 1.02295H9.36772V0.822949H9.16772V1.02295ZM8.12303 2.06764H7.92303V2.26764H8.12303V2.06764ZM9.16772 2.06764V2.26764H9.36772V2.06764H9.16772ZM3.93385 2.06787H4.13385V1.86787H3.93385V2.06787ZM2.88916 2.06787V1.86787H2.68916V2.06787H2.88916ZM3.93385 3.11256V3.31256H4.13385V3.11256H3.93385ZM2.88916 3.11256H2.68916V3.31256H2.88916V3.11256ZM6.02832 2.06787V1.86787H5.82832V2.06787H6.02832ZM7.07301 2.06787H7.27301V1.86787H7.07301V2.06787ZM6.02832 3.11256H5.82832V3.31256H6.02832V3.11256ZM7.07301 3.11256V3.31256H7.27301V3.11256H7.07301ZM10.2131 2.06787H10.4131V1.86787H10.2131V2.06787ZM9.16846 2.06787V1.86787H8.96846V2.06787H9.16846ZM10.2131 3.11084H10.0131V3.31084H10.2131V3.11084ZM11.2571 3.11084H11.4571V2.91084H11.2571V3.11084ZM11.2571 5.20575V5.40575H11.4571V5.20575H11.2571ZM10.2124 5.20575H10.0124V5.40575H10.2124V5.20575ZM10.2124 3.11256H10.4124V2.91256H10.2124V3.11256ZM9.16846 3.11256H8.96846V3.31256H9.16846V3.11256ZM2.88909 3.11757H3.08909V2.91757H2.88909V3.11757ZM1.8444 3.11757V2.91757H1.6444V3.11757H1.8444ZM1.8444 5.21248H1.6444V5.41248H1.8444V5.21248ZM2.88909 5.21248V5.41248H3.08909V5.21248H2.88909ZM7.07324 5.20575H6.87324V5.40575H7.07324V5.20575ZM8.11793 5.20575V5.40575H8.31793V5.20575H8.11793ZM7.07324 3.11084V2.91084H6.87324V3.11084H7.07324ZM8.11793 3.11084H8.31793V2.91084H8.11793V3.11084ZM3.93385 5.20654H4.13385V5.00654H3.93385V5.20654ZM2.88916 5.20654V5.00654H2.68916V5.20654H2.88916ZM3.93385 6.25123V6.45123H4.13385V6.25123H3.93385ZM2.88916 6.25123H2.68916V6.45123H2.88916V6.25123ZM6.02832 5.20654V5.00654H5.82832V5.20654H6.02832ZM7.07301 5.20654H7.27301V5.00654H7.07301V5.20654ZM6.02832 6.25123H5.82832V6.45123H6.02832V6.25123ZM7.07301 6.25123V6.45123H7.27301V6.25123H7.07301ZM10.2131 5.20654H10.4131V5.00654H10.2131V5.20654ZM9.16846 5.20654V5.00654H8.96846V5.20654H9.16846ZM10.2131 6.25123V6.45123H10.4131V6.25123H10.2131ZM9.16846 6.25123H8.96846V6.45123H9.16846V6.25123ZM3.93326 7.3021H3.73326V7.5021H3.93326V7.3021ZM3.93326 6.25741V6.05741H3.73326V6.25741H3.93326ZM6.02817 7.3021V7.5021H6.22817V7.3021H6.02817ZM6.02817 6.25741H6.22817V6.05741H6.02817V6.25741ZM9.16825 6.25741H9.36825V6.05741H9.16825V6.25741ZM8.12356 6.25741V6.05741H7.92356V6.25741H8.12356ZM9.16825 7.3021V7.5021H9.36825V7.3021H9.16825ZM8.12356 7.3021H7.92356V7.5021H8.12356V7.3021ZM2.88909 8.35308V8.15308H2.68909V8.35308H2.88909ZM2.88909 9.39777H2.68909V9.59777H2.88909V9.39777ZM7.07324 9.39777H7.27324V9.19777H7.07324V9.39777ZM7.07324 10.4417H6.87324V10.6417H7.07324V10.4417ZM8.11793 10.4417V10.6417H8.31793V10.4417H8.11793ZM8.11793 9.39697H8.31793V9.19697H8.11793V9.39697ZM7.07338 9.39697H6.87338V9.59697H7.07338V9.39697ZM7.07338 8.35308H7.27338V8.15308H7.07338V8.35308ZM10.2129 8.35308H10.4129V8.15308H10.2129V8.35308ZM9.16825 8.35308V8.15308H8.96825V8.35308H9.16825ZM10.2129 9.39697H10.0129V9.59697H10.2129V9.39697ZM11.2571 9.39697H11.4571V9.19697H11.2571V9.39697ZM11.2571 10.4417V10.6417H11.4571V10.4417H11.2571ZM10.2124 10.4417H10.0124V10.6417H10.2124V10.4417ZM10.2124 9.39777H10.4124V9.19777H10.2124V9.39777ZM9.16825 9.39777H8.96825V9.59777H9.16825V9.39777ZM1.83789 9.39697V9.19697H1.63789V9.39697H1.83789ZM2.88258 9.39697H3.08258V9.19697H2.88258V9.39697ZM1.83789 10.4417H1.63789V10.6417H1.83789V10.4417ZM2.88258 10.4417V10.6417H3.08258V10.4417H2.88258ZM0.793945 12.5368H0.593945V12.7368H0.793945V12.5368ZM0.793945 10.4419V10.2419H0.593945V10.4419H0.793945ZM1.83864 10.4419H2.03864V10.2419H1.83864V10.4419ZM1.83864 12.5368V12.7368H2.03864V12.5368H1.83864ZM8.12354 12.5368H7.92354V12.7368H8.12354V12.5368ZM9.16823 12.5368V12.7368H9.36823V12.5368H9.16823ZM9.16823 10.4419H9.36823V10.2419H9.16823V10.4419ZM8.12354 10.4419V10.2419H7.92354V10.4419H8.12354ZM11.2632 10.4419V10.2419H11.0632V10.4419H11.2632ZM11.2632 12.5368H11.0632V12.7368H11.2632V12.5368ZM12.3079 10.4419H12.5079V10.2419H12.3079V10.4419ZM12.3079 12.5368V12.7368H12.5079V12.5368H12.3079ZM5.82922 1.02295V2.06764H6.22922V1.02295H5.82922ZM3.93431 1.22295H6.02922V0.822949H3.93431V1.22295ZM4.13431 2.06764V1.02295H3.73431V2.06764H4.13431ZM6.02922 1.86764H3.93431V2.26764H6.02922V1.86764ZM8.12303 1.22295H9.16772V0.822949H8.12303V1.22295ZM8.32303 2.06764V1.02295H7.92303V2.06764H8.32303ZM9.16772 1.86764H8.12303V2.26764H9.16772V1.86764ZM8.96772 1.02295V2.06764H9.36772V1.02295H8.96772ZM3.93385 1.86787H2.88916V2.26787H3.93385V1.86787ZM4.13385 3.11256V2.06787H3.73385V3.11256H4.13385ZM2.88916 3.31256H3.93385V2.91256H2.88916V3.31256ZM2.68916 2.06787V3.11256H3.08916V2.06787H2.68916ZM6.02832 2.26787H7.07301V1.86787H6.02832V2.26787ZM6.22832 3.11256V2.06787H5.82832V3.11256H6.22832ZM7.07301 2.91256H6.02832V3.31256H7.07301V2.91256ZM6.87301 2.06787V3.11256H7.27301V2.06787H6.87301ZM10.2131 1.86787H9.16846V2.26787H10.2131V1.86787ZM10.4131 3.11084V2.06787H10.0131V3.11084H10.4131ZM11.2571 2.91084H10.2131V3.31084H11.2571V2.91084ZM11.4571 5.20575V3.11084H11.0571V5.20575H11.4571ZM10.2124 5.40575H11.2571V5.00575H10.2124V5.40575ZM10.0124 3.11256V5.20575H10.4124V3.11256H10.0124ZM9.16846 3.31256H10.2124V2.91256H9.16846V3.31256ZM8.96846 2.06787V3.11256H9.36846V2.06787H8.96846ZM2.68909 3.11757V4.16226H3.08909V3.11757H2.68909ZM1.8444 3.31757H2.88909V2.91757H1.8444V3.31757ZM2.0444 5.21248V3.11757H1.6444V5.21248H2.0444ZM2.88909 5.01248H1.8444V5.41248H2.88909V5.01248ZM2.68909 4.16779V5.21248H3.08909V4.16779H2.68909ZM2.68909 4.16226V4.16779H3.08909V4.16226H2.68909ZM7.07324 5.40575H8.11793V5.00575H7.07324V5.40575ZM6.87324 3.11084V5.20575H7.27324V3.11084H6.87324ZM8.11793 2.91084H7.07324V3.31084H8.11793V2.91084ZM8.31793 5.20575V3.11084H7.91793V5.20575H8.31793ZM3.93385 5.00654H2.88916V5.40654H3.93385V5.00654ZM4.13385 6.25123V5.20654H3.73385V6.25123H4.13385ZM2.88916 6.45123H3.93385V6.05123H2.88916V6.45123ZM2.68916 5.20654V6.25123H3.08916V5.20654H2.68916ZM6.02832 5.40654H7.07301V5.00654H6.02832V5.40654ZM6.22832 6.25123V5.20654H5.82832V6.25123H6.22832ZM7.07301 6.05123H6.02832V6.45123H7.07301V6.05123ZM6.87301 5.20654V6.25123H7.27301V5.20654H6.87301ZM10.2131 5.00654H9.16846V5.40654H10.2131V5.00654ZM10.4131 6.25123V5.20654H10.0131V6.25123H10.4131ZM9.16846 6.45123H10.2131V6.05123H9.16846V6.45123ZM8.96846 5.20654V6.25123H9.36846V5.20654H8.96846ZM4.13326 7.3021V6.25741H3.73326V7.3021H4.13326ZM6.02817 7.1021H3.93326V7.5021H6.02817V7.1021ZM5.82817 6.25741V7.3021H6.22817V6.25741H5.82817ZM3.93326 6.45741H6.02817V6.05741H3.93326V6.45741ZM9.16825 6.05741H8.12356V6.45741H9.16825V6.05741ZM9.36825 7.3021V6.25741H8.96825V7.3021H9.36825ZM8.12356 7.5021H9.16825V7.1021H8.12356V7.5021ZM7.92356 6.25741V7.3021H8.32355V6.25741H7.92356ZM2.88909 8.55308H6.02869V8.15308H2.88909V8.55308ZM3.08909 9.39777V8.35308H2.68909V9.39777H3.08909ZM7.07324 9.19777H2.88909V9.59777H7.07324V9.19777ZM7.27324 10.4417V9.39777H6.87324V10.4417H7.27324ZM8.11793 10.2417H7.07324V10.6417H8.11793V10.2417ZM7.91793 9.39697V10.4417H8.31793V9.39697H7.91793ZM7.07338 9.59697H8.11793V9.19697H7.07338V9.59697ZM6.87338 8.35308V9.39697H7.27338V8.35308H6.87338ZM6.02869 8.55308H7.07338V8.15308H6.02869V8.55308ZM10.2129 8.15308H9.16825V8.55308H10.2129V8.15308ZM10.4129 9.39697V8.35308H10.0129V9.39697H10.4129ZM11.2571 9.19697H10.2129V9.59697H11.2571V9.19697ZM11.4571 10.4417V9.39697H11.0571V10.4417H11.4571ZM10.2124 10.6417H11.2571V10.2417H10.2124V10.6417ZM10.0124 9.39777V10.4417H10.4124V9.39777H10.0124ZM9.16825 9.59777H10.2124V9.19777H9.16825V9.59777ZM8.96825 8.35308V9.39777H9.36825V8.35308H8.96825ZM1.83789 9.59697H2.88258V9.19697H1.83789V9.59697ZM2.03789 10.4417V9.39697H1.63789V10.4417H2.03789ZM2.88258 10.2417H1.83789V10.6417H2.88258V10.2417ZM2.68258 9.39697V10.4417H3.08258V9.39697H2.68258ZM0.593945 11.4921V12.5368H0.993945V11.4921H0.593945ZM0.593945 11.4866V11.4921H0.993945V11.4866H0.593945ZM0.593945 10.4419V11.4866H0.993945V10.4419H0.593945ZM1.83864 10.2419H0.793945V10.6419H1.83864V10.2419ZM2.03864 12.5368V10.4419H1.63864V12.5368H2.03864ZM0.793945 12.7368H1.83864V12.3368H0.793945V12.7368ZM8.32353 12.5368V11.4921H7.92354V12.5368H8.32353ZM9.16823 12.3368H8.12354V12.7368H9.16823V12.3368ZM8.96823 10.4419V12.5368H9.36823V10.4419H8.96823ZM8.12354 10.6419H9.16823V10.2419H8.12354V10.6419ZM8.32353 11.4866V10.4419H7.92354V11.4866H8.32353ZM8.32353 11.4921V11.4866H7.92354V11.4921H8.32353ZM11.0632 10.4419V12.5368H11.4632V10.4419H11.0632ZM12.3079 10.2419H11.2632V10.6419H12.3079V10.2419ZM12.5079 12.5368V10.4419H12.1079V12.5368H12.5079ZM11.2632 12.7368H12.3079V12.3368H11.2632V12.7368Z" fill="currentColor" mask="url(#path-1-outside-1_1924_1334)"/>
</svg>