<svg xmlns="http://www.w3.org/2000/svg" width="14" height="13" viewBox="0 0 16 13" fill="none">
  <path fill-rule="evenodd" clip-rule="evenodd" d="M6.47629 0H9.57153V1.85714H6.47646V3.71426H4.61932V1.85712H6.47629V0ZM11.4288 0H9.57164V11.1429H11.4288V0ZM11.4288 11.1429H9.57164V13H11.4288V11.1429ZM9.57153 11.1429H6.47629V13H9.57153V11.1429ZM6.47646 9.28568H4.61932V11.1428H6.47646V9.28568ZM2.76193 3.71432H4.61891V5.57146H2.76193V7.42856H4.61891V9.2857H2.76193H2.76176H0.904785V7.42858V7.42856V5.57146V5.57144V3.71432H2.76176H2.76193ZM13.2856 5.57144H15.1427V7.42858H13.2856V5.57144ZM13.2856 1.85712H15.1427V3.71426H13.2856V1.85712ZM13.2856 9.09229H15.1427V10.9494H13.2856V9.09229Z" fill="currentColor"/>
</svg>