<svg xmlns="http://www.w3.org/2000/svg" width="13" height="13" viewBox="0 0 13 13" fill="none">
  <path d="M12.3769 1.68377C12.3765 1.63774 12.3632 1.5927 12.3385 1.55354C12.3137 1.51439 12.2784 1.48262 12.2365 1.46168C12.1946 1.44075 12.1476 1.43146 12.1006 1.43482C12.0536 1.43817 12.0085 1.45406 11.9702 1.48073L10.9598 2.1887L10.8803 2.24469C9.79163 1.18266 8.29741 0.518555 6.64171 0.518555C3.32131 0.518555 0.620117 3.15935 0.620117 6.40494C0.620117 9.65052 3.32148 12.2913 6.64171 12.2913C7.62767 12.2915 8.59858 12.055 9.46914 11.6025C10.3397 11.15 11.0832 10.4955 11.6345 9.69638C11.6567 9.66436 11.6723 9.62836 11.6802 9.59045C11.6882 9.55254 11.6885 9.51346 11.681 9.47546C11.6735 9.43746 11.6584 9.40128 11.6365 9.36899C11.6147 9.3367 11.5866 9.30895 11.5537 9.28732L10.0473 8.26532C9.9764 8.219 9.88967 8.20194 9.80599 8.21788C9.72231 8.23382 9.64847 8.28145 9.60058 8.35039C8.93463 9.31274 7.83117 9.88728 6.64732 9.88728C4.68278 9.88728 3.08437 8.32514 3.08437 6.40527C3.08437 4.4854 4.68278 2.92325 6.64732 2.92325C7.47644 2.92325 8.2369 3.20504 8.84233 3.67093L8.67219 3.79056L7.6612 4.49836C7.62308 4.52538 7.59327 4.56211 7.57504 4.60455C7.55681 4.647 7.55085 4.69352 7.55781 4.73904C7.56477 4.78457 7.58439 4.82735 7.61452 4.86273C7.64465 4.8981 7.68414 4.92471 7.72868 4.93965L12.0538 6.38001C12.1321 6.40676 12.218 6.3938 12.2863 6.34628C12.3541 6.2981 12.3932 6.22217 12.3929 6.14175L12.3769 1.68377Z" fill="currentColor"/>
</svg>