<svg xmlns="http://www.w3.org/2000/svg" width="11" height="11" viewBox="0 0 11 11" fill="none">
  <path d="M10.9851 1.08873C10.9847 1.04572 10.9723 1.00364 10.9492 0.967053C10.926 0.930468 10.8931 0.900781 10.8539 0.881221C10.8147 0.861662 10.7708 0.852979 10.7269 0.856118C10.683 0.859256 10.6409 0.874095 10.605 0.899021L9.66103 1.56052L9.5867 1.61283C8.56949 0.620512 7.17335 0 5.62634 0C2.52389 0 0 2.46746 0 5.5C0 8.53255 2.52405 11 5.62634 11C6.54758 11.0002 7.45476 10.7792 8.26818 10.3564C9.08159 9.93362 9.77633 9.32205 10.2914 8.57539C10.3121 8.54547 10.3267 8.51184 10.3341 8.47642C10.3416 8.441 10.3418 8.40449 10.3348 8.36898C10.3278 8.33347 10.3137 8.29966 10.2933 8.2695C10.2729 8.23933 10.2466 8.21339 10.2159 8.19318L8.80835 7.23827C8.74214 7.19499 8.6611 7.17905 8.58291 7.19394C8.50473 7.20883 8.43574 7.25334 8.39099 7.31776C7.76875 8.21693 6.73772 8.75377 5.63158 8.75377C3.79599 8.75377 2.3025 7.29416 2.3025 5.50031C2.3025 3.70646 3.79599 2.24685 5.63158 2.24685C6.40628 2.24685 7.11681 2.51015 7.68251 2.94545L7.52354 3.05723L6.57891 3.71857C6.54329 3.74382 6.51544 3.77814 6.49841 3.8178C6.48137 3.85745 6.4758 3.90092 6.48231 3.94346C6.48881 3.98599 6.50714 4.02597 6.53529 4.05902C6.56344 4.09208 6.60034 4.11694 6.64196 4.1309L10.6832 5.47671C10.7564 5.50171 10.8366 5.4896 10.9004 5.4452C10.9638 5.40018 11.0003 5.32923 11 5.25409L10.9851 1.08873Z" fill="currentColor"/>
</svg>