<svg xmlns="http://www.w3.org/2000/svg" width="12" height="14" viewBox="0 0 12 14" fill="none">
  <path fill-rule="evenodd" clip-rule="evenodd" d="M2.20927 0H9.46062V1.03591H10.4965V2.07181H11.5324V11.395H10.4965V12.4309H9.46062V13.4668H2.20927V12.4309H1.17336V11.395H0.137451V2.07181H1.17336V1.03591H2.20927V0ZM8.42471 10.3591V8.28726H7.3888V7.25135H6.3529V6.21544H5.31699V7.25135H4.28108V8.28726H3.24517V10.3591H4.28108V9.32317H5.31699V8.28726H6.3529V9.32317H7.3888V10.3591H8.42471ZM8.42471 6.21544V4.14363H7.3888V3.10772H6.3529V2.07181H5.31699V3.10772H4.28108V4.14363H3.24517V6.21544H4.28108V5.17954H5.31699V4.14363H6.3529V5.17954H7.3888V6.21544H8.42471Z" fill="white" fill-opacity="0.5"/>
</svg>