<svg xmlns="http://www.w3.org/2000/svg" width="13" height="14" viewBox="0 0 13 14" fill="none">
  <path d="M9.19696 2.46289H10.1853V11.282H9.19696V2.46289Z" fill="black"/>
  <path d="M10.1845 4.41357H11.1729V9.32995H10.1845V4.41357Z" fill="black"/>
  <path d="M3.3172 0.48584H9.22192V13.2583H3.3172V0.48584Z" fill="black"/>
  <path d="M0.370914 8.3457H1.35376V9.32855H0.370914V8.3457Z" fill="currentColor" fill-opacity="0.7"/>
  <path d="M0.370914 7.36377H1.35376V8.34661H0.370914V7.36377Z" fill="currentColor" fill-opacity="0.7"/>
  <path d="M0.370914 6.38086H1.35376V7.3637H0.370914V6.38086Z" fill="currentColor" fill-opacity="0.7"/>
  <path d="M0.370914 5.39844H1.35376V6.38128H0.370914V5.39844Z" fill="currentColor" fill-opacity="0.7"/>
  <path d="M1.35382 10.3105H2.33667V11.2925H1.35382V10.3105Z" fill="currentColor" fill-opacity="0.7"/>
  <path d="M1.35382 9.32959H2.33667V10.3124H1.35382V9.32959Z" fill="currentColor" fill-opacity="0.7"/>
  <path d="M1.35382 8.3457H2.33667V9.32855H1.35382V8.3457Z" fill="currentColor" fill-opacity="0.7"/>
  <path d="M1.35382 7.36377H2.33667V8.34661H1.35382V7.36377Z" fill="currentColor" fill-opacity="0.7"/>
  <path d="M1.35382 6.38086H2.33667V7.3637H1.35382V6.38086Z" fill="currentColor" fill-opacity="0.7"/>
  <path d="M1.35382 5.39844H2.33667V6.38128H1.35382V5.39844Z" fill="currentColor" fill-opacity="0.7"/>
  <path d="M1.35382 3.43359H2.33667V4.41644H1.35382V3.43359Z" fill="currentColor" fill-opacity="0.7"/>
  <path d="M1.35382 2.45117H2.33667V3.43402H1.35382V2.45117Z" fill="currentColor" fill-opacity="0.7"/>
  <path d="M2.33674 11.293H3.31958V12.2758H2.33674V11.293Z" fill="currentColor" fill-opacity="0.7"/>
  <path d="M2.33674 10.3105H3.31958V11.2925H2.33674V10.3105Z" fill="currentColor" fill-opacity="0.7"/>
  <path d="M2.33674 9.32959H3.31958V10.3124H2.33674V9.32959Z" fill="currentColor" fill-opacity="0.7"/>
  <path d="M2.33674 8.3457H3.31958V9.32855H2.33674V8.3457Z" fill="currentColor" fill-opacity="0.7"/>
  <path d="M2.33674 7.36377H3.31958V8.34661H2.33674V7.36377Z" fill="currentColor" fill-opacity="0.7"/>
  <path d="M2.33674 6.38086H3.31958V7.3637H2.33674V6.38086Z" fill="currentColor" fill-opacity="0.7"/>
  <path d="M2.33674 5.39844H3.31958V6.38128H2.33674V5.39844Z" fill="currentColor" fill-opacity="0.7"/>
  <path d="M2.33674 3.43359H3.31958V4.41644H2.33674V3.43359Z" fill="currentColor" fill-opacity="0.7"/>
  <path d="M2.33674 2.45117H3.31958V3.43402H2.33674V2.45117Z" fill="currentColor" fill-opacity="0.7"/>
  <path d="M2.33674 1.46826H3.31958V2.45111H2.33674V1.46826Z" fill="currentColor" fill-opacity="0.7"/>
  <path d="M3.31959 12.2759H4.30151V13.2587H3.31959V12.2759Z" fill="currentColor" fill-opacity="0.7"/>
  <path d="M3.31959 11.293H4.30151V12.2758H3.31959V11.293Z" fill="currentColor" fill-opacity="0.7"/>
  <path d="M3.31959 10.3105H4.30151V11.2925H3.31959V10.3105Z" fill="currentColor" fill-opacity="0.7"/>
  <path d="M3.31959 9.32959H4.30151V10.3124H3.31959V9.32959Z" fill="currentColor" fill-opacity="0.7"/>
  <path d="M3.31959 3.43359H4.30151V4.41644H3.31959V3.43359Z" fill="currentColor" fill-opacity="0.7"/>
  <path d="M8.71838 4.68457H9.83252V6.71591H8.71838V4.68457Z" fill="currentColor" fill-opacity="0.7"/>
  <path d="M5.64734 4.68457H6.76147V6.71591H5.64734V4.68457Z" fill="currentColor" fill-opacity="0.7"/>
  <path d="M8.0486 8.9502H9.03052V9.93304H8.0486V8.9502Z" fill="currentColor" fill-opacity="0.7"/>
  <path d="M8.66408 7.96826H9.646V8.95111H8.66408V7.96826Z" fill="currentColor" fill-opacity="0.7"/>
  <path d="M5.42946 7.96826H6.41138V8.95111H5.42946V7.96826Z" fill="currentColor" fill-opacity="0.7"/>
  <path d="M6.10744 8.9502H7.08936V9.93304H6.10744V8.9502Z" fill="currentColor" fill-opacity="0.7"/>
  <path d="M7.06666 9.32959H8.04858V10.3124H7.06666V9.32959Z" fill="currentColor" fill-opacity="0.7"/>
  <path d="M3.31959 2.45117H4.30151V3.43402H3.31959V2.45117Z" fill="currentColor" fill-opacity="0.7"/>
  <path d="M3.31959 1.46826H4.30151V2.45111H3.31959V1.46826Z" fill="currentColor" fill-opacity="0.7"/>
  <path d="M3.31959 0.48584H4.30151V1.46868H3.31959V0.48584Z" fill="currentColor" fill-opacity="0.7"/>
  <path d="M4.30011 12.2759H5.28296V13.2587H4.30011V12.2759Z" fill="currentColor" fill-opacity="0.7"/>
  <path d="M4.30011 11.293H5.28296V12.2758H4.30011V11.293Z" fill="currentColor" fill-opacity="0.7"/>
  <path d="M4.30011 1.46826H5.28296V2.45111H4.30011V1.46826Z" fill="currentColor" fill-opacity="0.7"/>
  <path d="M4.30011 0.48584H5.28296V1.46868H4.30011V0.48584Z" fill="currentColor" fill-opacity="0.7"/>
  <path d="M5.28327 12.2759H6.26611V13.2587H5.28327V12.2759Z" fill="currentColor" fill-opacity="0.7"/>
  <path d="M5.28327 0.48584H6.26611V1.46868H5.28327V0.48584Z" fill="currentColor" fill-opacity="0.7"/>
  <path d="M7.24836 12.2759H8.2312V13.2587H7.24836V12.2759Z" fill="currentColor" fill-opacity="0.7"/>
  <path d="M7.24836 0.48584H8.2312V1.46868H7.24836V0.48584Z" fill="currentColor" fill-opacity="0.7"/>
  <path d="M6.26618 12.2759H7.24902V13.2587H6.26618V12.2759Z" fill="currentColor" fill-opacity="0.7"/>
  <path d="M6.26618 0.48584H7.24902V1.46868H6.26618V0.48584Z" fill="currentColor" fill-opacity="0.7"/>
  <path d="M8.23078 12.2759H9.21362V13.2587H8.23078V12.2759Z" fill="currentColor" fill-opacity="0.7"/>
  <path d="M8.23078 0.48584H9.21362V1.46868H8.23078V0.48584Z" fill="currentColor" fill-opacity="0.7"/>
  <path d="M9.21296 11.293H10.1958V12.2758H9.21296V11.293Z" fill="currentColor" fill-opacity="0.7"/>
  <path d="M9.21296 1.46826H10.1958V2.45111H9.21296V1.46826Z" fill="currentColor" fill-opacity="0.7"/>
  <path d="M10.1951 10.3105H11.178V11.2925H10.1951V10.3105Z" fill="currentColor" fill-opacity="0.7"/>
  <path d="M10.1951 9.32959H11.178V10.3124H10.1951V9.32959Z" fill="currentColor" fill-opacity="0.7"/>
  <path d="M10.1951 3.43359H11.178V4.41644H10.1951V3.43359Z" fill="currentColor" fill-opacity="0.7"/>
  <path d="M10.1951 2.45117H11.178V3.43402H10.1951V2.45117Z" fill="currentColor" fill-opacity="0.7"/>
  <path d="M11.1783 8.3457H12.1611V9.32855H11.1783V8.3457Z" fill="currentColor" fill-opacity="0.7"/>
  <path d="M11.1783 7.36377H12.1611V8.34661H11.1783V7.36377Z" fill="currentColor" fill-opacity="0.7"/>
  <path d="M11.1783 6.38086H12.1611V7.3637H11.1783V6.38086Z" fill="currentColor" fill-opacity="0.7"/>
  <path d="M11.1783 5.39844H12.1611V6.38128H11.1783V5.39844Z" fill="currentColor" fill-opacity="0.7"/>
  <path d="M0.370914 4.41504H1.35376V5.39788H0.370914V4.41504Z" fill="currentColor" fill-opacity="0.7"/>
  <path d="M1.35382 4.41504H2.33667V5.39788H1.35382V4.41504Z" fill="currentColor" fill-opacity="0.7"/>
  <path d="M2.33674 4.41504H3.31958V5.39788H2.33674V4.41504Z" fill="currentColor" fill-opacity="0.7"/>
  <path d="M11.1783 4.41504H12.1611V5.39788H11.1783V4.41504Z" fill="currentColor" fill-opacity="0.7"/>
</svg>