<svg xmlns="http://www.w3.org/2000/svg" width="21" height="14" viewBox="0 0 21 14" fill="none">
  <path d="M8.82611 2.46289H9.81445V11.282H8.82611V2.46289Z" fill="black"/>
  <path d="M9.81366 4.41357H10.802V9.32995H9.81366V4.41357Z" fill="black"/>
  <path d="M2.94635 0.48584H8.85107V13.2583H2.94635V0.48584Z" fill="black"/>
  <path d="M6.48499e-05 8.3457H0.98291V9.32855H6.48499e-05V8.3457Z" fill="currentColor"/>
  <path d="M6.48499e-05 7.36377H0.98291V8.34661H6.48499e-05V7.36377Z" fill="currentColor"/>
  <path d="M6.48499e-05 6.38086H0.98291V7.3637H6.48499e-05V6.38086Z" fill="currentColor"/>
  <path d="M6.48499e-05 5.39844H0.98291V6.38128H6.48499e-05V5.39844Z" fill="currentColor"/>
  <path d="M0.982975 10.3105H1.96582V11.2925H0.982975V10.3105Z" fill="currentColor"/>
  <path d="M0.982975 9.32959H1.96582V10.3124H0.982975V9.32959Z" fill="currentColor"/>
  <path d="M0.982975 8.3457H1.96582V9.32855H0.982975V8.3457Z" fill="currentColor"/>
  <path d="M0.982975 7.36377H1.96582V8.34661H0.982975V7.36377Z" fill="currentColor"/>
  <path d="M0.982975 6.38086H1.96582V7.3637H0.982975V6.38086Z" fill="currentColor"/>
  <path d="M0.982975 5.39844H1.96582V6.38128H0.982975V5.39844Z" fill="currentColor"/>
  <path d="M0.982975 3.43359H1.96582V4.41644H0.982975V3.43359Z" fill="currentColor"/>
  <path d="M0.982975 2.45117H1.96582V3.43402H0.982975V2.45117Z" fill="currentColor"/>
  <path d="M1.96589 11.293H2.94873V12.2758H1.96589V11.293Z" fill="currentColor"/>
  <path d="M1.96589 10.3105H2.94873V11.2925H1.96589V10.3105Z" fill="currentColor"/>
  <path d="M1.96589 9.32959H2.94873V10.3124H1.96589V9.32959Z" fill="currentColor"/>
  <path d="M1.96589 8.3457H2.94873V9.32855H1.96589V8.3457Z" fill="currentColor"/>
  <path d="M1.96589 7.36377H2.94873V8.34661H1.96589V7.36377Z" fill="currentColor"/>
  <path d="M1.96589 6.38086H2.94873V7.3637H1.96589V6.38086Z" fill="currentColor"/>
  <path d="M1.96589 5.39844H2.94873V6.38128H1.96589V5.39844Z" fill="currentColor"/>
  <path d="M1.96589 3.43359H2.94873V4.41644H1.96589V3.43359Z" fill="currentColor"/>
  <path d="M1.96589 2.45117H2.94873V3.43402H1.96589V2.45117Z" fill="currentColor"/>
  <path d="M1.96589 1.46826H2.94873V2.45111H1.96589V1.46826Z" fill="currentColor"/>
  <path d="M2.94874 12.2759H3.93066V13.2587H2.94874V12.2759Z" fill="currentColor"/>
  <path d="M2.94874 11.293H3.93066V12.2758H2.94874V11.293Z" fill="currentColor"/>
  <path d="M2.94874 10.3105H3.93066V11.2925H2.94874V10.3105Z" fill="currentColor"/>
  <path d="M2.94874 9.32959H3.93066V10.3124H2.94874V9.32959Z" fill="currentColor"/>
  <path d="M2.94874 3.43359H3.93066V4.41644H2.94874V3.43359Z" fill="currentColor"/>
  <path d="M8.34753 4.68457H9.46167V6.71591H8.34753V4.68457Z" fill="currentColor"/>
  <path d="M5.27649 4.68457H6.39062V6.71591H5.27649V4.68457Z" fill="currentColor"/>
  <path d="M7.67775 8.9502H8.65967V9.93304H7.67775V8.9502Z" fill="currentColor"/>
  <path d="M8.29323 7.96826H9.27515V8.95111H8.29323V7.96826Z" fill="currentColor"/>
  <path d="M5.05861 7.96826H6.04053V8.95111H5.05861V7.96826Z" fill="currentColor"/>
  <path d="M5.73659 8.9502H6.71851V9.93304H5.73659V8.9502Z" fill="currentColor"/>
  <path d="M6.69581 9.32959H7.67773V10.3124H6.69581V9.32959Z" fill="currentColor"/>
  <path d="M2.94874 2.45117H3.93066V3.43402H2.94874V2.45117Z" fill="currentColor"/>
  <path d="M2.94874 1.46826H3.93066V2.45111H2.94874V1.46826Z" fill="currentColor"/>
  <path d="M2.94874 0.48584H3.93066V1.46868H2.94874V0.48584Z" fill="currentColor"/>
  <path d="M3.92926 12.2759H4.91211V13.2587H3.92926V12.2759Z" fill="currentColor"/>
  <path d="M3.92926 11.293H4.91211V12.2758H3.92926V11.293Z" fill="currentColor"/>
  <path d="M3.92926 1.46826H4.91211V2.45111H3.92926V1.46826Z" fill="currentColor"/>
  <path d="M3.92926 0.48584H4.91211V1.46868H3.92926V0.48584Z" fill="currentColor"/>
  <path d="M4.91242 12.2759H5.89526V13.2587H4.91242V12.2759Z" fill="currentColor"/>
  <path d="M4.91242 0.48584H5.89526V1.46868H4.91242V0.48584Z" fill="currentColor"/>
  <path d="M6.87751 12.2759H7.86035V13.2587H6.87751V12.2759Z" fill="currentColor"/>
  <path d="M6.87751 0.48584H7.86035V1.46868H6.87751V0.48584Z" fill="currentColor"/>
  <path d="M5.89533 12.2759H6.87817V13.2587H5.89533V12.2759Z" fill="currentColor"/>
  <path d="M5.89533 0.48584H6.87817V1.46868H5.89533V0.48584Z" fill="currentColor"/>
  <path d="M7.85993 12.2759H8.84277V13.2587H7.85993V12.2759Z" fill="currentColor"/>
  <path d="M7.85993 0.48584H8.84277V1.46868H7.85993V0.48584Z" fill="currentColor"/>
  <path d="M8.84211 11.293H9.82495V12.2758H8.84211V11.293Z" fill="currentColor"/>
  <path d="M8.84211 1.46826H9.82495V2.45111H8.84211V1.46826Z" fill="currentColor"/>
  <path d="M9.82428 10.3105H10.8071V11.2925H9.82428V10.3105Z" fill="currentColor"/>
  <path d="M9.82428 9.32959H10.8071V10.3124H9.82428V9.32959Z" fill="currentColor"/>
  <path d="M9.82428 3.43359H10.8071V4.41644H9.82428V3.43359Z" fill="currentColor"/>
  <path d="M9.82428 2.45117H10.8071V3.43402H9.82428V2.45117Z" fill="currentColor"/>
  <path d="M10.8074 8.3457H11.7903V9.32855H10.8074V8.3457Z" fill="currentColor"/>
  <path d="M10.8074 7.36377H11.7903V8.34661H10.8074V7.36377Z" fill="currentColor"/>
  <path d="M10.8074 6.38086H11.7903V7.3637H10.8074V6.38086Z" fill="currentColor"/>
  <path d="M10.8074 5.39844H11.7903V6.38128H10.8074V5.39844Z" fill="currentColor"/>
  <path d="M6.48499e-05 4.41504H0.98291V5.39788H6.48499e-05V4.41504Z" fill="currentColor"/>
  <path d="M0.982975 4.41504H1.96582V5.39788H0.982975V4.41504Z" fill="currentColor"/>
  <path d="M1.96589 4.41504H2.94873V5.39788H1.96589V4.41504Z" fill="currentColor"/>
  <path d="M10.8074 4.41504H11.7903V5.39788H10.8074V4.41504Z" fill="currentColor"/>
  <path d="M13.1161 2.46289H14.1045V11.282H13.1161V2.46289Z" fill="black"/>
  <path d="M14.1035 4.41357H15.0918V9.32995H14.1035V4.41357Z" fill="black"/>
  <path d="M7.23664 0.48584H13.1414V13.2583H7.23664V0.48584Z" fill="black"/>
  <path d="M4.2901 8.3457H5.27295V9.32855H4.2901V8.3457Z" fill="currentColor"/>
  <path d="M4.2901 7.36377H5.27295V8.34661H4.2901V7.36377Z" fill="currentColor"/>
  <path d="M4.2901 6.38086H5.27295V7.3637H4.2901V6.38086Z" fill="currentColor"/>
  <path d="M4.2901 5.39844H5.27295V6.38128H4.2901V5.39844Z" fill="currentColor"/>
  <path d="M5.27301 10.3105H6.25586V11.2925H5.27301V10.3105Z" fill="currentColor"/>
  <path d="M5.27301 9.32959H6.25586V10.3124H5.27301V9.32959Z" fill="currentColor"/>
  <path d="M5.27301 8.3457H6.25586V9.32855H5.27301V8.3457Z" fill="currentColor"/>
  <path d="M5.27301 7.36377H6.25586V8.34661H5.27301V7.36377Z" fill="currentColor"/>
  <path d="M5.27301 6.38086H6.25586V7.3637H5.27301V6.38086Z" fill="currentColor"/>
  <path d="M5.27301 5.39844H6.25586V6.38128H5.27301V5.39844Z" fill="currentColor"/>
  <path d="M5.27301 3.43359H6.25586V4.41644H5.27301V3.43359Z" fill="currentColor"/>
  <path d="M5.27301 2.45117H6.25586V3.43402H5.27301V2.45117Z" fill="currentColor"/>
  <path d="M6.25593 11.293H7.23877V12.2758H6.25593V11.293Z" fill="currentColor"/>
  <path d="M6.25593 10.3105H7.23877V11.2925H6.25593V10.3105Z" fill="currentColor"/>
  <path d="M6.25593 9.32959H7.23877V10.3124H6.25593V9.32959Z" fill="currentColor"/>
  <path d="M6.25593 8.3457H7.23877V9.32855H6.25593V8.3457Z" fill="currentColor"/>
  <path d="M6.25593 7.36377H7.23877V8.34661H6.25593V7.36377Z" fill="currentColor"/>
  <path d="M6.25593 6.38086H7.23877V7.3637H6.25593V6.38086Z" fill="currentColor"/>
  <path d="M6.25593 5.39844H7.23877V6.38128H6.25593V5.39844Z" fill="currentColor"/>
  <path d="M6.25593 3.43359H7.23877V4.41644H6.25593V3.43359Z" fill="currentColor"/>
  <path d="M6.25593 2.45117H7.23877V3.43402H6.25593V2.45117Z" fill="currentColor"/>
  <path d="M6.25593 1.46826H7.23877V2.45111H6.25593V1.46826Z" fill="currentColor"/>
  <path d="M7.23878 12.2759H8.2207V13.2587H7.23878V12.2759Z" fill="currentColor"/>
  <path d="M7.23878 11.293H8.2207V12.2758H7.23878V11.293Z" fill="currentColor"/>
  <path d="M7.23878 10.3105H8.2207V11.2925H7.23878V10.3105Z" fill="currentColor"/>
  <path d="M7.23878 9.32959H8.2207V10.3124H7.23878V9.32959Z" fill="currentColor"/>
  <path d="M7.23878 3.43359H8.2207V4.41644H7.23878V3.43359Z" fill="currentColor"/>
  <path d="M12.6378 4.68457H13.752V6.71591H12.6378V4.68457Z" fill="currentColor"/>
  <path d="M9.56677 4.68457H10.6809V6.71591H9.56677V4.68457Z" fill="currentColor"/>
  <path d="M11.9678 8.9502H12.9497V9.93304H11.9678V8.9502Z" fill="currentColor"/>
  <path d="M12.5835 7.96826H13.5654V8.95111H12.5835V7.96826Z" fill="currentColor"/>
  <path d="M9.34889 7.96826H10.3308V8.95111H9.34889V7.96826Z" fill="currentColor"/>
  <path d="M10.0266 8.9502H11.0085V9.93304H10.0266V8.9502Z" fill="currentColor"/>
  <path d="M10.9861 9.32959H11.968V10.3124H10.9861V9.32959Z" fill="currentColor"/>
  <path d="M7.23878 2.45117H8.2207V3.43402H7.23878V2.45117Z" fill="currentColor"/>
  <path d="M7.23878 1.46826H8.2207V2.45111H7.23878V1.46826Z" fill="currentColor"/>
  <path d="M7.23878 0.48584H8.2207V1.46868H7.23878V0.48584Z" fill="currentColor"/>
  <path d="M8.21955 12.2759H9.20239V13.2587H8.21955V12.2759Z" fill="currentColor"/>
  <path d="M8.21955 11.293H9.20239V12.2758H8.21955V11.293Z" fill="currentColor"/>
  <path d="M8.21955 1.46826H9.20239V2.45111H8.21955V1.46826Z" fill="currentColor"/>
  <path d="M8.21955 0.48584H9.20239V1.46868H8.21955V0.48584Z" fill="currentColor"/>
  <path d="M9.2027 12.2759H10.1855V13.2587H9.2027V12.2759Z" fill="currentColor"/>
  <path d="M9.2027 0.48584H10.1855V1.46868H9.2027V0.48584Z" fill="currentColor"/>
  <path d="M11.1678 12.2759H12.1506V13.2587H11.1678V12.2759Z" fill="currentColor"/>
  <path d="M11.1678 0.48584H12.1506V1.46868H11.1678V0.48584Z" fill="currentColor"/>
  <path d="M10.1856 12.2759H11.1685V13.2587H10.1856V12.2759Z" fill="currentColor"/>
  <path d="M10.1856 0.48584H11.1685V1.46868H10.1856V0.48584Z" fill="currentColor"/>
  <path d="M12.15 12.2759H13.1328V13.2587H12.15V12.2759Z" fill="currentColor"/>
  <path d="M12.15 0.48584H13.1328V1.46868H12.15V0.48584Z" fill="currentColor"/>
  <path d="M13.1324 11.293H14.1152V12.2758H13.1324V11.293Z" fill="currentColor"/>
  <path d="M13.1324 1.46826H14.1152V2.45111H13.1324V1.46826Z" fill="currentColor"/>
  <path d="M14.1146 10.3105H15.0974V11.2925H14.1146V10.3105Z" fill="currentColor"/>
  <path d="M14.1146 9.32959H15.0974V10.3124H14.1146V9.32959Z" fill="currentColor"/>
  <path d="M14.1146 3.43359H15.0974V4.41644H14.1146V3.43359Z" fill="currentColor"/>
  <path d="M14.1146 2.45117H15.0974V3.43402H14.1146V2.45117Z" fill="currentColor"/>
  <path d="M15.0977 8.3457H16.0806V9.32855H15.0977V8.3457Z" fill="currentColor"/>
  <path d="M15.0977 7.36377H16.0806V8.34661H15.0977V7.36377Z" fill="currentColor"/>
  <path d="M15.0977 6.38086H16.0806V7.3637H15.0977V6.38086Z" fill="currentColor"/>
  <path d="M15.0977 5.39844H16.0806V6.38128H15.0977V5.39844Z" fill="currentColor"/>
  <path d="M4.2901 4.41504H5.27295V5.39788H4.2901V4.41504Z" fill="currentColor"/>
  <path d="M5.27301 4.41504H6.25586V5.39788H5.27301V4.41504Z" fill="currentColor"/>
  <path d="M6.25593 4.41504H7.23877V5.39788H6.25593V4.41504Z" fill="currentColor"/>
  <path d="M15.0977 4.41504H16.0806V5.39788H15.0977V4.41504Z" fill="currentColor"/>
  <path d="M17.4067 2.4624H18.395V11.2815H17.4067V2.4624Z" fill="black"/>
  <path d="M18.3942 4.41309H19.3826V9.32946H18.3942V4.41309Z" fill="black"/>
  <path d="M11.5269 0.485352H17.4316V13.2578H11.5269V0.485352Z" fill="black"/>
  <path d="M8.58063 8.34521H9.56348V9.32806H8.58063V8.34521Z" fill="currentColor"/>
  <path d="M8.58063 7.36328H9.56348V8.34613H8.58063V7.36328Z" fill="currentColor"/>
  <path d="M8.58063 6.38037H9.56348V7.36322H8.58063V6.38037Z" fill="currentColor"/>
  <path d="M8.58063 5.39795H9.56348V6.38079H8.58063V5.39795Z" fill="currentColor"/>
  <path d="M9.56354 10.3101H10.5464V11.292H9.56354V10.3101Z" fill="currentColor"/>
  <path d="M9.56354 9.3291H10.5464V10.3119H9.56354V9.3291Z" fill="currentColor"/>
  <path d="M9.56354 8.34521H10.5464V9.32806H9.56354V8.34521Z" fill="currentColor"/>
  <path d="M9.56354 7.36328H10.5464V8.34613H9.56354V7.36328Z" fill="currentColor"/>
  <path d="M9.56354 6.38037H10.5464V7.36322H9.56354V6.38037Z" fill="currentColor"/>
  <path d="M9.56354 5.39795H10.5464V6.38079H9.56354V5.39795Z" fill="currentColor"/>
  <path d="M9.56354 3.43311H10.5464V4.41595H9.56354V3.43311Z" fill="currentColor"/>
  <path d="M9.56354 2.45068H10.5464V3.43353H9.56354V2.45068Z" fill="currentColor"/>
  <path d="M10.5465 11.2925H11.5293V12.2753H10.5465V11.2925Z" fill="currentColor"/>
  <path d="M10.5465 10.3101H11.5293V11.292H10.5465V10.3101Z" fill="currentColor"/>
  <path d="M10.5465 9.3291H11.5293V10.3119H10.5465V9.3291Z" fill="currentColor"/>
  <path d="M10.5465 8.34521H11.5293V9.32806H10.5465V8.34521Z" fill="currentColor"/>
  <path d="M10.5465 7.36328H11.5293V8.34613H10.5465V7.36328Z" fill="currentColor"/>
  <path d="M10.5465 6.38037H11.5293V7.36322H10.5465V6.38037Z" fill="currentColor"/>
  <path d="M10.5465 5.39795H11.5293V6.38079H10.5465V5.39795Z" fill="currentColor"/>
  <path d="M10.5465 3.43311H11.5293V4.41595H10.5465V3.43311Z" fill="currentColor"/>
  <path d="M10.5465 2.45068H11.5293V3.43353H10.5465V2.45068Z" fill="currentColor"/>
  <path d="M10.5465 1.46777H11.5293V2.45062H10.5465V1.46777Z" fill="currentColor"/>
  <path d="M11.5293 12.2754H12.5112V13.2582H11.5293V12.2754Z" fill="currentColor"/>
  <path d="M11.5293 11.2925H12.5112V12.2753H11.5293V11.2925Z" fill="currentColor"/>
  <path d="M11.5293 10.3101H12.5112V11.292H11.5293V10.3101Z" fill="currentColor"/>
  <path d="M11.5293 9.3291H12.5112V10.3119H11.5293V9.3291Z" fill="currentColor"/>
  <path d="M11.5293 3.43311H12.5112V4.41595H11.5293V3.43311Z" fill="currentColor"/>
  <path d="M16.9281 4.68408H18.0422V6.71542H16.9281V4.68408Z" fill="currentColor"/>
  <path d="M13.8571 4.68408H14.9712V6.71542H13.8571V4.68408Z" fill="currentColor"/>
  <path d="M16.2583 8.94971H17.2402V9.93255H16.2583V8.94971Z" fill="currentColor"/>
  <path d="M16.8738 7.96777H17.8557V8.95062H16.8738V7.96777Z" fill="currentColor"/>
  <path d="M13.6392 7.96777H14.6211V8.95062H13.6392V7.96777Z" fill="currentColor"/>
  <path d="M14.3172 8.94971H15.2991V9.93255H14.3172V8.94971Z" fill="currentColor"/>
  <path d="M15.2764 9.3291H16.2583V10.3119H15.2764V9.3291Z" fill="currentColor"/>
  <path d="M11.5293 2.45068H12.5112V3.43353H11.5293V2.45068Z" fill="currentColor"/>
  <path d="M11.5293 1.46777H12.5112V2.45062H11.5293V1.46777Z" fill="currentColor"/>
  <path d="M11.5293 0.485352H12.5112V1.4682H11.5293V0.485352Z" fill="currentColor"/>
  <path d="M12.5098 12.2754H13.4927V13.2582H12.5098V12.2754Z" fill="currentColor"/>
  <path d="M12.5098 11.2925H13.4927V12.2753H12.5098V11.2925Z" fill="currentColor"/>
  <path d="M12.5098 1.46777H13.4927V2.45062H12.5098V1.46777Z" fill="currentColor"/>
  <path d="M12.5098 0.485352H13.4927V1.4682H12.5098V0.485352Z" fill="currentColor"/>
  <path d="M13.493 12.2754H14.4758V13.2582H13.493V12.2754Z" fill="currentColor"/>
  <path d="M13.493 0.485352H14.4758V1.4682H13.493V0.485352Z" fill="currentColor"/>
  <path d="M15.4581 12.2754H16.4409V13.2582H15.4581V12.2754Z" fill="currentColor"/>
  <path d="M15.4581 0.485352H16.4409V1.4682H15.4581V0.485352Z" fill="currentColor"/>
  <path d="M14.4759 12.2754H15.4587V13.2582H14.4759V12.2754Z" fill="currentColor"/>
  <path d="M14.4759 0.485352H15.4587V1.4682H14.4759V0.485352Z" fill="currentColor"/>
  <path d="M16.4405 12.2754H17.4233V13.2582H16.4405V12.2754Z" fill="currentColor"/>
  <path d="M16.4405 0.485352H17.4233V1.4682H16.4405V0.485352Z" fill="currentColor"/>
  <path d="M17.4227 11.2925H18.4055V12.2753H17.4227V11.2925Z" fill="currentColor"/>
  <path d="M17.4227 1.46777H18.4055V2.45062H17.4227V1.46777Z" fill="currentColor"/>
  <path d="M18.4049 10.3101H19.3877V11.292H18.4049V10.3101Z" fill="currentColor"/>
  <path d="M18.4049 9.3291H19.3877V10.3119H18.4049V9.3291Z" fill="currentColor"/>
  <path d="M18.4049 3.43311H19.3877V4.41595H18.4049V3.43311Z" fill="currentColor"/>
  <path d="M18.4049 2.45068H19.3877V3.43353H18.4049V2.45068Z" fill="currentColor"/>
  <path d="M19.388 8.34521H20.3708V9.32806H19.388V8.34521Z" fill="currentColor"/>
  <path d="M19.388 7.36328H20.3708V8.34613H19.388V7.36328Z" fill="currentColor"/>
  <path d="M19.388 6.38037H20.3708V7.36322H19.388V6.38037Z" fill="currentColor"/>
  <path d="M19.388 5.39795H20.3708V6.38079H19.388V5.39795Z" fill="currentColor"/>
  <path d="M8.58063 4.41455H9.56348V5.3974H8.58063V4.41455Z" fill="currentColor"/>
  <path d="M9.56354 4.41455H10.5464V5.3974H9.56354V4.41455Z" fill="currentColor"/>
  <path d="M10.5465 4.41455H11.5293V5.3974H10.5465V4.41455Z" fill="currentColor"/>
  <path d="M19.388 4.41455H20.3708V5.3974H19.388V4.41455Z" fill="currentColor"/>
</svg>