<svg width="52" height="56" viewBox="0 0 52 56" fill="none" xmlns="http://www.w3.org/2000/svg">
<path d="M38.3461 6.74855L37.6586 6.0611H36.6864H22.6038H21.6316L20.9442 6.74855L17.4235 10.2692L17.1542 10.5385L16.9838 10.8792L13.4632 17.9205L13.2154 18.4161V18.9702V36.5734V37.1275L13.4632 37.6231L16.9838 44.6644L17.1542 45.0051L17.4235 45.2744L20.9442 48.7951L21.6316 49.4825H22.6038H36.6864H37.6586L38.3461 48.7951L41.8667 45.2744L42.1361 45.0051L42.3064 44.6644L45.8271 37.6231L46.0748 37.1275V36.5734V18.9702V18.4161L45.8271 17.9205L42.3064 10.8792L42.1361 10.5385L41.8667 10.2692L38.3461 6.74855Z" fill="black" stroke="black" stroke-width="4.69421"/>
<mask id="path-2-outside-1_3045_60734" maskUnits="userSpaceOnUse" x="0.25" y="0" width="52" height="56" fill="black">
<rect fill="white" x="0.25" width="52" height="56"/>
<path fill-rule="evenodd" clip-rule="evenodd" d="M8.52246 12.0418V19.0835V19.0857H5.00158V36.6901H8.52246V43.7297H12.0433V47.2506H15.5642V50.7715H36.6873V47.2877H40.2082V43.7472H43.7291V36.688H47.25V19.0835H43.7291V12.0418H40.2082V8.50342H36.6873V5H15.5642V8.52088H12.0433V12.0418H8.52246ZM15.5642 22.6066V22.6044V19.0857H19.0829V12.0439H22.6038V8.52307H36.6873V12.0658H40.2082V19.101H43.7291V36.677H40.2082V43.7275H36.6873V47.2484H22.6038V43.7275H19.0829V36.688H15.5642V22.6066ZM38.9082 20.0499H34.9158V27.3296H38.9082V20.0499ZM27.9004 20.0499H23.908V27.3296H27.9004V20.0499ZM26.6451 35.3338H29.0746V36.6871H32.5125V35.3338H34.7215V31.8129H38.2402V35.3338H36.0312V38.8546H32.5125V40.208H28.9938V38.8546H25.5537V35.3338H23.1286V31.8129H26.6451V35.3338Z"/>
</mask>
<path fill-rule="evenodd" clip-rule="evenodd" d="M8.52246 12.0418V19.0835V19.0857H5.00158V36.6901H8.52246V43.7297H12.0433V47.2506H15.5642V50.7715H36.6873V47.2877H40.2082V43.7472H43.7291V36.688H47.25V19.0835H43.7291V12.0418H40.2082V8.50342H36.6873V5H15.5642V8.52088H12.0433V12.0418H8.52246ZM15.5642 22.6066V22.6044V19.0857H19.0829V12.0439H22.6038V8.52307H36.6873V12.0658H40.2082V19.101H43.7291V36.677H40.2082V43.7275H36.6873V47.2484H22.6038V43.7275H19.0829V36.688H15.5642V22.6066ZM38.9082 20.0499H34.9158V27.3296H38.9082V20.0499ZM27.9004 20.0499H23.908V27.3296H27.9004V20.0499ZM26.6451 35.3338H29.0746V36.6871H32.5125V35.3338H34.7215V31.8129H38.2402V35.3338H36.0312V38.8546H32.5125V40.208H28.9938V38.8546H25.5537V35.3338H23.1286V31.8129H26.6451V35.3338Z" fill="currentColor"/>
<path d="M8.52246 12.0418H3.82826V7.34756H8.52246V12.0418ZM8.52246 19.0857H13.2167V23.7799H8.52246V19.0857ZM5.00158 19.0857H0.307373V14.3915H5.00158V19.0857ZM5.00158 36.6901V41.3843H0.307373V36.6901H5.00158ZM8.52246 36.6901V31.9959H13.2167V36.6901H8.52246ZM8.52246 43.7297V48.4239H3.82826V43.7297H8.52246ZM12.0433 43.7297V39.0355H16.7376V43.7297H12.0433ZM12.0433 47.2506V51.9448H7.34914V47.2506H12.0433ZM15.5642 47.2506V42.5564H20.2584V47.2506H15.5642ZM15.5642 50.7715V55.4657H10.87V50.7715H15.5642ZM36.6873 50.7715H41.3816V55.4657H36.6873V50.7715ZM36.6873 47.2877H31.9931V42.5935H36.6873V47.2877ZM40.2082 47.2877H44.9024V51.9819H40.2082V47.2877ZM40.2082 43.7472H35.514V39.053H40.2082V43.7472ZM43.7291 43.7472H48.4233V48.4414H43.7291V43.7472ZM43.7291 36.688H39.0349V31.9937H43.7291V36.688ZM47.25 36.688H51.9442V41.3822H47.25V36.688ZM47.25 19.0835V14.3893H51.9442V19.0835H47.25ZM43.7291 19.0835V23.7777H39.0349V19.0835H43.7291ZM43.7291 12.0418V7.34756H48.4233V12.0418H43.7291ZM40.2082 12.0418V16.736H35.514V12.0418H40.2082ZM40.2082 8.50342V3.80921H44.9024V8.50342H40.2082ZM36.6873 8.50342V13.1976H31.9931V8.50342H36.6873ZM36.6873 5V0.305792H41.3816V5H36.6873ZM15.5642 5H10.87V0.305792H15.5642V5ZM15.5642 8.52088H20.2584V13.2151H15.5642V8.52088ZM12.0433 8.52088H7.34914V3.82668H12.0433V8.52088ZM12.0433 12.0418H16.7376V16.736H12.0433V12.0418ZM15.5642 19.0857H10.87V14.3915H15.5642V19.0857ZM19.0829 19.0857H23.7771V23.7799H19.0829V19.0857ZM19.0829 12.0439H14.3887V7.34974H19.0829V12.0439ZM22.6038 12.0439H27.298V16.7382H22.6038V12.0439ZM22.6038 8.52307H17.9096V3.82886H22.6038V8.52307ZM36.6873 8.52307V3.82886H41.3816V8.52307H36.6873ZM36.6873 12.0658V16.76H31.9931V12.0658H36.6873ZM40.2082 12.0658V7.37157H44.9024V12.0658H40.2082ZM40.2082 19.101V23.7952H35.514V19.101H40.2082ZM43.7291 19.101V14.4068H48.4233V19.101H43.7291ZM43.7291 36.677H48.4233V41.3712H43.7291V36.677ZM40.2082 36.677H35.514V31.9828H40.2082V36.677ZM40.2082 43.7275H44.9024V48.4217H40.2082V43.7275ZM36.6873 43.7275H31.9931V39.0333H36.6873V43.7275ZM36.6873 47.2484H41.3816V51.9426H36.6873V47.2484ZM22.6038 47.2484V51.9426H17.9096V47.2484H22.6038ZM22.6038 43.7275V39.0333H27.298V43.7275H22.6038ZM19.0829 43.7275V48.4217H14.3887V43.7275H19.0829ZM19.0829 36.688V31.9937H23.7771V36.688H19.0829ZM15.5642 36.688V41.3822H10.87V36.688H15.5642ZM34.9158 20.0499H30.2216V15.3557H34.9158V20.0499ZM38.9082 20.0499V15.3557H43.6024V20.0499H38.9082ZM34.9158 27.3296V32.0238H30.2216V27.3296H34.9158ZM38.9082 27.3296H43.6024V32.0238H38.9082V27.3296ZM23.908 20.0499H19.2138V15.3557H23.908V20.0499ZM27.9004 20.0499V15.3557H32.5946V20.0499H27.9004ZM23.908 27.3296V32.0238H19.2138V27.3296H23.908ZM27.9004 27.3296H32.5946V32.0238H27.9004V27.3296ZM29.0746 35.3338V30.6395H33.7688V35.3338H29.0746ZM26.6451 35.3338V40.028H21.9509V35.3338H26.6451ZM29.0746 36.6871V41.3813H24.3804V36.6871H29.0746ZM32.5125 36.6871H37.2067V41.3813H32.5125V36.6871ZM32.5125 35.3338H27.8183V30.6395H32.5125V35.3338ZM34.7215 35.3338H39.4157V40.028H34.7215V35.3338ZM34.7215 31.8129H30.0273V27.1187H34.7215V31.8129ZM38.2402 31.8129V27.1187H42.9344V31.8129H38.2402ZM38.2402 35.3338H42.9344V40.028H38.2402V35.3338ZM36.0312 35.3338H31.337V30.6395H36.0312V35.3338ZM36.0312 38.8546H40.7254V43.5488H36.0312V38.8546ZM32.5125 38.8546H27.8183V34.1604H32.5125V38.8546ZM32.5125 40.208H37.2067V44.9022H32.5125V40.208ZM28.9938 40.208V44.9022H24.2996V40.208H28.9938ZM28.9938 38.8546V34.1604H33.688V38.8546H28.9938ZM25.5537 38.8546V43.5488H20.8595V38.8546H25.5537ZM25.5537 35.3338V30.6395H30.2479V35.3338H25.5537ZM23.1286 35.3338V40.028H18.4344V35.3338H23.1286ZM23.1286 31.8129H18.4344V27.1187H23.1286V31.8129ZM26.6451 31.8129V27.1187H31.3393V31.8129H26.6451ZM3.82826 19.0835V12.0418H13.2167V19.0835H3.82826ZM3.82826 19.0857V19.0835H13.2167V19.0857H3.82826ZM5.00158 14.3915H8.52246V23.7799H5.00158V14.3915ZM0.307373 36.6901V19.0857H9.69579V36.6901H0.307373ZM8.52246 41.3843H5.00158V31.9959H8.52246V41.3843ZM3.82826 43.7297V36.6901H13.2167V43.7297H3.82826ZM12.0433 48.4239H8.52246V39.0355H12.0433V48.4239ZM7.34914 47.2506V43.7297H16.7376V47.2506H7.34914ZM15.5642 51.9448H12.0433V42.5564H15.5642V51.9448ZM10.87 50.7715V47.2506H20.2584V50.7715H10.87ZM36.6873 55.4657H15.5642V46.0773H36.6873V55.4657ZM41.3816 47.2877V50.7715H31.9931V47.2877H41.3816ZM40.2082 51.9819H36.6873V42.5935H40.2082V51.9819ZM44.9024 43.7472V47.2877H35.514V43.7472H44.9024ZM43.7291 48.4414H40.2082V39.053H43.7291V48.4414ZM48.4233 36.688V43.7472H39.0349V36.688H48.4233ZM47.25 41.3822H43.7291V31.9937H47.25V41.3822ZM51.9442 19.0835V36.688H42.5558V19.0835H51.9442ZM43.7291 14.3893H47.25V23.7777H43.7291V14.3893ZM48.4233 12.0418V19.0835H39.0349V12.0418H48.4233ZM40.2082 7.34756H43.7291V16.736H40.2082V7.34756ZM44.9024 8.50342V12.0418H35.514V8.50342H44.9024ZM36.6873 3.80921H40.2082V13.1976H36.6873V3.80921ZM41.3816 5V8.50342H31.9931V5H41.3816ZM15.5642 0.305792H36.6873V9.69421H15.5642V0.305792ZM10.87 8.52088V5H20.2584V8.52088H10.87ZM12.0433 3.82668H15.5642V13.2151H12.0433V3.82668ZM7.34914 12.0418V8.52088H16.7376V12.0418H7.34914ZM8.52246 7.34756H12.0433V16.736H8.52246V7.34756ZM20.2584 22.6044V22.6066H10.87V22.6044H20.2584ZM20.2584 19.0857V22.6044H10.87V19.0857H20.2584ZM19.0829 23.7799H15.5642V14.3915H19.0829V23.7799ZM23.7771 12.0439V19.0857H14.3887V12.0439H23.7771ZM22.6038 16.7382H19.0829V7.34974H22.6038V16.7382ZM27.298 8.52307V12.0439H17.9096V8.52307H27.298ZM36.6873 13.2173H22.6038V3.82886H36.6873V13.2173ZM31.9931 12.0658V8.52307H41.3816V12.0658H31.9931ZM40.2082 16.76H36.6873V7.37157H40.2082V16.76ZM35.514 19.101V12.0658H44.9024V19.101H35.514ZM43.7291 23.7952H40.2082V14.4068H43.7291V23.7952ZM39.0349 36.677V19.101H48.4233V36.677H39.0349ZM40.2082 31.9828H43.7291V41.3712H40.2082V31.9828ZM35.514 43.7275V36.677H44.9024V43.7275H35.514ZM36.6873 39.0333H40.2082V48.4217H36.6873V39.0333ZM31.9931 47.2484V43.7275H41.3816V47.2484H31.9931ZM22.6038 42.5542H36.6873V51.9426H22.6038V42.5542ZM27.298 43.7275V47.2484H17.9096V43.7275H27.298ZM19.0829 39.0333H22.6038V48.4217H19.0829V39.0333ZM23.7771 36.688V43.7275H14.3887V36.688H23.7771ZM15.5642 31.9937H19.0829V41.3822H15.5642V31.9937ZM20.2584 22.6066V36.688H10.87V22.6066H20.2584ZM34.9158 15.3557H38.9082V24.7441H34.9158V15.3557ZM30.2216 27.3296V20.0499H39.61V27.3296H30.2216ZM38.9082 32.0238H34.9158V22.6354H38.9082V32.0238ZM43.6024 20.0499V27.3296H34.214V20.0499H43.6024ZM23.908 15.3557H27.9004V24.7441H23.908V15.3557ZM19.2138 27.3296V20.0499H28.6022V27.3296H19.2138ZM27.9004 32.0238H23.908V22.6354H27.9004V32.0238ZM32.5946 20.0499V27.3296H23.2062V20.0499H32.5946ZM29.0746 40.028H26.6451V30.6395H29.0746V40.028ZM24.3804 36.6871V35.3338H33.7688V36.6871H24.3804ZM32.5125 41.3813H29.0746V31.9929H32.5125V41.3813ZM37.2067 35.3338V36.6871H27.8183V35.3338H37.2067ZM34.7215 40.028H32.5125V30.6395H34.7215V40.028ZM39.4157 31.8129V35.3338H30.0273V31.8129H39.4157ZM38.2402 36.5071H34.7215V27.1187H38.2402V36.5071ZM33.546 35.3338V31.8129H42.9344V35.3338H33.546ZM36.0312 30.6395H38.2402V40.028H36.0312V30.6395ZM31.337 38.8546V35.3338H40.7254V38.8546H31.337ZM32.5125 34.1604H36.0312V43.5488H32.5125V34.1604ZM27.8183 40.208V38.8546H37.2067V40.208H27.8183ZM28.9938 35.5138H32.5125V44.9022H28.9938V35.5138ZM33.688 38.8546V40.208H24.2996V38.8546H33.688ZM25.5537 34.1604H28.9938V43.5488H25.5537V34.1604ZM30.2479 35.3338V38.8546H20.8595V35.3338H30.2479ZM23.1286 30.6395H25.5537V40.028H23.1286V30.6395ZM27.8228 31.8129V35.3338H18.4344V31.8129H27.8228ZM26.6451 36.5071H23.1286V27.1187H26.6451V36.5071ZM21.9509 35.3338V31.8129H31.3393V35.3338H21.9509Z" fill="black" mask="url(#path-2-outside-1_3045_60734)"/>
</svg>
