<svg width="18" height="16" viewBox="0 0 18 16" fill="none" xmlns="http://www.w3.org/2000/svg">
<path id="Ellipse 2" d="M18 7C18 8.51231 17.6189 10.0002 16.8919 11.3264C16.1649 12.6525 15.1155 13.774 13.8406 14.5874C12.5656 15.4008 11.1063 15.8798 9.59727 15.9802C8.08829 16.0805 6.57835 15.799 5.20691 15.1616C3.83546 14.5243 2.64675 13.5516 1.75054 12.3334C0.854343 11.1153 0.279557 9.6909 0.0792741 8.19191C-0.121009 6.69292 0.0596709 5.16762 0.604625 3.7569C1.14958 2.34619 2.04123 1.09554 3.19723 0.120471L6.10874 3.57224C5.53276 4.05807 5.08848 4.68121 4.81696 5.38411C4.54543 6.08701 4.45541 6.84699 4.5552 7.59388C4.65499 8.34076 4.94138 9.05045 5.38792 9.65741C5.83446 10.2644 6.42674 10.749 7.11007 11.0666C7.7934 11.3842 8.54574 11.5244 9.29759 11.4744C10.0495 11.4244 10.7766 11.1857 11.4118 10.7805C12.0471 10.3752 12.57 9.81638 12.9322 9.15564C13.2944 8.49489 13.4843 7.75352 13.4843 7H18Z" fill="url(#paint0_angular_1142_29311)"/>
<defs>
<radialGradient id="paint0_angular_1142_29311" cx="0" cy="0" r="1" gradientUnits="userSpaceOnUse" gradientTransform="translate(9 7) scale(9)">
<stop stop-color="white"/>
<stop offset="0.0547355" stop-color="white" stop-opacity="0.909528"/>
<stop offset="0.605" stop-color="white" stop-opacity="0"/>
<stop offset="1" stop-color="white" stop-opacity="0"/>
</radialGradient>
</defs>
</svg>
