<svg width="11" height="16" viewBox="0 0 11 16" fill="none" xmlns="http://www.w3.org/2000/svg">
<path id="Union" fill-rule="evenodd" clip-rule="evenodd" d="M4.38477 0H5.84731V1.46671V1.46672V3.14755V3.14774V4.82859H4.38686V4.82996H5.84731V6.70439H4.38477V4.8433H2.92432V2.673H4.38477V1.46672V1.46671V0ZM4.38686 12.0499H5.84731V13.5163V13.5166V15.1973H4.38477V13.5166V13.5163V12.5963H2.92432V10.4261H4.38477V10.153V10.1528V8.56503H5.84731V10.1528V10.153V12.0492H4.38686V12.0499ZM7.31069 4.65826V5.12885H8.7726V6.70456H10.234V8.56541H8.7726V10.1407H7.31069V10.6118V10.612V12.5971H5.84814V10.612V10.6118V8.62792V8.62671V6.64267H7.31006V6.64254H5.84814V4.65826V4.65729V2.673H7.31069V4.65729V4.65826ZM7.31069 6.79943H8.77148V6.79947H7.31069V6.79943ZM8.77148 8.47009V8.47005H7.31069V8.47009H8.77148ZM2.92543 5.12885H1.46289V6.70429H2.92543V5.12885ZM0 6.70456H1.46254V8.56541H0V6.70456ZM2.92543 8.56503H1.46289V10.1405H2.92543V8.56503Z" fill="white"/>
</svg>
