<svg xmlns="http://www.w3.org/2000/svg" width="18" height="26" viewBox="0 0 18 26" fill="none">
  <path d="M10.3762 0.576172H7.92944V3.02994H10.3762V0.576172Z" fill="#FF64AE"/>
  <path d="M10.3762 20.7344H7.92944V23.1882H10.3762V20.7344Z" fill="#FF64AE"/>
  <path d="M10.3762 3.03033H7.92944V5.84264H10.3762V3.03033Z" fill="#FF64AE"/>
  <path d="M10.3762 5.8421H7.92944V8.65441H10.3762V5.8421Z" fill="#FF64AE"/>
  <path d="M10.3762 8.65646H7.92944V11.7923H10.3762V8.65646Z" fill="#FF64AE"/>
  <path d="M12.823 8.36804H10.3762V11.6893H12.823V8.36804Z" fill="#FF64AE"/>
  <path d="M12.823 5.04855H10.3762V8.3698H12.823V5.04855Z" fill="#FF64AE"/>
  <path d="M12.823 11.6888H10.3762V15.0101H12.823V11.6888Z" fill="#FF64AE"/>
  <path d="M12.823 15.0083H10.3762V18.3296H12.823V15.0083Z" fill="#FF64AE"/>
  <path d="M15.2678 14.7463H12.821V17.5411H15.2678V14.7463Z" fill="#FF64AE"/>
  <path d="M15.2678 11.9513H12.821V14.7461H15.2678V11.9513Z" fill="#FF64AE"/>
  <path d="M17.7146 11.7919H15.2678V14.905H17.7146V11.7919Z" fill="#FF64AE"/>
  <path d="M15.2678 9.15674H12.821V11.9516H15.2678V9.15674Z" fill="#FF64AE"/>
  <path d="M7.93164 5.04855H5.48486V8.67937H7.93164V5.04855Z" fill="#FF64AE"/>
  <path d="M5.48462 9.15674H3.03784V11.7924H5.48462V9.15674Z" fill="#FF64AE"/>
  <path d="M3.03955 11.7919H0.592773V14.905H3.03955V11.7919Z" fill="#FF64AE"/>
  <path d="M5.48462 14.9053H3.03784V17.541H5.48462V14.9053Z" fill="#FF64AE"/>
  <path d="M10.3762 14.9053H7.92944V17.562H10.3762V14.9053Z" fill="#FF64AE"/>
  <path d="M10.3762 17.562H7.92944V20.7346H10.3762V17.562Z" fill="#FF64AE"/>
  <path d="M10.3762 23.1882H7.92944V26.0005H10.3762V23.1882Z" fill="#FF64AE"/>
  <path d="M12.823 18.3296H10.3762V21.6508H12.823V18.3296Z" fill="#FF64AE"/>
  <path d="M7.93164 18.0187H5.48486V21.6495H7.93164V18.0187Z" fill="#FF64AE"/>
</svg>