<svg width="18" height="18" viewBox="0 0 18 18" fill="none" xmlns="http://www.w3.org/2000/svg">
<path fill-rule="evenodd" clip-rule="evenodd" d="M16.6 9C16.6 13.1974 13.1974 16.6 9 16.6C4.80264 16.6 1.4 13.1974 1.4 9C1.4 4.80264 4.80264 1.4 9 1.4C13.1974 1.4 16.6 4.80264 16.6 9ZM18 9C18 13.9706 13.9706 18 9 18C4.02944 18 0 13.9706 0 9C0 4.02944 4.02944 0 9 0C13.9706 0 18 4.02944 18 9ZM8.61106 12.1943L13.9957 6.79427L13.0043 5.80573L8.13378 10.6902L5.01335 7.32411L3.98665 8.27589L7.60203 12.1759L8.09699 12.7098L8.61106 12.1943Z" fill="#29F863"/>
</svg>
