<svg xmlns="http://www.w3.org/2000/svg" width="14" height="24" viewBox="0 0 14 24" fill="none">
  <path fill-rule="evenodd" clip-rule="evenodd" d="M0 0.5H3.28575V3.78575H0V0.5ZM3.28613 3.78613H6.57188V7.07188H3.28613V3.78613ZM3.28575 7.07129H0V10.357H3.28575V7.07129ZM6.57227 7.07129H9.85801V10.357H6.57227V7.07129ZM6.57188 10.3574H3.28613V13.6432H6.57188V10.3574ZM9.85742 10.3574H13.1432V13.6432H9.85742V10.3574ZM3.28575 13.6436H0V16.9293H3.28575V13.6436ZM6.57227 13.6436H9.85801V16.9293H6.57227V13.6436ZM6.57188 16.9287H3.28613V20.2145H6.57188V16.9287ZM0 20.2148H3.28575V23.5006H0V20.2148Z" fill="#39FF9B"/>
</svg>