<svg width="54" height="45" viewBox="0 0 54 45" fill="none" xmlns="http://www.w3.org/2000/svg">
<path fill-rule="evenodd" clip-rule="evenodd" d="M26.7148 45L18.2863 45L18.2863 36.5715L26.7148 36.5715L26.7148 45ZM26.7148 8.4287L18.2863 8.4287L18.2863 0.000197627L26.7148 0.000198364L26.7148 8.4287ZM9.14299 35.8573L17.5715 35.8573L17.5715 27.4288L9.14299 27.4288L9.14299 35.8573ZM17.5715 17.5717L9.14299 17.5717L9.14299 9.1432L17.5715 9.1432L17.5715 17.5717ZM-0.000356983 26.7144L8.42815 26.7144L8.42815 18.2859L-0.000356246 18.2859L-0.000356983 26.7144Z" fill="#EAC641"/>
<path fill-rule="evenodd" clip-rule="evenodd" d="M53.4297 45L45.0012 45L45.0012 36.5715L53.4297 36.5715L53.4297 45ZM53.4297 8.4287L45.0012 8.4287L45.0012 0.000197627L53.4297 0.000198364L53.4297 8.4287ZM35.8578 35.8573L44.2863 35.8573L44.2863 27.4288L35.8578 27.4288L35.8578 35.8573ZM44.2863 17.5717L35.8578 17.5717L35.8578 9.1432L44.2863 9.1432L44.2863 17.5717ZM26.7145 26.7144L35.143 26.7144L35.143 18.2859L26.7145 18.2859L26.7145 26.7144Z" fill="#EAC641"/>
</svg>
