<svg xmlns="http://www.w3.org/2000/svg" width="27" height="30" viewBox="0 0 27 30" fill="none">
  <path fill-rule="evenodd" clip-rule="evenodd" d="M6.72559 0H20.1749V2.24175L22.4166 2.24176V4.48351L24.6578 4.48352V8.96704L26.9 8.96704V20.1764H24.6582L24.6578 24.6579H22.4166V26.8998H20.1749V29.1415H6.72559V26.8998L4.4834 26.8998V24.658L2.24219 24.6579V20.1758L0 20.1764V8.96704L2.24219 8.96704V4.48352L4.4834 4.48351V2.24176L6.72559 2.24175V0ZM15.6987 4.48347L17.9409 4.48347V8.96699H20.1812L20.1811 20.1757H17.9409V24.6579L15.6987 24.658V26.8997H6.73188L6.73145 24.658H4.48969L4.49023 20.1757H2.24848V8.96699H4.49023L4.48969 4.48347H6.73145L6.73188 2.2417L15.6987 2.24171V4.48347ZM9.23452 6.57077H13.2345V11.5708H9.23452V6.57077ZM9.23452 13.5708H13.2345V22.5708H9.23452V13.5708Z" fill="white"/>
</svg>