<svg width="43" height="43" viewBox="0 0 43 43" fill="none" xmlns="http://www.w3.org/2000/svg">
<path d="M1.77905 38.0312L21.0291 4.78125L40.2791 38.0312H1.77905ZM7.81655 34.5312H34.2416L21.0291 11.7812L7.81655 34.5312ZM21.0291 32.7812C21.5249 32.7812 21.9408 32.6133 22.2768 32.2773C22.6128 31.9412 22.7802 31.5259 22.7791 31.0312C22.7791 30.5354 22.6111 30.1201 22.2751 29.7852C21.9391 29.4504 21.5237 29.2824 21.0291 29.2812C20.5332 29.2812 20.1179 29.4492 19.7831 29.7852C19.4482 30.1213 19.2802 30.5366 19.2791 31.0312C19.2791 31.5271 19.4471 31.943 19.7831 32.279C20.1191 32.615 20.5344 32.7824 21.0291 32.7812ZM19.2791 27.5312H22.7791V18.7812H19.2791V27.5312Z" fill="white"/>
</svg>
