<svg width="17" height="15" viewBox="0 0 17 15" fill="none" xmlns="http://www.w3.org/2000/svg">
<path d="M11.5871 10.8831L10.8354 12.1851L12.1374 12.9367L12.889 11.6348L11.5871 10.8831Z" fill="#2648EF"/>
<path d="M12.3391 9.58089L11.5874 10.8828L12.8893 11.6345L13.641 10.3326L12.3391 9.58089Z" fill="#2648EF"/>
<path d="M11.0373 8.8304L10.2856 10.1323L11.5876 10.884L12.3392 9.58207L11.0373 8.8304Z" fill="#2648EF"/>
<path d="M14.9426 11.0843L14.1909 12.3862L15.4928 13.1379L16.2445 11.836L14.9426 11.0843Z" fill="#2648EF"/>
<path d="M10.2854 10.1317L9.53369 11.4336L10.8356 12.1853L11.5873 10.8833L10.2854 10.1317Z" fill="#2648EF"/>
<path d="M12.1374 12.9354L11.3857 14.2373L12.6877 14.989L13.4393 13.687L12.1374 12.9354Z" fill="#2648EF"/>
<path d="M10.8357 12.1839L10.084 13.4858L11.3859 14.2375L12.1376 12.9356L10.8357 12.1839Z" fill="#2648EF"/>
<path d="M14.1911 12.3851L13.4395 13.687L14.7414 14.4387L15.493 13.1368L14.1911 12.3851Z" fill="#2648EF"/>
<path d="M13.6408 10.3333L12.8892 11.6353L14.1911 12.3869L14.9428 11.085L13.6408 10.3333Z" fill="#2648EF"/>
<path d="M13.09 8.27913L12.3384 9.58105L13.6403 10.3327L14.392 9.0308L13.09 8.27913Z" fill="#2648EF"/>
<path d="M11.7883 7.52816L11.0366 8.83008L12.3385 9.58174L13.0902 8.27982L11.7883 7.52816Z" fill="#2648EF"/>
<path d="M10.4865 6.7762L9.73486 8.07812L11.0368 8.82979L11.7885 7.52787L10.4865 6.7762Z" fill="#2648EF"/>
<path d="M14.3918 9.03157L13.6401 10.3335L14.9421 11.0852L15.6937 9.78324L14.3918 9.03157Z" fill="#2648EF"/>
<path d="M3.90446 9.0496L2.60254 9.80127L3.3542 11.1032L4.65613 10.3515L3.90446 9.0496Z" fill="#2648EF"/>
<path d="M4.65544 10.3514L3.35352 11.103L4.10518 12.405L5.4071 11.6533L4.65544 10.3514Z" fill="#2648EF"/>
<path d="M5.95769 9.5999L4.65576 10.3516L5.40743 11.6535L6.70935 10.9018L5.95769 9.5999Z" fill="#2648EF"/>
<path d="M2.0529 11.8548L0.750977 12.6064L1.50264 13.9084L2.80457 13.1567L2.0529 11.8548Z" fill="#2648EF"/>
<path d="M5.20671 8.29863L3.90479 9.05029L4.65645 10.3522L5.95838 9.60055L5.20671 8.29863Z" fill="#2648EF"/>
<path d="M1.85124 8.4998L0.549316 9.25146L1.30098 10.5534L2.6029 9.80172L1.85124 8.4998Z" fill="#2648EF"/>
<path d="M3.15349 7.74882L1.85156 8.50049L2.60323 9.80241L3.90515 9.05075L3.15349 7.74882Z" fill="#2648EF"/>
<path d="M1.30192 10.553L0 11.3047L0.751666 12.6066L2.05359 11.8549L1.30192 10.553Z" fill="#2648EF"/>
<path d="M3.35417 11.1033L2.05225 11.855L2.80391 13.1569L4.10583 12.4052L3.35417 11.1033Z" fill="#2648EF"/>
<path d="M5.40788 11.6536L4.10596 12.4053L4.85762 13.7072L6.15955 12.9555L5.40788 11.6536Z" fill="#2648EF"/>
<path d="M6.70866 10.9031L5.40674 11.6548L6.15841 12.9567L7.46033 12.205L6.70866 10.9031Z" fill="#2648EF"/>
<path d="M8.00993 10.1512L6.70801 10.9028L7.45967 12.2048L8.7616 11.4531L8.00993 10.1512Z" fill="#2648EF"/>
<path d="M4.10612 12.4046L2.8042 13.1562L3.55586 14.4582L4.85779 13.7065L4.10612 12.4046Z" fill="#2648EF"/>
<path d="M10.0849 3.11133H8.58154V4.61466H10.0849V3.11133Z" fill="#2648EF"/>
<path d="M8.58146 3.11133H7.07812V4.61466H8.58146V3.11133Z" fill="#2648EF"/>
<path d="M8.58146 4.61475H7.07812V6.11808H8.58146V4.61475Z" fill="#2648EF"/>
<path d="M8.58146 0.105469H7.07812V1.6088H8.58146V0.105469Z" fill="#2648EF"/>
<path d="M10.0849 4.61475H8.58154V6.11808H10.0849V4.61475Z" fill="#2648EF"/>
<path d="M11.5878 1.60791H10.0845V3.11124H11.5878V1.60791Z" fill="#2648EF"/>
<path d="M11.5878 3.11133H10.0845V4.61466H11.5878V3.11133Z" fill="#2648EF"/>
<path d="M10.0849 0.105469H8.58154V1.6088H10.0849V0.105469Z" fill="#2648EF"/>
<path d="M8.58146 1.60791H7.07812V3.11124H8.58146V1.60791Z" fill="#2648EF"/>
<path d="M7.07901 3.11133H5.57568V4.61466H7.07901V3.11133Z" fill="#2648EF"/>
<path d="M7.07901 4.61475H5.57568V6.11808H7.07901V4.61475Z" fill="#2648EF"/>
<path d="M7.07901 6.11719H5.57568V7.62052H7.07901V6.11719Z" fill="#2648EF"/>
<path d="M7.07901 1.60791H5.57568V3.11124H7.07901V1.60791Z" fill="#2648EF"/>
</svg>
