<svg width="254" height="20" viewBox="0 0 254 20" fill="none" xmlns="http://www.w3.org/2000/svg">
<rect x="4" width="246" height="4" fill="white"/>
<rect y="16" width="12" height="4" transform="rotate(-90 0 16)" fill="white"/>
<rect x="250" y="16" width="12" height="4" transform="rotate(-90 250 16)" fill="white"/>
<rect x="4" y="16" width="246" height="4" fill="white"/>
<rect x="43" y="7" width="6" height="6" fill="white"/>
<rect x="34" y="7" width="6" height="6" fill="white"/>
<rect x="25" y="7" width="6" height="6" fill="white"/>
<rect x="16" y="7" width="6" height="6" fill="white"/>
<rect x="7" y="7" width="6" height="6" fill="white"/>
<rect x="52" y="7" width="6" height="6" fill="white"/>
<rect x="61" y="7" width="6" height="6" fill="white"/>
<rect x="70" y="7" width="6" height="6" fill="white"/>
<rect x="79" y="7" width="6" height="6" fill="white"/>
<rect x="88" y="7" width="6" height="6" fill="white"/>
<rect x="97" y="7" width="6" height="6" fill="white"/>
<rect x="106" y="7" width="6" height="6" fill="white"/>
<rect x="115" y="7" width="6" height="6" fill="white"/>
<rect x="124" y="7" width="6" height="6" fill="white"/>
<rect x="133" y="7" width="6" height="6" fill="white"/>
<rect x="142" y="7" width="6" height="6" fill="white"/>
<rect x="151" y="7" width="6" height="6" fill="white"/>
<rect x="160" y="7" width="6" height="6" fill="white"/>
<rect x="169" y="7" width="6" height="6" fill="white"/>
<rect x="178" y="7" width="6" height="6" fill="white"/>
<rect x="187" y="7" width="6" height="6" fill="white"/>
<rect x="196" y="7" width="6" height="6" fill="white"/>
<rect x="205" y="7" width="6" height="6" fill="white"/>
<rect x="214" y="7" width="6" height="6" fill="white"/>
<rect x="223" y="7" width="6" height="6" fill="white"/>
<rect x="232" y="7" width="6" height="6" fill="white"/>
<rect x="241" y="7" width="6" height="6" fill="white"/>
</svg>
