<svg viewBox="0 0 252 273" fill="none" xmlns="http://www.w3.org/2000/svg">
<path fill-rule="evenodd" clip-rule="evenodd" d="M21.0003 42V84V84.013H0.000320435V189.013H21.0003V231H42.0003V252H63.0003V273H188.987V252.221H209.987V231.104H230.987V189H251.987V84H230.987V42H209.987V20.8958H188.987V0H63.0003V21H42.0003V42H21.0003ZM63.0003 105.013V105V84.013H83.9873V42.013H104.987V21.013H188.987V42.1432H209.987V84.1041H230.987V188.935H209.987V230.987H188.987V251.987H104.987V230.987H83.9873V189H63.0003V105.013ZM202.216 89.7548H178.404V133.174H202.216V89.7548ZM136.572 89.7548H112.76V133.174H136.572V89.7548ZM129.082 180.928H143.572V189H164.077V180.928H177.253V159.928H198.24V180.928H185.064V201.928H164.077V210H143.091V201.928H122.572V180.928H108.108V159.928H129.082V180.928Z" fill="white"/>
</svg>
