<svg width="216" height="233" viewBox="0 0 216 233" fill="none" xmlns="http://www.w3.org/2000/svg">
<path fill-rule="evenodd" clip-rule="evenodd" d="M18.8443 35.8462V71.6923V71.7034H0.921231V161.319H18.8443V197.154H36.7674V215.077H54.6905V233H162.218V215.266H180.141V197.243H198.064V161.308H215.987V71.6923H198.064V35.8462H180.141V17.8342H162.218V0H54.6905V17.9231H36.7674V35.8462H18.8443ZM54.6905 89.6265V89.6154V71.7034H72.6024V35.8573H90.5255V17.9342H162.218V35.9684H180.141V71.7812H198.064V161.252H180.141V197.143H162.218V215.066H90.5255V197.143H72.6024V161.308H54.6905V89.6265ZM173.509 76.6039H153.185V113.661H173.509V76.6039ZM117.483 76.6039H97.1595V113.661H117.483V76.6039ZM111.09 154.418H123.457V161.307H140.958V154.418H152.203V136.495H170.115V154.418H158.87V172.341H140.958V179.23H123.046V172.341H105.534V154.418H93.1888V136.495H111.09V154.418Z" fill="white"/>
</svg>
