<svg width="216" height="233" viewBox="0 0 216 233" fill="none" xmlns="http://www.w3.org/2000/svg">
<path fill-rule="evenodd" clip-rule="evenodd" d="M18.8444 35.8464V71.6925V71.7037H0.921277V161.319H18.8444V197.154H36.7674V215.077H54.6905V233H162.218V215.266H180.141V197.243H198.064V161.308H215.987V71.6925H198.064V35.8464H180.141V17.8344H162.218V0.000244141H54.6905V17.9233H36.7674V35.8464H18.8444ZM54.6905 89.6267V89.6156V71.7037H72.6025V35.8575H90.5255V17.9344H162.218V35.9686H180.141V71.7814H198.064V161.252H180.141V197.143H162.218V215.066H90.5255V197.143H72.6025V161.308H54.6905V89.6267ZM176.738 96.4435H148.573V109.246H176.738V96.4435ZM117.848 96.4435H89.6831V109.246H117.848V96.4435ZM111.09 154.418H123.457V161.308H140.958V154.418H152.203V136.495H170.115V154.418H158.87V172.341H140.958V179.231H123.046V172.341H105.534V154.418H93.1889V136.495H111.09V154.418Z" fill="white"/>
</svg>
