<svg width="94" height="100" viewBox="0 0 94 100" fill="none" xmlns="http://www.w3.org/2000/svg">
<g id="Group 177855">
<path id="Union" fill-rule="evenodd" clip-rule="evenodd" d="M35.5072 0H57.971V6.52174H35.5072V0ZM21.7391 13.7681V6.52174H35.5072V13.7681H21.7391ZM7.24638 21.0145V13.7681H21.7391V21.0145H7.24638ZM21.7391 34.7826V28.2609H7.24638V21.0145L0 21.0145V78.9855H7.24638V86.2319L21.7391 86.2319V92.7536H35.5072V100H57.971V92.7536H71.7391V86.2319H86.2319V78.9855H93.4783V21.0145H86.2319V13.7681H71.7391V6.52174H57.971V13.7681H71.7391V21.0145L86.2319 21.0145V28.2609H71.7391V34.7826H57.971V42.029H71.7391V34.7826H86.2319V78.9855L71.7391 78.9855V86.2319H57.971V92.7536H50V50H57.971V42.7536H50H43.4783H35.5072V50H43.4783V92.7536H35.5072V86.2319H21.7391V78.9855H7.24638V34.7826H21.7391ZM21.7391 34.7826H35.5072V42.029H21.7391V34.7826ZM35.5217 20H29V27.2464H35.5217V20ZM45 29H51.5217V36.2464H45V29ZM50.5217 13H44V20.2464H50.5217V13ZM60 22H66.5217V29.2464H60V22ZM62.5217 51H56V58.2464H62.5217V51ZM65 60H71.5217V67.2464H65V60ZM62.5217 73H56V80.2464H62.5217V73ZM75 46H81.5217V52.5217H75V46ZM81.5217 67H75V74.2464H81.5217V67ZM28.2464 60H21V67.2464H28.2464V60ZM13 69H20.2464V76.2464H13V69ZM37.2464 52H30V59.2464H37.2464V52Z" fill="white"/>
</g>
</svg>
