<svg width="94" height="100" viewBox="0 0 94 100" fill="none" xmlns="http://www.w3.org/2000/svg">
<path fill-rule="evenodd" clip-rule="evenodd" d="M57.971 0H35.5072V6.52174H21.7391V13.7681H7.24638V21.0145L0 21.0145V78.9855H7.24638V86.2319L21.7391 86.2319V92.7536H35.5072V100H57.971V92.7536H71.7391V86.2319H86.2319V78.9855H93.4783V21.0145H86.2319V13.7681H71.7391V6.52174H57.971V0ZM57.971 6.52174V13.7681H71.7391V21.0145L86.2319 21.0145V28.2609H71.7391V34.7826H57.971V42.029H71.7391V34.7826H86.2319V78.9855L71.7391 78.9855V86.2319H57.971V92.7536H50V50H57.971V42.7536H50H43.4783H35.5072V50H43.4783V92.7536H35.5072V86.2319H21.7391V78.9855H7.24638V34.7826H21.7391V42.029H35.5072V34.7826H21.7391V28.2609H7.24638V21.0145H21.7391V13.7681H35.5072V6.52174H57.971ZM43.4783 21.0145H50V28.2609H43.4783V21.0145ZM21.7391 50H14.4928V57.2464H21.7391V50ZM28.9855 71.7391H35.5072V78.9855H28.9855V71.7391ZM65.2174 57.2464H58.6957V64.4928H65.2174V57.2464ZM58.6957 71.7391H65.2174V78.9855H58.6957V71.7391ZM79.7101 50H73.1884V56.5217H79.7101V50ZM73.1884 64.4928H79.7101V71.7391H73.1884V64.4928Z" fill="white"/>
</svg>
